<svg width="14" height="18" viewBox="0 0 14 18" fill="none" xmlns="http://www.w3.org/2000/svg"><path d="M11.6895 9.35742C11.6523 9.80273 11.7266 10.248 11.9492 10.6934C12.2832 11.6211 12.9512 12.3262 13.9531 12.7715C13.6562 13.7363 13.1738 14.627 12.5801 15.4805C11.7637 16.5938 10.9473 17.1875 10.168 17.1875C9.79688 17.1875 9.35156 17.0762 8.83203 16.8535C8.23828 16.6309 7.71875 16.5195 7.31055 16.5195C6.86523 16.5195 6.3457 16.668 5.71484 16.8906C5.19531 17.1133 4.78711 17.1875 4.52734 17.1875C3.9707 17.2246 3.37695 16.9277 2.7832 16.2969C2.30078 15.8516 1.81836 15.1836 1.37305 14.3672C1.00195 13.6992 0.705078 13.1055 0.519531 12.5488C0.148438 11.5098 0 10.5078 0 9.54297C0 8.50391 0.185547 7.57617 0.630859 6.79688C1.00195 6.0918 1.52148 5.53516 2.18945 5.16406C2.85742 4.79297 3.52539 4.60742 4.26758 4.57031C4.63867 4.57031 5.26953 4.71875 6.08594 5.01562C6.60547 5.23828 6.93945 5.3125 7.08789 5.3125C7.23633 5.3125 7.5332 5.23828 8.01562 5.05273C8.46094 4.9043 8.83203 4.75586 9.12891 4.68164C9.57422 4.57031 10.0195 4.5332 10.3906 4.5332C11.8008 4.68164 12.8398 5.23828 13.5449 6.20312C12.2832 6.94531 11.6523 8.02148 11.6895 9.35742ZM9.57422 3.23438V3.27148C8.75781 4.19922 7.9043 4.60742 7.01367 4.5332C6.90234 3.56836 7.19922 2.67773 7.94141 1.86133C8.23828 1.52734 8.60938 1.23047 9.0918 0.970703C9.53711 0.748047 10.0195 0.599609 10.4648 0.5625C10.5391 1.56445 10.2422 2.45508 9.57422 3.23438Z"/></svg>