<svg width="135" height="40" viewBox="0 0 135 40" fill="none" xmlns="http://www.w3.org/2000/svg"><path d="M130 40H5C2.25 40 0 37.75 0 35V5C0 2.25 2.25 0 5 0H130C132.75 0 135 2.25 135 5V35C135 37.75 132.75 40 130 40Z" fill="#000"/><path d="M130 0.8C132.32 0.8 134.2 2.68 134.2 5V35C134.2 37.32 132.32 39.2 130 39.2H5C2.68 39.2 0.8 37.32 0.8 35V5C0.8 2.68 2.68 0.8 5 0.8H130ZM130 0H5C2.25 0 0 2.25 0 5V35C0 37.75 2.25 40 5 40H130C132.75 40 135 37.75 135 35V5C135 2.25 132.75 0 130 0Z" fill="#A6A6A6"/><path d="M24.7863 20.3001C24.8063 18.6001 25.6963 17.0401 27.1463 16.1501C26.2263 14.8401 24.7463 14.0401 23.1563 13.9901C21.4763 13.8101 19.8463 14.9901 18.9963 14.9901C18.1263 14.9901 16.8063 14.0001 15.3863 14.0301C13.5163 14.0901 11.8263 15.1301 10.9163 16.7601C8.98634 20.1101 10.4263 25.0301 12.2763 27.7401C13.2063 29.0701 14.2863 30.5501 15.7063 30.4901C17.0963 30.4301 17.6163 29.6101 19.2863 29.6101C20.9463 29.6101 21.4263 30.4901 22.8763 30.4601C24.3663 30.4401 25.3063 29.1301 26.1963 27.7901C26.8663 26.8501 27.3763 25.8001 27.7163 24.7001C25.9363 23.9501 24.7863 22.2201 24.7863 20.3001Z" fill="#fff"/><path d="M22.0565 12.21C22.8665 11.24 23.2665 9.97997 23.1665 8.71997C21.9265 8.84997 20.7765 9.43997 19.9565 10.38C19.1465 11.3 18.7365 12.51 18.8165 13.74C20.0765 13.75 21.2665 13.19 22.0565 12.21Z" fill="#fff"/><path d="M41.87 27.14H37.14L36 30.5H34L38.48 18.08H40.56L45.04 30.5H43L41.87 27.14ZM37.63 25.59H41.38L39.53 20.14H39.48L37.63 25.59Z" fill="#fff"/><path d="M54.7292 25.97C54.7292 28.78 53.2192 30.59 50.9492 30.59C49.7792 30.65 48.6692 30.04 48.0992 29.01H48.0592V33.49H46.1992V21.44H47.9992V22.95H48.0292C48.6192 21.93 49.7292 21.31 50.9092 21.35C53.2192 21.35 54.7292 23.16 54.7292 25.97ZM52.8192 25.97C52.8192 24.14 51.8692 22.93 50.4292 22.93C49.0092 22.93 48.0492 24.16 48.0492 25.97C48.0492 27.79 49.0092 29.02 50.4292 29.02C51.8692 29.02 52.8192 27.82 52.8192 25.97Z" fill="#fff"/><path d="M64.6899 25.97C64.6899 28.78 63.1799 30.59 60.9099 30.59C59.7399 30.65 58.6299 30.04 58.0599 29.01H58.0199V33.49H56.1699V21.44H57.9699V22.95H57.9999C58.5899 21.93 59.6999 21.31 60.8799 21.35C63.1799 21.35 64.6899 23.16 64.6899 25.97ZM62.7799 25.97C62.7799 24.14 61.8299 22.93 60.3899 22.93C58.9699 22.93 58.0099 24.16 58.0099 25.97C58.0099 27.79 58.9699 29.02 60.3899 29.02C61.8399 29.02 62.7799 27.82 62.7799 25.97Z" fill="#fff"/><path d="M71.2809 27.0401C71.4209 28.2701 72.6109 29.0801 74.2509 29.0801C75.8209 29.0801 76.9409 28.2701 76.9409 27.1601C76.9409 26.2001 76.2609 25.6201 74.6509 25.2201L73.0409 24.8301C70.7609 24.2801 69.7009 23.2101 69.7009 21.4801C69.7009 19.3401 71.5709 17.8701 74.2209 17.8701C76.8409 17.8701 78.6409 19.3401 78.7009 21.4801H76.8209C76.7109 20.2401 75.6809 19.4901 74.1909 19.4901C72.7009 19.4901 71.6709 20.2501 71.6709 21.3501C71.6709 22.2301 72.3209 22.7401 73.9209 23.1401L75.2909 23.4801C77.8409 24.0801 78.9009 25.1101 78.9009 26.9201C78.9009 29.2401 77.0509 30.7001 74.1109 30.7001C71.3609 30.7001 69.5009 29.2801 69.3809 27.0301L71.2809 27.0401Z" fill="#fff"/><path d="M82.9205 19.3V21.4401H84.6405V22.91H82.9205V27.9C82.9205 28.68 83.2605 29.0401 84.0205 29.0401C84.2205 29.0401 84.4305 29.0201 84.6305 29V30.46C84.2905 30.52 83.9405 30.55 83.6005 30.55C81.7705 30.55 81.0505 29.8601 81.0505 28.1101V22.92H79.7305V21.4501H81.0505V19.3H82.9205Z" fill="#fff"/><path d="M85.6406 25.9701C85.6406 23.1201 87.3206 21.3301 89.9306 21.3301C92.5606 21.3301 94.2206 23.1201 94.2206 25.9701C94.2206 28.8301 92.5606 30.6101 89.9306 30.6101C87.3006 30.6101 85.6406 28.8301 85.6406 25.9701ZM92.3306 25.9701C92.3306 24.0201 91.4306 22.8601 89.9306 22.8601C88.4306 22.8601 87.5306 24.0201 87.5306 25.9701C87.5306 27.9301 88.4206 29.0801 89.9306 29.0801C91.4406 29.0801 92.3306 27.9301 92.3306 25.9701Z" fill="#fff"/><path d="M95.7598 21.4401H97.5298V22.9801H97.5698C97.8198 21.9901 98.7298 21.3101 99.7498 21.3401C99.9598 21.3401 100.18 21.3601 100.39 21.4101V23.1501C100.12 23.0701 99.8398 23.0301 99.5598 23.0401C98.5298 23.0001 97.6498 23.8001 97.6098 24.8401C97.6098 24.9401 97.6098 25.0301 97.6198 25.1301V30.5001H95.7598V21.4401Z" fill="#fff"/><path d="M108.949 27.8401C108.699 29.4801 107.099 30.6101 105.049 30.6101C102.419 30.6101 100.779 28.8501 100.779 26.0101C100.779 23.1701 102.419 21.3301 104.969 21.3301C107.469 21.3301 109.049 23.0501 109.049 25.8001V26.4401H102.659V26.5501C102.549 27.8501 103.499 28.9901 104.799 29.1101C104.899 29.1201 104.999 29.1201 105.089 29.1201C105.989 29.2001 106.839 28.6901 107.179 27.8501L108.949 27.8401ZM102.669 25.1301H107.199C107.269 23.9301 106.349 22.9001 105.149 22.8401C105.089 22.8401 105.039 22.8401 104.979 22.8401C103.709 22.8301 102.679 23.8501 102.669 25.1201V25.1301Z" fill="#fff"/><path d="M36.7394 11.2501H37.5394C38.0894 11.3201 38.5894 10.9301 38.6594 10.3801C38.6594 10.3501 38.6694 10.3301 38.6694 10.3001C38.6694 9.7501 38.2594 9.3901 37.5494 9.3901C36.9694 9.3101 36.4294 9.7101 36.3494 10.3001C36.3494 10.3101 36.3494 10.3201 36.3494 10.3301H35.4694C35.5294 9.3001 36.4194 8.5101 37.4494 8.5701C37.4894 8.5701 37.5394 8.5801 37.5794 8.5801C38.7494 8.5801 39.5794 9.2401 39.5794 10.1801C39.5894 10.8301 39.1294 11.4001 38.4994 11.5401V11.6101C39.2594 11.6401 39.8594 12.2901 39.8294 13.0501C39.7194 14.1501 38.7394 14.9401 37.6394 14.8301C37.6294 14.8301 37.6094 14.8301 37.5994 14.8301C36.5094 14.9801 35.5094 14.2201 35.3694 13.1301C35.3694 13.1101 35.3594 13.0801 35.3594 13.0601H36.2494C36.2994 13.6301 36.8294 14.0001 37.5994 14.0001C38.3694 14.0001 38.8794 13.5901 38.8794 13.0001C38.8794 12.4101 38.3994 12.0401 37.5694 12.0401H36.7494V11.2501H36.7394Z" fill="#fff"/><path d="M40.8301 13.4201C40.8301 12.6101 41.4301 12.1401 42.5001 12.0801L43.7201 12.0101V11.6201C43.7201 11.1401 43.4101 10.8801 42.8001 10.8801C42.3001 10.8801 41.9601 11.0601 41.8601 11.3801H41.0001C41.0901 10.6101 41.8201 10.1101 42.8401 10.1101C43.9701 10.1101 44.6101 10.6701 44.6101 11.6201V14.7001H43.7501V14.0701H43.6801C43.3901 14.5301 42.8701 14.8001 42.3301 14.7801C41.5801 14.8601 40.9101 14.3101 40.8401 13.5701C40.8301 13.5101 40.8301 13.4701 40.8301 13.4201ZM43.7201 13.0401V12.6601L42.6201 12.7301C42.0001 12.7701 41.7201 12.9801 41.7201 13.3801C41.7201 13.7901 42.0701 14.0201 42.5501 14.0201C43.1301 14.0801 43.6501 13.6501 43.7101 13.0701C43.7201 13.0601 43.7201 13.0501 43.7201 13.0401Z" fill="#fff"/><path d="M46.9701 10.9399V14.6899H46.0801V10.1899H49.0401V10.9399H46.9701Z" fill="#fff"/><path d="M54.4287 12.4401C54.4287 13.8701 53.7087 14.7701 52.5687 14.7701C51.9987 14.8101 51.4587 14.5101 51.1787 14.0101H51.1087V16.1901H50.2188V10.1901H51.0788V10.9301H51.1488C51.4288 10.4101 51.9788 10.1001 52.5588 10.1101C53.7088 10.1201 54.4287 11.0101 54.4287 12.4401ZM53.5187 12.4401C53.5187 11.4901 53.0687 10.9101 52.3187 10.9101C51.5687 10.9101 51.0987 11.5001 51.0987 12.4401C51.0987 13.3801 51.5688 13.9701 52.3088 13.9701C53.0688 13.9701 53.5187 13.4001 53.5187 12.4401Z" fill="#fff"/><path d="M55.6084 16.3099V15.5399C55.7084 15.5499 55.7984 15.5599 55.8984 15.5599C56.2884 15.5899 56.6384 15.3199 56.7084 14.9299L56.7784 14.7099L55.1484 10.1899H56.1184L57.2484 13.7699H57.3184L58.4484 10.1899H59.3884L57.7084 14.8799C57.3284 15.9799 56.8984 16.3299 55.9784 16.3299C55.9084 16.3299 55.6984 16.3199 55.6084 16.3099Z" fill="#fff"/><path d="M60.0801 13.42H60.9601C61.0501 13.82 61.4201 14.02 61.9401 14.02C62.5301 14.02 62.9001 13.76 62.9001 13.35C62.9001 12.92 62.5701 12.71 61.9401 12.71H61.2701V12.02H61.9301C62.4701 12.02 62.7401 11.81 62.7401 11.44C62.7401 11.11 62.4801 10.86 61.9301 10.86C61.4301 10.86 61.0701 11.07 61.0101 11.43H60.1501C60.2801 10.58 61.0701 9.98998 61.9201 10.11C62.9901 10.11 63.6001 10.59 63.6001 11.35C63.6101 11.79 63.3101 12.17 62.8901 12.27V12.34C63.4001 12.41 63.7801 12.84 63.7701 13.35C63.7701 14.21 63.0401 14.77 61.9301 14.77C60.9601 14.78 60.1601 14.33 60.0801 13.42Z" fill="#fff"/><path d="M65.0703 14.7V10.2H65.9503V13.3H66.0203L68.1003 10.2H68.9803V14.7H68.1003V11.59H68.0303L65.9503 14.7H65.0703Z" fill="#fff"/><path d="M73.8296 10.94H72.4096V14.69H71.5196V10.94H70.0996V10.2H73.8296V10.94Z" fill="#fff"/><path d="M78.6086 13.4801C78.3586 14.3301 77.5386 14.8801 76.6586 14.7801C75.5286 14.8101 74.5886 13.9201 74.5586 12.7901C74.5586 12.6801 74.5586 12.5701 74.5786 12.4601C74.4286 11.3201 75.2286 10.2801 76.3586 10.1301C76.4586 10.1201 76.5586 10.1101 76.6486 10.1101C77.8986 10.1101 78.6586 10.9701 78.6586 12.3801V12.6901H75.4786V12.7401C75.4186 13.3901 75.9086 13.9701 76.5586 14.0301C76.5986 14.0301 76.6386 14.0301 76.6786 14.0301C77.1086 14.0801 77.5386 13.8701 77.7486 13.4801H78.6086ZM75.4886 12.0301H77.7586C77.7986 11.4301 77.3586 10.9101 76.7586 10.8701C76.7286 10.8701 76.6886 10.8701 76.6586 10.8701C76.0186 10.8601 75.4986 11.3701 75.4886 12.0001C75.4886 12.0101 75.4886 12.0201 75.4886 12.0301Z" fill="#fff"/><path d="M82.3789 10.1899H84.4089C85.2889 10.1899 85.8089 10.6399 85.8089 11.3399C85.8089 11.7999 85.4989 12.1899 85.0489 12.2899V12.3599C85.5989 12.3899 86.0189 12.8499 86.0089 13.3999C86.0089 14.1899 85.4189 14.6999 84.4289 14.6999H82.3789V10.1899ZM83.2589 10.8799V12.0499H84.1389C84.6789 12.0499 84.9289 11.8399 84.9289 11.4599C84.9289 11.1099 84.7089 10.8799 84.2289 10.8799H83.2589ZM83.2589 12.6999V14.0199H84.3089C84.8389 14.0199 85.1189 13.7899 85.1189 13.3599C85.1189 12.9099 84.7989 12.6999 84.1989 12.6999H83.2589Z" fill="#fff"/></svg>