<svg width="135" height="40" viewBox="0 0 135 40" fill="none" xmlns="http://www.w3.org/2000/svg"><path d="M130 40H5C2.25 40 0 37.75 0 35V5C0 2.25 2.25 0 5 0H130C132.75 0 135 2.25 135 5V35C135 37.75 132.75 40 130 40Z" fill="#000"/><path d="M130 0.8C132.32 0.8 134.2 2.68 134.2 5V35C134.2 37.32 132.32 39.2 130 39.2H5C2.68 39.2 0.8 37.32 0.8 35V5C0.8 2.68 2.68 0.8 5 0.8H130ZM130 0H5C2.25 0 0 2.25 0 5V35C0 37.75 2.25 40 5 40H130C132.75 40 135 37.75 135 35V5C135 2.25 132.75 0 130 0Z" fill="#A6A6A6"/><path d="M38.32 18.14C39.08 18.14 39.74 17.97 40.31 17.63V16.18C39.79 16.59 39.15 16.79 38.39 16.79C37.7 16.79 37.13 16.58 36.68 16.15C36.23 15.72 36 15.17 36 14.5C36 13.83 36.22 13.29 36.66 12.86C37.11 12.43 37.66 12.21 38.33 12.21C39.02 12.21 39.63 12.39 40.17 12.75V11.3C39.62 11.01 39.01 10.86 38.32 10.86C37.23 10.86 36.32 11.2 35.6 11.88C34.89 12.56 34.53 13.43 34.53 14.5C34.53 15.56 34.89 16.43 35.61 17.12C36.33 17.8 37.23 18.14 38.32 18.14ZM43.9776 18V13.21L45.6176 15.46H46.4176L48.0276 13.21V18H49.4476V11H48.0276L45.9976 13.9L43.9676 11H42.5376V18H43.9776ZM53.8346 16.14C53.4246 15.71 53.2246 15.16 53.2246 14.5C53.2246 13.84 53.4246 13.29 53.8346 12.86C54.2446 12.43 54.7646 12.21 55.3846 12.21C56.0046 12.21 56.5146 12.43 56.9246 12.86C57.3346 13.29 57.5446 13.84 57.5446 14.5C57.5446 15.16 57.3346 15.71 56.9246 16.14C56.5146 16.57 56.0046 16.79 55.3846 16.79C54.7646 16.79 54.2446 16.57 53.8346 16.14ZM51.7546 14.5C51.7546 15.51 52.0946 16.37 52.7846 17.08C53.4746 17.79 54.3446 18.14 55.3846 18.14C56.4246 18.14 57.2846 17.79 57.9746 17.08C58.6646 16.37 59.0146 15.51 59.0146 14.5C59.0146 13.48 58.6646 12.62 57.9746 11.92C57.2846 11.21 56.4246 10.86 55.3846 10.86C54.3446 10.86 53.4746 11.21 52.7846 11.92C52.0946 12.62 51.7546 13.48 51.7546 14.5ZM60.3273 12.29H62.5373V18H63.9773V12.29H66.1973V11H60.3273V12.29ZM69.712 18V15.23H71.332C72.082 15.23 72.682 15.03 73.112 14.64C73.552 14.25 73.772 13.74 73.772 13.11C73.772 12.48 73.552 11.98 73.112 11.59C72.682 11.2 72.082 11 71.332 11H68.272V18H69.712ZM69.712 12.26H71.232C71.922 12.26 72.332 12.57 72.332 13.13C72.332 13.69 71.922 14 71.232 14H69.712V12.26ZM77.0738 18L80.5038 13.41V18H81.9338V11H80.6938L77.3038 15.56V11H75.8638V18H77.0738ZM84.0109 12.29H86.2209V18H87.6609V12.29H89.8809V11H84.0109V12.29ZM97.2055 18V16.71H93.3955V14.91H96.3755V13.64H93.3955V12.29H97.0955V11H91.9555V18H97.2055ZM38.29 30C39.03 30 39.62 29.82 40.06 29.45C40.5 29.08 40.72 28.6 40.72 28.01C40.72 27.5 40.58 27.09 40.3 26.76C40.02 26.43 39.69 26.22 39.3 26.14C39.78 25.94 40.18 25.46 40.18 24.75C40.18 23.63 39.34 23 38.06 23H34.77V30H38.29ZM36.21 26.93H38.02C38.73 26.93 39.16 27.26 39.16 27.85C39.16 28.44 38.73 28.76 38.02 28.76H36.21V26.93ZM36.21 24.2H37.83C38.43 24.2 38.79 24.49 38.79 24.98C38.79 25.46 38.43 25.74 37.83 25.74H36.21V24.2ZM49.5068 30C50.3268 30 50.9768 29.79 51.4468 29.37C51.9168 28.94 52.1568 28.39 52.1568 27.71C52.1568 27.03 51.9168 26.48 51.4368 26.05C50.9668 25.62 50.3168 25.41 49.5068 25.41H47.9268V24.29H51.5668V23H46.4868V30H49.5068ZM47.9268 26.61H49.3968C50.2268 26.61 50.7068 27 50.7068 27.68C50.7068 28.36 50.2268 28.73 49.3968 28.73H47.9268V26.61ZM55.792 30V27.23H57.412C58.162 27.23 58.762 27.03 59.192 26.64C59.632 26.25 59.852 25.74 59.852 25.11C59.852 24.48 59.632 23.98 59.192 23.59C58.762 23.2 58.162 23 57.412 23H54.352V30H55.792ZM55.792 24.26H57.312C58.002 24.26 58.412 24.57 58.412 25.13C58.412 25.69 58.002 26 57.312 26H55.792V24.26ZM62.0626 30L62.7526 28.38H65.7126L66.4026 30H67.9326L64.9326 22.96H63.5526L60.5526 30H62.0626ZM64.2326 24.76L65.2526 27.19H63.2026L64.2326 24.76ZM70.6626 30.14C71.6126 30.14 72.3426 29.59 72.8626 28.48L75.4426 23H73.9126L72.3626 26.44L70.5926 23H69.0026L71.6526 27.89C71.4626 28.27 71.2826 28.53 71.1126 28.66C70.9426 28.79 70.7026 28.86 70.4126 28.86C70.1026 28.86 69.8326 28.8 69.6026 28.67V29.94C69.8226 30.07 70.1726 30.14 70.6626 30.14ZM79.4034 30.14C80.3134 30.14 81.0434 29.93 81.5734 29.51C82.1034 29.08 82.3734 28.56 82.3734 27.93C82.3734 27.08 81.8534 26.5 81.1734 26.25C81.6634 26.04 82.1234 25.56 82.1234 24.85C82.1234 24.26 81.8834 23.78 81.3934 23.41C80.9134 23.04 80.2734 22.86 79.4634 22.86C78.5734 22.86 77.8034 23.03 77.1534 23.38V24.71C77.8434 24.36 78.5934 24.19 79.3934 24.19C80.2034 24.19 80.7034 24.46 80.7034 24.93C80.7034 25.44 80.3234 25.7 79.5734 25.7H78.5234V26.91H79.4034C80.3334 26.91 80.8934 27.22 80.8934 27.78C80.8934 28.42 80.2734 28.8 79.2034 28.8C78.4134 28.8 77.4834 28.52 76.8734 28.09V29.49C77.5434 29.92 78.3834 30.14 79.4034 30.14ZM89.8325 30V28.71H86.0225V26.91H89.0025V25.64H86.0225V24.29H89.7225V23H84.5825V30H89.8325ZM93.419 30V27.23H95.039C95.789 27.23 96.389 27.03 96.819 26.64C97.259 26.25 97.479 25.74 97.479 25.11C97.479 24.48 97.259 23.98 96.819 23.59C96.389 23.2 95.789 23 95.039 23H91.979V30H93.419ZM93.419 24.26H94.939C95.629 24.26 96.039 24.57 96.039 25.13C96.039 25.69 95.629 26 94.939 26H93.419V24.26ZM104.821 30V28.71H101.011V26.91H103.991V25.64H101.011V24.29H104.711V23H99.5708V30H104.821Z" fill="#fff"/><path d="M22.5059 16.3125H15.9375C16.1973 14.6426 16.6426 13.2695 17.2363 12.2305C17.8301 11.1914 18.4609 10.6719 19.2031 10.6719C19.9082 10.6719 20.5762 11.1914 21.1699 12.2305C21.7637 13.2695 22.209 14.6426 22.5059 16.3125ZM15.6406 19.875C15.6406 19.0957 15.6777 18.3164 15.752 17.5H22.6543C22.7285 18.3164 22.7656 19.0957 22.7656 19.875C22.7656 20.6914 22.7285 21.4707 22.6543 22.25H15.752C15.6777 21.4707 15.6406 20.6914 15.6406 19.875ZM27.7012 16.3125H23.6934C23.3223 14.0488 22.6914 12.3047 21.8379 11.043C23.1367 11.4512 24.2871 12.1191 25.3262 13.0469C26.3652 13.9746 27.1445 15.0508 27.7012 16.3125ZM16.5684 11.043C15.6777 12.3047 15.0469 14.0488 14.7129 16.3125H10.7051C11.2246 15.0508 12.0039 13.9746 13.043 13.0469C14.082 12.1191 15.2324 11.4512 16.5684 11.043ZM28.0723 17.5C28.2949 18.3164 28.4062 19.0957 28.4062 19.875C28.4062 20.6914 28.2949 21.4707 28.0723 22.25H23.8418C23.916 21.4336 23.9531 20.6543 23.9531 19.875C23.9531 19.1328 23.916 18.3164 23.8418 17.5H28.0723ZM14.4531 19.875C14.4531 20.6172 14.4902 21.4336 14.5645 22.25H10.334C10.1113 21.4336 10 20.6543 10 19.875C10 19.1328 10.1113 18.3164 10.334 17.5H14.5645C14.4902 18.3164 14.4531 19.1328 14.4531 19.875ZM15.9375 23.4375H22.4688C22.1719 25.1445 21.7637 26.4805 21.1699 27.5195C20.5762 28.5586 19.9082 29.0781 19.2031 29.0781C18.4609 29.0781 17.8301 28.5586 17.2363 27.5195C16.6426 26.4805 16.1973 25.1445 15.9375 23.4375ZM21.8379 28.707C22.7285 27.4824 23.3223 25.7383 23.6934 23.4375H27.7012C27.1445 24.6992 26.3652 25.8125 25.3262 26.7402C24.2871 27.668 23.1367 28.3359 21.8379 28.707ZM10.7051 23.4375H14.7129C15.084 25.7383 15.6777 27.4824 16.5684 28.707C15.2324 28.3359 14.082 27.668 13.043 26.7402C12.0039 25.8125 11.2246 24.6992 10.7051 23.4375Z" fill="#fff"/></svg>