<svg width="8" height="12" viewBox="0 0 8 12" fill="none" xmlns="http://www.w3.org/2000/svg"><path d="M0.671875 5.625L0.671875 5.57812C0.578125 5.67187 0.53125 5.8125 0.53125 6C0.53125 6.14062 0.578125 6.28125 0.671875 6.42187L6.20312 11.8594C6.29687 11.9531 6.39062 12 6.57812 12C6.71875 12 6.85937 11.9531 7 11.8594L7.32812 11.4844C7.42187 11.3906 7.46875 11.25 7.46875 11.1094C7.46875 10.9219 7.42187 10.7812 7.32812 10.6875L2.54687 6L7.32812 1.3125C7.42187 1.17187 7.51562 1.03125 7.51562 0.890625C7.51562 0.703125 7.42187 0.609375 7.32812 0.515625L7 0.140625C6.85937 0.0468746 6.71875 -4.05696e-07 6.57812 -4.11843e-07C6.39062 -4.20039e-07 6.29687 0.0468746 6.20312 0.1875L0.671875 5.625Z" fill="#4B4F49"/></svg>