<svg width="29" height="31" viewBox="0 0 29 31" fill="none" xmlns="http://www.w3.org/2000/svg"><path d="M18.3571 31C18.7771 31 19.1971 30.8616 19.5471 30.5156C19.8271 30.2388 20.0371 29.8237 20.0371 29.3393V15.5H27.3171C27.7371 15.5 28.1571 15.3616 28.5071 15.0156C28.7871 14.7388 28.9971 14.3237 28.9971 13.8393C28.9971 13.4241 28.7871 13.0089 28.5071 12.6629L16.1871 0.484375C15.8371 0.207589 15.4171 0 14.9971 0C14.5071 0 14.0871 0.207589 13.8071 0.484375L1.48707 12.6629C1.13707 13.0089 0.99707 13.4241 0.99707 13.8393C0.99707 14.3237 1.13707 14.7388 1.48707 15.0156C1.76707 15.3616 2.18707 15.5 2.67707 15.5H9.95707V29.3393C9.95707 29.8237 10.0971 30.2388 10.4471 30.5156C10.7271 30.8616 11.1471 31 11.6371 31H18.3571Z"/></svg>