<svg width="9" height="13" viewBox="0 0 9 13" fill="none" xmlns="http://www.w3.org/2000/svg"><path d="M0.546875 4.78125C0.464844 4.72656 0.4375 4.67188 0.4375 4.5625C0.4375 4.48047 0.464844 4.39844 0.546875 4.34375L4.15625 0.734375C4.21094 0.679688 4.26562 0.625 4.375 0.625C4.45703 0.625 4.53906 0.679688 4.59375 0.734375L8.20312 4.34375C8.25781 4.39844 8.3125 4.48047 8.3125 4.5625C8.3125 4.67188 8.25781 4.72656 8.20312 4.78125L7.68359 5.32812C7.60156 5.41016 7.51953 5.4375 7.4375 5.4375C7.32812 5.4375 7.27344 5.41016 7.21875 5.32812L5.08594 3.11328V12.5469C5.08594 12.6562 5.03125 12.7383 4.97656 12.793C4.92188 12.8477 4.83984 12.875 4.75781 12.875H3.99219C3.88281 12.875 3.80078 12.8477 3.74609 12.793C3.69141 12.7383 3.66406 12.6562 3.66406 12.5469V3.11328L1.53125 5.32812C1.47656 5.41016 1.39453 5.4375 1.3125 5.4375C1.20312 5.4375 1.12109 5.41016 1.06641 5.32812L0.546875 4.78125Z"/></svg>