<svg width="14" height="14" viewBox="0 0 14 14" fill="none" xmlns="http://www.w3.org/2000/svg"><path d="M12.1675 -0.140636C12.4956 -0.277355 12.8237 -0.277355 13.1519 -0.113292C13.48 0.0507705 13.6987 0.26952 13.8628 0.597645C14.0269 0.925771 14.0269 1.2539 13.8901 1.58202L8.66748 12.957C8.44873 13.3945 8.14795 13.6406 7.73779 13.7226C7.32764 13.8047 6.94482 13.7226 6.6167 13.4766C6.28857 13.2578 6.12451 12.9023 6.12451 12.4375V7.62499H1.31201C0.847168 7.62499 0.491699 7.46093 0.272949 7.1328C0.0268555 6.80468 -0.0551758 6.42186 0.0268555 6.01171C0.108887 5.60155 0.35498 5.30077 0.79248 5.08202L12.1675 -0.140636Z"/></svg>