<svg width="8" height="12" viewBox="0 0 8 12" fill="none" xmlns="http://www.w3.org/2000/svg"><path d="M7.32812 6.37512L7.32812 6.422C7.42187 6.32825 7.46875 6.18762 7.46875 6.00012C7.46875 5.8595 7.42187 5.71887 7.32812 5.57825L1.79687 0.140747C1.70312 0.0469966 1.60937 0.00012165 1.42187 0.000121658C1.28125 0.000121665 1.14062 0.0469967 0.999999 0.140747L0.671874 0.515747C0.578125 0.609497 0.53125 0.750122 0.53125 0.890747C0.53125 1.07825 0.578125 1.21887 0.671875 1.31262L5.45312 6.00012L0.671875 10.6876C0.578125 10.8282 0.484375 10.9689 0.484375 11.1095C0.484375 11.297 0.578125 11.3907 0.671875 11.4845L1 11.8595C1.14062 11.9532 1.28125 12.0001 1.42188 12.0001C1.60938 12.0001 1.70312 11.9532 1.79687 11.8126L7.32812 6.37512Z" fill="#4B4F49"/></svg>