<svg width="10" height="7" viewBox="0 0 10 7" fill="none" xmlns="http://www.w3.org/2000/svg"><path d="M9.07088 1.15561L8.82614 0.941459C8.70683 0.826461 8.54689 0.78125 8.40625 0.78125C8.24271 0.78125 8.07414 0.822303 7.94822 0.948223L7.94821 0.948215L7.94648 0.949982L5 3.95539L2.05352 0.949982C2.04141 0.937636 2.02806 0.926578 2.01368 0.916987C2.01205 0.915904 2.0104 0.914805 2.00873 0.913692C1.96523 0.884674 1.9072 0.845965 1.84618 0.815456C1.78225 0.783494 1.69527 0.75 1.59375 0.75C1.36562 0.75 1.23952 0.87551 1.17278 0.942407L0.929124 1.15561C0.912545 1.17011 0.897957 1.18675 0.885737 1.20507C0.801465 1.33148 0.75 1.47267 0.75 1.625C0.75 1.70582 0.759559 1.79689 0.803737 1.88524C0.844168 1.9661 0.902679 2.02319 0.963014 2.06684L4.48402 5.64855C4.49627 5.68199 4.51575 5.71306 4.54197 5.73928C4.66789 5.8652 4.83646 5.90625 5 5.90625C5.15233 5.90625 5.29352 5.85478 5.41993 5.77051C5.43422 5.76098 5.44749 5.75001 5.45953 5.73776L9.08303 2.05178C9.08329 2.05151 9.08356 2.05125 9.08382 2.05098C9.13053 2.00414 9.17697 1.94558 9.20868 1.86629C9.23977 1.78855 9.25 1.7077 9.25 1.625C9.25 1.47267 9.19853 1.33148 9.11426 1.20507C9.10204 1.18675 9.08745 1.17011 9.07088 1.15561Z" stroke="#9D9D9D" stroke-width=".5" stroke-linecap="round" stroke-linejoin="round"/></svg>