<svg width="8" height="6" viewBox="0 0 8 6" fill="none" xmlns="http://www.w3.org/2000/svg"><path d="M3.75 5.21875H3.71875C3.78125 5.28125 3.875 5.3125 4 5.3125C4.09375 5.3125 4.1875 5.28125 4.28125 5.21875L7.90625 1.53125C7.96875 1.46875 8 1.40625 8 1.28125C8 1.1875 7.96875 1.09375 7.90625 1L7.65625 0.78125C7.59375 0.71875 7.5 0.6875 7.40625 0.6875C7.28125 0.6875 7.1875 0.71875 7.125 0.78125L4 3.96875L0.875 0.78125C0.78125 0.71875 0.6875 0.65625 0.59375 0.65625C0.46875 0.65625 0.40625 0.71875 0.34375 0.78125L0.09375 1C0.03125 1.09375 0 1.1875 0 1.28125C0 1.40625 0.03125 1.46875 0.125 1.53125L3.75 5.21875Z"/></svg>