<svg width="31" height="31" viewBox="0 0 31 31" fill="none" xmlns="http://www.w3.org/2000/svg"><path d="M31 24.5215C29.7891 25.3691 28.1543 26.0352 25.9746 26.5195C23.9766 26.9434 21.7969 27.125 19.375 27.125C17.0137 27.125 14.834 26.9434 12.7754 26.5195C10.6562 26.0352 8.96094 25.3691 7.75 24.5215V27.125C7.75 27.8516 8.29492 28.457 9.32422 29.0625C10.4141 29.668 11.8066 30.1523 13.5625 30.5156C15.3789 30.8789 17.3164 31 19.375 31C21.4941 31 23.4316 30.8789 25.1875 30.5156C27.0039 30.1523 28.3965 29.668 29.4258 29.0625C30.5156 28.457 31 27.8516 31 27.125V24.5215ZM11.625 7.75C13.7441 7.75 15.6816 7.62891 17.4375 7.26562C19.2539 6.90234 20.6465 6.41797 21.6758 5.8125C22.7656 5.20703 23.25 4.60156 23.25 3.875C23.25 3.20898 22.7656 2.54297 21.6758 1.9375C20.6465 1.33203 19.2539 0.908203 17.4375 0.544922C15.6816 0.181641 13.7441 0 11.625 0C9.56641 0 7.62891 0.181641 5.8125 0.544922C4.05664 0.908203 2.66406 1.33203 1.57422 1.9375C0.544922 2.54297 0 3.20898 0 3.875C0 4.60156 0.544922 5.20703 1.57422 5.8125C2.66406 6.41797 4.05664 6.90234 5.8125 7.26562C7.62891 7.62891 9.56641 7.75 11.625 7.75ZM31 18.1641C29.7891 19.1934 28.1543 19.9805 25.9746 20.5254C23.916 21.0703 21.7363 21.3125 19.375 21.3125C17.0742 21.3125 14.834 21.0703 12.7754 20.5254C10.6562 19.9805 8.96094 19.1934 7.75 18.1641V21.3125C7.75 22.0391 8.29492 22.6445 9.32422 23.25C10.4141 23.8555 11.8066 24.3398 13.5625 24.7031C15.3789 25.0664 17.3164 25.1875 19.375 25.1875C21.4941 25.1875 23.4316 25.0664 25.1875 24.7031C27.0039 24.3398 28.3965 23.8555 29.4258 23.25C30.5156 22.6445 31 22.0391 31 21.3125V18.1641ZM5.8125 18.8301V15.0156C3.26953 14.5918 1.33203 13.8652 0 12.8965V15.5C0 16.2266 0.544922 16.832 1.57422 17.4375C2.66406 18.043 4.05664 18.5273 5.8125 18.8301ZM19.375 9.6875C17.3164 9.6875 15.3789 9.92969 13.5625 10.3535C11.8066 10.8379 10.4141 11.3828 9.32422 12.1094C8.29492 12.8359 7.75 13.6836 7.75 14.5312C7.75 15.4395 8.29492 16.2266 9.32422 16.9531C10.4141 17.6797 11.8066 18.2852 13.5625 18.709C15.3789 19.1934 17.3164 19.375 19.375 19.375C21.4941 19.375 23.4316 19.1934 25.1875 18.709C27.0039 18.2852 28.3965 17.6797 29.4258 16.9531C30.5156 16.2266 31 15.4395 31 14.5312C31 13.6836 30.5156 12.8359 29.4258 12.1094C28.3965 11.3828 27.0039 10.8379 25.1875 10.3535C23.4316 9.92969 21.4941 9.6875 19.375 9.6875ZM6.11523 13.0781C6.59961 11.7461 7.81055 10.5957 9.74805 9.62695C7.68945 9.56641 5.87305 9.32422 4.23828 8.83984C2.48242 8.41602 1.08984 7.81055 0 7.08398V9.6875C0 10.4141 0.605469 11.0801 1.69531 11.6855C2.78516 12.291 4.29883 12.7754 6.11523 13.0781Z"/></svg>