<svg width="18" height="19" viewBox="0 0 18 19" fill="none" xmlns="http://www.w3.org/2000/svg"><path d="M11.25 0.25C12.4453 0.25 13.5703 0.390625 14.625 0.636719C15.6445 0.917969 16.4531 1.23438 17.0859 1.65625C17.6836 2.07812 18 2.57031 18 3.0625V10.9375C18 11.5703 17.5781 12.0977 16.7344 12.5898C15.8906 13.082 14.8359 13.3984 13.5 13.5742V15.4375C13.5 15.9648 13.1836 16.4219 12.5859 16.8438C11.9531 17.2656 11.1445 17.6172 10.125 17.8633C9.07031 18.1445 7.94531 18.25 6.75 18.25C5.51953 18.25 4.39453 18.1445 3.375 17.8633C2.32031 17.6172 1.51172 17.2656 0.914062 16.8438C0.28125 16.4219 0 15.9648 0 15.4375V7.5625C0 6.96484 0.386719 6.4375 1.23047 5.94531C2.07422 5.45312 3.16406 5.13672 4.5 4.92578V3.0625C4.5 2.57031 4.78125 2.07812 5.41406 1.65625C6.01172 1.23438 6.82031 0.917969 7.875 0.636719C8.89453 0.390625 10.0195 0.25 11.25 0.25ZM11.8125 15.2969V13.9258C11.1797 14.2422 10.4062 14.4883 9.52734 14.6289C8.64844 14.8047 7.73438 14.875 6.75 14.875C5.76562 14.875 4.81641 14.8047 3.9375 14.6289C3.05859 14.4883 2.32031 14.2422 1.6875 13.9258V15.2969C1.89844 15.5781 2.42578 15.8594 3.23438 16.1055C4.25391 16.4219 5.41406 16.5625 6.75 16.5625C8.05078 16.5625 9.21094 16.4219 10.2656 16.1055C11.0391 15.8594 11.5664 15.5781 11.8125 15.2969ZM11.8125 11.9219V10.3398C11.1797 10.7266 10.4062 11.0078 9.52734 11.2188C8.64844 11.4297 7.73438 11.5 6.75 11.5C5.76562 11.5 4.81641 11.4297 3.9375 11.2188C3.05859 11.0078 2.32031 10.7266 1.6875 10.3398V11.9219C1.89844 12.2031 2.42578 12.4844 3.23438 12.7305C4.25391 13.0469 5.41406 13.1875 6.75 13.1875C8.05078 13.1875 9.21094 13.0469 10.2656 12.7305C11.0391 12.4844 11.5664 12.2031 11.8125 11.9219ZM6.75 9.8125C8.15625 9.8125 9.35156 9.67188 10.3359 9.32031C11.3203 9.00391 11.8125 8.61719 11.8125 8.125C11.8125 7.66797 11.3203 7.28125 10.3359 6.92969C9.35156 6.61328 8.15625 6.4375 6.75 6.4375C5.34375 6.4375 4.14844 6.61328 3.16406 6.92969C2.17969 7.28125 1.6875 7.66797 1.6875 8.125C1.6875 8.61719 2.17969 9.00391 3.16406 9.32031C4.14844 9.67188 5.34375 9.8125 6.75 9.8125ZM16.3125 10.7969V9.42578C15.5391 9.77734 14.625 10.0586 13.5 10.1992V11.8867C14.2031 11.7461 14.8359 11.5703 15.3984 11.3594C15.8555 11.1836 16.1719 11.0078 16.3125 10.7969ZM16.3125 7.42188V5.83984C15.5039 6.33203 14.4844 6.64844 13.2539 6.82422C13.3945 7.10547 13.5 7.35156 13.5 7.5625V8.51172C14.2031 8.37109 14.8359 8.19531 15.3984 7.98438C15.8555 7.80859 16.1719 7.63281 16.3125 7.42188ZM11.25 5.3125C12.6562 5.3125 13.8516 5.17188 14.8359 4.82031C15.8203 4.50391 16.3125 4.11719 16.3125 3.625C16.3125 3.16797 15.8203 2.78125 14.8359 2.42969C13.8516 2.11328 12.6562 1.9375 11.25 1.9375C9.84375 1.9375 8.64844 2.11328 7.66406 2.42969C6.67969 2.78125 6.1875 3.16797 6.1875 3.625C6.1875 4.08203 6.64453 4.46875 7.55859 4.78516C8.71875 4.85547 9.77344 4.99609 10.7227 5.27734L10.8633 5.3125H11.25Z" fill="#fff"/></svg>