<svg width="28" height="17" viewBox="0 0 28 17" fill="none" xmlns="http://www.w3.org/2000/svg"><path d="M0 1.41667C0 0.634263 0.626801 0 1.4 0H26.6C27.3732 0 28 0.634263 28 1.41667C28 2.19907 27.3732 2.83333 26.6 2.83333H1.4C0.626802 2.83333 0 2.19907 0 1.41667Z" fill="#2AAC17"/><path d="M0 8.5C0 7.7176 0.626801 7.08333 1.4 7.08333H26.6C27.3732 7.08333 28 7.7176 28 8.5C28 9.2824 27.3732 9.91667 26.6 9.91667H1.4C0.626802 9.91667 0 9.2824 0 8.5Z" fill="#2AAC17"/><path d="M0 15.5833C0 14.8009 0.626801 14.1667 1.4 14.1667H26.6C27.3732 14.1667 28 14.8009 28 15.5833C28 16.3657 27.3732 17 26.6 17H1.4C0.626802 17 0 16.3657 0 15.5833Z" fill="#2AAC17"/></svg>