<svg width="40" height="40" viewBox="0 0 40 40" fill="none" xmlns="http://www.w3.org/2000/svg"><path d="M6 12C5.83333 12 5.66667 12 5.5 11.8333C5.33333 11.6667 5.33333 11.5 5.33333 11.3333V10C5.33333 9.83333 5.33333 9.75 5.5 9.58333C5.66667 9.41667 5.83333 9.33333 6 9.33333H15.3333C15.5 9.33333 15.5833 9.41667 15.75 9.58333C15.9167 9.75 16 9.83333 16 10V11.3333C16 11.5 15.9167 11.6667 15.75 11.8333C15.5833 12 15.5 12 15.3333 12H6ZM6.41667 32.6667C6.25 32.5 6.25 32.3333 6.25 32.1667C6.25 32 6.25 31.8333 6.41667 31.6667L8.75 29.3333L6.41667 27C6.25 26.8333 6.25 26.6667 6.25 26.5C6.25 26.3333 6.25 26.1667 6.41667 26L7.33333 25.0833C7.5 25 7.66667 24.9167 7.83333 24.9167C8 24.9167 8.16667 25 8.33333 25.0833L10.6667 27.4167L13 25.0833C13.1667 25 13.3333 24.9167 13.5 24.9167C13.6667 24.9167 13.8333 25 14 25.0833L14.9167 26C15 26.1667 15.0833 26.3333 15.0833 26.5C15.0833 26.6667 15 26.8333 14.9167 27L12.5833 29.3333L14.9167 31.6667C15 31.8333 15.0833 32 15.0833 32.1667C15.0833 32.3333 15 32.5 14.9167 32.6667L14 33.5833C13.8333 33.75 13.6667 33.75 13.5 33.75C13.3333 33.75 13.1667 33.75 13 33.5833L10.6667 31.25L8.33333 33.5833C8.16667 33.75 8 33.75 7.83333 33.75C7.66667 33.75 7.5 33.75 7.33333 33.5833L6.41667 32.6667ZM37.3333 0C38 0 38.6667 0.333333 39.1667 0.833333C39.6667 1.33333 40 2 40 2.66667V37.3333C40 38.0833 39.6667 38.75 39.1667 39.25C38.6667 39.75 38 40 37.3333 40H2.66667C1.91667 40 1.25 39.75 0.75 39.25C0.25 38.75 0 38.0833 0 37.3333V2.66667C0 2 0.25 1.33333 0.75 0.833333C1.25 0.333333 1.91667 0 2.66667 0H37.3333ZM18.6667 37.3333V21.3333H2.66667V37.3333H18.6667ZM18.6667 18.6667V2.66667H2.66667V18.6667H18.6667ZM37.3333 37.3333V21.3333H21.3333V37.3333H37.3333ZM37.3333 18.6667V2.66667H21.3333V18.6667H37.3333ZM24.6667 12C24.5 12 24.3333 12 24.1667 11.8333C24 11.6667 24 11.5 24 11.3333V10C24 9.83333 24 9.75 24.1667 9.58333C24.3333 9.41667 24.5 9.33333 24.6667 9.33333H28V6C28 5.83333 28 5.75 28.1667 5.58333C28.3333 5.41667 28.5 5.33333 28.6667 5.33333H30C30.1667 5.33333 30.25 5.41667 30.4167 5.58333C30.5833 5.75 30.6667 5.83333 30.6667 6V9.33333H34C34.1667 9.33333 34.25 9.41667 34.4167 9.58333C34.5833 9.75 34.6667 9.83333 34.6667 10V11.3333C34.6667 11.5 34.5833 11.6667 34.4167 11.8333C34.25 12 34.1667 12 34 12H30.6667V15.3333C30.6667 15.5 30.5833 15.6667 30.4167 15.8333C30.25 16 30.1667 16 30 16H28.6667C28.5 16 28.3333 16 28.1667 15.8333C28 15.6667 28 15.5 28 15.3333V12H24.6667ZM24.6667 33.3333C24.5 33.3333 24.3333 33.3333 24.1667 33.1667C24 33 24 32.8333 24 32.6667V31.3333C24 31.1667 24 31.0833 24.1667 30.9167C24.3333 30.75 24.5 30.6667 24.6667 30.6667H34C34.1667 30.6667 34.25 30.75 34.4167 30.9167C34.5833 31.0833 34.6667 31.1667 34.6667 31.3333V32.6667C34.6667 32.8333 34.5833 33 34.4167 33.1667C34.25 33.3333 34.1667 33.3333 34 33.3333H24.6667ZM24.6667 28C24.5 28 24.3333 28 24.1667 27.8333C24 27.6667 24 27.5 24 27.3333V26C24 25.8333 24 25.75 24.1667 25.5833C24.3333 25.4167 24.5 25.3333 24.6667 25.3333H34C34.1667 25.3333 34.25 25.4167 34.4167 25.5833C34.5833 25.75 34.6667 25.8333 34.6667 26V27.3333C34.6667 27.5 34.5833 27.6667 34.4167 27.8333C34.25 28 34.1667 28 34 28H24.6667Z"/></svg>