<svg width="53" height="40" viewBox="0 0 53 40" fill="none" xmlns="http://www.w3.org/2000/svg"><path d="M52.4431 17.9044L22.4983 0.669983C20.1886 -0.661475 17.0271 0.0563377 15.5045 2.24905L9.70347 10.5943C9.13414 11.4143 8.83332 12.3754 8.83332 13.3756C8.83332 15.1035 9.75636 16.713 11.2411 17.5753L17.5565 21.2454L16.4157 22.7774C15.7978 23.606 15.4582 24.6334 15.4582 25.6696C15.4582 26.7351 15.8459 27.7374 16.4705 28.5659L14.7897 31.111H6.62494V27.7668C6.62494 27.1521 6.13107 26.6667 5.52075 26.6667H1.10419C0.493869 26.6667 0 27.1521 0 27.7668V38.8879C0 39.5026 0.493869 40 1.10419 40H5.52085C6.13118 40 6.62504 39.5026 6.62504 38.8879V37.7778H14.7898C17.0099 37.7778 19.0705 36.668 20.3019 34.8077L22.1118 32.0733C22.4603 32.1495 22.8118 32.2185 23.1711 32.2185C24.9287 32.2185 26.5828 31.2758 27.4865 29.7576L28.6997 27.721L38.0967 33.182C38.266 33.2808 38.4568 33.3307 38.6488 33.3307C38.7555 33.3307 38.8623 33.3155 38.9669 33.2841C39.258 33.195 39.5006 32.9897 39.6365 32.716L40.454 31.0672C40.5881 31.0774 40.7172 31.1066 40.8538 31.1066C45.1152 31.1066 48.583 27.6138 48.583 23.3218C48.583 22.8504 48.5138 22.3647 48.411 21.8681L52.3893 19.8649C52.7538 19.6813 52.9877 19.311 52.9996 18.9005C53.0103 18.4908 52.7968 18.1075 52.4431 17.9044ZM4.41666 37.7778H2.20828V28.889H4.41656L4.41666 37.7778ZM18.4644 33.5797C17.6439 34.8189 16.2701 35.5589 14.7897 35.5589H6.62494V33.3367H14.7897C15.5316 33.3367 16.2184 32.9667 16.627 32.3471L18.1561 30.0383L20.0522 31.1829L18.4644 33.5797ZM25.593 28.623C24.821 29.9153 23.0041 30.3754 21.7187 29.5974L18.9184 27.9069C18.1464 27.4413 17.6665 26.5885 17.6665 25.6825C17.6665 25.1248 17.8499 24.5725 18.1819 24.1254L19.4825 22.3805L26.7865 26.6212L25.593 28.623ZM38.185 30.6739L12.3441 15.6705C11.5409 15.2039 11.0416 14.3337 11.0416 13.3995C11.0416 12.858 11.2044 12.3382 11.5128 11.8945L14.285 7.91009L41.6095 23.773L38.185 30.6739ZM41.5736 28.8188L43.8848 24.1611L46.3376 22.9272C46.3499 23.0635 46.3746 23.2047 46.3746 23.3366C46.3746 26.1517 44.275 28.4595 41.5736 28.8188ZM43.0996 22.0721L15.5566 6.08249L17.314 3.55686C17.8952 2.72134 18.8462 2.22217 19.8598 2.22217C20.4001 2.22217 20.9338 2.36436 21.4028 2.63446L49.5566 18.8237L43.0996 22.0721Z"/><path d="M36.4374 26.6667C37.0472 26.6667 37.5416 26.1692 37.5416 25.5555C37.5416 24.9418 37.0472 24.4444 36.4374 24.4444C35.8275 24.4444 35.3332 24.9418 35.3332 25.5555C35.3332 26.1692 35.8275 26.6667 36.4374 26.6667Z"/></svg>