<svg width="40" height="48" viewBox="0 0 40 48" fill="none" xmlns="http://www.w3.org/2000/svg"><path d="M34.7368 8.34783C37.6388 8.34783 40 6.00713 40 3.13043V1.04348C40 0.467731 39.5282 0 38.9474 0H1.05263C0.471834 0 0 0.467731 0 1.04348V3.13043C0 6.00713 2.36123 8.34783 5.26316 8.34783H8.42105V16.7604C4.56312 20.0161 2.10526 24.8555 2.10526 30.2609C2.10526 40.0425 10.1326 48 20 48C29.8674 48 37.8947 40.0425 37.8947 30.2609C37.8947 24.8555 35.4369 20.0161 31.5789 16.7604V8.34783H34.7368ZM35.7895 30.2609C35.7895 38.8915 28.7063 45.913 20 45.913C11.2937 45.913 4.21053 38.8915 4.21053 30.2609C4.21053 21.6303 11.2937 14.6087 20 14.6087C28.7063 14.6087 35.7895 21.6303 35.7895 30.2609ZM10.5263 15.239V8.34783H29.4737V15.239C26.7223 13.5275 23.4812 12.5217 20 12.5217C16.5188 12.5217 13.2777 13.5275 10.5263 15.239ZM5.26316 6.26087C3.52231 6.26087 2.10526 4.85615 2.10526 3.13043V2.08696H37.8947V3.13043C37.8947 4.85615 36.4777 6.26087 34.7368 6.26087H5.26316Z"/><path d="M20 20.8696C14.7769 20.8696 10.5263 25.0832 10.5263 30.2609C10.5263 35.4395 14.7769 39.6522 20 39.6522C25.2231 39.6522 29.4737 35.4395 29.4737 30.2609C29.4737 25.0832 25.2231 20.8696 20 20.8696ZM20 37.5652C15.937 37.5652 12.6316 34.2875 12.6316 30.2609C12.6316 26.2342 15.937 22.9565 20 22.9565C24.063 22.9565 27.3684 26.2332 27.3684 30.2609C27.3684 34.2886 24.063 37.5652 20 37.5652Z"/><path d="M20 27.1304C18.2591 27.1304 16.8421 28.5352 16.8421 30.2609C16.8421 31.9866 18.2591 33.3913 20 33.3913C21.7409 33.3913 23.1579 31.9866 23.1579 30.2609C23.1579 28.5352 21.7409 27.1304 20 27.1304ZM20 31.3043C19.4202 31.3043 18.9474 30.8366 18.9474 30.2609C18.9474 29.6851 19.4202 29.2174 20 29.2174C20.5798 29.2174 21.0526 29.6851 21.0526 30.2609C21.0526 30.8366 20.5798 31.3043 20 31.3043Z"/></svg>