<svg width="39" height="41" viewBox="0 0 39 41" fill="none" xmlns="http://www.w3.org/2000/svg"><path clip-rule="evenodd" d="M3.55607 15.5556C3.55607 24.1323 10.5351 31.1113 19.1117 31.1113C27.6884 31.1113 34.6716 24.1323 34.6716 15.5556C34.6716 6.97899 27.6884 0 19.1117 0C10.5351 0 3.55607 6.97899 3.55607 15.5556ZM5.27398 15.5556C5.27398 7.92813 11.4799 1.71791 19.1117 1.71791C26.7392 1.71791 32.9537 7.92813 32.9537 15.5556C32.9537 23.1874 26.7392 29.3977 19.1117 29.3977C11.4842 29.3977 5.27398 23.1831 5.27398 15.5556ZM13.0995 15.9379C13.0995 19.2534 15.7966 21.9505 19.1121 21.9505C22.4277 21.9505 25.1248 19.2534 25.1248 15.9379C25.1248 12.6223 22.4277 9.9252 19.1121 9.9252C15.7966 9.9252 13.0995 12.6223 13.0995 15.9379ZM14.8174 15.9379C14.8174 13.5715 16.7457 11.6431 19.1121 11.6431C21.4786 11.6431 23.4069 13.5715 23.4069 15.9379C23.4069 18.3043 21.4786 20.2326 19.1121 20.2326C16.7457 20.2326 14.8174 18.3043 14.8174 15.9379ZM22.5475 14.2199C22.5475 15.1691 21.7787 15.9379 20.8296 15.9379C19.8805 15.9379 19.1117 15.1691 19.1117 14.2199C19.1117 13.2708 19.8805 12.502 20.8296 12.502C21.7787 12.502 22.5475 13.2708 22.5475 14.2199ZM0 39.5118C0 39.9842 0.386529 40.3708 0.858953 40.3708H37.3644C37.8369 40.3708 38.2234 39.9842 38.2234 39.5118C38.2234 35.1741 36.2092 30.8149 32.696 27.5466C32.3525 27.2288 31.8199 27.2417 31.4935 27.5767C28.2037 30.9695 23.8059 32.8335 19.1117 32.8335C14.4175 32.8335 10.0197 30.9652 6.7299 27.5767C6.40349 27.2374 5.87094 27.2288 5.52736 27.5466C2.01424 30.8149 0 35.1784 0 39.5118ZM36.4754 38.6529H1.74797C1.97559 35.3244 3.5303 32.0217 6.11145 29.3805C9.65463 32.7218 14.2371 34.5514 19.1117 34.5514C23.9863 34.5514 28.5688 32.7218 32.1119 29.3805C34.6888 32.0217 36.2478 35.3244 36.4754 38.6529Z"/></svg>