<svg width="55" height="40" viewBox="0 0 55 40" fill="none" xmlns="http://www.w3.org/2000/svg"><path d="M31.4263 6.31579C30.8402 6.31579 30.3646 6.78737 30.3646 7.36842C30.3646 7.94947 30.8402 8.42105 31.4263 8.42105C32.0123 8.42105 32.488 7.94947 32.488 7.36842C32.488 6.78737 32.0123 6.31579 31.4263 6.31579Z"/><path d="M53.2973 0H1.0617C0.475322 0 0 0.471368 0 1.05263V7.36842C0 10.1287 2.15472 12.3978 4.88381 12.6133V17.8947C4.88381 26.0566 9.35219 33.2114 16.0307 37.0417C16.039 37.0464 16.0474 37.0511 16.0558 37.0558C16.0561 37.056 16.0564 37.0562 16.0567 37.0563C19.4238 38.982 23.2691 40 27.1795 40C31.2264 40 35.089 38.9069 38.3283 37.0417C41.6562 35.1331 44.4472 32.3885 46.3997 29.1045C48.4117 25.7204 49.4752 21.8442 49.4752 17.8947V12.6133C52.2043 12.3979 54.359 10.1287 54.359 7.36842V1.05263C54.359 0.471368 53.8837 0 53.2973 0ZM36.7348 35.512C33.8134 37.0721 30.5233 37.8947 27.1795 37.8947C23.8358 37.8947 20.5457 37.0721 17.6242 35.512V26.3158C17.6242 21.092 21.9107 16.8421 27.1795 16.8421C32.4483 16.8421 36.7348 21.092 36.7348 26.3158V35.512ZM47.3518 17.8947C47.3518 24.3832 44.1391 30.4719 38.8582 34.2013V26.3158C38.8582 19.9312 33.6191 14.7368 27.1795 14.7368C20.7399 14.7368 15.5008 19.9312 15.5008 26.3158V34.2013C10.2199 30.4719 7.00721 24.3832 7.00721 17.8947V12.6316H47.3518V17.8947ZM52.2356 6.31579H35.6731C35.0867 6.31579 34.6114 6.78716 34.6114 7.36842C34.6114 7.94968 35.0867 8.41053 35.6731 8.41053H52.053C51.6147 9.63568 50.4345 10.5263 49.0505 10.5263C45.1685 10.5263 10.6807 10.5263 5.30849 10.5263C3.55223 10.5263 2.1234 9.10968 2.1234 7.36842V2.10526H52.2356V6.31579Z"/><path d="M27.1795 18.9474C23.0815 18.9474 19.7476 22.2528 19.7476 26.3158C19.7476 30.3787 23.0815 33.6842 27.1795 33.6842C31.2774 33.6842 34.6114 30.3787 34.6114 26.3158C34.6114 22.2528 31.2774 18.9474 27.1795 18.9474ZM27.1795 31.5789C24.2524 31.5789 21.871 29.2179 21.871 26.3158C21.871 23.4137 24.2524 21.0526 27.1795 21.0526C30.1066 21.0526 32.488 23.4137 32.488 26.3158C32.488 29.2179 30.1066 31.5789 27.1795 31.5789Z"/><path d="M27.1795 23.1579C25.4232 23.1579 23.9944 24.5745 23.9944 26.3158C23.9944 28.0571 25.4232 29.4737 27.1795 29.4737C28.9357 29.4737 30.3646 28.0571 30.3646 26.3158C30.3646 24.5745 28.9357 23.1579 27.1795 23.1579ZM27.1795 27.3684C26.5941 27.3684 26.1178 26.8962 26.1178 26.3158C26.1178 25.7354 26.5941 25.2632 27.1795 25.2632C27.7649 25.2632 28.2412 25.7354 28.2412 26.3158C28.2412 26.8962 27.7649 27.3684 27.1795 27.3684Z"/></svg>