<svg width="18" height="14" viewBox="0 0 18 14" fill="none" xmlns="http://www.w3.org/2000/svg"><path d="M4.14844 8.02344L3.72656 7.60156C3.62109 7.53125 3.58594 7.39062 3.58594 7.21484C3.58594 7.07422 3.62109 6.93359 3.72656 6.82812L6.36328 4.19141C6.43359 4.12109 6.57422 4.05078 6.75 4.05078C6.89062 4.05078 7.03125 4.12109 7.13672 4.19141L10.125 7.17969L13.2188 4.08594L12.1641 3.06641C11.9883 2.92578 11.918 2.71484 11.918 2.46875C11.918 2.25781 11.9883 2.04688 12.1641 1.87109C12.3047 1.73047 12.5156 1.625 12.7617 1.625H16.3125C16.4531 1.625 16.5938 1.69531 16.6992 1.80078C16.8047 1.90625 16.875 2.04688 16.875 2.1875V5.73828C16.875 5.98438 16.7695 6.19531 16.6289 6.33594C16.4531 6.51172 16.2422 6.58203 16.0312 6.58203C15.7852 6.58203 15.5742 6.51172 15.4336 6.33594L14.4141 5.28125L10.5117 9.18359C10.4062 9.28906 10.2656 9.32422 10.125 9.32422C9.94922 9.32422 9.80859 9.28906 9.73828 9.18359L6.75 6.19531L4.92188 8.02344C4.81641 8.12891 4.67578 8.16406 4.53516 8.16406C4.35938 8.16406 4.21875 8.12891 4.14844 8.02344ZM17.4375 12.3125C17.5781 12.3125 17.7188 12.3828 17.8242 12.4883C17.9297 12.5938 18 12.7344 18 12.875V13.4375C18 13.6133 17.9297 13.7539 17.8242 13.8594C17.7188 13.9648 17.5781 14 17.4375 14H1.125C0.808594 14 0.527344 13.8945 0.316406 13.6836C0.105469 13.4727 0 13.1914 0 12.875V1.0625C0 0.921875 0.0351562 0.78125 0.140625 0.675781C0.246094 0.570312 0.386719 0.5 0.5625 0.5H1.125C1.26562 0.5 1.40625 0.570312 1.51172 0.675781C1.61719 0.78125 1.6875 0.921875 1.6875 1.0625V12.3125H17.4375Z" fill="#fff"/></svg>