<svg width="11" height="8" viewBox="0 0 11 8" fill="none" xmlns="http://www.w3.org/2000/svg"><path d="M9.36719 0.158203C9.41016 0.115234 9.45312 0.09375 9.53906 0.09375C9.60352 0.09375 9.66797 0.115234 9.73242 0.158203L10.334 0.78125C10.377 0.824219 10.4199 0.888672 10.4199 0.953125C10.4199 1.03906 10.377 1.10352 10.334 1.14648L3.88867 7.5918C3.8457 7.63477 3.78125 7.65625 3.7168 7.65625C3.63086 7.65625 3.56641 7.63477 3.52344 7.5918L0.666016 4.71289C0.601562 4.66992 0.580078 4.62695 0.580078 4.54102C0.580078 4.47656 0.601562 4.41211 0.666016 4.34766L1.26758 3.74609C1.31055 3.70312 1.375 3.66016 1.46094 3.66016C1.52539 3.66016 1.58984 3.70312 1.63281 3.74609L3.7168 5.83008L9.36719 0.158203Z" fill="#2AAC17"/></svg>