<svg width="186" height="214" viewBox="0 0 186 214" fill="none" xmlns="http://www.w3.org/2000/svg"><path d="M121.95 178.888H90.6154C87.4545 178.888 84.3589 178.626 81.4165 178.111C75.3019 177.039 66.8721 176.95 66.7881 176.95C66.0151 176.942 65.3934 176.309 65.4009 175.536C65.4084 174.767 66.0338 174.149 66.8012 174.149C66.8049 174.149 66.8105 174.149 66.8143 174.149C67.169 174.153 75.5558 174.24 81.9 175.353C84.6838 175.84 87.6169 176.089 90.6154 176.089H121.95C126.552 176.089 130.298 172.343 130.298 167.741V132.049C130.298 129.82 129.43 127.723 127.852 126.145C126.274 124.569 124.179 123.699 121.948 123.701L100.085 123.703C99.5007 123.703 98.9779 123.341 98.7726 122.792C98.5691 122.245 98.7259 121.627 99.1665 121.244C99.2542 121.168 107.977 113.483 109.549 103.727C110.085 100.399 110.447 96.9202 110.625 93.3896C110.716 91.5618 110.074 89.8273 108.815 88.5054C107.563 87.1891 105.873 86.4647 104.056 86.4647C100.862 86.4647 98.1378 88.7556 97.5758 91.9109C96.3174 98.9964 93.6662 108.259 88.1789 112.153C86.1756 113.574 84.5513 114.512 83.2462 115.264C80.7667 116.694 80.0386 117.167 79.7361 118.537C77.7813 127.402 73.1323 133.212 66.6443 134.896C65.8956 135.09 65.132 134.642 64.9379 133.893C64.7437 133.145 65.1918 132.381 65.9404 132.187C69.7716 131.192 74.7996 127.911 77.0009 117.934C77.5834 115.298 79.2806 114.319 81.8478 112.839C83.1024 112.114 84.6633 111.214 86.5602 109.87C90.2383 107.26 93.1714 100.71 94.82 91.4236C95.6191 86.9278 99.5026 83.666 104.056 83.666C106.648 83.666 109.06 84.7004 110.845 86.5786C112.637 88.4625 113.552 90.9326 113.421 93.5334C113.24 97.1667 112.867 100.746 112.314 104.176C111.123 111.562 106.433 117.678 103.476 120.902L121.948 120.901C121.948 120.901 121.948 120.901 121.95 120.901C124.928 120.901 127.727 122.06 129.833 124.166C131.939 126.272 133.098 129.071 133.098 132.049V167.739C133.098 173.888 128.096 178.888 121.95 178.888Z" fill="#2AAC17"/><path d="M52.1435 182.074C49.694 182.074 47.6831 179.972 47.6477 177.356L47.1118 133.309C47.0745 130.676 49.0592 128.505 51.5349 128.47L62.5934 128.272C65.071 128.236 67.1191 130.353 67.1546 132.988L67.6905 177.035C67.7073 178.286 67.2723 179.477 66.4657 180.385C65.6274 181.328 64.4904 181.858 63.2674 181.875L52.2089 182.073C52.207 182.073 52.2052 182.073 52.2033 182.073C52.1828 182.074 52.1622 182.074 52.1435 182.074ZM62.6569 131.074C62.6495 131.074 62.6438 131.074 62.6364 131.074L51.5778 131.272C50.6406 131.285 49.8956 132.183 49.9106 133.275L50.4464 177.323C50.4613 178.404 51.2212 179.276 52.1435 179.276C52.1491 179.276 52.1547 179.276 52.1622 179.276L63.2226 179.078C63.6558 179.072 64.0628 178.876 64.3727 178.527C64.7144 178.142 64.8992 177.627 64.8918 177.075L64.3559 133.027C64.3391 131.946 63.5811 131.074 62.6569 131.074Z" fill="#2AAC17"/><path d="M48.4029 136.761H40.7479C39.975 136.761 39.3477 136.134 39.3477 135.361C39.3477 134.588 39.975 133.96 40.7479 133.96H48.4029C49.1758 133.96 49.8031 134.588 49.8031 135.361C49.8031 136.134 49.1758 136.761 48.4029 136.761Z" fill="#2AAC17"/><path d="M48.4029 177.089H40.7479C39.975 177.089 39.3477 176.462 39.3477 175.689C39.3477 174.916 39.975 174.289 40.7479 174.289H48.4029C49.1758 174.289 49.8031 174.916 49.8031 175.689C49.8031 176.462 49.1758 177.089 48.4029 177.089Z" fill="#2AAC17"/><path d="M84.4657 165.221C83.9168 165.221 83.3959 164.896 83.1719 164.356C82.875 163.641 83.2148 162.823 83.928 162.526L86.6819 161.384C94.0194 158.339 98.7618 151.236 98.7618 143.292V122.299C98.7618 121.526 99.3891 120.899 100.162 120.899C100.935 120.899 101.562 121.526 101.562 122.299V143.29C101.562 152.372 96.1423 160.488 87.7555 163.97L85.0016 165.112C84.828 165.185 84.645 165.221 84.4657 165.221Z" fill="#2AAC17"/><path d="M112.964 178.889C112.852 178.889 112.739 178.876 112.625 178.846C112.613 178.843 112.6 178.841 112.587 178.837C107.192 177.334 103.424 172.373 103.424 166.772V153.434C103.424 152.661 104.051 152.034 104.824 152.034C105.597 152.034 106.224 152.661 106.224 153.434V166.772C106.224 171.119 109.148 174.97 113.334 176.139C114.066 176.341 114.507 177.09 114.322 177.829C114.163 178.464 113.592 178.889 112.964 178.889Z" fill="#2AAC17"/><path d="M148.29 120.129C147.67 120.129 147.123 119.72 146.947 119.123C146.763 118.496 144.948 115.977 141.955 114.028C141.501 113.733 141.006 113.436 140.484 113.122C137.509 111.339 133.434 108.895 133.471 103.737C133.505 98.7777 136.107 95.0511 140.097 94.2426C141.904 93.8767 143.811 94.2053 145.465 95.1687C146.538 95.7942 147.487 96.6679 148.273 97.7508C150.515 94.7299 153.829 93.8132 156.499 94.3509C160.463 95.15 163.047 98.8132 163.081 103.682C163.116 108.654 159.402 110.951 156.419 112.797C155.78 113.193 155.177 113.567 154.638 113.946C151.77 115.966 149.811 118.494 149.643 119.082C149.487 119.692 148.941 120.122 148.312 120.133C148.307 120.129 148.299 120.129 148.29 120.129ZM141.585 96.892C141.277 96.892 140.965 96.9237 140.654 96.9853C138.015 97.5193 136.296 100.176 136.272 103.753C136.247 107.314 139.134 109.045 141.925 110.718C142.47 111.044 142.985 111.354 143.484 111.679C145.136 112.756 147.035 114.437 148.303 116.037C149.464 114.58 151.206 112.934 153.027 111.653C153.633 111.225 154.302 110.813 154.948 110.413C157.703 108.709 160.306 107.097 160.282 103.699C160.252 99.4666 158.025 97.5118 155.948 97.0936C152.982 96.4962 150.601 98.6862 149.558 101.123C149.337 101.638 148.831 101.972 148.271 101.972H148.269C147.709 101.972 147.205 101.64 146.983 101.126C145.84 98.4678 143.786 96.892 141.585 96.892Z" fill="#2AAC17"/><path d="M17.3225 114.16C7.77067 114.16 0 106.39 0 96.8379C0 87.286 7.77067 79.5154 17.3225 79.5154C26.8743 79.5154 34.645 87.286 34.645 96.8379C34.645 106.39 26.8743 114.16 17.3225 114.16ZM17.3225 82.3141C9.31473 82.3141 2.80058 88.8282 2.80058 96.836C2.80058 104.844 9.31473 111.358 17.3225 111.358C25.3303 111.358 31.8444 104.844 31.8444 96.836C31.8463 88.8282 25.3303 82.3141 17.3225 82.3141Z" fill="#2AAC17"/><path d="M17.3246 107.797C20.0809 107.797 22.3152 105.13 22.3152 101.84C22.3152 98.5492 20.0809 95.8818 17.3246 95.8818C14.5684 95.8818 12.334 98.5492 12.334 101.84C12.334 105.13 14.5684 107.797 17.3246 107.797Z" fill="#2AAC17"/><path d="M12.2568 94.7255C13.1077 93.8746 13.1077 92.495 12.2568 91.6442C11.4059 90.7933 10.0263 90.7933 9.17543 91.6442C8.32454 92.4951 8.32455 93.8746 9.17544 94.7255C10.0263 95.5763 11.4059 95.5764 12.2568 94.7255Z" fill="#2AAC17"/><path d="M24.708 95.1864C25.8198 94.7258 26.3477 93.4512 25.8872 92.3395C25.4267 91.2277 24.1521 90.6998 23.0404 91.1603C21.9286 91.6208 21.4007 92.8954 21.8612 94.0072C22.3217 95.119 23.5963 95.6469 24.708 95.1864Z" fill="#2AAC17"/><path d="M66.2908 71.6385C55.8689 71.6385 47.3906 63.1602 47.3906 52.7383C47.3906 42.3164 55.8689 33.8381 66.2908 33.8381C76.7127 33.8381 85.1928 42.3164 85.1928 52.7383C85.1928 63.1583 76.7127 71.6385 66.2908 71.6385ZM66.2908 36.6368C57.413 36.6368 50.1912 43.8586 50.1912 52.7364C50.1912 61.6143 57.413 68.836 66.2908 68.836C75.1686 68.836 82.3922 61.6143 82.3922 52.7364C82.3922 43.8586 75.1686 36.6368 66.2908 36.6368Z" fill="#2AAC17"/><path d="M66.2886 64.0116C62.8009 64.0116 59.9648 61.1736 59.9648 57.6879V56.379C59.9648 55.6061 60.5922 54.9788 61.3651 54.9788C62.1381 54.9788 62.7654 55.6061 62.7654 56.379V57.6879C62.7654 59.6315 64.3468 61.211 66.2886 61.211C68.2303 61.211 69.8117 59.6296 69.8117 57.6879V56.379C69.8117 55.6061 70.439 54.9788 71.212 54.9788C71.9849 54.9788 72.6122 55.6061 72.6122 56.379V57.6879C72.6122 61.1755 69.7762 64.0116 66.2886 64.0116Z" fill="#2AAC17"/><path d="M59.7218 51.3284C60.9252 51.3284 61.9007 50.3529 61.9007 49.1496C61.9007 47.9462 60.9252 46.9707 59.7218 46.9707C58.5185 46.9707 57.543 47.9462 57.543 49.1496C57.543 50.3529 58.5185 51.3284 59.7218 51.3284Z" fill="#2AAC17"/><path d="M72.8605 51.3284C74.0638 51.3284 75.0393 50.3529 75.0393 49.1496C75.0393 47.9462 74.0638 46.9707 72.8605 46.9707C71.6571 46.9707 70.6816 47.9462 70.6816 49.1496C70.6816 50.3529 71.6571 51.3284 72.8605 51.3284Z" fill="#2AAC17"/><path d="M127.693 62.2825C119.225 62.2825 112.338 55.395 112.338 46.9279C112.338 38.4608 119.225 31.5732 127.693 31.5732C136.16 31.5732 143.047 38.4608 143.047 46.9279C143.047 55.395 136.16 62.2825 127.693 62.2825ZM127.693 34.3738C120.769 34.3738 115.138 40.0048 115.138 46.9279C115.138 53.8509 120.769 59.4819 127.693 59.4819C134.616 59.4819 140.247 53.8509 140.247 46.9279C140.247 40.0048 134.616 34.3738 127.693 34.3738Z" fill="#2AAC17"/><path opacity=".3" d="M61.3664 88.8467C61.133 88.8467 60.8959 88.7888 60.6775 88.6656L35.8532 74.6198C35.1792 74.2389 34.9439 73.3838 35.3248 72.7117C35.7057 72.0395 36.5589 71.8024 37.2329 72.1833L62.0573 86.2291C62.7313 86.61 62.9665 87.4651 62.5856 88.1372C62.3298 88.5909 61.8556 88.8467 61.3664 88.8467Z" fill="#2AAC17"/><path opacity=".3" d="M28.4239 70.206C28.1905 70.206 27.9534 70.1481 27.7349 70.0249L13.1383 61.765C12.4643 61.3842 12.2291 60.5291 12.6099 59.8569C12.9908 59.1848 13.8441 58.9477 14.5181 59.3285L29.1147 67.5884C29.7887 67.9693 30.0239 68.8244 29.6431 69.4965C29.3873 69.9502 28.913 70.206 28.4239 70.206Z" fill="#2AAC17"/><path opacity=".3" d="M7.03853 58.0967C6.80515 58.0967 6.56804 58.0388 6.3496 57.9156L3.34924 56.2184C2.67523 55.8375 2.44001 54.9824 2.82089 54.3103C3.20177 53.6382 4.05501 53.401 4.72901 53.7819L7.72933 55.4791C8.40334 55.8599 8.6386 56.715 8.25772 57.3872C8.00193 57.8409 7.5277 58.0967 7.03853 58.0967Z" fill="#2AAC17"/><path opacity=".3" d="M100.961 57.318C100.188 57.318 99.5605 56.6907 99.5605 55.9177V21.9374C99.5605 21.1644 100.188 20.5371 100.961 20.5371C101.734 20.5371 102.361 21.1644 102.361 21.9374V55.9177C102.361 56.6907 101.734 57.318 100.961 57.318Z" fill="#2AAC17"/><path opacity=".3" d="M100.961 11.3885C100.188 11.3885 99.5605 10.7612 99.5605 9.98824V1.3998C99.5605 0.626841 100.188 -0.000488281 100.961 -0.000488281C101.734 -0.000488281 102.361 0.626841 102.361 1.3998V9.98824C102.361 10.7612 101.734 11.3885 100.961 11.3885Z" fill="#2AAC17"/><path opacity=".3" d="M182.39 47.9323C181.968 47.9323 181.55 47.7419 181.275 47.3816C180.806 46.7673 180.924 45.8879 181.54 45.4193L183.295 44.0825C183.911 43.6138 184.789 43.7315 185.258 44.3476C185.726 44.9619 185.608 45.8412 184.992 46.3099L183.237 47.6467C182.985 47.839 182.687 47.9323 182.39 47.9323Z" fill="#2AAC17"/><path opacity=".3" d="M147.569 74.4315C147.147 74.4315 146.728 74.2411 146.452 73.8789C145.984 73.2627 146.103 72.3852 146.719 71.9166L172.638 52.2024C173.254 51.7338 174.131 51.8533 174.6 52.4694C175.068 53.0855 174.949 53.963 174.333 54.4317L148.414 74.1459C148.16 74.3382 147.864 74.4315 147.569 74.4315Z" fill="#2AAC17"/><path opacity=".3" d="M135.72 83.4622C135.298 83.4622 134.88 83.2718 134.605 82.9114C134.137 82.2972 134.254 81.4178 134.87 80.9492L140.094 76.9668C140.71 76.4981 141.588 76.6158 142.057 77.2319C142.525 77.8461 142.408 78.7255 141.791 79.1942L136.567 83.1766C136.315 83.3689 136.017 83.4622 135.72 83.4622Z" fill="#2AAC17"/><path opacity=".3" d="M9.19443 136.761C8.59137 136.761 8.035 136.369 7.85389 135.76C6.7598 132.097 6.0783 125.521 6.05029 125.243C5.97188 124.474 6.53203 123.787 7.30125 123.707C8.07048 123.628 8.75755 124.188 8.83783 124.957C8.8453 125.023 9.52115 131.55 10.5387 134.957C10.7609 135.699 10.3389 136.479 9.59769 136.699C9.4614 136.742 9.32699 136.761 9.19443 136.761Z" fill="#2AAC17"/><path opacity=".3" d="M63.7173 200.327C63.5549 200.327 63.3906 200.299 63.23 200.239C49.0199 194.953 36.3164 186.003 26.492 174.358C25.9935 173.766 26.0682 172.883 26.6601 172.384C27.2519 171.886 28.1351 171.961 28.6336 172.552C38.1481 183.829 50.45 192.496 64.2083 197.616C64.9328 197.885 65.3025 198.691 65.0317 199.416C64.8189 199.978 64.2849 200.327 63.7173 200.327Z" fill="#2AAC17"/><path opacity=".3" d="M126.544 199.464C125.99 199.464 125.465 199.134 125.245 198.588C124.955 197.871 125.301 197.056 126.02 196.766C141.641 190.457 154.961 179.757 164.541 165.822C164.979 165.185 165.849 165.023 166.488 165.461C167.125 165.9 167.287 166.772 166.848 167.409C156.957 181.8 143.202 192.851 127.069 199.365C126.895 199.432 126.718 199.464 126.544 199.464Z" fill="#2AAC17"/><path opacity=".3" d="M176.913 145.03C176.773 145.03 176.631 145.009 176.491 144.965C175.754 144.731 175.345 143.945 175.576 143.208C178.196 134.905 179.525 126.236 179.525 117.444C179.525 112.566 179.111 107.674 178.295 102.906C178.164 102.144 178.676 101.419 179.439 101.289C180.201 101.158 180.926 101.67 181.056 102.433C181.9 107.358 182.328 112.409 182.328 117.444C182.328 126.522 180.956 135.474 178.25 144.05C178.06 144.647 177.507 145.03 176.913 145.03Z" fill="#2AAC17"/><path opacity=".3" d="M173.12 82.7919C172.588 82.7919 172.08 82.4876 171.845 81.9723C171.257 80.6821 170.626 79.3901 169.974 78.1317C169.617 77.4447 169.886 76.6007 170.573 76.2441C171.259 75.8875 172.104 76.1564 172.461 76.8416C173.135 78.1411 173.785 79.476 174.393 80.8091C174.715 81.513 174.405 82.3438 173.701 82.6649C173.512 82.7508 173.314 82.7919 173.12 82.7919Z" fill="#2AAC17"/><path opacity=".3" d="M151.924 30.1206C151.604 30.1206 151.285 30.0124 151.022 29.792C150.43 29.2935 150.355 28.4104 150.852 27.8186L158.477 18.7615C158.975 18.1696 159.858 18.0931 160.45 18.5916C161.042 19.0901 161.117 19.9732 160.62 20.5651L152.995 29.6221C152.719 29.9507 152.323 30.1206 151.924 30.1206Z" fill="#2AAC17"/><path opacity=".3" d="M61.368 22.1074C60.862 22.1074 60.3729 21.831 60.1246 21.3512L54.9155 11.3027C54.5589 10.6157 54.8278 9.77175 55.5148 9.41514C56.2 9.0604 57.0458 9.32739 57.4024 10.0145L62.6115 20.0629C62.9681 20.75 62.6992 21.5939 62.0121 21.9505C61.8049 22.0569 61.5846 22.1074 61.368 22.1074Z" fill="#2AAC17"/><path d="M127.691 57.2528C124.203 57.2528 121.367 54.4149 121.367 50.9291V49.6203C121.367 48.8473 121.995 48.22 122.767 48.22H132.616C133.389 48.22 134.016 48.8473 134.016 49.6203V50.9291C134.015 54.4167 131.179 57.2528 127.691 57.2528ZM124.168 51.0205C124.216 52.9212 125.777 54.4522 127.691 54.4522C129.605 54.4522 131.165 52.9212 131.214 51.0205H124.168Z" fill="#2AAC17"/><path d="M124.066 45.3559C123.293 45.3559 122.665 44.7286 122.665 43.9556C122.665 43.5094 122.301 43.1453 121.855 43.1453C121.409 43.1453 121.045 43.5094 121.045 43.9556C121.045 44.7286 120.417 45.3559 119.644 45.3559C118.871 45.3559 118.244 44.7286 118.244 43.9556C118.244 41.9653 119.865 40.3447 121.855 40.3447C123.845 40.3447 125.466 41.9653 125.466 43.9556C125.466 44.7286 124.839 45.3559 124.066 45.3559Z" fill="#2AAC17"/><path d="M135.431 45.3559C134.658 45.3559 134.031 44.7286 134.031 43.9556C134.031 43.5094 133.666 43.1453 133.22 43.1453C132.774 43.1453 132.41 43.5094 132.41 43.9556C132.41 44.7286 131.783 45.3559 131.01 45.3559C130.237 45.3559 129.609 44.7286 129.609 43.9556C129.609 41.9653 131.23 40.3447 133.22 40.3447C135.211 40.3447 136.831 41.9653 136.831 43.9556C136.831 44.7286 136.204 45.3559 135.431 45.3559Z" fill="#2AAC17"/><g opacity=".3" fill="#2AAC17"><g opacity=".3"><g opacity=".3"><path opacity=".3" d="M151.843 146.656H148.855C148.082 146.656 147.455 146.029 147.455 145.256C147.455 144.483 148.082 143.856 148.855 143.856H151.843C152.616 143.856 153.243 144.483 153.243 145.256C153.243 146.029 152.616 146.656 151.843 146.656Z"/><path opacity=".3" d="M163.419 146.656H160.058C159.286 146.656 158.658 146.029 158.658 145.256C158.658 144.483 159.286 143.855 160.058 143.855H163.419C164.192 143.855 164.819 144.483 164.819 145.256C164.819 146.029 164.192 146.656 163.419 146.656Z"/></g><g opacity=".3"><path opacity=".3" d="M156.043 154.031C155.27 154.031 154.643 153.404 154.643 152.631V149.644C154.643 148.871 155.27 148.243 156.043 148.243C156.816 148.243 157.443 148.871 157.443 149.644V152.631C157.443 153.404 156.816 154.031 156.043 154.031Z"/><path opacity=".3" d="M156.043 142.829C155.27 142.829 154.643 142.202 154.643 141.429V138.068C154.643 137.295 155.27 136.668 156.043 136.668C156.816 136.668 157.443 137.295 157.443 138.068V141.429C157.443 142.202 156.816 142.829 156.043 142.829Z"/></g></g><g opacity=".3"><g opacity=".3"><path opacity=".3" d="M90.2274 206.028H87.2401C86.4672 206.028 85.8398 205.401 85.8398 204.628C85.8398 203.855 86.4672 203.228 87.2401 203.228H90.2274C91.0004 203.228 91.6277 203.855 91.6277 204.628C91.6277 205.401 91.0004 206.028 90.2274 206.028Z"/><path opacity=".3" d="M101.802 206.028H98.4413C97.6683 206.028 97.041 205.401 97.041 204.628C97.041 203.855 97.6683 203.228 98.4413 203.228H101.802C102.575 203.228 103.202 203.855 103.202 204.628C103.202 205.401 102.575 206.028 101.802 206.028Z"/></g><g opacity=".3"><path opacity=".3" d="M94.4257 213.404C93.6527 213.404 93.0254 212.776 93.0254 212.003V209.016C93.0254 208.243 93.6527 207.616 94.4257 207.616C95.1986 207.616 95.826 208.243 95.826 209.016V212.003C95.826 212.776 95.1986 213.404 94.4257 213.404Z"/><path opacity=".3" d="M94.4257 202.201C93.6527 202.201 93.0254 201.574 93.0254 200.801V197.44C93.0254 196.667 93.6527 196.04 94.4257 196.04C95.1986 196.04 95.826 196.667 95.826 197.44V200.801C95.826 201.574 95.1986 202.201 94.4257 202.201Z"/></g></g><g opacity=".3"><g opacity=".3"><path opacity=".3" d="M10.3173 153.191H7.32998C6.55702 153.191 5.92969 152.564 5.92969 151.791C5.92969 151.018 6.55702 150.39 7.32998 150.39H10.3173C11.0902 150.39 11.7175 151.018 11.7175 151.791C11.7175 152.564 11.0902 153.191 10.3173 153.191Z"/><path opacity=".3" d="M21.8938 153.191H18.5331C17.7601 153.191 17.1328 152.564 17.1328 151.791C17.1328 151.018 17.7601 150.391 18.5331 150.391H21.8938C22.6668 150.391 23.2941 151.018 23.2941 151.791C23.2941 152.564 22.6668 153.191 21.8938 153.191Z"/></g><g opacity=".3"><path opacity=".3" d="M14.5194 160.566C13.7465 160.566 13.1191 159.939 13.1191 159.166V156.179C13.1191 155.406 13.7465 154.778 14.5194 154.778C15.2924 154.778 15.9197 155.406 15.9197 156.179V159.166C15.9197 159.939 15.2924 160.566 14.5194 160.566Z"/><path opacity=".3" d="M14.5194 149.364C13.7465 149.364 13.1191 148.736 13.1191 147.963V144.603C13.1191 143.83 13.7465 143.202 14.5194 143.202C15.2924 143.202 15.9197 143.83 15.9197 144.603V147.963C15.9197 148.736 15.2924 149.364 14.5194 149.364Z"/></g></g><path opacity=".3" d="M171.219 159.713C168.717 159.713 166.68 157.678 166.68 155.174C166.68 152.672 168.717 150.635 171.219 150.635C173.72 150.635 175.757 152.67 175.757 155.174C175.757 157.678 173.72 159.713 171.219 159.713ZM171.219 153.436C170.261 153.436 169.48 154.216 169.48 155.174C169.48 156.132 170.261 156.912 171.219 156.912C172.176 156.912 172.957 156.132 172.957 155.174C172.957 154.216 172.176 153.436 171.219 153.436Z"/><path opacity=".3" d="M135.433 18.3357C132.931 18.3357 130.895 16.3006 130.895 13.7969C130.895 11.2931 132.931 9.25806 135.433 9.25806C137.935 9.25806 139.972 11.2931 139.972 13.7969C139.972 16.3006 137.937 18.3357 135.433 18.3357ZM135.433 12.0586C134.476 12.0586 133.695 12.8391 133.695 13.7969C133.695 14.7547 134.476 15.5351 135.433 15.5351C136.391 15.5351 137.172 14.7547 137.172 13.7969C137.172 12.8391 136.391 12.0586 135.433 12.0586Z"/><path opacity=".3" d="M27.5642 42.9118C25.0624 42.9118 23.0254 40.8767 23.0254 38.373C23.0254 35.8712 25.0624 33.8342 27.5642 33.8342C30.0661 33.8342 32.103 35.8693 32.103 38.373C32.103 40.8767 30.0679 42.9118 27.5642 42.9118ZM27.5642 36.6367C26.6064 36.6367 25.826 37.4171 25.826 38.3749C25.826 39.3327 26.6064 40.1131 27.5642 40.1131C28.522 40.1131 29.3024 39.3327 29.3024 38.3749C29.3024 37.4171 28.522 36.6367 27.5642 36.6367Z"/></g><path opacity=".3" d="M52.4219 105.977C52.3659 105.977 52.3099 105.973 52.2539 105.968L42.9149 104.848C42.1476 104.756 41.5986 104.058 41.692 103.291C41.7835 102.523 42.4817 101.976 43.2491 102.068L52.5881 103.188C53.3554 103.279 53.9044 103.978 53.811 104.745C53.7251 105.454 53.1202 105.977 52.4219 105.977Z" fill="#2AAC17"/></svg>