<svg width="179" height="175" viewBox="0 0 179 175" fill="none" xmlns="http://www.w3.org/2000/svg"><path d="M149.029 43.64C150.917 43.64 152.453 42.1035 152.453 40.2156V32.5497L151.82 32.1228C148.628 29.9754 144.913 28.8401 141.078 28.8401C134.097 28.8401 127.846 32.4522 124.357 38.5043L124.197 38.7803H120.644V38.2283C120.644 34.1469 117.324 30.8274 113.243 30.8274C111.138 30.8274 109.115 31.7603 107.695 33.387L107.279 33.8635L106.863 33.387C105.443 31.7603 103.42 30.8274 101.315 30.8274C99.2102 30.8274 97.1879 31.7603 95.7673 33.387L95.3515 33.8635L94.9356 33.387C93.5151 31.7603 91.4928 30.8274 89.3877 30.8274C87.2827 30.8274 85.2604 31.7603 83.8398 33.387L83.424 33.8635L83.0081 33.387C81.5876 31.7603 79.5653 30.8274 77.4602 30.8274C73.3789 30.8274 70.0594 34.1469 70.0594 38.2283V38.7803H58.5533L58.3932 38.5043C54.9044 32.4522 48.6536 28.8401 41.6722 28.8401C37.8375 28.8401 34.1223 29.9754 30.9279 32.1247L30.2949 32.5516V40.2174C30.2949 42.1053 31.8314 43.6418 33.7193 43.6418H44.2116V52.6988H33.7193C31.8314 52.6988 30.2949 54.2352 30.2949 56.1232V63.789L30.9279 64.2159C34.1205 66.3633 37.8356 67.4986 41.6704 67.4986C42.8885 67.4986 44.149 67.3551 45.6358 67.0441L47.4464 66.6669L44.3588 69.7546L54.3781 79.7758L54.2088 80.1291C53.5684 81.4613 53.0035 82.8101 52.5288 84.1386L52.3981 84.5048H38.2478V111.234H52.3963L52.527 111.6C53.0035 112.934 53.5684 114.285 54.207 115.61L54.3762 115.963L44.3569 125.984L63.2547 144.884L73.2759 134.863L73.6292 135.032C74.9522 135.669 76.3028 136.235 77.6406 136.714L78.0067 136.844V150.995H104.736V136.846L105.102 136.716C106.44 136.237 107.791 135.672 109.114 135.034L109.467 134.865L119.488 144.886L138.386 125.986L128.368 115.965L128.538 115.612C129.172 114.292 129.737 112.942 130.218 111.602L130.348 111.236H144.5V84.5066H130.352L130.221 84.1405C129.748 82.8137 129.183 81.4631 128.541 80.1309L128.372 79.7776L138.391 69.7564L135.311 66.6724L137.122 67.0515C138.562 67.3533 139.856 67.4986 141.076 67.4986C144.911 67.4986 148.626 66.3633 151.818 64.2141L152.451 63.7872V56.1213C152.451 54.2334 150.915 52.6969 149.027 52.6969H138.535V43.64H149.029ZM108.716 38.2283C108.716 35.7312 110.748 33.6998 113.245 33.6998C115.742 33.6998 117.773 35.7312 117.773 38.2283V62.0851C117.773 64.5821 115.742 66.6136 113.245 66.6136C110.748 66.6136 108.716 64.5821 108.716 62.0851V38.2283ZM96.7886 38.2283C96.7886 35.7312 98.8201 33.6998 101.317 33.6998C103.814 33.6998 105.846 35.7312 105.846 38.2283V62.0851C105.846 64.5821 103.814 66.6136 101.317 66.6136C98.8201 66.6136 96.7886 64.5821 96.7886 62.0851V38.2283ZM84.8593 38.2283C84.8593 35.7312 86.8907 33.6998 89.3877 33.6998C91.8847 33.6998 93.9162 35.7312 93.9162 38.2283V62.0851C93.9162 64.5821 91.8847 66.6136 89.3877 66.6136C86.8907 66.6136 84.8593 64.5821 84.8593 62.0851V38.2283ZM72.9318 38.2283C72.9318 35.7312 74.9632 33.6998 77.4602 33.6998C79.9572 33.6998 81.9887 35.7312 81.9887 38.2283V62.0851C81.9887 64.0319 80.7485 65.7561 78.9029 66.3762L78.5993 66.4774L72.9318 61.4392V38.2283ZM88.0205 78.6956L89.9269 76.5482L80.9803 68.5953L81.5692 68.1979C82.1654 67.7949 82.6419 67.3864 83.0247 66.9485L83.4387 66.4737L83.8546 66.9466C85.2751 68.5604 87.29 69.4841 89.3841 69.4841C91.4891 69.4841 93.5114 68.5512 94.9319 66.9245L95.3478 66.4479L95.7637 66.9245C97.1842 68.5512 99.2065 69.4841 101.312 69.4841C103.417 69.4841 105.439 68.5512 106.859 66.9245L107.275 66.4479L107.691 66.9245C109.112 68.5512 111.134 69.4841 113.239 69.4841C114.518 69.4841 115.764 69.1382 116.938 68.4536L117.768 67.9715V77.3947L107.827 87.3349V106.374H103.856V109.247H107.833V118.469L107.621 118.635C102.92 122.319 97.302 124.267 91.3769 124.267C85.4518 124.267 79.834 122.321 75.1325 118.635L74.9209 118.469V109.247H98.7777V106.374H74.9191V87.2778L61.238 75.308C59.8248 74.0733 59.0133 72.2847 59.0133 70.406V53.1404C59.0133 50.095 61.4901 47.6183 64.5354 47.6183C67.5808 47.6183 70.0575 50.095 70.0575 53.1404V62.731L88.0205 78.6956ZM114.702 85.5371C116.711 89.3277 117.771 93.593 117.771 97.8712C117.771 104.004 115.607 109.986 111.68 114.715L110.703 115.891V88.5236L114.352 84.8747L114.702 85.5371ZM72.0467 88.5824V115.889L71.0696 114.714C67.141 109.986 64.9789 104.004 64.9789 97.8694C64.9789 93.6997 65.9799 89.5393 67.8733 85.8407L68.1954 85.2114L72.0467 88.5824ZM41.6741 64.6263C38.7851 64.6263 35.9385 63.8571 33.4433 62.4016L33.1691 62.2415V55.5693H47.0858V40.7694H33.1691V34.0972L33.4433 33.9372C35.9385 32.4816 38.7851 31.7125 41.6741 31.7125C47.9506 31.7125 53.5924 35.216 56.3985 40.8577L56.796 41.6527H70.0575V46.7424L69.1982 46.1664C67.8108 45.2372 66.1989 44.7459 64.5354 44.7459C59.9076 44.7459 56.1409 48.5107 56.1409 53.1404V55.9134L56.0728 56.0367C53.182 61.3343 47.6636 64.6263 41.6741 64.6263ZM124.856 79.2274L125.345 80.1622C126.42 82.2194 127.294 84.3097 127.941 86.3725L128.258 87.3772H141.628V108.362H128.258L127.94 109.368C127.288 111.436 126.414 113.525 125.341 115.578L124.854 116.513L134.328 125.988L119.492 140.826L110.017 131.352L109.084 131.839C107.023 132.916 104.935 133.788 102.874 134.436L101.869 134.752V148.126H80.8828V134.752L79.8781 134.436C77.8135 133.788 75.725 132.914 73.6696 131.839L72.7367 131.352L63.2621 140.825L48.4254 125.986L57.8982 116.513L57.4106 115.578C56.3378 113.525 55.4637 111.436 54.8123 109.368L54.494 108.363H41.1239V87.3772H54.494L54.8123 86.3707C55.4601 84.3098 56.3341 82.2194 57.4087 80.1622L57.8982 79.2274L48.4254 69.7546L56.1464 62.0336V70.4042C56.1464 73.1109 57.3149 75.6871 59.3537 77.4701L66.0093 83.294L65.7922 83.6841C63.3835 88.0231 62.1102 92.9269 62.1102 97.8694C62.1102 114.009 75.2392 127.138 91.3787 127.138C107.518 127.138 120.647 114.009 120.647 97.8694C120.647 92.684 119.273 87.5906 116.673 83.1394L116.457 82.7714L120.647 78.5815V57.5566H122.136L134.328 69.7546L124.856 79.2274ZM149.581 55.5693V62.2415L149.307 62.4016C146.812 63.8571 143.965 64.6263 141.076 64.6263C134.799 64.6263 129.158 61.1227 126.352 55.481L125.954 54.6861H120.644V41.6545H125.954L126.35 40.8596C129.158 35.2197 134.801 31.7143 141.076 31.7143C143.965 31.7143 146.812 32.4835 149.307 33.939L149.581 34.0991V40.7713H135.664V55.5711H149.581V55.5693Z" fill="#2AAC17"/><g opacity=".3" fill="#2AAC17"><g opacity=".3"><g opacity=".3"><path opacity=".3" d="M4.32422 118.118H1.38007C0.618272 118.118 0 117.5 0 116.738C0 115.976 0.618272 115.358 1.38007 115.358H4.32422C5.08602 115.358 5.70429 115.976 5.70429 116.738C5.70429 117.5 5.08602 118.118 4.32422 118.118Z"/><path opacity=".3" d="M15.7313 118.118H12.4191C11.6573 118.118 11.0391 117.499 11.0391 116.737C11.0391 115.976 11.6573 115.357 12.4191 115.357H15.7313C16.4931 115.357 17.1114 115.976 17.1114 116.737C17.1114 117.499 16.4931 118.118 15.7313 118.118Z"/></g><g opacity=".3"><path opacity=".3" d="M8.4621 125.386C7.7003 125.386 7.08203 124.768 7.08203 124.006V121.062C7.08203 120.3 7.7003 119.682 8.4621 119.682C9.2239 119.682 9.84217 120.3 9.84217 121.062V124.006C9.84217 124.768 9.2239 125.386 8.4621 125.386Z"/><path opacity=".3" d="M8.4621 114.345C7.7003 114.345 7.08203 113.727 7.08203 112.965V109.653C7.08203 108.891 7.7003 108.273 8.4621 108.273C9.2239 108.273 9.84217 108.891 9.84217 109.653V112.965C9.84217 113.727 9.2239 114.345 8.4621 114.345Z"/></g></g><g opacity=".3"><g opacity=".3"><path opacity=".3" d="M133.5 140.751H130.556C129.794 140.751 129.176 140.132 129.176 139.371C129.176 138.609 129.794 137.99 130.556 137.99H133.5C134.262 137.99 134.88 138.609 134.88 139.371C134.88 140.132 134.262 140.751 133.5 140.751Z"/><path opacity=".3" d="M144.909 140.751H141.597C140.835 140.751 140.217 140.132 140.217 139.371C140.217 138.609 140.835 137.99 141.597 137.99H144.909C145.671 137.99 146.289 138.609 146.289 139.371C146.289 140.132 145.671 140.751 144.909 140.751Z"/></g><g opacity=".3"><path opacity=".3" d="M137.642 148.019C136.88 148.019 136.262 147.4 136.262 146.639V143.695C136.262 142.933 136.88 142.314 137.642 142.314C138.404 142.314 139.022 142.933 139.022 143.695V146.639C139.022 147.4 138.404 148.019 137.642 148.019Z"/><path opacity=".3" d="M137.642 136.978C136.88 136.978 136.262 136.36 136.262 135.598V132.286C136.262 131.524 136.88 130.906 137.642 130.906C138.404 130.906 139.022 131.524 139.022 132.286V135.598C139.022 136.36 138.404 136.978 137.642 136.978Z"/></g></g><g opacity=".3"><g opacity=".3"><path opacity=".3" d="M163.859 25.0089H160.915C160.153 25.0089 159.535 24.3907 159.535 23.6289C159.535 22.8671 160.153 22.2488 160.915 22.2488H163.859C164.621 22.2488 165.239 22.8671 165.239 23.6289C165.239 24.3907 164.621 25.0089 163.859 25.0089Z"/><path opacity=".3" d="M175.266 25.0087H171.954C171.192 25.0087 170.574 24.3904 170.574 23.6286C170.574 22.8668 171.192 22.2485 171.954 22.2485H175.266C176.028 22.2485 176.647 22.8668 176.647 23.6286C176.647 24.3904 176.028 25.0087 175.266 25.0087Z"/></g><g opacity=".3"><path opacity=".3" d="M167.999 32.277C167.237 32.277 166.619 31.6588 166.619 30.897V27.9528C166.619 27.191 167.237 26.5728 167.999 26.5728C168.761 26.5728 169.379 27.191 169.379 27.9528V30.897C169.379 31.6588 168.761 32.277 167.999 32.277Z"/><path opacity=".3" d="M167.999 21.2364C167.237 21.2364 166.619 20.6181 166.619 19.8563V16.5441C166.619 15.7823 167.237 15.1641 167.999 15.1641C168.761 15.1641 169.379 15.7823 169.379 16.5441V19.8563C169.379 20.6181 168.761 21.2364 167.999 21.2364Z"/></g></g><path opacity=".3" d="M24.7584 149.949C22.2927 149.949 20.2852 147.944 20.2852 145.476C20.2852 143.01 22.2909 141.003 24.7584 141.003C27.2242 141.003 29.2317 143.009 29.2317 145.476C29.2317 147.942 27.226 149.949 24.7584 149.949ZM24.7584 143.763C23.8145 143.763 23.0453 144.532 23.0453 145.476C23.0453 146.42 23.8145 147.189 24.7584 147.189C25.7024 147.189 26.4716 146.42 26.4716 145.476C26.4716 144.53 25.7042 143.763 24.7584 143.763Z"/><path opacity=".3" d="M171.958 63.3987C169.492 63.3987 167.484 61.393 167.484 58.9254C167.484 56.4597 169.492 54.4521 171.958 54.4521C174.423 54.4521 176.431 56.4579 176.431 58.9254C176.431 61.393 174.423 63.3987 171.958 63.3987ZM171.958 57.2123C171.014 57.2123 170.245 57.9815 170.245 58.9254C170.245 59.8694 171.014 60.6385 171.958 60.6385C172.902 60.6385 173.671 59.8694 173.671 58.9254C173.671 57.9815 172.902 57.2123 171.958 57.2123Z"/></g><g opacity=".3" fill="#2AAC17"><path opacity=".3" d="M141.872 19.5807C141.59 19.5807 141.305 19.4942 141.06 19.3157C138.416 17.3892 135.632 15.5988 132.785 13.996C132.121 13.6225 131.885 12.7797 132.261 12.1155C132.634 11.4512 133.477 11.2156 134.141 11.591C137.08 13.2471 139.956 15.0964 142.687 17.0856C143.303 17.5345 143.439 18.3975 142.99 19.014C142.718 19.3838 142.298 19.5807 141.872 19.5807Z"/><path opacity=".3" d="M65.8411 7.0274C65.2522 7.0274 64.7076 6.64834 64.5236 6.05767C64.2972 5.32899 64.7039 4.55615 65.4307 4.32982C73.7995 1.72609 82.5289 0.406738 91.3742 0.406738C98.293 0.406738 105.179 1.22006 111.843 2.82094C112.585 2.99943 113.041 3.74467 112.863 4.48623C112.684 5.22779 111.939 5.68413 111.199 5.50564C104.744 3.95444 98.0758 3.16688 91.3742 3.16688C82.8067 3.16688 74.3533 4.44391 66.2514 6.96484C66.1152 7.00716 65.9772 7.0274 65.8411 7.0274Z"/><path opacity=".3" d="M32.4419 26.5858C32.0757 26.5858 31.7095 26.4404 31.4372 26.1533C30.9146 25.5995 30.9385 24.7254 31.4924 24.2028C32.8577 22.9129 34.2819 21.6525 35.7264 20.4564C36.3134 19.9706 37.1838 20.0516 37.6696 20.6386C38.1553 21.2256 38.0744 22.0959 37.4874 22.5817C36.0889 23.741 34.7089 24.9628 33.3858 26.2104C33.1208 26.4606 32.7804 26.5858 32.4419 26.5858Z"/><path opacity=".3" d="M6.19729 99.9486C5.51277 99.9486 4.91842 99.4389 4.8301 98.7415C4.36639 95.0889 4.13086 91.3553 4.13086 87.6476C4.13086 83.9582 4.36455 80.243 4.82274 76.6088C6.24881 65.318 9.81859 54.5737 15.4309 44.674C15.8063 44.0115 16.649 43.7779 17.3115 44.1551C17.9739 44.5304 18.2076 45.3732 17.8304 46.0356C12.3984 55.6207 8.94271 66.0246 7.56264 76.9548C7.11733 80.4749 6.89284 84.0741 6.89284 87.6476C6.89284 91.2394 7.12101 94.8552 7.57 98.3937C7.66568 99.15 7.13021 99.84 6.37394 99.9357C6.31505 99.9449 6.25617 99.9486 6.19729 99.9486Z"/><path opacity=".3" d="M48.4876 163.43C48.254 163.43 48.0166 163.371 47.7995 163.244C44.4523 161.31 41.2009 159.132 38.1371 156.767C37.5336 156.301 37.4213 155.435 37.8869 154.831C38.3524 154.228 39.2191 154.115 39.8226 154.581C42.7907 156.87 45.9391 158.981 49.1814 160.852C49.842 161.233 50.0683 162.078 49.6856 162.738C49.4279 163.183 48.9642 163.43 48.4876 163.43Z"/><path opacity=".3" d="M91.3739 174.89C83.5958 174.89 75.8803 173.865 68.4444 171.845C67.7084 171.644 67.2741 170.886 67.4747 170.152C67.6753 169.416 68.4334 168.981 69.1676 169.182C76.3679 171.138 83.8387 172.13 91.3739 172.13C97.4664 172.13 103.546 171.478 109.444 170.194C110.189 170.032 110.923 170.505 111.085 171.248C111.247 171.994 110.776 172.728 110.031 172.89C103.942 174.216 97.6633 174.89 91.3739 174.89Z"/><path opacity=".3" d="M133.463 163.884C132.981 163.884 132.514 163.632 132.26 163.182C131.886 162.517 132.12 161.676 132.784 161.301C134.847 160.138 136.888 158.872 138.847 157.54C139.477 157.111 140.336 157.275 140.765 157.904C141.194 158.534 141.03 159.393 140.4 159.822C138.378 161.198 136.271 162.506 134.14 163.706C133.927 163.827 133.693 163.884 133.463 163.884Z"/><path opacity=".3" d="M155.077 146.597C154.748 146.597 154.416 146.479 154.151 146.24C153.587 145.728 153.542 144.856 154.054 144.291C163.477 133.871 170.195 121.185 173.483 107.605C173.662 106.865 174.407 106.409 175.149 106.589C175.89 106.77 176.345 107.515 176.165 108.255C172.768 122.28 165.829 135.381 156.098 146.142C155.828 146.444 155.452 146.597 155.077 146.597Z"/><path opacity=".3" d="M177.236 89.0294C176.474 89.0294 175.856 88.4112 175.856 87.6494C175.856 85.1064 175.742 82.5431 175.517 80.0259C175.333 77.9649 175.07 75.8875 174.735 73.856C174.612 73.1034 175.122 72.3931 175.872 72.2699C176.625 72.1466 177.335 72.6563 177.459 73.4089C177.804 75.5084 178.075 77.6521 178.264 79.7811C178.496 82.3793 178.614 85.0272 178.614 87.6512C178.616 88.4112 177.998 89.0294 177.236 89.0294Z"/></g></svg>