<svg width="183" height="178" viewBox="0 0 183 178" fill="none" xmlns="http://www.w3.org/2000/svg"><path d="M140.756 57.9148C140.552 57.9148 140.345 57.8699 140.149 57.7766C139.453 57.4405 139.159 56.6041 139.495 55.9077L148.773 36.6434C149.376 35.3906 149.454 33.9773 148.995 32.6647C148.536 31.3522 147.591 30.2973 146.338 29.6943L112.326 13.3352C111.073 12.7321 109.66 12.6537 108.347 13.113C107.035 13.5723 105.98 14.517 105.377 15.7698L90.0615 47.1568C89.7217 47.8513 88.8834 48.1407 88.1889 47.8009C87.4943 47.4611 87.2049 46.6228 87.5447 45.9283L102.856 14.5469C103.781 12.6257 105.401 11.175 107.42 10.4674C109.438 9.75976 111.611 9.88112 113.538 10.8072L147.55 27.1663C151.529 29.08 153.209 33.8746 151.295 37.8533L142.018 57.1175C141.777 57.6216 141.277 57.9148 140.756 57.9148Z" fill="#2AAC17"/><path d="M105.661 121.792C104.498 121.792 103.318 121.538 102.204 121L85.1294 112.789C84.433 112.453 84.1398 111.617 84.474 110.92C84.8101 110.224 85.6465 109.931 86.343 110.265L103.417 118.476C106.003 119.72 109.121 118.627 110.366 116.042L118.462 99.2661C118.798 98.5697 119.634 98.2784 120.331 98.6145C121.027 98.9506 121.318 99.787 120.982 100.483L112.887 117.257C111.513 120.119 108.645 121.792 105.661 121.792Z" fill="#2AAC17"/><path d="M114.498 110.775C114.295 110.775 114.088 110.73 113.892 110.637L88.9907 98.6594C88.2943 98.3234 88.0012 97.4869 88.3354 96.7905C88.6696 96.0941 89.5079 95.801 90.2043 96.1352L115.105 108.112C115.802 108.448 116.095 109.285 115.76 109.981C115.52 110.483 115.019 110.775 114.498 110.775Z" fill="#2AAC17"/><path d="M148.854 39.7988C148.651 39.7988 148.444 39.754 148.248 39.6606L104.166 18.4565C103.47 18.1205 103.177 17.284 103.511 16.5876C103.845 15.8912 104.684 15.5981 105.38 15.9323L149.463 37.1345C150.159 37.4706 150.453 38.307 150.118 39.0034C149.876 39.5057 149.375 39.7988 148.854 39.7988Z" fill="#2AAC17"/><path d="M93.3256 107.843C93.1221 107.843 92.9149 107.799 92.7189 107.705L88.0083 105.439C87.3119 105.103 87.0187 104.266 87.3529 103.57C87.689 102.873 88.5255 102.58 89.2219 102.914L93.9324 105.181C94.6288 105.517 94.922 106.354 94.5878 107.05C94.3469 107.55 93.8466 107.843 93.3256 107.843Z" fill="#2AAC17"/><path d="M38.4881 135.832C38.2846 135.832 38.0774 135.788 37.8813 135.694C37.1849 135.358 36.8918 134.522 37.226 133.825L50.5399 106.144L55.8853 76.3594C56.0067 71.1914 58.6 66.3464 62.8363 63.3797L91.1222 43.7644C92.9332 42.5023 95.1251 42.0374 97.2965 42.4556C99.466 42.8738 101.329 44.1229 102.541 45.9713C104.888 49.5485 104.04 54.3581 100.612 56.9197L80.1906 72.1716C82.0184 74.2254 85.661 78.8108 88.0527 85.0879C89.9665 90.1102 90.6722 95.1681 90.1532 100.121C89.5034 106.301 86.9362 112.306 82.5225 117.967C82.0464 118.577 81.167 118.685 80.5565 118.209C79.946 117.733 79.8377 116.854 80.3138 116.243C84.3858 111.021 86.7589 105.517 87.3619 99.8861C87.8436 95.3847 87.2088 90.773 85.4706 86.1764C82.474 78.2451 77.1734 73.0472 77.1211 72.995C76.8261 72.7093 76.6712 72.3079 76.6992 71.899C76.7253 71.4901 76.9288 71.113 77.2574 70.8665L98.9358 54.6736C101.18 52.997 101.734 49.8491 100.198 47.506C99.4044 46.2961 98.1852 45.4784 96.7644 45.2039C95.3436 44.9295 93.9078 45.2338 92.7204 46.0609L64.4401 65.6761C60.9095 68.1481 58.7568 72.2033 58.6859 76.52C58.684 76.5946 58.6765 76.6712 58.6635 76.744L53.264 106.826C53.2416 106.951 53.2023 107.072 53.1482 107.186L39.7502 135.039C39.5094 135.539 39.009 135.832 38.4881 135.832Z" fill="#2AAC17"/><path d="M133.324 73.3553C130.027 73.3553 126.993 71.169 126.069 67.8419C124.958 63.8427 127.306 59.6847 131.306 58.572L143.684 55.1329C145.622 54.5933 147.653 54.8435 149.403 55.8311C151.154 56.8207 152.414 58.4319 152.952 60.3699C154.063 64.3692 151.714 68.5271 147.715 69.6398L135.337 73.079C134.666 73.2657 133.989 73.3553 133.324 73.3553ZM145.708 57.6552C145.282 57.6552 144.855 57.7131 144.435 57.8307L132.056 61.2699C129.545 61.9681 128.068 64.5801 128.766 67.0913C129.465 69.6025 132.077 71.0793 134.588 70.3811L146.966 66.942C149.478 66.2437 150.954 63.6317 150.256 61.1205C149.918 59.9032 149.127 58.8912 148.027 58.2695C147.306 57.8625 146.511 57.6552 145.708 57.6552Z" fill="#2AAC17"/><path d="M130.576 87.0184C127.279 87.0184 124.245 84.8321 123.321 81.505C122.783 79.567 123.031 77.5356 124.021 75.7862C125.01 74.0349 126.622 72.7746 128.56 72.2369L140.938 68.7978C142.876 68.2582 144.908 68.5084 146.657 69.498C148.408 70.4875 149.669 72.0988 150.206 74.0368C150.744 75.9748 150.496 78.0061 149.506 79.7555C148.517 81.5068 146.905 82.7671 144.967 83.3048L132.589 86.7439C131.918 86.9306 131.241 87.0184 130.576 87.0184ZM126.019 80.7563C126.717 83.2675 129.329 84.7443 131.84 84.046L144.219 80.6069C146.73 79.9086 148.207 77.2966 147.508 74.7855C146.81 72.2743 144.2 70.7993 141.687 71.4957L129.308 74.9348C126.795 75.6331 125.32 78.2432 126.019 80.7563Z" fill="#2AAC17"/><path d="M123.476 101.783C120.179 101.783 117.145 99.5968 116.221 96.2697C115.683 94.3317 115.932 92.3003 116.921 90.5509C117.911 88.7996 119.522 87.5394 121.46 87.0016L133.839 83.5625C135.777 83.023 137.808 83.2731 139.557 84.2608C141.309 85.2504 142.569 86.8616 143.107 88.7996C144.217 92.7988 141.869 96.9568 137.87 98.0695L125.491 101.509C124.817 101.693 124.141 101.783 123.476 101.783ZM118.917 95.5191C119.615 98.0303 122.227 99.5072 124.739 98.8089L137.117 95.3698C139.628 94.6715 141.105 92.0595 140.407 89.5483C140.069 88.331 139.277 87.319 138.178 86.6973C137.078 86.0756 135.803 85.9206 134.585 86.2586L122.207 89.6977C119.696 90.3959 118.219 93.008 118.917 95.5191Z" fill="#2AAC17"/><path d="M69.7323 156.68C69.5288 156.68 69.3215 156.635 69.1255 156.542C68.4291 156.206 68.1359 155.369 68.4701 154.673L81.0242 128.573C81.2632 128.078 81.7635 127.767 82.3181 127.78C95.5218 128.08 101.564 119.005 101.623 118.913C102.043 118.263 102.912 118.08 103.559 118.501C104.209 118.921 104.394 119.789 103.972 120.437C103.901 120.547 102.195 123.144 98.6622 125.683C95.5517 127.92 90.3781 130.534 83.162 130.586L70.9925 155.886C70.7554 156.389 70.2532 156.68 69.7323 156.68Z" fill="#2AAC17"/><path d="M94.0562 162.268C84.1384 162.268 74.5156 160.324 65.4567 156.493C56.7077 152.793 48.8493 147.496 42.1036 140.748C35.3561 134.001 30.0593 126.144 26.3588 117.395C22.5276 108.336 20.584 98.7135 20.584 88.7957C20.584 78.8779 22.5276 69.2551 26.3588 60.1962C30.0593 51.4472 35.3561 43.5888 42.1036 36.8431C48.8511 30.0956 56.7077 24.7988 65.4567 21.0983C74.5156 17.2671 84.1384 15.3235 94.0562 15.3235C94.8292 15.3235 95.4565 15.9508 95.4565 16.7238C95.4565 17.4967 94.8292 18.1241 94.0562 18.1241C84.5156 18.1241 75.2587 19.993 66.5471 23.6767C58.1323 27.2371 50.5726 32.3323 44.0827 38.8222C37.591 45.3139 32.4958 52.8718 28.9372 61.2866C25.2516 69.9982 23.3846 79.2532 23.3846 88.7957C23.3846 98.3382 25.2535 107.593 28.9372 116.305C32.4958 124.72 37.5928 132.279 44.0827 138.769C50.5744 145.261 58.1323 150.356 66.5471 153.915C75.2587 157.6 84.5137 159.467 94.0562 159.467C103.599 159.467 112.854 157.598 121.565 153.915C129.98 150.356 137.54 145.259 144.03 138.769C150.521 132.277 155.617 124.72 159.175 116.305C162.861 107.593 164.728 98.3382 164.728 88.7957C164.728 73.7361 160.056 59.3616 151.218 47.2295C150.762 46.6041 150.9 45.7284 151.526 45.2729C152.151 44.8173 153.027 44.9555 153.483 45.5809C162.672 58.1966 167.53 73.1405 167.53 88.7976C167.53 98.7153 165.587 108.338 161.755 117.397C158.055 126.146 152.758 134.004 146.011 140.75C139.263 147.498 131.407 152.794 122.658 156.495C113.597 160.324 103.974 162.268 94.0562 162.268Z" fill="#2AAC17"/><g opacity=".3" fill="#2AAC17"><g opacity=".3"><g opacity=".3"><path opacity=".3" d="M4.38757 119.71H1.40029C0.627329 119.71 0 119.083 0 118.31C0 117.537 0.627329 116.91 1.40029 116.91H4.38757C5.16053 116.91 5.78786 117.537 5.78786 118.31C5.78786 119.083 5.16053 119.71 4.38757 119.71Z"/><path opacity=".3" d="M15.9641 119.71H12.6034C11.8305 119.71 11.2031 119.083 11.2031 118.31C11.2031 117.537 11.8305 116.91 12.6034 116.91H15.9641C16.7371 116.91 17.3644 117.537 17.3644 118.31C17.3644 119.083 16.7371 119.71 15.9641 119.71Z"/></g><g opacity=".3"><path opacity=".3" d="M8.58779 127.085C7.81483 127.085 7.1875 126.458 7.1875 125.685V122.698C7.1875 121.925 7.81483 121.297 8.58779 121.297C9.36075 121.297 9.98808 121.925 9.98808 122.698V125.685C9.98808 126.458 9.36075 127.085 8.58779 127.085Z"/><path opacity=".3" d="M8.58779 115.883C7.81483 115.883 7.1875 115.256 7.1875 114.483V111.122C7.1875 110.349 7.81483 109.722 8.58779 109.722C9.36075 109.722 9.98808 110.349 9.98808 111.122V114.483C9.98808 115.256 9.36075 115.883 8.58779 115.883Z"/></g></g><g opacity=".3"><g opacity=".3"><path opacity=".3" d="M122.571 135.767H119.584C118.811 135.767 118.184 135.14 118.184 134.367C118.184 133.594 118.811 132.967 119.584 132.967H122.571C123.344 132.967 123.971 133.594 123.971 134.367C123.971 135.14 123.344 135.767 122.571 135.767Z"/><path opacity=".3" d="M134.148 135.767H130.787C130.014 135.767 129.387 135.14 129.387 134.367C129.387 133.594 130.014 132.966 130.787 132.966H134.148C134.921 132.966 135.548 133.594 135.548 134.367C135.548 135.14 134.921 135.767 134.148 135.767Z"/></g><g opacity=".3"><path opacity=".3" d="M126.773 143.142C126 143.142 125.373 142.514 125.373 141.741V138.754C125.373 137.981 126 137.354 126.773 137.354C127.546 137.354 128.174 137.981 128.174 138.754V141.741C128.174 142.514 127.546 143.142 126.773 143.142Z"/><path opacity=".3" d="M126.773 131.939C126 131.939 125.373 131.312 125.373 130.539V127.178C125.373 126.405 126 125.778 126.773 125.778C127.546 125.778 128.174 126.405 128.174 127.178V130.539C128.174 131.312 127.546 131.939 126.773 131.939Z"/></g></g><g opacity=".3"><g opacity=".3"><path opacity=".3" d="M166.259 25.2381H163.271C162.498 25.2381 161.871 24.6107 161.871 23.8378C161.871 23.0648 162.498 22.4375 163.271 22.4375H166.259C167.032 22.4375 167.659 23.0648 167.659 23.8378C167.659 24.6107 167.032 25.2381 166.259 25.2381Z"/><path opacity=".3" d="M177.835 25.2373H174.475C173.702 25.2373 173.074 24.61 173.074 23.8371C173.074 23.0641 173.702 22.4368 174.475 22.4368H177.835C178.608 22.4368 179.235 23.0641 179.235 23.8371C179.235 24.61 178.608 25.2373 177.835 25.2373Z"/></g><g opacity=".3"><path opacity=".3" d="M170.459 32.6121C169.686 32.6121 169.059 31.9847 169.059 31.2118V28.2245C169.059 27.4515 169.686 26.8242 170.459 26.8242C171.232 26.8242 171.859 27.4515 171.859 28.2245V31.2118C171.859 31.9847 171.232 32.6121 170.459 32.6121Z"/><path opacity=".3" d="M170.459 21.4098C169.686 21.4098 169.059 20.7825 169.059 20.0095V16.6488C169.059 15.8759 169.686 15.2485 170.459 15.2485C171.232 15.2485 171.859 15.8759 171.859 16.6488V20.0095C171.859 20.7825 171.232 21.4098 170.459 21.4098Z"/></g></g><path opacity=".3" d="M25.1208 152.008C22.619 152.008 20.582 149.973 20.582 147.469C20.582 144.968 22.6171 142.931 25.1208 142.931C27.6227 142.931 29.6596 144.966 29.6596 147.469C29.6596 149.971 27.6246 152.008 25.1208 152.008ZM25.1208 145.731C24.163 145.731 23.3826 146.512 23.3826 147.469C23.3826 148.427 24.163 149.208 25.1208 149.208C26.0786 149.208 26.8591 148.427 26.8591 147.469C26.8591 146.51 26.0805 145.731 25.1208 145.731Z"/><path opacity=".3" d="M174.474 64.1897C171.972 64.1897 169.936 62.1546 169.936 59.6509C169.936 57.149 171.971 55.1121 174.474 55.1121C176.978 55.1121 179.013 57.1471 179.013 59.6509C179.013 62.1546 176.976 64.1897 174.474 64.1897ZM174.474 57.9126C173.517 57.9126 172.736 58.6931 172.736 59.6509C172.736 60.6087 173.517 61.3891 174.474 61.3891C175.432 61.3891 176.213 60.6087 176.213 59.6509C176.213 58.6931 175.432 57.9126 174.474 57.9126Z"/></g><path d="M104.229 75.9731C103.871 75.9731 103.512 75.8368 103.24 75.5623L95.7228 68.0456C95.1757 67.4985 95.1757 66.6117 95.7228 66.0646C96.2698 65.5176 97.1567 65.5176 97.7037 66.0646L104.229 72.59L127.674 49.1454C128.221 48.5983 129.108 48.5983 129.655 49.1454C130.202 49.6924 130.202 50.5793 129.655 51.1263L105.219 75.5623C104.946 75.8368 104.588 75.9731 104.229 75.9731Z" fill="#2AAC17"/><g opacity=".3" fill="#2AAC17"><path opacity=".3" d="M145.292 19.7299C145.007 19.7299 144.717 19.6422 144.469 19.4611C141.786 17.5063 138.959 15.6896 136.073 14.0634C135.399 13.6844 135.16 12.8293 135.541 12.1553C135.92 11.4813 136.775 11.2423 137.449 11.6232C140.43 13.3035 143.349 15.1799 146.119 17.1982C146.745 17.6538 146.883 18.5294 146.427 19.1549C146.151 19.5302 145.725 19.7299 145.292 19.7299Z"/><path opacity=".3" d="M68.1484 6.9928C67.5509 6.9928 66.9983 6.60818 66.8116 6.00886C66.5819 5.26951 66.9945 4.48535 67.732 4.2557C76.2234 1.61569 85.0788 0.275146 94.0537 0.275146C101.074 0.275146 108.06 1.10038 114.823 2.72472C115.575 2.90582 116.038 3.66198 115.857 4.4144C115.676 5.16682 114.92 5.62985 114.167 5.44874C107.62 3.87482 100.852 3.07572 94.0537 3.07572C85.3607 3.07572 76.7835 4.37146 68.5629 6.92932C68.4266 6.97226 68.2865 6.9928 68.1484 6.9928Z"/><path opacity=".3" d="M34.259 26.8377C33.8874 26.8377 33.5159 26.6902 33.2396 26.3989C32.7093 25.8369 32.7336 24.9501 33.2956 24.4198C34.6809 23.111 36.126 21.8321 37.5917 20.6185C38.1872 20.1256 39.0704 20.2078 39.5633 20.8034C40.0562 21.3989 39.974 22.2821 39.3784 22.775C37.9595 23.9512 36.5592 25.1909 35.2168 26.4568C34.9479 26.7107 34.6025 26.8377 34.259 26.8377Z"/><path opacity=".3" d="M7.63186 101.275C6.93731 101.275 6.33425 100.758 6.24464 100.05C5.77414 96.3443 5.53516 92.556 5.53516 88.7939C5.53516 85.0505 5.77227 81.2809 6.23717 77.5935C7.68413 66.1373 11.3062 55.2356 17.0007 45.1908C17.3816 44.5187 18.2367 44.2816 18.9088 44.6643C19.581 45.0452 19.8181 45.9003 19.4354 46.5724C13.9238 56.2979 10.4175 66.8542 9.01721 77.9445C8.56538 81.5162 8.3376 85.1681 8.3376 88.7939C8.3376 92.4384 8.56911 96.1072 9.02468 99.6975C9.12176 100.465 8.57845 101.165 7.81109 101.262C7.75135 101.271 7.6916 101.275 7.63186 101.275Z"/><path opacity=".3" d="M50.5417 165.687C50.3046 165.687 50.0637 165.627 49.8434 165.498C46.4472 163.536 43.1482 161.325 40.0395 158.926C39.4271 158.454 39.3132 157.574 39.7856 156.962C40.258 156.349 41.1373 156.236 41.7497 156.708C44.7613 159.031 47.9558 161.172 51.2456 163.071C51.9158 163.457 52.1436 164.314 51.7571 164.985C51.4958 165.436 51.0253 165.687 50.5417 165.687Z"/><path opacity=".3" d="M94.0567 177.314C86.1647 177.314 78.3361 176.274 70.7914 174.224C70.0446 174.021 69.6039 173.252 69.8075 172.507C70.011 171.76 70.7802 171.319 71.5251 171.523C78.8309 173.507 86.4111 174.514 94.0567 174.514C100.239 174.514 106.407 173.853 112.391 172.55C113.147 172.385 113.892 172.863 114.057 173.619C114.221 174.376 113.743 175.121 112.987 175.285C106.809 176.631 100.438 177.314 94.0567 177.314Z"/><path opacity=".3" d="M136.761 166.148C136.272 166.148 135.797 165.892 135.54 165.434C135.161 164.76 135.398 163.907 136.072 163.526C138.165 162.346 140.235 161.062 142.224 159.71C142.862 159.275 143.734 159.441 144.169 160.08C144.604 160.718 144.438 161.59 143.8 162.025C141.746 163.422 139.61 164.749 137.448 165.967C137.231 166.09 136.994 166.148 136.761 166.148Z"/><path opacity=".3" d="M158.693 148.607C158.359 148.607 158.023 148.487 157.754 148.245C157.181 147.726 157.136 146.841 157.655 146.267C167.216 135.694 174.033 122.823 177.371 109.044C177.552 108.292 178.31 107.83 179.061 108.013C179.813 108.195 180.274 108.953 180.091 109.703C176.645 123.934 169.604 137.227 159.731 148.146C159.455 148.452 159.074 148.607 158.693 148.607Z"/><path opacity=".3" d="M181.175 90.1942C180.402 90.1942 179.775 89.5668 179.775 88.7939C179.775 86.2155 179.659 83.6128 179.431 81.0587C179.245 78.9695 178.978 76.8634 178.638 74.7985C178.513 74.0348 179.03 73.316 179.794 73.1891C180.557 73.064 181.278 73.5811 181.403 74.3448C181.754 76.4769 182.028 78.6521 182.221 80.8104C182.456 83.4466 182.575 86.1333 182.575 88.7957C182.575 89.5687 181.948 90.1942 181.175 90.1942Z"/></g></svg>