<svg width="314" height="281" viewBox="0 0 314 281" fill="none" xmlns="http://www.w3.org/2000/svg"><path d="M202.247 76.2871C204.427 76.8359 205.517 78.4824 206.608 80.6777C207.698 82.873 207.153 85.0684 205.517 86.7148L185.347 105.924L190.253 133.365C190.253 136.109 189.708 138.305 187.528 139.402C185.347 141.049 183.712 141.049 181.531 139.951L157 126.779L132.469 139.951C130.288 141.049 128.108 141.049 125.927 139.402C123.747 138.305 123.201 136.109 123.747 133.365L128.653 105.924L108.483 86.7148C106.302 85.0684 105.757 82.873 106.847 80.6777C107.938 78.4824 109.573 76.8359 111.753 76.2871L139.556 72.4453L151.549 47.1992C152.639 45.0039 154.274 43.9062 157 43.9062C159.181 43.9062 161.361 45.0039 162.451 47.1992L174.444 72.4453L202.247 76.2871ZM168.993 100.436L180.986 88.9102L164.632 86.166L157 70.7988L149.368 86.166L133.014 88.9102L145.007 100.436L142.281 117.449L157 109.217L171.719 117.449L168.993 100.436ZM244.222 35.125H307.458C309.094 35.125 310.729 36.2227 311.819 37.3203C312.91 38.418 314 40.0645 314 41.7109V75.7383C314 87.2637 310.184 98.7891 302.552 110.314C294.92 121.84 284.562 131.719 271.479 139.951C257.306 148.732 242.587 154.77 226.233 156.965C218.601 172.881 209.333 185.504 197.885 194.285C187.528 203.066 176.625 208.006 165.722 210.201V263.438H212.604C216.42 263.438 219.691 265.084 222.417 267.828C225.142 270.572 226.778 273.865 226.778 277.707C226.778 278.805 226.233 279.902 225.687 280.451C224.597 281 224.052 281 223.507 281H90.493C89.4028 281 88.8576 281 88.3125 280.451C87.2222 279.902 87.2222 278.805 87.2222 277.707C87.2222 273.865 88.3125 270.572 91.0382 267.828C93.7639 265.084 97.0347 263.438 101.396 263.438H148.278V210.201C136.83 208.006 125.927 203.066 116.115 194.285C104.122 185.504 94.8542 172.881 87.7674 156.965C71.4132 154.77 56.1493 148.732 42.5208 139.951C29.4375 131.719 19.0799 121.84 11.4479 110.314C3.81597 98.7891 0 87.2637 0 75.7383V41.7109C0 40.0645 0.545139 38.418 1.63542 37.3203C2.72569 36.2227 4.36111 35.125 6.54167 35.125H69.7778V6.58594C69.7778 4.93945 70.3229 3.29297 71.4132 2.19531C72.5035 1.09766 74.1389 0 76.3194 0H237.681C239.316 0 240.951 1.09766 242.042 2.19531C243.132 3.29297 244.222 4.93945 244.222 6.58594V35.125ZM17.4444 75.7383C17.4444 83.4219 19.625 91.1055 25.0764 99.3379C30.5278 108.119 37.6146 115.254 46.8819 121.84C56.6944 129.523 68.1424 134.463 80.1354 137.207C73.0486 116.352 69.7778 92.752 69.7778 65.8594V52.6875H17.4444V75.7383ZM157 193.188C169.538 193.188 180.986 187.699 191.889 176.174C202.792 165.197 210.969 149.83 217.51 130.072C223.507 110.314 226.778 88.9102 226.778 65.8594V17.5625H87.2222V65.8594C87.2222 88.9102 89.9479 110.314 96.4896 130.072C102.486 149.83 110.663 165.197 121.566 176.174C132.469 187.699 143.917 193.188 157 193.188ZM296.556 75.7383V52.6875H244.222V65.8594C244.222 92.752 240.951 116.352 234.41 137.207C245.858 134.463 256.76 129.523 267.118 121.84C275.84 115.254 282.927 108.119 288.378 99.3379C293.83 91.1055 296.556 83.4219 296.556 75.7383Z" fill="#D8EDF9"/></svg>