<svg width="11" height="12" viewBox="0 0 11 12" fill="none" xmlns="http://www.w3.org/2000/svg"><path d="M0.653618 5.46899L0.653618 5.43384C0.595477 5.50415 0.566406 5.60962 0.566406 5.75024C0.566406 5.85571 0.595477 5.96118 0.653618 6.06665L4.92699 11.2698C5.0142 11.3401 5.10142 11.3752 5.18863 11.3752C5.27584 11.3752 5.36305 11.3401 5.42119 11.2698L6.0026 10.5667C6.06075 10.4612 6.08982 10.3557 6.08982 10.2502C6.08982 10.1096 6.06075 10.0393 6.0026 9.96899L2.54321 5.75024L6.00261 1.53149C6.06075 1.46118 6.08982 1.35571 6.08982 1.25024C6.08982 1.10962 6.06075 1.00415 6.00261 0.933838L5.42119 0.230713C5.36305 0.1604 5.27584 0.125244 5.18863 0.125244C5.10142 0.125244 5.01421 0.1604 4.92699 0.265869L0.653618 5.46899ZM5.30491 6.06665C5.24677 5.96118 5.2177 5.85571 5.2177 5.75024C5.2177 5.60962 5.24677 5.53931 5.30491 5.46899L9.57829 0.230713C9.6655 0.160401 9.75271 0.125245 9.83992 0.125245C9.92713 0.125245 10.0143 0.160401 10.0725 0.26587L10.6539 0.933838C10.712 1.00415 10.7411 1.10962 10.7411 1.25024C10.7411 1.35571 10.712 1.46118 10.6539 1.53149L7.1945 5.75024L10.6539 9.969C10.712 10.0393 10.7411 10.1096 10.7411 10.2502C10.7411 10.3557 10.712 10.4612 10.6539 10.5667L10.0725 11.2698C10.0143 11.3401 9.92713 11.3752 9.83992 11.3752C9.75271 11.3752 9.6655 11.3401 9.57829 11.2698L5.30491 6.06665Z"/></svg>