<svg width="11" height="12" viewBox="0 0 11 12" fill="none" xmlns="http://www.w3.org/2000/svg"><path d="M10.1564 6.03174L10.1564 6.0669C10.2146 5.99658 10.2437 5.89111 10.2437 5.75049C10.2437 5.64502 10.2146 5.53955 10.1564 5.43408L5.88307 0.230957C5.79585 0.160644 5.70864 0.125488 5.62143 0.125488C5.53422 0.125488 5.44701 0.160644 5.38887 0.230957L4.80745 0.934082C4.74931 1.03955 4.72024 1.14502 4.72024 1.25049C4.72024 1.39111 4.74931 1.46143 4.80745 1.53174L8.26685 5.75049L4.80745 9.96924C4.74931 10.0396 4.72024 10.145 4.72024 10.2505C4.72024 10.3911 4.74931 10.4966 4.80745 10.5669L5.38886 11.27C5.44701 11.3403 5.53422 11.3755 5.62143 11.3755C5.70864 11.3755 5.79585 11.3403 5.88306 11.2349L10.1564 6.03174ZM5.50515 5.43408C5.56329 5.53955 5.59236 5.64502 5.59236 5.75049C5.59236 5.89111 5.56329 5.96143 5.50515 6.03174L1.23177 11.27C1.14456 11.3403 1.05735 11.3755 0.970136 11.3755C0.882924 11.3755 0.795712 11.3403 0.737572 11.2349L0.15616 10.5669C0.0980196 10.4966 0.0689488 10.3911 0.0689488 10.2505C0.0689488 10.145 0.0980196 10.0395 0.15616 9.96924L3.61556 5.75049L0.156161 1.53174C0.0980198 1.46142 0.0689489 1.39111 0.0689489 1.25049C0.0689489 1.14502 0.0980198 1.03955 0.156161 0.934081L0.737573 0.230956C0.795715 0.160643 0.882926 0.125487 0.970138 0.125487C1.05735 0.125487 1.14456 0.160644 1.23177 0.230957L5.50515 5.43408Z"/></svg>