<svg width="135" height="40" viewBox="0 0 135 40" fill="none" xmlns="http://www.w3.org/2000/svg"><path d="M130 40H5C2.25 40 0 37.75 0 35V5C0 2.25 2.25 0 5 0H130C132.75 0 135 2.25 135 5V35C135 37.75 132.75 40 130 40Z" fill="#000"/><path d="M130 0.8C132.32 0.8 134.2 2.68 134.2 5V35C134.2 37.32 132.32 39.2 130 39.2H5C2.68 39.2 0.8 37.32 0.8 35V5C0.8 2.68 2.68 0.8 5 0.8H130ZM130 0H5C2.25 0 0 2.25 0 5V35C0 37.75 2.25 40 5 40H130C132.75 40 135 37.75 135 35V5C135 2.25 132.75 0 130 0Z" fill="#A6A6A6"/><path d="M68.1391 21.75C65.7891 21.75 63.8691 23.54 63.8691 26C63.8691 28.45 65.7891 30.25 68.1391 30.25C70.4891 30.25 72.4091 28.45 72.4091 26C72.4091 23.54 70.4891 21.75 68.1391 21.75ZM68.1391 28.58C66.8491 28.58 65.7391 27.52 65.7391 26C65.7391 24.47 66.8491 23.42 68.1391 23.42C69.4291 23.42 70.5391 24.47 70.5391 26C70.5391 27.52 69.4191 28.58 68.1391 28.58ZM58.8191 21.75C56.4691 21.75 54.5491 23.54 54.5491 26C54.5491 28.45 56.4691 30.25 58.8191 30.25C61.1691 30.25 63.0891 28.45 63.0891 26C63.0891 23.54 61.1691 21.75 58.8191 21.75ZM58.8191 28.58C57.5291 28.58 56.4191 27.52 56.4191 26C56.4191 24.47 57.5291 23.42 58.8191 23.42C60.1091 23.42 61.2191 24.47 61.2191 26C61.2191 27.52 60.1091 28.58 58.8191 28.58ZM47.7391 23.06V24.86H52.0591C51.9291 25.87 51.5891 26.62 51.0791 27.13C50.4491 27.76 49.4691 28.45 47.7491 28.45C45.0891 28.45 43.0091 26.31 43.0091 23.65C43.0091 20.99 45.0891 18.85 47.7491 18.85C49.1791 18.85 50.2291 19.41 50.9991 20.14L52.2691 18.87C51.1891 17.84 49.7591 17.05 47.7391 17.05C44.0991 17.05 41.0391 20.01 41.0391 23.66C41.0391 27.3 44.0991 30.27 47.7391 30.27C49.7091 30.27 51.1891 29.63 52.3491 28.42C53.5391 27.23 53.9091 25.55 53.9091 24.2C53.9091 23.78 53.8791 23.39 53.8091 23.07H47.7391V23.06ZM93.0491 24.46C92.6991 23.51 91.6191 21.75 89.4091 21.75C87.2191 21.75 85.3991 23.47 85.3991 26C85.3991 28.38 87.1991 30.25 89.6191 30.25C91.5691 30.25 92.6991 29.06 93.1591 28.37L91.7091 27.4C91.2291 28.11 90.5691 28.58 89.6191 28.58C88.6691 28.58 87.9891 28.14 87.5591 27.29L93.2491 24.94L93.0491 24.46ZM87.2491 25.88C87.1991 24.24 88.5191 23.4 89.4691 23.4C90.2091 23.4 90.8391 23.77 91.0491 24.3L87.2491 25.88ZM82.6291 30H84.4991V17.5H82.6291V30ZM79.5691 22.7H79.4991C79.0791 22.2 78.2791 21.75 77.2591 21.75C75.1291 21.75 73.1791 23.62 73.1791 26.02C73.1791 28.4 75.1291 30.26 77.2591 30.26C78.2691 30.26 79.0791 29.81 79.4991 29.29H79.5591V29.9C79.5591 31.53 78.6891 32.4 77.2891 32.4C76.1491 32.4 75.4391 31.58 75.1491 30.89L73.5191 31.57C73.9891 32.7 75.2291 34.08 77.2891 34.08C79.4791 34.08 81.3291 32.79 81.3291 29.65V22.01H79.5591V22.7H79.5691ZM77.4191 28.58C76.1291 28.58 75.0491 27.5 75.0491 26.02C75.0491 24.52 76.1291 23.43 77.4191 23.43C78.6891 23.43 79.6891 24.53 79.6891 26.02C79.6991 27.5 78.6991 28.58 77.4191 28.58ZM101.809 17.5H97.3391V30H99.2091V25.26H101.819C103.889 25.26 105.919 23.76 105.919 21.38C105.919 19 103.869 17.5 101.809 17.5ZM101.849 23.52H99.1991V19.23H101.849C103.249 19.23 104.039 20.39 104.039 21.37C104.039 22.35 103.249 23.52 101.849 23.52ZM113.389 21.73C112.039 21.73 110.639 22.33 110.059 23.64L111.719 24.33C112.069 23.64 112.729 23.41 113.419 23.41C114.389 23.41 115.369 23.99 115.379 25.02V25.15C115.039 24.96 114.319 24.67 113.429 24.67C111.639 24.67 109.829 25.65 109.829 27.48C109.829 29.15 111.289 30.23 112.929 30.23C114.179 30.23 114.879 29.67 115.309 29.01H115.369V29.98H117.169V25.19C117.179 22.97 115.519 21.73 113.389 21.73ZM113.159 28.58C112.549 28.58 111.699 28.27 111.699 27.52C111.699 26.56 112.759 26.19 113.679 26.19C114.499 26.19 114.889 26.37 115.379 26.61C115.239 27.76 114.239 28.58 113.159 28.58ZM123.739 22L121.599 27.42H121.539L119.319 22H117.309L120.639 29.58L118.739 33.79H120.689L125.819 22H123.739ZM106.939 30H108.809V17.5H106.939V30Z" fill="#fff"/><path d="M10.4405 7.53997C10.1505 7.84997 9.98047 8.32997 9.98047 8.93997V31.06C9.98047 31.68 10.1505 32.16 10.4405 32.46L10.5105 32.53L22.9005 20.15V20V19.85L10.5105 7.46997L10.4405 7.53997Z" fill="#00A1FF"/><path d="M27.0304 24.28L22.9004 20.15V20V19.85L27.0304 15.72L27.1204 15.77L32.0104 18.55C33.4104 19.34 33.4104 20.64 32.0104 21.44L27.1204 24.22L27.0304 24.28Z" fill="#FFBD00"/><path d="M27.1214 24.23L22.9014 20L10.4414 32.46C10.9014 32.95 11.6614 33.01 12.5214 32.52L27.1214 24.23Z" fill="#FF3A44"/><path d="M27.1216 15.78L12.5116 7.47999C11.6516 6.98999 10.8916 7.04999 10.4316 7.53999L22.9016 20L27.1216 15.78Z" fill="#2DA771"/><path opacity=".2" d="M27.0314 24.13L12.5114 32.38C11.7014 32.84 10.9714 32.81 10.5114 32.39L10.4414 32.46L10.5114 32.53C10.9814 32.95 11.7014 32.98 12.5114 32.52L27.1214 24.22L27.0314 24.13Z" fill="#000"/><path opacity=".12" d="M10.4405 32.32C10.1505 32.01 9.98047 31.53 9.98047 30.92V31.07C9.98047 31.69 10.1505 32.17 10.4405 32.47L10.5105 32.4L10.4405 32.32Z" fill="#000"/><path opacity=".12" d="M32.0115 21.3L27.0215 24.13L27.1115 24.22L32.0015 21.44C32.7015 21.04 33.0515 20.52 33.0515 20C33.0015 20.47 32.6515 20.94 32.0115 21.3Z" fill="#000"/><path opacity=".25" d="M12.5107 7.62L32.0107 18.7C32.6407 19.06 33.0007 19.52 33.0607 20C33.0607 19.48 32.7107 18.95 32.0107 18.56L12.5107 7.48C11.1107 6.69 9.9707 7.35 9.9707 8.95V9.1C9.9707 7.49 11.1207 6.83 12.5107 7.62Z" fill="#fff"/><path d="M42.1091 14.27H41.3691V12.26H41.9591C42.4791 11.81 42.7291 11.05 42.7191 9.96V7H46.7291V12.26H47.3991V14.27H46.6591V13H42.1091V14.27ZM43.4991 9.97C43.5091 10.92 43.3191 11.68 42.9291 12.27H45.9591V7.74H43.4991V9.97Z" fill="#fff" stroke="#fff" stroke-width=".2" stroke-miterlimit="10"/><path d="M53.4089 12.22C52.8189 12.83 52.0889 13.13 51.2089 13.13C50.3289 13.13 49.5989 12.83 49.0089 12.22C48.4189 11.61 48.1289 10.87 48.1289 10C48.1289 9.13 48.4189 8.38 49.0089 7.78C49.5989 7.17 50.3289 6.87 51.2089 6.87C52.0789 6.87 52.8089 7.17 53.4089 7.78C53.9989 8.39 54.2989 9.13 54.2989 10C54.2989 10.88 53.9989 11.62 53.4089 12.22ZM49.5789 11.72C50.0189 12.17 50.5689 12.39 51.2089 12.39C51.8489 12.39 52.3989 12.17 52.8389 11.72C53.2789 11.27 53.5089 10.7 53.5089 10C53.5089 9.3 53.2889 8.73 52.8389 8.27999C52.3989 7.82999 51.8589 7.6 51.2089 7.6C50.5689 7.6 50.0189 7.82 49.5789 8.27C49.1389 8.73 48.9189 9.3 48.9189 10C48.9189 10.7 49.1389 11.27 49.5789 11.72Z" fill="#fff" stroke="#fff" stroke-width=".2" stroke-miterlimit="10"/><path d="M58.1786 13.13C57.2986 13.13 56.5586 12.83 55.9586 12.23C55.3586 11.63 55.0586 10.89 55.0586 9.98998C55.0586 9.09998 55.3586 8.34998 55.9586 7.74998C56.5586 7.14998 57.2986 6.84998 58.1786 6.84998C59.0786 6.84998 59.8186 7.17998 60.3786 7.82998L59.8386 8.34998C59.4286 7.83998 58.8786 7.58998 58.1686 7.58998C57.5186 7.58998 56.9586 7.80998 56.5086 8.24998C56.0586 8.68998 55.8386 9.26998 55.8386 9.97998C55.8386 10.69 56.0586 11.27 56.5086 11.71C56.9586 12.15 57.5086 12.37 58.1686 12.37C58.8886 12.37 59.4986 12.08 60.0086 11.5L60.5486 12.04C60.2786 12.37 59.9286 12.63 59.5186 12.82C59.1086 13.04 58.6586 13.13 58.1786 13.13Z" fill="#fff" stroke="#fff" stroke-width=".2" stroke-miterlimit="10"/><path d="M63.6785 13H62.9085V7.74H61.2285V7H65.3485V7.74H63.6685V13H63.6785Z" fill="#fff" stroke="#fff" stroke-width=".2" stroke-miterlimit="10"/><path d="M70.6491 7L68.3791 12.06C68.0691 12.77 67.5991 13.13 66.9791 13.13C66.7991 13.13 66.5991 13.09 66.3791 13L66.5791 12.29C66.7091 12.36 66.8391 12.4 66.9791 12.4C67.1591 12.4 67.2991 12.37 67.3991 12.3C67.4991 12.23 67.5891 12.1 67.6691 11.92L67.8891 11.44L65.8691 7H66.7791L68.2591 10.44H68.2891L69.7391 7H70.6491Z" fill="#fff" stroke="#fff" stroke-width=".2" stroke-miterlimit="10"/><path d="M71.5195 13V7H75.8595V13H75.0895V7.74H72.2895V13H71.5195Z" fill="#fff" stroke="#fff" stroke-width=".2" stroke-miterlimit="10"/><path d="M77.2285 13V7H77.9985V9.57H80.9985V7H81.7685V13H80.9985V10.29H77.9985V13H77.2285Z" fill="#fff" stroke="#fff" stroke-width=".2" stroke-miterlimit="10"/><path d="M88.0593 12.22C87.4693 12.83 86.7393 13.13 85.8593 13.13C84.9793 13.13 84.2493 12.83 83.6593 12.22C83.0693 11.61 82.7793 10.87 82.7793 10C82.7793 9.13 83.0693 8.38 83.6593 7.78C84.2493 7.17 84.9793 6.87 85.8593 6.87C86.7293 6.87 87.4593 7.17 88.0593 7.78C88.6493 8.39 88.9493 9.13 88.9493 10C88.9393 10.88 88.6493 11.62 88.0593 12.22ZM84.2293 11.72C84.6693 12.17 85.2193 12.39 85.8593 12.39C86.4993 12.39 87.0493 12.17 87.4893 11.72C87.9293 11.27 88.1593 10.7 88.1593 10C88.1593 9.3 87.9393 8.73 87.4893 8.27999C87.0393 7.82999 86.4993 7.6 85.8593 7.6C85.2193 7.6 84.6693 7.82 84.2293 8.27C83.7793 8.73 83.5593 9.3 83.5593 10C83.5593 10.7 83.7793 11.27 84.2293 11.72Z" fill="#fff" stroke="#fff" stroke-width=".2" stroke-miterlimit="10"/><path d="M92.0898 13V7H94.2598C94.7298 7 95.1399 7.16 95.4799 7.46C95.8299 7.78 95.9998 8.17 95.9998 8.63C95.9998 8.92 95.9298 9.17 95.7798 9.38C95.6298 9.6 95.4398 9.76 95.1898 9.87V9.9C95.4898 10 95.7298 10.17 95.9198 10.42C96.1098 10.67 96.2098 10.95 96.2098 11.27C96.2098 11.76 96.0298 12.17 95.6698 12.49C95.2998 12.84 94.8698 13 94.3798 13H92.0898ZM92.8598 9.57H94.2598C94.5498 9.57 94.7798 9.47 94.9598 9.28C95.1398 9.09 95.2198 8.88 95.2198 8.65C95.2198 8.42 95.1398 8.21 94.9598 8.02C94.7898 7.83 94.5698 7.73 94.2898 7.73H92.8598V9.57ZM92.8598 12.26H94.4099C94.7099 12.26 94.9498 12.16 95.1298 11.95C95.3098 11.74 95.4099 11.52 95.4099 11.27C95.4099 11.02 95.3199 10.8 95.1199 10.6C94.9299 10.4 94.6799 10.29 94.3699 10.29H92.8498V12.26H92.8598Z" fill="#fff" stroke="#fff" stroke-width=".2" stroke-miterlimit="10"/></svg>