<svg width="23" height="32" viewBox="0 0 23 32" fill="none" xmlns="http://www.w3.org/2000/svg"><path d="M15.8125 4.5C15.8125 5.75 15.3932 6.8125 14.5547 7.6875C13.7161 8.5625 12.6979 9 11.5 9C10.3021 9 9.28385 8.5625 8.44531 7.6875C7.60677 6.8125 7.1875 5.75 7.1875 4.5C7.1875 3.25 7.60677 2.1875 8.44531 1.3125C9.28385 0.4375 10.3021 0 11.5 0C12.6979 0 13.7161 0.4375 14.5547 1.3125C15.3932 2.1875 15.8125 3.25 15.8125 4.5ZM0.539062 4.5625C0.179688 5 0 5.5 0 6C0 6.5625 0.179688 7.0625 0.539062 7.4375L6.22917 13.3125V30C6.22917 30.5625 6.46875 31.0625 6.82812 31.4375C7.1875 31.8125 7.66667 32 8.14583 32H9.10417C9.64323 32 10.1224 31.8125 10.4818 31.4375C10.8411 31.0625 11.0208 30.5625 11.0208 30V23H11.9792V30C11.9792 30.5625 12.2188 31.0625 12.5781 31.4375C12.9375 31.8125 13.4167 32 13.8958 32H14.8542C15.3932 32 15.8724 31.8125 16.2318 31.4375C16.5911 31.0625 16.7708 30.5625 16.7708 30V13.3125L22.4609 7.4375C22.8203 7.0625 23 6.5625 23 6C23 5.5 22.8203 5 22.4609 4.625C22.1016 4.25 21.6224 4 21.0833 4C20.6042 4 20.125 4.1875 19.7057 4.5625L14.5547 10H8.44531L3.29427 4.5625C2.9349 4.1875 2.45573 4 1.91667 4C1.4375 4 0.958333 4.1875 0.539062 4.5625Z"/></svg>