<svg width="147" height="197" viewBox="0 0 147 197" fill="none" xmlns="http://www.w3.org/2000/svg"><path d="M107.187 92.3438C107.953 92.3438 108.336 92.7285 109.102 93.4981C109.867 94.2676 110.25 94.6524 110.25 95.4219V101.578C110.25 102.348 109.867 103.117 109.102 103.887C108.336 104.656 107.953 104.656 107.187 104.656H64.3125C63.5469 104.656 62.7812 104.656 62.0156 103.887C61.25 103.117 61.25 102.348 61.25 101.578V95.4219C61.25 94.6524 61.25 94.2676 62.0156 93.4981C62.7812 92.7285 63.5469 92.3438 64.3125 92.3438H107.187ZM107.187 129.281C107.953 129.281 108.336 129.666 109.102 130.436C109.867 131.205 110.25 131.59 110.25 132.359V138.516C110.25 139.285 109.867 140.055 109.102 140.824C108.336 141.594 107.953 141.594 107.187 141.594H64.3125C63.5469 141.594 62.7812 141.594 62.0156 140.824C61.25 140.055 61.25 139.285 61.25 138.516V132.359C61.25 131.59 61.25 131.205 62.0156 130.436C62.7812 129.666 63.5469 129.281 64.3125 129.281H107.187ZM42.875 89.2656C45.1719 89.2656 47.4687 90.4199 49.3828 91.959C50.9141 93.8828 52.0625 96.1914 52.0625 98.5C52.0625 101.193 50.9141 103.502 49.3828 105.041C47.4687 106.965 45.1719 107.734 42.875 107.734C40.1953 107.734 37.8984 106.965 36.3672 105.041C34.4531 103.502 33.6875 101.193 33.6875 98.5C33.6875 96.1914 34.4531 93.8828 36.3672 91.959C37.8984 90.4199 40.1953 89.2656 42.875 89.2656ZM42.875 126.203C45.1719 126.203 47.4687 127.357 49.3828 128.896C50.9141 130.82 52.0625 133.129 52.0625 135.438C52.0625 138.131 50.9141 140.439 49.3828 141.979C47.4687 143.902 45.1719 144.672 42.875 144.672C40.1953 144.672 37.8984 143.902 36.3672 141.979C34.4531 140.439 33.6875 138.131 33.6875 135.438C33.6875 133.129 34.4531 130.82 36.3672 128.896C37.8984 127.357 40.1953 126.203 42.875 126.203ZM128.625 24.625C133.602 24.625 137.812 26.5488 141.641 30.0117C145.086 33.8594 147 38.0918 147 43.0938V178.531C147 183.918 145.086 188.15 141.641 191.613C137.812 195.461 133.602 197 128.625 197H18.375C13.0156 197 8.80469 195.461 5.35938 191.613C1.53125 188.15 0 183.918 0 178.531V43.0938C0 38.0918 1.53125 33.8594 5.35938 30.0117C8.80469 26.5488 13.0156 24.625 18.375 24.625H52.4453C52.0625 23.8555 52.0625 22.7012 52.0625 21.5469C52.0625 15.7754 53.9766 10.7734 58.1875 6.54102C62.3984 2.30859 67.375 0 73.5 0C79.2422 0 84.2188 2.30859 88.4297 6.54102C92.6406 10.7734 94.9375 15.7754 94.9375 21.5469C94.9375 22.7012 94.5547 23.8555 94.5547 24.625H128.625ZM73.5 12.3125C70.8203 12.3125 68.5234 13.4668 66.9922 15.0059C65.0781 16.9297 64.3125 19.2383 64.3125 21.5469C64.3125 24.2402 65.0781 26.5488 66.9922 28.0879C68.5234 30.0117 70.8203 30.7813 73.5 30.7813C75.7969 30.7813 78.0938 30.0117 80.0078 28.0879C81.5391 26.5488 82.6875 24.2402 82.6875 21.5469C82.6875 19.2383 81.5391 16.9297 80.0078 15.0059C78.0938 13.4668 75.7969 12.3125 73.5 12.3125ZM134.75 178.531V43.0938C134.75 41.5547 133.984 40.0156 132.836 38.8613C131.688 37.707 130.156 36.9375 128.625 36.9375H110.25V44.6328C110.25 46.1719 109.484 47.3262 108.719 48.0957C107.953 48.8652 106.805 49.25 105.656 49.25H41.3438C39.8125 49.25 38.6641 48.8652 37.8984 48.0957C37.1328 47.3262 36.75 46.1719 36.75 44.6328V36.9375H18.375C16.4609 36.9375 14.9297 37.707 13.7812 38.8613C12.6328 40.0156 12.25 41.5547 12.25 43.0938V178.531C12.25 180.455 12.6328 181.994 13.7812 183.148C14.9297 184.303 16.4609 184.688 18.375 184.688H128.625C130.156 184.688 131.688 184.303 132.836 183.148C133.984 181.994 134.75 180.455 134.75 178.531Z" fill="#D8EDF9"/></svg>