<svg width="35" height="20" viewBox="0 0 35 20" fill="none" xmlns="http://www.w3.org/2000/svg"><path d="M34.2819 0H0V20H34.2819V0Z" fill="#50AEC4"/><path d="M2.24909 14.1011C2.24909 13.6994 2.61066 13.4985 2.89187 13.4985C3.27353 13.4985 3.4744 13.7262 3.4744 14.0208C3.4744 14.1882 3.44092 14.2953 3.36727 14.456C3.36727 14.456 2.73787 15.7617 2.49683 16.2639C2.46335 16.3241 2.45666 16.3978 2.45666 16.5049C2.45666 16.6656 2.61735 16.7995 2.77805 16.8062C2.92535 16.8129 3.09275 16.6656 3.09275 16.5049C3.09275 16.304 2.99231 16.217 2.88518 16.217C2.75127 16.217 2.7044 16.2705 2.7044 16.3643C2.7044 16.4312 2.73787 16.458 2.77805 16.458C2.89187 16.458 2.8584 16.3107 2.8584 16.3107C2.91196 16.3241 2.95883 16.3777 2.93205 16.4513C2.97222 16.458 3.0124 16.4848 3.03918 16.5183C3.0124 16.5451 2.97222 16.5719 2.93205 16.5785C2.95883 16.6656 2.92535 16.7058 2.84501 16.7259C2.8584 16.6924 2.8584 16.6589 2.8584 16.6321C2.73787 16.6656 2.55709 16.612 2.55709 16.4045C2.55709 16.1969 2.6977 16.0295 2.96553 16.0697C2.90527 16.0362 2.87179 15.9759 2.86509 15.909C2.91196 15.9291 2.96553 15.9291 2.96553 15.9291C2.93205 15.8755 2.89187 15.8286 2.89187 15.7215C2.93874 15.7416 2.98561 15.7885 3.05257 15.7617C2.95214 15.5675 3.07266 15.2997 3.38736 15.2327C3.27353 15.3666 3.21996 15.5072 3.21996 15.6545C3.21996 16.1165 3.34718 16.1969 3.34718 16.5183C3.34718 16.6522 3.28022 16.7995 3.13962 16.8999V16.8932C3.23335 16.92 3.28692 16.9602 3.3204 17.0205C3.11283 17.0807 2.81153 17.0807 2.64413 17.0138C2.45666 16.9937 2.32944 16.8464 2.28926 16.7794C2.24909 16.7058 2.17544 16.4446 2.28926 16.2103C2.41648 15.9492 2.99901 14.7171 3.17979 14.3288C3.21996 14.2485 3.24005 14.1614 3.24005 14.0677C3.24005 13.8333 3.01909 13.7463 2.89857 13.7463C2.75127 13.7463 2.59726 13.8601 2.59726 14.0007C2.59726 14.0878 2.64413 14.1413 2.71779 14.1413C2.88518 14.1413 2.87179 14.0007 2.83831 13.907C2.94544 13.9538 3.0057 14.0342 2.98561 14.1279C3.04588 14.1346 3.09944 14.1614 3.15301 14.2217C3.11283 14.2752 3.05927 14.3087 2.98561 14.3154C3.01909 14.4493 2.92535 14.5096 2.83831 14.5431C2.86509 14.4426 2.88518 14.3288 2.71779 14.3288C2.59057 14.3288 2.49683 14.3087 2.43657 14.2284C2.43657 14.3355 2.42318 14.764 2.42318 14.764C2.41648 14.9247 2.63744 14.918 2.77805 14.8711C2.72448 15.0519 2.61735 15.1524 2.36292 15.1323C2.42318 15.1591 2.49013 15.2126 2.49013 15.3265C2.49013 15.4738 2.36961 15.6412 2.28926 15.6947L2.24909 14.1011Z" fill="#F5C933"/><path d="M2.33078 14.1011C2.33078 13.6994 1.96921 13.4985 1.68799 13.4985C1.30634 13.4985 1.10547 13.7262 1.10547 14.0208C1.10547 14.1882 1.13895 14.2953 1.2126 14.456C1.2126 14.456 1.84199 15.7617 2.08304 16.2639C2.11652 16.3241 2.12321 16.3978 2.12321 16.5049C2.12321 16.6656 1.96252 16.7995 1.80182 16.8062C1.65451 16.8129 1.48712 16.6656 1.48712 16.5049C1.48712 16.304 1.58756 16.217 1.69469 16.217C1.8286 16.217 1.87547 16.2705 1.87547 16.3643C1.87547 16.4312 1.84199 16.458 1.80182 16.458C1.68799 16.458 1.72147 16.3107 1.72147 16.3107C1.66791 16.3241 1.62104 16.3777 1.64782 16.4513C1.60764 16.458 1.56747 16.4848 1.54069 16.5183C1.56747 16.5451 1.60764 16.5719 1.64782 16.5785C1.62104 16.6656 1.65451 16.7058 1.73486 16.7259C1.72147 16.6924 1.72147 16.6589 1.72147 16.6321C1.84199 16.6656 2.02278 16.612 2.02278 16.4045C2.02278 16.1969 1.88217 16.0295 1.61434 16.0697C1.6746 16.0362 1.70808 15.9759 1.71478 15.909C1.66791 15.9291 1.61434 15.9291 1.61434 15.9291C1.64782 15.8755 1.68799 15.8286 1.68799 15.7215C1.64112 15.7416 1.59425 15.7885 1.5273 15.7617C1.62773 15.5675 1.50721 15.2997 1.19251 15.2327C1.30634 15.3666 1.3599 15.5072 1.3599 15.6545C1.3599 16.1165 1.23269 16.1969 1.23269 16.5183C1.23269 16.6522 1.29964 16.7995 1.44025 16.8999V16.8932C1.34651 16.92 1.29295 16.9602 1.25947 17.0205C1.46704 17.0807 1.76834 17.0807 1.93573 17.0138C2.12321 16.9937 2.25043 16.8464 2.2906 16.7794C2.33078 16.7058 2.40443 16.4446 2.2906 16.2103C2.16339 15.9492 1.58086 14.7171 1.40008 14.3288C1.3599 14.2485 1.33982 14.1614 1.33982 14.0677C1.33982 13.8333 1.56078 13.7463 1.6813 13.7463C1.8286 13.7463 1.9826 13.8601 1.9826 14.0007C1.9826 14.0878 1.93573 14.1413 1.86208 14.1413C1.69469 14.1413 1.70808 14.0007 1.74156 13.907C1.63443 13.9538 1.57417 14.0342 1.59425 14.1279C1.53399 14.1346 1.48043 14.1614 1.42686 14.2217C1.46704 14.2752 1.5206 14.3087 1.59425 14.3154C1.56078 14.4493 1.65451 14.5096 1.74156 14.5431C1.71478 14.4426 1.69469 14.3288 1.86208 14.3288C1.9893 14.3288 2.08304 14.3087 2.1433 14.2284C2.1433 14.3355 2.15669 14.764 2.15669 14.764C2.16339 14.9247 1.94243 14.918 1.80182 14.8711C1.85539 15.0519 1.96252 15.1524 2.21695 15.1323C2.15669 15.1591 2.08973 15.2126 2.08973 15.3265C2.08973 15.4738 2.21026 15.6412 2.2906 15.6947L2.33078 14.1011Z" fill="#F5C933"/><path d="M2.28989 18.4265C2.28989 18.4265 2.47737 18.5872 2.54432 18.5068C2.65146 18.3796 2.22293 17.7368 2.22293 17.5092C2.22293 17.1409 2.47067 17.0405 2.77867 16.9869C2.98624 16.9534 3.32102 17.0003 3.32102 17.0003C3.26076 17.0873 3.21389 17.1074 3.11346 17.1141C3.23398 17.1744 3.3545 17.3083 3.3545 17.5159C3.3545 17.8373 3.22059 17.9645 3.22059 18.326C3.22059 18.5269 3.38128 18.7814 3.38128 18.7814C3.09337 18.7546 2.94606 18.4867 3.03311 18.2725C2.98624 18.2658 2.94607 18.2792 2.90589 18.3127C2.8858 18.2524 2.91928 18.1854 2.96615 18.1252C2.93267 18.1051 2.90589 18.1185 2.84563 18.1319C2.85233 18.0716 2.8858 18.0047 2.97954 17.9444C2.71841 18.0113 2.55772 17.8306 2.55772 17.6431C2.55772 17.5025 2.65815 17.3953 2.75859 17.3953C2.79206 17.3953 2.83893 17.4087 2.86572 17.4288C2.8858 17.3886 2.87241 17.3351 2.85233 17.2949C2.92598 17.315 2.97285 17.3552 2.93937 17.4422C2.99293 17.4489 3.0398 17.469 3.06659 17.5025C3.0398 17.5427 2.99293 17.5627 2.93937 17.5627C2.97954 17.6431 2.93267 17.69 2.87241 17.7301C2.87241 17.7301 2.91259 17.5627 2.80546 17.5627C2.75859 17.5627 2.71172 17.5761 2.71172 17.6498C2.71172 17.71 2.76528 17.7971 2.8925 17.7904C3.01302 17.7837 3.11346 17.7033 3.11346 17.5092C3.11346 17.3284 2.96615 17.2346 2.77198 17.228C2.59789 17.2213 2.46398 17.315 2.46398 17.4958C2.46398 17.7368 2.81215 18.2792 2.81215 18.4934C2.81215 18.6541 2.66485 18.7412 2.52424 18.7412C2.34345 18.7412 2.18945 18.5604 2.18945 18.5604L2.28989 18.4265Z" fill="#F5C933"/><path d="M2.29061 18.4265C2.29061 18.4265 2.10314 18.5872 2.03618 18.5068C1.92905 18.3796 2.35757 17.7368 2.35757 17.5092C2.35757 17.1409 2.10983 17.0405 1.80183 16.9869C1.59426 16.9534 1.25948 17.0003 1.25948 17.0003C1.31974 17.0873 1.36661 17.1074 1.46705 17.1141C1.34652 17.1744 1.226 17.3083 1.226 17.5159C1.226 17.8373 1.35992 17.9645 1.35992 18.326C1.35992 18.5269 1.19922 18.7814 1.19922 18.7814C1.48713 18.7546 1.63444 18.4867 1.54739 18.2725C1.59426 18.2658 1.63444 18.2792 1.67461 18.3127C1.6947 18.2524 1.66122 18.1854 1.61435 18.1252C1.64783 18.1051 1.67461 18.1185 1.73487 18.1319C1.72818 18.0716 1.6947 18.0047 1.60096 17.9444C1.86209 18.0113 2.02279 17.8306 2.02279 17.6431C2.02279 17.5025 1.92235 17.3953 1.82192 17.3953C1.78844 17.3953 1.74157 17.4087 1.71479 17.4288C1.6947 17.3886 1.70809 17.3351 1.72818 17.2949C1.65453 17.315 1.60766 17.3552 1.64113 17.4422C1.58757 17.4489 1.5407 17.469 1.51392 17.5025C1.5407 17.5427 1.58757 17.5627 1.64113 17.5627C1.60096 17.6431 1.64783 17.69 1.70809 17.7301C1.70809 17.7301 1.66792 17.5627 1.77505 17.5627C1.82192 17.5627 1.86879 17.5761 1.86879 17.6498C1.86879 17.71 1.81522 17.7971 1.688 17.7904C1.56748 17.7837 1.46705 17.7033 1.46705 17.5092C1.46705 17.3284 1.61435 17.2346 1.80853 17.228C1.98261 17.2213 2.11653 17.315 2.11653 17.4958C2.11653 17.7368 1.76835 18.2792 1.76835 18.4934C1.76835 18.6541 1.91566 18.7412 2.05627 18.7412C2.23705 18.7412 2.39105 18.5604 2.39105 18.5604L2.29061 18.4265Z" fill="#F5C933"/><path d="M2.24909 7.09748C2.24909 6.69574 2.61066 6.49487 2.89187 6.49487C3.27353 6.49487 3.4744 6.72253 3.4744 7.01714C3.4744 7.18453 3.44092 7.29166 3.36727 7.45236C3.36727 7.45236 2.73787 8.75801 2.49683 9.26019C2.46335 9.32045 2.45666 9.3941 2.45666 9.50123C2.45666 9.66193 2.61735 9.79584 2.77805 9.80254C2.92535 9.80923 3.09275 9.66193 3.09275 9.50123C3.09275 9.30036 2.99231 9.21332 2.88518 9.21332C2.75127 9.21332 2.7044 9.26689 2.7044 9.36062C2.7044 9.42758 2.73787 9.45436 2.77805 9.45436C2.89187 9.45436 2.8584 9.30706 2.8584 9.30706C2.91196 9.32045 2.95883 9.37402 2.93205 9.44767C2.97222 9.45436 3.0124 9.48115 3.03918 9.51463C3.0124 9.54141 2.97222 9.56819 2.93205 9.57489C2.95883 9.66193 2.92535 9.7021 2.84501 9.72219C2.8584 9.68871 2.8584 9.66193 2.8584 9.62845C2.73787 9.66193 2.55709 9.60836 2.55709 9.4008C2.55709 9.19323 2.6977 9.02584 2.96553 9.06601C2.90527 9.03254 2.87179 8.97228 2.86509 8.90532C2.91196 8.92541 2.96553 8.92541 2.96553 8.92541C2.93205 8.87184 2.89187 8.82497 2.89187 8.71784C2.93874 8.73793 2.98561 8.7848 3.05257 8.75801C2.95214 8.56384 3.07266 8.29601 3.38736 8.22905C3.27353 8.36297 3.21996 8.50358 3.21996 8.65088C3.21996 9.11288 3.34718 9.19323 3.34718 9.51463C3.34718 9.64854 3.28022 9.79584 3.13962 9.89628V9.88958C3.23335 9.91637 3.28692 9.95654 3.3204 10.0168C3.11283 10.0771 2.81153 10.0771 2.64413 10.0101C2.45666 9.99002 2.32944 9.84271 2.28926 9.77576C2.24909 9.7021 2.17544 9.44097 2.28926 9.20662C2.41648 8.94549 2.99901 7.71349 3.17979 7.32514C3.21996 7.24479 3.24005 7.15775 3.24005 7.06401C3.24005 6.82966 3.01909 6.74261 2.89857 6.74261C2.75127 6.74261 2.59726 6.85644 2.59726 6.99705C2.59726 7.08409 2.64413 7.13766 2.71779 7.13766C2.88518 7.13766 2.87179 6.99705 2.83831 6.90331C2.94544 6.95018 3.0057 7.03053 2.98561 7.12427C3.04588 7.13096 3.09944 7.15775 3.15301 7.21801C3.11283 7.27157 3.05927 7.30505 2.98561 7.31175C3.01909 7.44566 2.92535 7.50592 2.83831 7.5394C2.86509 7.43896 2.88518 7.32514 2.71779 7.32514C2.59057 7.32514 2.49683 7.30505 2.43657 7.2247C2.43657 7.33183 2.42318 7.76036 2.42318 7.76036C2.41648 7.92105 2.63744 7.91436 2.77805 7.86749C2.72448 8.04827 2.61735 8.14871 2.36292 8.12862C2.42318 8.1554 2.49013 8.20897 2.49013 8.32279C2.49013 8.4701 2.36961 8.63749 2.28926 8.68436L2.24909 7.09748Z" fill="#F5C933"/><path d="M2.33078 7.09748C2.33078 6.69574 1.96921 6.49487 1.68799 6.49487C1.30634 6.49487 1.10547 6.72253 1.10547 7.01714C1.10547 7.18453 1.13895 7.29166 1.2126 7.45236C1.2126 7.45236 1.84199 8.75801 2.08304 9.26019C2.11652 9.32045 2.12321 9.3941 2.12321 9.50123C2.12321 9.66193 1.96252 9.79584 1.80182 9.80254C1.65451 9.80923 1.48712 9.66193 1.48712 9.50123C1.48712 9.30036 1.58756 9.21332 1.69469 9.21332C1.8286 9.21332 1.87547 9.26689 1.87547 9.36062C1.87547 9.42758 1.84199 9.45436 1.80182 9.45436C1.68799 9.45436 1.72147 9.30706 1.72147 9.30706C1.66791 9.32045 1.62104 9.37402 1.64782 9.44767C1.60764 9.45436 1.56747 9.48115 1.54069 9.51463C1.56747 9.54141 1.60764 9.56819 1.64782 9.57489C1.62104 9.66193 1.65451 9.7021 1.73486 9.72219C1.72147 9.68871 1.72147 9.66193 1.72147 9.62845C1.84199 9.66193 2.02278 9.60836 2.02278 9.4008C2.02278 9.19323 1.88217 9.02584 1.61434 9.06601C1.6746 9.03254 1.70808 8.97228 1.71478 8.90532C1.66791 8.92541 1.61434 8.92541 1.61434 8.92541C1.64782 8.87184 1.68799 8.82497 1.68799 8.71784C1.64112 8.73793 1.59425 8.7848 1.5273 8.75801C1.62773 8.56384 1.50721 8.29601 1.19251 8.22905C1.30634 8.36297 1.3599 8.50358 1.3599 8.65088C1.3599 9.11288 1.23269 9.19323 1.23269 9.51463C1.23269 9.64854 1.29964 9.79584 1.44025 9.89628V9.88958C1.34651 9.91637 1.29295 9.95654 1.25947 10.0168C1.46704 10.0771 1.76834 10.0771 1.93573 10.0101C2.12321 9.99002 2.25043 9.84271 2.2906 9.77576C2.33078 9.7021 2.40443 9.44097 2.2906 9.20662C2.16339 8.94549 1.58086 7.71349 1.40008 7.32514C1.3599 7.24479 1.33982 7.15775 1.33982 7.06401C1.33982 6.82966 1.56078 6.74261 1.6813 6.74261C1.8286 6.74261 1.9826 6.85644 1.9826 6.99705C1.9826 7.08409 1.93573 7.13766 1.86208 7.13766C1.69469 7.13766 1.70808 6.99705 1.74156 6.90331C1.63443 6.95018 1.57417 7.03053 1.59425 7.12427C1.53399 7.13096 1.48043 7.15775 1.42686 7.21801C1.46704 7.27157 1.5206 7.30505 1.59425 7.31175C1.56078 7.44566 1.65451 7.50592 1.74156 7.5394C1.71478 7.43896 1.69469 7.32514 1.86208 7.32514C1.9893 7.32514 2.08304 7.30505 2.1433 7.2247C2.1433 7.33183 2.15669 7.76036 2.15669 7.76036C2.16339 7.92105 1.94243 7.91436 1.80182 7.86749C1.85539 8.04827 1.96252 8.14871 2.21695 8.12862C2.15669 8.1554 2.08973 8.20897 2.08973 8.32279C2.08973 8.4701 2.21026 8.63749 2.2906 8.68436L2.33078 7.09748Z" fill="#F5C933"/><path d="M2.33078 5.89207C2.33078 6.29381 1.96921 6.49468 1.68799 6.49468C1.30634 6.49468 1.10547 6.26703 1.10547 5.97242C1.10547 5.80503 1.13895 5.6979 1.2126 5.5372C1.2126 5.5372 1.84199 4.23154 2.08304 3.72937C2.11652 3.66911 2.12321 3.59545 2.12321 3.48832C2.12321 3.32763 1.96252 3.19371 1.80182 3.18702C1.65451 3.18032 1.48712 3.32763 1.48712 3.48832C1.48712 3.68919 1.58756 3.77624 1.69469 3.77624C1.8286 3.77624 1.87547 3.72267 1.87547 3.62893C1.87547 3.56197 1.84199 3.53519 1.80182 3.53519C1.68799 3.53519 1.72147 3.68919 1.72147 3.68919C1.66791 3.6758 1.62104 3.62224 1.64782 3.54858C1.60764 3.54189 1.56747 3.51511 1.54069 3.48163C1.56747 3.45484 1.60764 3.42806 1.64782 3.42137C1.62104 3.33432 1.65451 3.29415 1.73486 3.27406C1.72147 3.30754 1.72147 3.34102 1.72147 3.3678C1.84199 3.33432 2.02278 3.38789 2.02278 3.59545C2.02278 3.80302 1.88217 3.97041 1.61434 3.93024C1.6746 3.96372 1.70808 4.02398 1.71478 4.09093C1.66791 4.07085 1.61434 4.07085 1.61434 4.07085C1.64782 4.12441 1.68799 4.17128 1.68799 4.27841C1.64112 4.25833 1.59425 4.21146 1.5273 4.23824C1.62773 4.43241 1.50721 4.70024 1.19251 4.7672C1.30634 4.63328 1.3599 4.49267 1.3599 4.34537C1.3599 3.88337 1.23269 3.80302 1.23269 3.48163C1.23269 3.34771 1.29964 3.20041 1.44025 3.09997V3.10667C1.34651 3.07989 1.29295 3.03971 1.25947 2.97945C1.46704 2.91919 1.76834 2.91919 1.93573 2.98615C2.12321 3.00623 2.25043 3.15354 2.2906 3.22049C2.33078 3.29415 2.40443 3.55528 2.2906 3.78963C2.16339 4.05076 1.58086 5.28276 1.40008 5.67111C1.3599 5.75146 1.33982 5.83851 1.33982 5.93225C1.33982 6.16659 1.56078 6.25364 1.6813 6.25364C1.8286 6.25364 1.9826 6.13981 1.9826 5.9992C1.9826 5.91216 1.93573 5.85859 1.86208 5.85859C1.69469 5.85859 1.70808 5.9992 1.74156 6.09294C1.63443 6.04607 1.57417 5.96572 1.59425 5.87198C1.53399 5.86529 1.48043 5.83851 1.42686 5.77825C1.46704 5.72468 1.5206 5.6912 1.59425 5.68451C1.56078 5.55059 1.65451 5.49033 1.74156 5.45685C1.71478 5.55729 1.69469 5.67111 1.86208 5.67111C1.9893 5.67111 2.08304 5.6912 2.1433 5.77155C2.1433 5.66442 2.15669 5.23589 2.15669 5.23589C2.16339 5.0752 1.94243 5.08189 1.80182 5.12876C1.85539 4.94129 1.96252 4.84755 2.21695 4.86763C2.15669 4.84085 2.08973 4.78728 2.08973 4.67346C2.08973 4.52615 2.21026 4.35876 2.2906 4.31189L2.33078 5.89207Z" fill="#F5C933"/><path d="M2.24909 5.89207C2.24909 6.29381 2.61066 6.49468 2.89187 6.49468C3.27353 6.49468 3.4744 6.26703 3.4744 5.97242C3.4744 5.80503 3.44092 5.6979 3.36727 5.5372C3.36727 5.5372 2.73787 4.23154 2.49683 3.72937C2.46335 3.66911 2.45666 3.59545 2.45666 3.48832C2.45666 3.32763 2.61735 3.19371 2.77805 3.18702C2.92535 3.18032 3.09275 3.32763 3.09275 3.48832C3.09275 3.68919 2.99231 3.77624 2.88518 3.77624C2.75127 3.77624 2.7044 3.72267 2.7044 3.62893C2.7044 3.56197 2.73787 3.53519 2.77805 3.53519C2.89187 3.53519 2.8584 3.68919 2.8584 3.68919C2.91196 3.6758 2.95883 3.62224 2.93205 3.54858C2.97222 3.54189 3.0124 3.51511 3.03918 3.48163C3.0124 3.45484 2.97222 3.42806 2.93205 3.42137C2.95883 3.33432 2.92535 3.29415 2.84501 3.27406C2.8584 3.30754 2.8584 3.34102 2.8584 3.3678C2.73787 3.33432 2.55709 3.38789 2.55709 3.59545C2.55709 3.80302 2.6977 3.97041 2.96553 3.93024C2.90527 3.96372 2.87179 4.02398 2.86509 4.09093C2.91196 4.07085 2.96553 4.07085 2.96553 4.07085C2.93205 4.12441 2.89187 4.17128 2.89187 4.27841C2.93874 4.25833 2.98561 4.21146 3.05257 4.23824C2.95214 4.43241 3.07266 4.70024 3.38736 4.7672C3.27353 4.63328 3.21996 4.49267 3.21996 4.34537C3.21996 3.88337 3.34718 3.80302 3.34718 3.48163C3.34718 3.34771 3.28022 3.20041 3.13962 3.09997V3.10667C3.23335 3.07989 3.28692 3.03971 3.3204 2.97945C3.11283 2.91919 2.81153 2.91919 2.64413 2.98615C2.45666 3.00623 2.32944 3.15354 2.28926 3.22049C2.24909 3.29415 2.17544 3.55528 2.28926 3.78963C2.41648 4.05076 2.99901 5.28276 3.17979 5.67111C3.21996 5.75146 3.24005 5.83851 3.24005 5.93225C3.24005 6.16659 3.01909 6.25364 2.89857 6.25364C2.75127 6.25364 2.59726 6.13981 2.59726 5.9992C2.59726 5.91216 2.64413 5.85859 2.71779 5.85859C2.88518 5.85859 2.87179 5.9992 2.83831 6.09294C2.94544 6.04607 3.0057 5.96572 2.98561 5.87198C3.04588 5.86529 3.09944 5.83851 3.15301 5.77825C3.11283 5.72468 3.05927 5.6912 2.98561 5.68451C3.01909 5.55059 2.92535 5.49033 2.83831 5.45685C2.86509 5.55729 2.88518 5.67111 2.71779 5.67111C2.59057 5.67111 2.49683 5.6912 2.43657 5.77155C2.43657 5.66442 2.42318 5.23589 2.42318 5.23589C2.41648 5.0752 2.63744 5.08189 2.77805 5.12876C2.72448 4.94129 2.61735 4.84755 2.36292 4.86763C2.42318 4.84085 2.49013 4.78728 2.49013 4.67346C2.49013 4.52615 2.36961 4.35876 2.28926 4.31189L2.24909 5.89207Z" fill="#F5C933"/><path d="M2.33078 12.9026C2.33078 13.3043 1.96921 13.5052 1.68799 13.5052C1.30634 13.5052 1.10547 13.2775 1.10547 12.9829C1.10547 12.8155 1.13895 12.7084 1.2126 12.5477C1.2126 12.5477 1.84199 11.242 2.08304 10.7399C2.11652 10.6796 2.12321 10.606 2.12321 10.4988C2.12321 10.3381 1.96252 10.2042 1.80182 10.1975C1.65451 10.1908 1.48712 10.3381 1.48712 10.4988C1.48712 10.6997 1.58756 10.7867 1.69469 10.7867C1.8286 10.7867 1.87547 10.7332 1.87547 10.6394C1.87547 10.5792 1.84199 10.5457 1.80182 10.5457C1.68799 10.5457 1.72147 10.6997 1.72147 10.6997C1.66791 10.6863 1.62104 10.6327 1.64782 10.5591C1.60764 10.5524 1.56747 10.5256 1.54069 10.4921C1.56747 10.4653 1.60764 10.4386 1.64782 10.4319C1.62104 10.3448 1.65451 10.3046 1.73486 10.2846C1.72147 10.318 1.72147 10.3515 1.72147 10.3783C1.84199 10.3448 2.02278 10.3984 2.02278 10.606C2.02278 10.8135 1.88217 10.9809 1.61434 10.9407C1.6746 10.9742 1.70808 11.0345 1.71478 11.1014C1.66791 11.0813 1.61434 11.0813 1.61434 11.0813C1.64782 11.1349 1.68799 11.1818 1.68799 11.2889C1.64112 11.2688 1.59425 11.222 1.5273 11.2487C1.62773 11.4429 1.50721 11.7107 1.19251 11.7777C1.30634 11.6438 1.3599 11.5032 1.3599 11.3559C1.3599 10.8939 1.23269 10.8135 1.23269 10.4921C1.23269 10.3582 1.29964 10.2109 1.44025 10.1105V10.1172C1.34651 10.0904 1.29295 10.0502 1.25947 9.98995C1.46704 9.92969 1.76834 9.92969 1.93573 9.99664C2.12321 10.0167 2.25043 10.164 2.2906 10.231C2.33078 10.3046 2.40443 10.5658 2.2906 10.8001C2.16339 11.0613 1.58086 12.2933 1.40008 12.6816C1.3599 12.762 1.33982 12.849 1.33982 12.9427C1.33982 13.1771 1.56078 13.2641 1.6813 13.2641C1.8286 13.2641 1.9826 13.1503 1.9826 13.0097C1.9826 12.9227 1.93573 12.8691 1.86208 12.8691C1.69469 12.8691 1.70808 13.0097 1.74156 13.1034C1.63443 13.0566 1.57417 12.9762 1.59425 12.8825C1.53399 12.8758 1.48043 12.849 1.42686 12.7887C1.46704 12.7352 1.5206 12.7017 1.59425 12.695C1.56078 12.5611 1.65451 12.5008 1.74156 12.4674C1.71478 12.5678 1.69469 12.6816 1.86208 12.6816C1.9893 12.6816 2.08304 12.7017 2.1433 12.782C2.1433 12.6749 2.15669 12.2464 2.15669 12.2464C2.16339 12.0857 1.94243 12.0924 1.80182 12.1393C1.85539 11.9585 1.96252 11.858 2.21695 11.8781C2.15669 11.8513 2.08973 11.7978 2.08973 11.684C2.08973 11.5367 2.21026 11.3693 2.2906 11.3157L2.33078 12.9026Z" fill="#F5C933"/><path d="M2.24909 12.9026C2.24909 13.3043 2.61066 13.5052 2.89187 13.5052C3.27353 13.5052 3.4744 13.2775 3.4744 12.9829C3.4744 12.8155 3.44092 12.7084 3.36727 12.5477C3.36727 12.5477 2.73787 11.242 2.49683 10.7399C2.46335 10.6796 2.45666 10.606 2.45666 10.4988C2.45666 10.3381 2.61735 10.2042 2.77805 10.1975C2.92535 10.1908 3.09275 10.3381 3.09275 10.4988C3.09275 10.6997 2.99231 10.7867 2.88518 10.7867C2.75127 10.7867 2.7044 10.7332 2.7044 10.6394C2.7044 10.5792 2.73787 10.5457 2.77805 10.5457C2.89187 10.5457 2.8584 10.6997 2.8584 10.6997C2.91196 10.6863 2.95883 10.6327 2.93205 10.5591C2.97222 10.5524 3.0124 10.5256 3.03918 10.4921C3.0124 10.4653 2.97222 10.4386 2.93205 10.4319C2.95883 10.3448 2.92535 10.3046 2.84501 10.2846C2.8584 10.318 2.8584 10.3515 2.8584 10.3783C2.73787 10.3448 2.55709 10.3984 2.55709 10.606C2.55709 10.8135 2.6977 10.9809 2.96553 10.9407C2.90527 10.9742 2.87179 11.0345 2.86509 11.1014C2.91196 11.0813 2.96553 11.0813 2.96553 11.0813C2.93205 11.1349 2.89187 11.1818 2.89187 11.2889C2.93874 11.2688 2.98561 11.222 3.05257 11.2487C2.95214 11.4429 3.07266 11.7107 3.38736 11.7777C3.27353 11.6438 3.21996 11.5032 3.21996 11.3559C3.21996 10.8939 3.34718 10.8135 3.34718 10.4921C3.34718 10.3582 3.28022 10.2109 3.13962 10.1105V10.1172C3.23335 10.0904 3.28692 10.0502 3.3204 9.98995C3.11283 9.92969 2.81153 9.92969 2.64413 9.99664C2.45666 10.0167 2.32944 10.164 2.28926 10.231C2.24909 10.3046 2.17544 10.5658 2.28926 10.8001C2.41648 11.0613 2.99901 12.2933 3.17979 12.6816C3.21996 12.762 3.24005 12.849 3.24005 12.9427C3.24005 13.1771 3.01909 13.2641 2.89857 13.2641C2.75127 13.2641 2.59726 13.1503 2.59726 13.0097C2.59726 12.9227 2.64413 12.8691 2.71779 12.8691C2.88518 12.8691 2.87179 13.0097 2.83831 13.1034C2.94544 13.0566 3.0057 12.9762 2.98561 12.8825C3.04588 12.8758 3.09944 12.849 3.15301 12.7887C3.11283 12.7352 3.05927 12.7017 2.98561 12.695C3.01909 12.5611 2.92535 12.5008 2.83831 12.4674C2.86509 12.5678 2.88518 12.6816 2.71779 12.6816C2.59057 12.6816 2.49683 12.7017 2.43657 12.782C2.43657 12.6749 2.42318 12.2464 2.42318 12.2464C2.41648 12.0857 2.63744 12.0924 2.77805 12.1393C2.72448 11.9585 2.61735 11.858 2.36292 11.8781C2.42318 11.8513 2.49013 11.7978 2.49013 11.684C2.49013 11.5367 2.36961 11.3693 2.28926 11.3157L2.24909 12.9026Z" fill="#F5C933"/><path d="M2.28989 1.56679C2.28989 1.56679 2.47737 1.40609 2.54432 1.48644C2.65146 1.61365 2.22293 2.25644 2.22293 2.48409C2.22293 2.85236 2.47067 2.95279 2.77867 3.00636C2.98624 3.03984 3.32102 2.99297 3.32102 2.99297C3.26076 2.90592 3.21389 2.88583 3.11346 2.87914C3.23398 2.81888 3.3545 2.68496 3.3545 2.4774C3.3545 2.15601 3.22059 2.02879 3.22059 1.66722C3.22059 1.46635 3.38128 1.21191 3.38128 1.21191C3.09337 1.2387 2.94606 1.50652 3.03311 1.72079C2.98624 1.72748 2.94607 1.71409 2.90589 1.68061C2.8858 1.74087 2.91928 1.80783 2.96615 1.86809C2.93267 1.88818 2.90589 1.87479 2.84563 1.8614C2.85233 1.92166 2.8858 1.98861 2.97954 2.04887C2.71841 1.98192 2.55772 2.1627 2.55772 2.35018C2.55772 2.49079 2.65815 2.59792 2.75859 2.59792C2.79206 2.59792 2.83893 2.58453 2.86572 2.56444C2.8858 2.60462 2.87241 2.65818 2.85233 2.69836C2.92598 2.67827 2.97285 2.63809 2.93937 2.55105C2.99293 2.54435 3.0398 2.52427 3.06659 2.49079C3.0398 2.45062 2.99293 2.43053 2.93937 2.43053C2.97954 2.35018 2.93267 2.30331 2.87241 2.26314C2.87241 2.26314 2.91259 2.43053 2.80546 2.43053C2.75859 2.43053 2.71172 2.41714 2.71172 2.34348C2.71172 2.28322 2.76528 2.19618 2.8925 2.20287C3.01302 2.20957 3.11346 2.28992 3.11346 2.48409C3.11346 2.66488 2.96615 2.75862 2.77198 2.76531C2.59789 2.77201 2.46398 2.67827 2.46398 2.49748C2.46398 2.25644 2.81215 1.71409 2.81215 1.49983C2.81215 1.33913 2.66485 1.25209 2.52424 1.25209C2.34345 1.25209 2.18945 1.43287 2.18945 1.43287L2.28989 1.56679Z" fill="#F5C933"/><path d="M2.29061 1.56679C2.29061 1.56679 2.10314 1.40609 2.03618 1.48644C1.92905 1.61365 2.35757 2.25644 2.35757 2.48409C2.35757 2.85236 2.10983 2.95279 1.80183 3.00636C1.59426 3.03984 1.25948 2.99297 1.25948 2.99297C1.31974 2.90592 1.36661 2.88583 1.46705 2.87914C1.34652 2.81888 1.226 2.68496 1.226 2.4774C1.226 2.15601 1.35992 2.02879 1.35992 1.66722C1.35992 1.46635 1.19922 1.21191 1.19922 1.21191C1.48713 1.2387 1.63444 1.50652 1.54739 1.72079C1.59426 1.72748 1.63444 1.71409 1.67461 1.68061C1.6947 1.74087 1.66122 1.80783 1.61435 1.86809C1.64783 1.88818 1.67461 1.87479 1.73487 1.8614C1.72818 1.92166 1.6947 1.98861 1.60096 2.04887C1.86209 1.98192 2.02279 2.1627 2.02279 2.35018C2.02279 2.49079 1.92235 2.59792 1.82192 2.59792C1.78844 2.59792 1.74157 2.58453 1.71479 2.56444C1.6947 2.60462 1.70809 2.65818 1.72818 2.69836C1.65453 2.67827 1.60766 2.63809 1.64113 2.55105C1.58757 2.54435 1.5407 2.52427 1.51392 2.49079C1.5407 2.45062 1.58757 2.43053 1.64113 2.43053C1.60096 2.35018 1.64783 2.30331 1.70809 2.26314C1.70809 2.26314 1.66792 2.43053 1.77505 2.43053C1.82192 2.43053 1.86879 2.41714 1.86879 2.34348C1.86879 2.28322 1.81522 2.19618 1.688 2.20287C1.56748 2.20957 1.46705 2.28992 1.46705 2.48409C1.46705 2.66488 1.61435 2.75862 1.80853 2.76531C1.98261 2.77201 2.11653 2.67827 2.11653 2.49748C2.11653 2.25644 1.76835 1.71409 1.76835 1.49983C1.76835 1.33913 1.91566 1.25209 2.05627 1.25209C2.23705 1.25209 2.39105 1.43287 2.39105 1.43287L2.29061 1.56679Z" fill="#F5C933"/><path d="M1.92131 12.8692C1.92131 12.8357 1.84765 12.8558 1.79409 12.8692C1.74052 12.8825 1.70704 12.9093 1.71374 12.9361C1.71374 12.9696 1.7807 12.9495 1.83426 12.9428C1.88783 12.9294 1.92131 12.9026 1.92131 12.8692Z" fill="#50AEC4"/><path d="M1.74765 12.9763H1.72757L1.69409 12.9361C1.68739 12.8959 1.72757 12.8624 1.78783 12.8424C1.828 12.8357 1.86148 12.8223 1.88826 12.8223H1.90835L1.94183 12.8557C1.94183 12.8959 1.90835 12.9361 1.84139 12.9495C1.80122 12.9696 1.77444 12.9763 1.74765 12.9763Z" fill="#50AEC4"/><path d="M17.8972 13.5856C15.2122 13.5923 13.324 11.443 13.1566 9.2937C13.1566 9.2937 13.0495 9.25352 13.0361 9.34726C13.0026 9.57492 13.0964 10.278 13.0629 10.2244C12.9959 10.1374 12.5071 8.825 12.4201 8.96561C12.2996 9.15978 12.9691 10.6529 12.929 10.6931C12.7951 10.8538 12.025 9.23344 11.9648 9.35396C11.7304 9.80927 12.9156 11.2756 12.9022 11.3359C12.8754 11.5301 12.005 10.5458 11.9313 10.6529C11.7639 10.894 12.8687 11.7577 12.929 11.8247C13.0964 12.0255 12.3264 11.4765 12.2996 11.664C12.2795 11.818 12.6745 12.1327 12.9089 12.2666C13.1432 12.4005 13.2236 12.3603 13.2905 12.4741C13.3441 12.5612 12.8486 12.4206 12.862 12.5277C12.8888 12.742 13.4044 12.6951 13.4847 12.7955C13.5651 12.8893 13.1298 12.8156 13.1499 12.896C13.1767 13.0366 13.6186 13.0567 13.6253 13.1169C13.632 13.1772 13.3508 13.137 13.3709 13.2508C13.3843 13.3513 13.8128 13.3312 13.9199 13.3982C14.0271 13.4651 13.5383 13.4048 13.9199 13.599C14.3016 13.7865 14.7368 14.0008 15.3327 14.1146C15.9286 14.2284 16.2299 14.1012 16.25 14.061C16.2701 14.0208 15.9688 14.0945 15.547 14.0142C15.1251 13.9405 14.5627 13.6727 14.3284 13.5388C14.2547 13.4986 14.556 13.4115 14.4891 13.3312C14.4288 13.2508 14.1878 13.3446 14.094 13.2241C14.0338 13.1504 14.2078 13.1504 14.2011 13.0968C14.1944 13.05 13.8731 12.9763 13.8128 12.896C13.7525 12.8156 13.9601 12.829 13.9668 12.7688C13.9735 12.7286 13.7592 12.6616 13.7458 12.6081C13.7324 12.5545 13.9802 12.5679 13.8664 12.5009C13.7391 12.4273 13.4044 12.3402 13.3374 12.2197C13.2771 12.0992 13.5985 12.2398 13.5115 12.1193C13.4579 12.0389 13.1432 11.9117 13.0763 11.7242C13.0294 11.6037 13.2972 11.7108 13.2972 11.6305C13.3039 11.51 13.1432 11.5836 13.0897 11.2287C13.0696 11.1149 13.2972 11.1886 13.2972 11.1886L13.3307 11.1283C13.3307 11.1283 13.5918 11.2756 13.9333 11.6707C14.2748 12.0657 14.3685 12.4407 14.6899 12.7085C14.8439 12.8357 14.8439 12.6549 15.1921 12.8759C15.5403 13.0901 15.6876 13.2442 16.0492 13.5588C16.1027 13.599 16.3371 13.5187 17.0401 13.6593C17.4151 13.7396 17.4954 13.9338 17.4954 13.9338C17.4954 13.9405 17.703 13.8066 17.8034 13.6526C17.8436 13.5923 17.8838 13.6526 17.8905 13.6392C17.944 13.6325 17.8972 13.5856 17.8972 13.5856Z" fill="#F5C933"/><path d="M15.7746 14.1882C15.634 14.1882 15.48 14.1748 15.3193 14.1413C14.7033 14.0208 14.2413 13.7865 13.9065 13.6191C13.786 13.5588 13.7458 13.5186 13.7458 13.4852C13.7525 13.445 13.8061 13.4383 13.8597 13.4249C13.8798 13.4182 13.9065 13.4182 13.9132 13.4115C13.8597 13.3914 13.7525 13.378 13.6521 13.3646C13.4914 13.3446 13.3575 13.3245 13.3441 13.2575V13.2508L13.3575 13.204C13.3843 13.1638 13.4579 13.1504 13.5182 13.1437C13.545 13.137 13.5985 13.1303 13.6052 13.1236C13.5985 13.1102 13.5182 13.0901 13.4579 13.0767C13.324 13.0433 13.1499 13.0031 13.1298 12.9026C13.1566 12.8424 13.2236 12.8357 13.324 12.8357C13.3776 12.8357 13.4646 12.829 13.4713 12.8156C13.4378 12.7754 13.3441 12.762 13.2437 12.742C13.0629 12.7085 12.8553 12.675 12.8419 12.5277C12.8955 12.4273 12.9959 12.4607 13.1165 12.4741C13.1633 12.4808 13.2035 12.4808 13.237 12.4808C13.237 12.4206 13.2035 12.4072 13.1298 12.3804C13.0763 12.3603 13.0026 12.3335 12.9022 12.2733C12.6812 12.146 12.2594 11.8246 12.2795 11.6506C12.2795 11.6305 12.2929 11.5903 12.3531 11.5903C12.4469 11.5903 12.6277 11.684 12.7683 11.7577C12.8419 11.7979 12.9223 11.838 12.9424 11.838C12.9022 11.8179 12.862 11.7778 12.7951 11.7309C12.2862 11.289 11.7773 10.8203 11.9045 10.6328C12.005 10.6127 12.1523 10.7466 12.3933 10.9676C12.5741 11.1283 12.7951 11.3359 12.862 11.3359C12.862 11.3158 12.7951 11.2086 12.7147 11.0948C12.4 10.6395 11.7438 9.68872 11.9313 9.33385C12.0117 9.31376 12.0987 9.46776 12.3331 9.8695C12.5205 10.1909 12.8018 10.673 12.8888 10.673C12.8955 10.6462 12.8152 10.4386 12.7415 10.2311C12.5005 9.59498 12.3063 9.06602 12.3866 8.9388C12.4938 8.91202 12.6478 9.23341 12.9156 9.86281C12.9692 9.99672 13.0227 10.1172 13.0495 10.1708C13.0361 10.1239 13.0294 10.0302 13.0227 9.94316C13.0026 9.72889 12.9825 9.45437 13.0026 9.32715C13.0093 9.27359 13.0428 9.24681 13.0964 9.24681C13.1232 9.24681 13.1499 9.2535 13.1499 9.2602C13.3307 11.3827 15.1319 13.5521 17.8704 13.5521C17.9039 13.5588 17.9306 13.5923 17.9306 13.6258V13.6325L17.9039 13.6726L17.8704 13.6526L17.8369 13.666C17.7164 13.8333 17.5088 13.974 17.4887 13.974C17.462 13.9405 17.3749 13.7664 17.0267 13.6927C16.6384 13.6124 16.3973 13.6057 16.25 13.6057H16.1228C16.0693 13.6057 16.0425 13.6057 16.0224 13.5856L15.8148 13.4048C15.5872 13.2106 15.4399 13.0767 15.172 12.9093C15.0113 12.8089 14.9243 12.7955 14.8707 12.7955H14.8038C14.7636 12.7955 14.7234 12.7888 14.6699 12.742C14.4891 12.5879 14.3752 12.4072 14.2547 12.2063C14.1543 12.0456 14.0539 11.8782 13.9065 11.6974C13.5718 11.3091 13.3106 11.1618 13.3039 11.1618V11.2153C13.2772 11.2287 13.2102 11.2019 13.1499 11.2019C13.1232 11.2019 13.1098 11.2086 13.1031 11.2153C13.1298 11.4497 13.1968 11.5032 13.2437 11.5367C13.2772 11.5635 13.3106 11.5836 13.3039 11.6439C13.3039 11.6974 13.237 11.6974 13.2102 11.6974H13.1298C13.0897 11.6974 13.0763 11.7041 13.0696 11.7108C13.1098 11.8447 13.2571 11.9452 13.3642 12.0188C13.4312 12.059 13.478 12.0925 13.4981 12.1259L13.5048 12.1326L13.5115 12.1795C13.4981 12.1996 13.4713 12.1996 13.4512 12.1996L13.3508 12.1929C13.3642 12.2933 13.5316 12.3603 13.6655 12.4139C13.7325 12.4406 13.7994 12.4674 13.8396 12.4875C13.8597 12.5009 13.8865 12.5143 13.8798 12.5411C13.8731 12.5679 13.8396 12.5746 13.7927 12.5879C13.7726 12.5946 13.7325 12.6013 13.7258 12.608C13.7325 12.6214 13.7927 12.6616 13.8396 12.6817C13.9065 12.7219 13.9534 12.742 13.9467 12.7754C13.94 12.8089 13.8932 12.8223 13.853 12.8357C13.8262 12.8424 13.786 12.8558 13.786 12.8692C13.8195 12.9227 13.9333 12.9696 14.0204 13.0031C14.1342 13.05 14.1811 13.07 14.1878 13.0968C14.1878 13.1303 14.1543 13.1437 14.1208 13.1571C14.1007 13.1638 14.0739 13.1772 14.0672 13.1906C14.1208 13.2642 14.2079 13.2642 14.2882 13.2642C14.3619 13.2642 14.4355 13.2642 14.469 13.3111L14.4824 13.358C14.4757 13.3981 14.4221 13.4383 14.3685 13.4718C14.3418 13.4852 14.3083 13.512 14.3016 13.5186C14.5092 13.6392 15.0783 13.9137 15.5135 13.994C15.6541 14.0208 15.7947 14.0342 15.9487 14.0342C16.009 14.0342 16.0626 14.0342 16.1027 14.0342H16.1697C16.2032 14.0342 16.2233 14.0342 16.2299 14.0543C16.2366 14.1213 16.0759 14.1882 15.7746 14.1882ZM12.9625 12.5143C12.9022 12.5143 12.8888 12.5277 12.8821 12.5277C12.8955 12.6549 13.0897 12.6884 13.2504 12.7152C13.3709 12.7353 13.4579 12.7486 13.4981 12.7955L13.5048 12.8022V12.8424C13.4914 12.8759 13.4245 12.8826 13.3173 12.8826C13.2638 12.8826 13.17 12.8893 13.1633 12.9026C13.1767 12.9763 13.3441 13.0165 13.4646 13.0433C13.5785 13.07 13.632 13.0901 13.6387 13.1236C13.6454 13.1705 13.5852 13.1772 13.5182 13.1906C13.4646 13.1973 13.4044 13.2106 13.3843 13.2307C13.3843 13.2977 13.5383 13.3178 13.6521 13.3312C13.7659 13.3446 13.8731 13.358 13.9199 13.3914L13.94 13.4316C13.9333 13.4584 13.9065 13.4651 13.853 13.4718C13.8329 13.4785 13.7793 13.4852 13.7726 13.4986C13.7726 13.4986 13.7726 13.5253 13.9065 13.5923C14.2413 13.7597 14.6966 13.9873 15.3126 14.1079C15.4733 14.1413 15.6206 14.1547 15.7612 14.1547C16.0559 14.1547 16.1965 14.0811 16.2099 14.0677L16.1161 14.0878C16.0759 14.0878 16.0224 14.0878 15.9621 14.0878C15.8081 14.0878 15.6608 14.0744 15.5202 14.0476C15.085 13.9673 14.5092 13.686 14.2949 13.5655C14.2748 13.5053 14.3083 13.4785 14.3552 13.4517C14.3953 13.4249 14.4489 13.3914 14.4556 13.3646C14.4288 13.3178 14.3685 13.3178 14.3016 13.3178C14.2145 13.3178 14.1141 13.3178 14.0539 13.2441L14.0405 13.1906C14.0472 13.1571 14.0806 13.1437 14.1141 13.1303C14.1275 13.1236 14.1543 13.1102 14.161 13.1035C14.1543 13.0901 14.0739 13.0633 14.0204 13.0433C13.9199 13.0031 13.8128 12.9629 13.7793 12.916L13.7659 12.8625C13.7793 12.829 13.8195 12.8223 13.8597 12.8089C13.8798 12.8022 13.9266 12.7888 13.9266 12.7821C13.9199 12.7754 13.8731 12.7486 13.8396 12.7286C13.7659 12.6884 13.7191 12.6616 13.7124 12.6281C13.7325 12.5746 13.7659 12.5679 13.8061 12.5612C13.8262 12.5545 13.853 12.5478 13.8597 12.5411C13.7994 12.5143 13.7325 12.4875 13.6655 12.4607C13.5182 12.4005 13.3441 12.3335 13.2972 12.2465L13.2905 12.2331V12.1862C13.3106 12.146 13.3642 12.1594 13.4111 12.1661H13.4579C13.4512 12.1259 13.4044 12.0925 13.3441 12.0523C13.2236 11.9719 13.0763 11.8782 13.0361 11.751C13.0294 11.7242 13.0294 11.7041 13.0361 11.6907C13.0562 11.6639 13.0897 11.6639 13.1298 11.6639H13.2102C13.2303 11.6639 13.2638 11.6639 13.2638 11.6506C13.2638 11.6104 13.2504 11.6037 13.2169 11.5769C13.1633 11.5367 13.083 11.4765 13.0562 11.2555C13.0495 11.2287 13.0562 11.2086 13.0696 11.1952C13.1165 11.1484 13.2838 11.1952 13.2905 11.1952L13.2972 11.1417C13.3374 11.1417 13.5985 11.289 13.9333 11.6773C14.0873 11.8581 14.1878 12.0255 14.2882 12.1862C14.402 12.3804 14.5159 12.5679 14.6899 12.7152C14.7368 12.7553 14.7703 12.762 14.8038 12.762H14.8707C14.9377 12.762 15.0247 12.7754 15.1921 12.8826C15.4666 13.0566 15.6139 13.1839 15.8416 13.3847L16.0492 13.5655C16.0626 13.5722 16.1027 13.5722 16.1228 13.5722H16.25C16.3973 13.5722 16.6451 13.5789 17.0334 13.6593C17.4151 13.7396 17.5021 13.9405 17.5021 13.9472C17.5021 13.9271 17.6896 13.7999 17.7766 13.666C17.79 13.6392 17.8101 13.6258 17.8369 13.6258L17.8771 13.6392V13.5789L17.857 13.599C15.1051 13.599 13.2838 11.4162 13.1098 9.29367C13.1031 9.29367 13.0897 9.29367 13.083 9.29367C13.0495 9.29367 13.0361 9.30707 13.0294 9.34054C13.0093 9.46776 13.0361 9.74229 13.0495 9.94985C13.0696 10.1842 13.0696 10.2244 13.0562 10.2378C13.0026 10.2043 12.9491 10.0905 12.8687 9.88959C12.7415 9.59498 12.4804 8.97898 12.4134 8.97228C12.3398 9.0928 12.6143 9.80255 12.775 10.2311C12.9223 10.6261 12.9424 10.6864 12.9223 10.7065L12.8821 10.7265C12.7817 10.7265 12.5808 10.3985 12.2929 9.90298C12.1523 9.66194 11.9916 9.38741 11.9514 9.37402C11.7907 9.70881 12.4335 10.6395 12.7415 11.0881C12.8754 11.289 12.9022 11.3292 12.9022 11.3492V11.3693L12.8553 11.3961C12.7817 11.3961 12.6143 11.2555 12.3598 11.0145C12.1858 10.8538 11.9849 10.673 11.9313 10.673C11.8041 10.8538 12.5607 11.5032 12.8085 11.7175C12.8687 11.7711 12.9156 11.8113 12.9223 11.8179C12.9424 11.8447 12.9558 11.8648 12.9491 11.8782C12.8955 11.8916 12.8419 11.8648 12.7348 11.8112C12.6009 11.7443 12.4201 11.6506 12.3331 11.6506C12.2996 11.6506 12.2996 11.6639 12.2929 11.6706C12.2728 11.8046 12.6411 12.1059 12.8955 12.2532C12.9959 12.3134 13.0629 12.3335 13.1165 12.3536C13.1901 12.3804 13.237 12.3938 13.2772 12.4674C13.2571 12.5879 13.17 12.5277 13.083 12.521C13.0629 12.5143 13.0093 12.5143 12.9625 12.5143Z" fill="#F5C933"/><path d="M19.7049 14.389C19.6045 14.3689 19.6179 14.4492 19.6179 14.4492C19.6246 14.5497 19.5576 14.6501 19.4773 14.6702C19.417 14.6836 19.4438 14.7304 19.4237 14.7773L19.1626 14.7639C18.7475 14.9916 18.2319 15.0652 17.6025 14.9983C17.6025 14.9983 17.4753 15.0987 17.3548 15.1991C17.2342 15.2996 17.1606 15.3264 17.1338 15.4067C17.107 15.4871 17.1941 15.5339 17.3012 15.5339C17.4083 15.5339 17.5489 15.4335 17.5489 15.4335C17.5489 15.4335 17.569 15.5138 17.6628 15.5272C17.7632 15.5339 17.944 15.467 17.944 15.467C17.944 15.467 18.098 15.5339 18.2118 15.5205C18.3256 15.5071 18.4261 15.4335 18.4261 15.4335C18.4261 15.4335 18.4595 15.5674 18.5734 15.5741C18.6872 15.5808 18.868 15.4335 18.868 15.4335C18.868 15.4335 18.955 15.5339 19.0555 15.5205C19.1626 15.5071 19.2898 15.3866 19.2898 15.3866C19.2898 15.3866 19.417 15.4402 19.5442 15.4067C19.6648 15.3732 19.7853 15.246 19.7853 15.246C19.7853 15.246 19.8924 15.3398 19.9929 15.3063C20.0933 15.2728 20.1602 15.1389 20.1602 15.1389C20.1602 15.1389 20.4281 15.246 20.6022 15.159C20.7294 15.0987 20.6959 14.9045 20.6959 14.9045C20.6959 14.9045 21.4257 15.0117 21.3923 14.5363C21.3856 14.4693 20.2205 14.4827 19.7049 14.389Z" fill="#F5C933"/><path d="M18.5797 15.5943C18.4659 15.5877 18.4257 15.4872 18.4123 15.4537C18.3989 15.4805 18.3186 15.5341 18.2182 15.5475C18.0776 15.5408 17.9503 15.4939 17.9436 15.4939C17.9503 15.5006 17.7896 15.5542 17.6892 15.5542C17.5888 15.5475 17.5486 15.4939 17.5352 15.4537C17.5285 15.4805 17.408 15.5609 17.3076 15.5609C17.2205 15.5609 17.1536 15.5341 17.1268 15.4939C17.1067 15.4671 17.1067 15.4403 17.1134 15.4069C17.1335 15.3466 17.1736 15.3131 17.2339 15.273C17.2674 15.2529 17.3009 15.2261 17.341 15.1926C17.4549 15.0922 17.5888 14.9917 17.5888 14.9917C17.7495 15.0051 17.8901 15.0118 18.024 15.0118C18.4592 15.0118 18.8342 14.9248 19.1489 14.7574L19.4167 14.7708C19.4033 14.7172 19.41 14.6837 19.4636 14.6636C19.5372 14.6436 19.5975 14.5498 19.5908 14.4628C19.5908 14.4628 19.5841 14.4293 19.6042 14.4025C19.6176 14.3891 19.6377 14.3757 19.6644 14.3757C19.9791 14.4293 20.4612 14.4494 20.8429 14.4695C21.3584 14.4896 21.3986 14.4963 21.3986 14.5297C21.4053 14.6369 21.3785 14.7172 21.3183 14.7842C21.2044 14.9047 20.9969 14.9315 20.8429 14.9315C20.7625 14.9315 20.7023 14.9248 20.6822 14.9248C20.7023 14.9449 20.7224 15.119 20.5951 15.1792C20.4545 15.2462 20.18 15.1725 20.1398 15.1591C20.1465 15.1725 20.0863 15.2997 19.9858 15.3265C19.8921 15.3533 19.7783 15.2796 19.7582 15.2663C19.7649 15.2863 19.651 15.3935 19.5305 15.4337C19.4234 15.4671 19.2761 15.4203 19.2627 15.4136C19.2694 15.4203 19.1422 15.5408 19.035 15.5542C18.9212 15.5542 18.8476 15.4805 18.8342 15.4671C18.861 15.4604 18.7003 15.5943 18.5797 15.5943ZM18.419 15.4203C18.4525 15.4337 18.4793 15.5475 18.573 15.5542L18.5797 15.5743V15.5542C18.6869 15.5542 18.8543 15.4136 18.8543 15.4136C18.881 15.4136 18.948 15.4939 19.035 15.4939C19.1489 15.4805 19.2761 15.36 19.2761 15.36C19.2962 15.36 19.3698 15.3868 19.4569 15.3868C19.4903 15.3868 19.5171 15.3801 19.5439 15.3734C19.6577 15.3399 19.7716 15.2194 19.7783 15.2127C19.7917 15.2194 19.8787 15.273 19.959 15.273C20.0863 15.2395 20.1532 15.1056 20.1532 15.1056C20.18 15.0922 20.3139 15.1457 20.4478 15.1457C20.5081 15.1457 20.5617 15.1323 20.6018 15.1123C20.709 15.0587 20.6822 14.8846 20.6822 14.8779C20.7023 14.8511 20.7759 14.8645 20.863 14.8645C21.0103 14.8645 21.2044 14.8444 21.3049 14.7306C21.3584 14.6703 21.3852 14.5967 21.3785 14.503C21.3584 14.4963 21.104 14.4896 20.863 14.4762C20.4746 14.4628 19.9992 14.4427 19.7113 14.3891L19.6577 14.3958C19.6577 14.5297 19.5841 14.6436 19.4903 14.6703C19.4636 14.677 19.4636 14.6837 19.4636 14.7105C19.4636 14.7239 19.4636 14.744 19.4502 14.7641H19.169C18.7672 14.985 18.2383 15.0654 17.6089 14.9984C17.6089 15.0051 17.4883 15.0989 17.3745 15.1926C17.3343 15.2261 17.2942 15.2529 17.2674 15.2796C17.2071 15.3198 17.1736 15.3466 17.1602 15.3935C17.1536 15.4136 17.1536 15.4337 17.1669 15.447C17.187 15.4738 17.2406 15.4939 17.3076 15.5006C17.4147 15.5006 17.5419 15.4069 17.5419 15.4069C17.5754 15.4203 17.5888 15.4872 17.6691 15.4939C17.7829 15.4939 17.9369 15.4403 17.9369 15.4337C17.9503 15.4337 18.0709 15.4872 18.178 15.4872C18.3253 15.4872 18.419 15.4203 18.419 15.4203Z" fill="#F5C933"/><path d="M18.1579 13.8801C18.1579 13.8801 18.3654 13.7998 18.7404 13.7194C19.4435 13.5721 19.6845 13.619 19.7381 13.5788C20.2938 12.9628 20.7022 12.9093 21.1107 12.7486C21.4321 12.4807 21.5392 12.0924 21.8807 11.6973C22.2222 11.3023 22.423 11.2688 22.423 11.2688L22.4699 11.3559C22.4699 11.3559 22.6507 11.2153 22.644 11.3358C22.6306 11.5099 22.4833 11.6773 22.49 11.8045C22.4967 11.8848 22.7377 11.771 22.7176 11.8447C22.6574 12.0254 22.4632 12.1393 22.4096 12.2196C22.3226 12.3334 22.6306 12.1794 22.5703 12.3C22.5101 12.4205 22.1954 12.541 22.0749 12.6214C22.0012 12.6682 22.1552 12.6816 22.1418 12.7352C22.1284 12.7887 21.807 12.9093 21.807 12.9494C21.8137 13.003 21.8941 13.0097 21.8539 13.0499C21.7869 13.1235 21.5191 13.1369 21.5191 13.1771C21.5124 13.224 21.5727 13.2708 21.5124 13.3445C21.4187 13.4583 21.345 13.3445 21.3049 13.4382C21.2848 13.4918 21.4589 13.6056 21.3383 13.6257C21.1776 13.6525 21.0571 13.7261 20.9165 13.8132C20.8629 13.8467 20.6286 13.8868 20.488 13.927C20.4009 13.9471 19.8988 14.0141 19.9188 14.0542C19.9389 14.0944 20.2536 14.0877 20.9165 13.9739C21.2044 13.927 21.3718 13.8868 21.8204 13.7462C22.3293 13.5855 21.6865 13.5721 21.7936 13.5052C21.9008 13.4382 22.3427 13.4717 22.3628 13.3713C22.3829 13.2574 22.115 13.2909 22.1217 13.2307C22.1284 13.1704 22.6641 13.1704 22.6909 13.0298C22.7109 12.9494 22.3829 13.0097 22.4632 12.9093C22.5436 12.8155 22.9654 12.7887 22.9788 12.608C22.9855 12.5008 22.6306 12.628 22.6775 12.541C22.6976 12.5075 22.8382 12.4674 22.9855 12.3669C23.2064 12.2129 23.5613 11.9451 23.5412 11.7844C23.5144 11.5969 22.8047 12.2263 22.8649 11.9853C22.885 11.8982 24.03 10.9943 23.8425 10.7733C23.7153 10.626 22.8984 11.5969 22.8716 11.4027C22.8649 11.3425 24.1438 9.89621 23.9095 9.4409C23.8492 9.32038 22.885 11.1684 22.7511 11.0077C22.7109 10.9608 23.5747 9.18647 23.4341 9.00568C23.3671 8.91864 23.2332 9.21325 23.0859 9.54134C22.9386 9.86943 22.7779 10.231 22.7444 10.2779C22.7109 10.3247 22.7846 9.58151 22.7511 9.35386C22.7377 9.26012 22.6306 9.30029 22.6306 9.30029C22.4833 11.617 20.2536 13.3378 18.4793 13.5922C18.0173 13.6592 17.87 13.8734 17.3678 14.1614C17.2004 14.2551 16.9393 14.302 16.7116 14.4292C16.484 14.5564 16.3233 14.7439 16.2496 14.8644C16.2161 14.9247 16.263 15.0921 16.3099 15.1121C16.3567 15.1322 16.3567 14.9849 16.4103 14.9648C16.4639 14.9381 16.4639 15.0184 16.5241 15.0117C16.5844 15.0117 16.6581 14.9514 16.6581 14.9514C16.6581 14.9514 17.9101 14.9514 18.4458 14.9314C18.5395 14.9314 18.7002 14.8912 18.7672 14.8175C18.7471 14.7573 18.5998 14.7908 18.5128 14.7974C18.1311 14.7707 17.6423 14.7974 17.2874 14.7707C17.2874 14.7707 17.2272 14.764 17.2339 14.7104C17.2339 14.6836 17.4615 14.4426 17.4615 14.4426H17.2874C17.2874 14.4426 17.1803 14.5028 17.1267 14.5095C17.0732 14.5162 17.0531 14.4828 17.0732 14.4627C17.3544 14.2417 18.1579 13.8801 18.1579 13.8801Z" fill="#F5C933"/><path d="M16.3382 15.1189H16.3249C16.2847 15.1055 16.2646 15.0386 16.2579 15.0118C16.2378 14.9582 16.2311 14.8846 16.2579 14.8444C16.3449 14.7105 16.5123 14.523 16.7266 14.4025C16.8471 14.3355 16.9743 14.2886 17.1016 14.2485C17.2087 14.215 17.3091 14.1815 17.3828 14.1346C17.5435 14.0409 17.6707 13.9606 17.7778 13.8869C18.0122 13.7262 18.1796 13.6124 18.501 13.5655C20.3824 13.2977 22.4916 11.5166 22.6322 9.29367C22.6724 9.2468 22.7795 9.26688 22.7929 9.34723C22.813 9.47445 22.7996 9.74228 22.7862 9.96323C22.7795 10.1038 22.7728 10.2445 22.7795 10.2645C22.7795 10.2244 22.9134 9.92306 23.0406 9.63514L23.0875 9.52801C23.2616 9.14636 23.3486 8.96558 23.429 8.96558H23.4357L23.4691 8.98566C23.5562 9.10619 23.3018 9.73558 22.9871 10.4922C22.8866 10.7332 22.7862 10.9676 22.7862 10.9944C22.8799 10.9877 23.2214 10.4453 23.4691 10.0436C23.7571 9.58158 23.8709 9.40749 23.9178 9.40749C24.132 9.78245 23.4156 10.7131 23.0741 11.1618C22.9871 11.2756 22.9134 11.376 22.9067 11.3961C22.967 11.3827 23.1411 11.2488 23.2884 11.1082C23.4959 10.9207 23.7102 10.7265 23.8173 10.7265H23.824L23.8642 10.7466C23.9981 10.9073 23.5763 11.3225 23.1277 11.7376C23.0138 11.8447 22.9 11.9519 22.8933 11.9719C22.9469 12.0054 23.0607 11.9318 23.1678 11.8715C23.3687 11.751 23.5562 11.6639 23.5696 11.7644C23.583 11.8916 23.3955 12.0925 23.0004 12.3603C22.9268 12.4139 22.8531 12.4473 22.7929 12.4741C22.7527 12.4942 22.7058 12.5143 22.6991 12.5277C22.746 12.5277 22.7728 12.5277 22.7996 12.5277C22.8866 12.521 22.9603 12.5143 22.9871 12.5478L23.0004 12.5879C22.9938 12.7152 22.8197 12.7687 22.6724 12.8156C22.5853 12.8424 22.505 12.8692 22.4782 12.9026C22.4782 12.9294 22.5384 12.9361 22.5719 12.9361C22.6322 12.9428 22.6858 12.9495 22.7058 12.9763C22.6924 13.1102 22.4916 13.1437 22.3175 13.1705C22.2438 13.1839 22.1501 13.1972 22.1434 13.2106C22.1501 13.2173 22.197 13.224 22.2238 13.2307C22.2974 13.2441 22.3978 13.2642 22.3844 13.3512C22.3711 13.4249 22.2304 13.4383 22.0698 13.4517C21.9626 13.4651 21.8488 13.4718 21.8086 13.4986C21.8153 13.4986 21.8622 13.5186 21.8957 13.5253C21.976 13.5454 22.0497 13.5722 22.0497 13.6191C22.0497 13.6526 22.0229 13.686 21.8354 13.7463C21.3801 13.8869 21.2194 13.9271 20.9315 13.9739C20.4159 14.061 20.1682 14.0744 20.0677 14.0744C19.9472 14.0744 19.9271 14.061 19.9137 14.0409C19.9271 13.9873 20.0142 13.9672 20.3222 13.9204C20.4025 13.907 20.4695 13.9003 20.4963 13.8869C20.5364 13.8735 20.59 13.8668 20.6436 13.8534C20.7574 13.8266 20.8779 13.7999 20.9114 13.7798C21.0453 13.6927 21.1658 13.6258 21.3399 13.5923C21.3667 13.5722 21.3466 13.5387 21.3332 13.5186C21.3064 13.4852 21.2797 13.445 21.2931 13.4115C21.3064 13.3713 21.3332 13.3579 21.3667 13.3579L21.4136 13.378V13.3579C21.4404 13.3579 21.4671 13.3512 21.5006 13.3111C21.5341 13.2709 21.5207 13.2441 21.514 13.2106C21.5073 13.1906 21.5006 13.1705 21.5006 13.1504C21.5006 13.1169 21.5542 13.1035 21.6479 13.0834C21.7216 13.0633 21.8153 13.0432 21.8488 13.0098C21.822 12.9763 21.8019 12.9562 21.7952 12.9227C21.7885 12.8892 21.8287 12.8692 21.9559 12.8022C22.0162 12.7687 22.1166 12.7219 22.1233 12.7018C22.1233 12.6951 22.1032 12.6817 22.0831 12.6683C22.0564 12.6549 22.0363 12.6415 22.0363 12.6214V12.608L22.0631 12.5745C22.0965 12.5545 22.1501 12.5277 22.2104 12.4942C22.3443 12.4272 22.5117 12.3402 22.5518 12.2599C22.5251 12.2398 22.4983 12.2465 22.4782 12.2465C22.4581 12.2532 22.4313 12.2532 22.4179 12.2532L22.3778 12.2331C22.3711 12.213 22.3778 12.1929 22.3911 12.1728C22.4112 12.146 22.4447 12.1192 22.4782 12.0858C22.5585 12.0121 22.659 11.9251 22.6991 11.8045C22.6724 11.8045 22.6456 11.8112 22.6255 11.8112C22.5318 11.8246 22.4715 11.8045 22.4715 11.7711C22.4715 11.7041 22.505 11.6305 22.5384 11.5501C22.5786 11.4698 22.6121 11.3827 22.6255 11.3024C22.5786 11.2756 22.5184 11.3158 22.4849 11.3425L22.4112 11.2488C22.4112 11.2622 22.2171 11.3091 21.9024 11.6773C21.7484 11.8514 21.6479 12.0255 21.5475 12.1862C21.427 12.3871 21.3131 12.5745 21.1324 12.7285C21.052 12.762 20.985 12.7821 20.9114 12.8089C20.5699 12.9294 20.2217 13.0499 19.7664 13.5521C19.7397 13.5722 19.6928 13.5789 19.5923 13.5856C19.4383 13.599 19.1906 13.6124 18.7621 13.6994C18.3938 13.7731 18.1796 13.8534 18.1796 13.8601C18.1729 13.8601 17.3761 14.2217 17.1083 14.4226C17.1886 14.4226 17.2689 14.3824 17.2957 14.369H17.4832C17.3962 14.5163 17.2823 14.6368 17.2756 14.6569L17.3091 14.7105V14.6904C17.664 14.7105 18.1595 14.6904 18.5344 14.7172L18.5947 14.7105C18.675 14.7038 18.7755 14.6703 18.8023 14.7506C18.7219 14.8511 18.5545 14.8913 18.4608 14.8913C17.9318 14.9046 16.7065 14.9113 16.673 14.9113C16.6797 14.9113 16.6061 14.9716 16.5391 14.9716C16.4989 14.9716 16.4789 14.9515 16.4655 14.9314C16.4186 14.9247 16.4052 14.9649 16.3918 14.9917C16.3784 15.0787 16.3717 15.1189 16.3382 15.1189ZM22.6858 9.30036C22.6657 9.30036 22.6456 9.30706 22.6456 9.30706C22.5184 11.53 20.3891 13.3245 18.4943 13.599C18.1863 13.6459 18.0189 13.753 17.7912 13.9137C17.6774 13.9873 17.5569 14.0744 17.3895 14.1681C17.3091 14.215 17.2087 14.2485 17.1016 14.2819C16.981 14.3221 16.8538 14.369 16.7333 14.4293C16.5257 14.5431 16.365 14.7239 16.278 14.8578C16.2646 14.8779 16.2646 14.9381 16.2847 14.9917C16.2981 15.0386 16.3182 15.0653 16.3316 15.072C16.3382 15.0653 16.3449 15.0386 16.3516 15.0185C16.365 14.9783 16.3784 14.9381 16.4119 14.918C16.4655 14.9113 16.4789 14.9247 16.4922 14.9381C16.5056 14.9515 16.5123 14.9649 16.5324 14.9649C16.5927 14.9649 16.6529 14.9046 16.6596 14.9046C16.673 14.898 17.9251 14.898 18.4608 14.8846C18.5478 14.8846 18.7085 14.8444 18.7688 14.7774C18.7554 14.7841 18.7353 14.7774 18.6951 14.7774C18.6683 14.7774 18.6282 14.7841 18.6014 14.7841L18.5344 14.7908C18.1528 14.764 17.6573 14.7908 17.3024 14.764C17.2957 14.764 17.2689 14.764 17.2489 14.7373C17.2355 14.7239 17.2288 14.7038 17.2355 14.6837C17.2355 14.6636 17.3158 14.5699 17.4631 14.4092L17.3024 14.4426C17.3091 14.4426 17.202 14.5029 17.1417 14.5096C17.0949 14.5163 17.0681 14.4962 17.0614 14.4761L17.0547 14.4627L17.0748 14.4293C17.3426 14.2217 18.1193 13.8735 18.1528 13.8601C18.1528 13.8601 18.367 13.7798 18.742 13.6994C19.1705 13.6124 19.425 13.5923 19.579 13.5856C19.6593 13.5789 19.7129 13.5789 19.7263 13.5655C20.1883 13.0566 20.5431 12.9294 20.8846 12.8089C20.9583 12.7821 21.0252 12.762 21.0989 12.7285C21.2663 12.5812 21.3801 12.4005 21.5006 12.1996C21.6011 12.0322 21.7015 11.8581 21.8555 11.684C22.197 11.289 22.3978 11.2488 22.4112 11.2488L22.4782 11.3425C22.4715 11.3225 22.5518 11.2689 22.6054 11.2689L22.6456 11.2823C22.659 11.2957 22.659 11.3091 22.659 11.3358C22.6523 11.4296 22.6054 11.5166 22.5719 11.597C22.5384 11.6706 22.505 11.7443 22.505 11.7978C22.5585 11.8112 22.5853 11.8045 22.6121 11.7978C22.6389 11.7912 22.6657 11.7912 22.6858 11.7912L22.7326 11.8045C22.6924 11.9719 22.5853 12.0657 22.505 12.1393C22.4715 12.1728 22.438 12.1996 22.4246 12.2197C22.4313 12.2331 22.4514 12.2331 22.4715 12.2264C22.4983 12.2197 22.5184 12.2197 22.5384 12.2197H22.5518L22.592 12.2398C22.6054 12.2599 22.592 12.2866 22.5853 12.2933C22.5384 12.3871 22.3711 12.4674 22.2238 12.5411C22.1702 12.5679 22.1166 12.5946 22.0831 12.6214C22.13 12.6616 22.1702 12.6817 22.1568 12.7219C22.1501 12.7553 22.0898 12.7888 21.9693 12.8491C21.9158 12.8759 21.8354 12.916 21.8287 12.9294C21.8287 12.9428 21.8421 12.9495 21.8622 12.9629L21.8957 13.0031C21.8421 13.0834 21.7484 13.1035 21.6613 13.1236C21.6144 13.137 21.5542 13.1504 21.5475 13.1571C21.5676 13.2307 21.5877 13.2776 21.5408 13.3312C21.4939 13.3847 21.4537 13.3981 21.4203 13.3981H21.3734C21.36 13.3981 21.3466 13.3981 21.3399 13.4249C21.3332 13.4383 21.36 13.4651 21.3734 13.4919C21.4002 13.5253 21.427 13.5588 21.4136 13.5923C21.4069 13.6124 21.3868 13.6191 21.36 13.6258C21.1993 13.6592 21.0788 13.7262 20.9449 13.8066C20.9047 13.8333 20.7842 13.8601 20.6637 13.8869C20.6101 13.9003 20.5565 13.9137 20.5164 13.9204C20.4896 13.9271 20.4226 13.9405 20.3423 13.9539C20.2351 13.9739 20.041 14.0007 19.9807 14.0275C20.0276 14.0275 20.1548 14.0677 20.9382 13.9271C21.2261 13.8802 21.3868 13.84 21.8354 13.6994C22.0229 13.6392 22.0229 13.6124 22.0229 13.6124C22.0229 13.5923 21.9358 13.5722 21.9024 13.5588C21.8287 13.5387 21.7885 13.5253 21.7885 13.4986V13.4852L21.8086 13.4584C21.8622 13.4249 21.9693 13.4115 22.0898 13.4048C22.197 13.3914 22.3644 13.378 22.3711 13.3379C22.3778 13.2977 22.3242 13.2776 22.2438 13.2642C22.1836 13.2508 22.13 13.2441 22.13 13.1972C22.1367 13.1571 22.1903 13.1504 22.3376 13.1236C22.4782 13.1035 22.6858 13.07 22.6991 12.9964C22.6858 12.9763 22.6322 12.9763 22.592 12.9696C22.5318 12.9629 22.4715 12.9562 22.4581 12.9227L22.4514 12.9093L22.4715 12.8692C22.505 12.829 22.5853 12.8022 22.6858 12.7687C22.8197 12.7285 22.9804 12.675 22.9871 12.5745C22.9737 12.5478 22.9067 12.5478 22.8264 12.5545C22.7661 12.5612 22.7058 12.5745 22.6858 12.5411C22.6991 12.4741 22.7393 12.4607 22.7996 12.4272C22.8531 12.4005 22.9268 12.367 23.0004 12.3134C23.4959 11.9652 23.5562 11.8112 23.5495 11.751C23.4625 11.7376 23.3285 11.8112 23.208 11.8849C23.0808 11.9585 22.9737 12.0255 22.9134 12.0255L22.8732 12.0054C22.8598 11.992 22.8598 11.9719 22.8665 11.9452C22.8732 11.9184 22.9335 11.8581 23.1143 11.6907C23.4156 11.4095 23.9713 10.8939 23.8508 10.7533C23.7437 10.7533 23.5093 10.9475 23.3285 11.1149C23.121 11.3024 22.9938 11.4162 22.9268 11.4162H22.9067L22.8799 11.376C22.8799 11.3559 22.9067 11.3158 23.054 11.1149C23.3888 10.673 24.0918 9.74897 23.9178 9.41419C23.8843 9.43427 23.6834 9.75567 23.5093 10.0369C23.1478 10.6194 22.9067 11.0011 22.7996 11.0011C22.746 10.9609 22.7594 10.9207 22.9603 10.4453C23.1745 9.93645 23.5294 9.0861 23.4491 8.97897C23.3821 8.97227 23.2415 9.28697 23.1344 9.51462L23.0875 9.62175C22.9536 9.92306 22.8197 10.211 22.7929 10.2578C22.746 10.2445 22.746 10.2043 22.7594 9.92975C22.7728 9.71549 22.7795 9.44097 22.7661 9.32045C22.7393 9.32045 22.7192 9.30036 22.6858 9.30036Z" fill="#F5C933"/><path d="M16.9124 14.6434C16.9124 14.6166 16.8521 14.63 16.8052 14.6434C16.7584 14.6568 16.7383 14.6769 16.7383 14.7037C16.7383 14.7304 16.7985 14.717 16.8387 14.7103C16.8856 14.6903 16.9191 14.6702 16.9124 14.6434Z" fill="#50AEC4"/><path d="M16.7723 14.7371H16.7522L16.7188 14.7036C16.7188 14.6634 16.7455 14.6366 16.7991 14.6233C16.8393 14.6166 16.8594 14.6099 16.8794 14.6099H16.8995L16.9263 14.6433C16.9263 14.6835 16.8928 14.7103 16.8393 14.7237C16.8192 14.7304 16.7924 14.7371 16.7723 14.7371Z" fill="#50AEC4"/><path d="M18.5203 5.5575C18.6743 5.58428 18.748 5.50393 18.7681 5.3901C18.8015 5.2361 18.7346 4.47949 18.7346 4.47949C18.7346 4.47949 18.3864 5.15576 18.3529 5.30976C18.3328 5.41689 18.3663 5.53071 18.5203 5.5575Z" fill="#F5C933"/><path d="M19.0701 5.72491C19.2107 5.78518 19.3045 5.71822 19.3446 5.61109C19.4049 5.47048 19.4919 4.71387 19.4919 4.71387C19.4919 4.71387 19.0165 5.30978 18.9563 5.45039C18.9094 5.55083 18.9295 5.66465 19.0701 5.72491Z" fill="#F5C933"/><path d="M19.5785 5.99934C19.7057 6.08638 19.8061 6.03282 19.8731 5.93908C19.9601 5.81186 20.1878 5.08203 20.1878 5.08203C20.1878 5.08203 19.6052 5.57082 19.5182 5.70473C19.4579 5.79847 19.4512 5.9123 19.5785 5.99934Z" fill="#F5C933"/><path d="M20.0199 6.36093C20.127 6.46806 20.2408 6.44128 20.3212 6.36093C20.4283 6.2538 20.7966 5.58423 20.7966 5.58423C20.7966 5.58423 20.127 5.95249 20.0199 6.05962C19.9395 6.13997 19.9127 6.2538 20.0199 6.36093Z" fill="#F5C933"/><path d="M20.3881 6.8095C20.4751 6.93672 20.589 6.93002 20.6827 6.86976C20.8099 6.78272 21.2987 6.2002 21.2987 6.2002C21.2987 6.2002 20.5756 6.43454 20.4417 6.51489C20.3546 6.57515 20.301 6.68228 20.3881 6.8095Z" fill="#F5C933"/><path d="M20.6632 7.31831C20.7235 7.45892 20.8373 7.47901 20.9445 7.43214C21.0851 7.37188 21.681 6.89648 21.681 6.89648C21.681 6.89648 20.9244 6.98353 20.7838 7.03709C20.6699 7.08396 20.603 7.17101 20.6632 7.31831Z" fill="#F5C933"/><path d="M20.8295 7.86747C20.863 8.01477 20.9701 8.05494 21.0773 8.03486C21.2246 8.00138 21.9075 7.6532 21.9075 7.6532C21.9075 7.6532 21.1509 7.58625 20.9969 7.61973C20.8831 7.63981 20.796 7.71346 20.8295 7.86747Z" fill="#F5C933"/><path d="M20.8848 8.44327C20.8848 8.59727 20.9852 8.65753 21.099 8.65753C21.253 8.65753 21.9829 8.44327 21.9829 8.44327C21.9829 8.44327 21.253 8.229 21.099 8.229C20.9852 8.229 20.8848 8.28926 20.8848 8.44327Z" fill="#F5C933"/><path d="M20.8294 9.0123C20.8026 9.1663 20.883 9.23996 20.9968 9.26004C21.1441 9.29352 21.9074 9.22656 21.9074 9.22656C21.9074 9.22656 21.2311 8.87839 21.0771 8.84491C20.9633 8.82482 20.8562 8.865 20.8294 9.0123Z" fill="#F5C933"/><path d="M20.6634 9.56803C20.6031 9.70864 20.6701 9.80238 20.7772 9.84255C20.9178 9.90282 21.6744 9.98316 21.6744 9.98316C21.6744 9.98316 21.0785 9.50777 20.9379 9.44751C20.8308 9.40734 20.7169 9.42073 20.6634 9.56803Z" fill="#F5C933"/><path d="M20.3878 10.0704C20.3007 10.1976 20.3543 10.2981 20.448 10.365C20.5753 10.4521 21.3051 10.6797 21.3051 10.6797C21.3051 10.6797 20.8163 10.0972 20.6891 10.0101C20.5887 9.94988 20.4748 9.94319 20.3878 10.0704Z" fill="#F5C933"/><path d="M20.0199 10.5189C19.9127 10.626 19.9395 10.7399 20.0199 10.8202C20.127 10.9273 20.7966 11.2956 20.7966 11.2956C20.7966 11.2956 20.4283 10.626 20.3212 10.5189C20.2408 10.4386 20.1337 10.4118 20.0199 10.5189Z" fill="#F5C933"/><path d="M19.5785 10.8873C19.4512 10.9743 19.4579 11.0881 19.5182 11.1819C19.6052 11.3091 20.1878 11.8046 20.1878 11.8046C20.1878 11.8046 19.9534 11.0747 19.8731 10.9475C19.8061 10.8471 19.7057 10.8002 19.5785 10.8873Z" fill="#F5C933"/><path d="M19.0701 11.155C18.9295 11.2152 18.9094 11.329 18.9563 11.4362C19.0165 11.5768 19.4919 12.1727 19.4919 12.1727C19.4919 12.1727 19.4049 11.4161 19.3446 11.2755C19.3045 11.1683 19.2107 11.0947 19.0701 11.155Z" fill="#F5C933"/><path d="M16.3105 10.8873C16.1833 10.8003 16.0828 10.8538 16.0159 10.9476C15.9288 11.0748 15.7012 11.8046 15.7012 11.8046C15.7012 11.8046 16.2837 11.3158 16.3707 11.1819C16.431 11.0815 16.4377 10.9676 16.3105 10.8873Z" fill="#F5C933"/><path d="M15.8685 10.5189C15.7614 10.4118 15.6475 10.4386 15.5672 10.5189C15.4601 10.626 15.0918 11.2956 15.0918 11.2956C15.0918 11.2956 15.7614 10.9273 15.8685 10.8202C15.9488 10.7399 15.9756 10.626 15.8685 10.5189Z" fill="#F5C933"/><path d="M15.5005 10.0704C15.4134 9.94319 15.2996 9.94988 15.2058 10.0101C15.0786 10.0972 14.5898 10.6797 14.5898 10.6797C14.5898 10.6797 15.313 10.4454 15.4469 10.365C15.5339 10.3048 15.5875 10.2043 15.5005 10.0704Z" fill="#F5C933"/><path d="M15.2259 9.56816C15.1656 9.42755 15.0518 9.40746 14.9514 9.45433C14.8108 9.51459 14.2148 9.98998 14.2148 9.98998C14.2148 9.98998 14.9715 9.90294 15.1121 9.84938C15.2192 9.79581 15.2862 9.70877 15.2259 9.56816Z" fill="#F5C933"/><path d="M15.0585 9.0123C15.025 8.865 14.9246 8.82482 14.8107 8.84491C14.6634 8.87839 13.9805 9.22656 13.9805 9.22656C13.9805 9.22656 14.7371 9.29352 14.8911 9.26004C15.0049 9.23996 15.092 9.1663 15.0585 9.0123Z" fill="#F5C933"/><path d="M15.0043 8.44327C15.0043 8.28926 14.9039 8.229 14.7901 8.229C14.6361 8.229 13.9062 8.44327 13.9062 8.44327C13.9062 8.44327 14.6361 8.65753 14.7901 8.65753C14.9039 8.65083 15.0043 8.59727 15.0043 8.44327Z" fill="#F5C933"/><path d="M15.0585 7.86739C15.0853 7.71339 15.0049 7.63974 14.8911 7.61965C14.7371 7.59287 13.9805 7.65313 13.9805 7.65313C13.9805 7.65313 14.6567 8.00131 14.8107 8.03479C14.9246 8.05487 15.0317 8.0147 15.0585 7.86739Z" fill="#F5C933"/><path d="M15.2259 7.31845C15.2862 7.17784 15.2192 7.0841 15.1121 7.04393C14.9715 6.98367 14.2148 6.90332 14.2148 6.90332C14.2148 6.90332 14.8108 7.37871 14.9514 7.43897C15.0585 7.47245 15.1723 7.45906 15.2259 7.31845Z" fill="#F5C933"/><path d="M15.5013 6.8095C15.5883 6.68228 15.5348 6.58185 15.441 6.51489C15.3138 6.42785 14.584 6.2002 14.584 6.2002C14.584 6.2002 15.0728 6.78272 15.2 6.86976C15.3004 6.93002 15.4142 6.93672 15.5013 6.8095Z" fill="#F5C933"/><path d="M15.8685 6.36093C15.9756 6.2538 15.9488 6.13997 15.8685 6.05962C15.7614 5.95249 15.0918 5.58423 15.0918 5.58423C15.0918 5.58423 15.4601 6.2538 15.5672 6.36093C15.6475 6.44128 15.7547 6.46806 15.8685 6.36093Z" fill="#F5C933"/><path d="M17.9447 5.85864C19.3709 5.85864 20.5293 7.017 20.5293 8.44987C20.5293 9.87605 19.3709 11.0344 17.9447 11.0344C16.5119 11.0344 15.3535 9.87605 15.3535 8.44987C15.3535 7.017 16.5119 5.85864 17.9447 5.85864Z" fill="#F5C933"/><path d="M17.9447 5.50385C18.0987 5.50385 18.1523 5.40342 18.1523 5.28959C18.1523 5.13559 17.9447 4.40576 17.9447 4.40576C17.9447 4.40576 17.7305 5.13559 17.7305 5.28959C17.7305 5.40342 17.7907 5.50385 17.9447 5.50385Z" fill="#F5C933"/><path d="M18.5199 11.3223C18.3726 11.3558 18.3324 11.4629 18.3525 11.5701C18.3793 11.7241 18.7341 12.4003 18.7341 12.4003C18.7341 12.4003 18.8011 11.637 18.7676 11.4897C18.7408 11.3759 18.6672 11.2955 18.5199 11.3223Z" fill="#F5C933"/><path d="M17.9447 11.3826C17.7907 11.3826 17.7305 11.483 17.7305 11.5968C17.7305 11.7508 17.9447 12.4807 17.9447 12.4807C17.9447 12.4807 18.1523 11.7508 18.1523 11.5968C18.159 11.4763 18.0987 11.3826 17.9447 11.3826Z" fill="#F5C933"/><path d="M17.3679 11.3223C17.2139 11.2955 17.1402 11.3759 17.1201 11.4897C17.0934 11.637 17.1536 12.4003 17.1536 12.4003C17.1536 12.4003 17.5018 11.7241 17.5353 11.5701C17.5554 11.4629 17.5219 11.3558 17.3679 11.3223Z" fill="#F5C933"/><path d="M16.8194 11.1551C16.6788 11.0948 16.5851 11.1618 16.5449 11.2689C16.4846 11.4095 16.4043 12.1661 16.4043 12.1661C16.4043 12.1661 16.8797 11.5702 16.94 11.4296C16.9801 11.3291 16.96 11.2153 16.8194 11.1551Z" fill="#F5C933"/><path d="M16.3105 5.99934C16.4377 5.9123 16.431 5.79847 16.3707 5.70473C16.2837 5.57751 15.7012 5.08203 15.7012 5.08203C15.7012 5.08203 15.9355 5.81186 16.0159 5.93908C16.0828 6.03282 16.1833 6.07969 16.3105 5.99934Z" fill="#F5C933"/><path d="M16.8203 5.72477C16.9609 5.66451 16.981 5.55069 16.9341 5.44356C16.8738 5.30295 16.3984 4.70703 16.3984 4.70703C16.3984 4.70703 16.4855 5.46364 16.539 5.60425C16.5859 5.71808 16.6797 5.78504 16.8203 5.72477Z" fill="#F5C933"/><path d="M17.3684 5.5575C17.5157 5.52402 17.5559 5.42358 17.5358 5.30976C17.5091 5.15576 17.1542 4.47949 17.1542 4.47949C17.1542 4.47949 17.0872 5.2361 17.1207 5.3901C17.1475 5.50393 17.2211 5.59098 17.3684 5.5575Z" fill="#F5C933"/><path stroke="#DADADA" fill="rgba(255,255,255,0)" d="M0.5 0.5H34.5V19.5H0.5z"/></svg>