<svg width="14" height="13" viewBox="0 0 14 13" fill="none" xmlns="http://www.w3.org/2000/svg"><path d="M0 13L0.223333 10.5567L1.76 9.30666L3.32333 9.44667L3.47 7.91999L3.98 7.50333L5.54166 7.64333L5.68166 6.11667L6.53666 5.42333C6.46333 5.07667 6.445 4.71 6.48 4.34C6.66833 2.31667 8.50166 0.828328 10.5733 1.01166C12.645 1.19666 14.1733 2.98333 13.985 5.00667C13.7967 7.03 11.9633 8.51834 9.89166 8.335C9.51166 8.30167 9.14333 8.21834 8.80833 8.085L2.84 12.94L0 13ZM10.245 5.75C10.8017 5.745 11.2717 5.32833 11.3233 4.77666C11.3783 4.18667 10.9333 3.66333 10.3283 3.61C9.72333 3.55667 9.19 3.98833 9.135 4.57833C9.08 5.16833 9.525 5.69166 10.13 5.745C10.1683 5.74833 10.2083 5.75 10.245 5.75Z"/></svg>