<svg width="35" height="20" viewBox="0 0 35 20" fill="none" xmlns="http://www.w3.org/2000/svg"><path d="M34.2819 0H0V20H34.2819V0Z" fill="#D51F3A"/><path d="M23.1591 10.0167C22.3824 10.2109 21.5454 9.58818 20.829 9.7221C20.829 9.7154 20.829 9.70201 20.829 9.69532C21.5187 9.36723 22.6703 9.73549 23.0854 9.07931C22.3556 9.39401 21.4316 8.91192 20.7487 9.15296C20.7487 9.14627 20.742 9.13288 20.742 9.12618C21.3714 8.69766 22.5565 8.87844 22.8712 8.1687C22.2016 8.59053 21.224 8.26913 20.5746 8.60392C20.5679 8.59722 20.5679 8.58383 20.5612 8.57714C21.1236 8.06157 22.3087 8.04818 22.5096 7.30495C21.9137 7.82052 20.9027 7.65983 20.3201 8.08835C20.3134 8.08165 20.3067 8.06826 20.3 8.06157C20.7754 7.46565 21.9405 7.27148 22.0141 6.50817C21.5053 7.11078 20.4875 7.11078 19.9786 7.61965C19.972 7.61296 19.9653 7.59956 19.9586 7.59287C20.3402 6.93669 21.4517 6.55504 21.4115 5.79173C21.0098 6.46799 20.0054 6.62869 19.5769 7.20452C19.5702 7.19782 19.5568 7.19113 19.5501 7.17774C19.8246 6.47469 20.8625 5.92564 20.7018 5.17572C20.4072 5.90556 19.443 6.22025 19.1082 6.84965C19.0948 6.84295 19.0881 6.83626 19.0747 6.82956C19.2421 6.09303 20.1728 5.38999 19.8983 4.68024C19.7242 5.44355 18.827 5.90556 18.5926 6.58182C18.5793 6.57512 18.5659 6.57512 18.5525 6.56843C18.606 5.81851 19.4095 4.98155 19.0279 4.31868C18.9743 5.09538 18.1574 5.69799 18.0369 6.40104C18.0235 6.40104 18.0101 6.39434 17.9967 6.39434C17.9298 5.64442 18.5926 4.69363 18.1106 4.10441C18.1775 4.88111 17.4678 5.59755 17.4544 6.31399C17.441 6.31399 17.4276 6.31399 17.4142 6.31399C17.2334 5.58416 17.7423 4.53963 17.1732 4.03076C17.3606 4.78737 16.7714 5.61094 16.8719 6.31399C16.8585 6.31399 16.8451 6.31399 16.8317 6.31399C16.5371 5.61764 16.8719 4.50616 16.2358 4.09772C16.5438 4.82085 16.0885 5.71808 16.296 6.40104C16.2826 6.40104 16.2692 6.40773 16.2559 6.40773C15.8541 5.77164 16.0148 4.61998 15.3185 4.31198C15.7336 4.97485 15.4256 5.93903 15.7403 6.58182C15.7269 6.58852 15.7202 6.59521 15.7068 6.59521C15.2046 6.02608 15.1912 4.86103 14.448 4.66685C14.9636 5.26277 14.8029 6.26043 15.2247 6.84965C15.2113 6.85634 15.2046 6.86304 15.1912 6.86973C14.6087 6.38764 14.4078 5.23599 13.6445 5.16233C14.2471 5.67121 14.2471 6.68895 14.756 7.19782C14.7493 7.20452 14.7359 7.21121 14.7292 7.21791C14.0731 6.83626 13.6914 5.72477 12.9281 5.76495C13.6044 6.17338 13.7651 7.18443 14.3476 7.60626C14.3409 7.61296 14.3342 7.62635 14.3275 7.63304C13.6178 7.36522 13.0687 6.31399 12.3188 6.48138C13.0553 6.77599 13.37 7.76026 14.0195 8.08165C14.0128 8.08835 14.0061 8.10174 14.0061 8.10844C13.2629 7.96113 12.5531 7.00365 11.83 7.28487C12.6067 7.46565 13.0687 8.38966 13.7651 8.60392C13.7651 8.61061 13.7584 8.624 13.7517 8.6307C12.9884 8.60392 12.138 7.76696 11.4684 8.15531C12.2652 8.20887 12.8678 9.05923 13.591 9.15296C13.591 9.15966 13.5843 9.17305 13.5843 9.17975C12.8277 9.28018 11.8434 8.57714 11.2475 9.06592C12.0443 8.99896 12.7808 9.74219 13.5106 9.7221C13.5106 9.72879 13.5106 9.73549 13.5106 9.74888C12.7741 9.97653 11.6894 9.42749 11.1738 10.01C11.9572 9.81584 12.8009 10.4452 13.524 10.3046C13.524 10.3113 13.524 10.318 13.524 10.3247C12.8344 10.6662 11.6693 10.2912 11.2475 10.9474C11.9907 10.6327 12.9281 11.1282 13.6178 10.8671C13.6178 10.8738 13.6244 10.8805 13.6244 10.8871C13.0017 11.3425 11.7831 11.1483 11.4684 11.8647C12.1581 11.4362 13.1624 11.7777 13.8052 11.4094C13.8052 11.4161 13.8119 11.4228 13.8119 11.4228C13.2696 11.9785 12.0309 11.9718 11.83 12.7352C12.446 12.1995 13.4972 12.387 14.0731 11.9116C14.0731 11.9183 14.0798 11.9183 14.0798 11.925C13.6378 12.5611 12.3991 12.7486 12.3188 13.5386C12.8411 12.9159 13.9191 12.936 14.4078 12.3736C14.4078 12.3736 14.4145 12.3803 14.4145 12.387C14.0798 13.09 12.8812 13.465 12.9281 14.2618C13.3499 13.5587 14.4212 13.4181 14.8163 12.7753L14.823 12.782C14.6087 13.5319 13.4771 14.0944 13.6445 14.8711C13.9525 14.1078 14.9904 13.7998 15.2783 13.1034L15.285 13.1101C15.1912 13.8868 14.1534 14.6166 14.448 15.3599C14.6355 14.5631 15.6131 14.0944 15.7872 13.3579C15.7872 13.3579 15.7938 13.3579 15.7938 13.3646C15.8273 14.148 14.9167 15.0318 15.3185 15.7214C15.372 14.9046 16.2692 14.2886 16.3228 13.5319H16.3295C16.4835 14.302 15.7202 15.3197 16.2291 15.9357C16.1554 15.1188 16.9455 14.3689 16.8785 13.619H16.8852C17.1598 14.3555 16.5639 15.4804 17.1598 16.0094C16.9589 15.2126 17.6218 14.3488 17.441 13.619H17.4477C17.8293 14.3019 17.4209 15.5072 18.0972 15.9357C17.7758 15.1791 18.2913 14.2283 18.0034 13.5319H18.0101C18.4922 14.148 18.2779 15.4 19.0078 15.7147C18.5726 15.0184 18.9341 14.0006 18.5391 13.3579C18.5391 13.3579 18.5458 13.3579 18.5458 13.3512C19.1149 13.8868 19.1015 15.1523 19.8715 15.3532C19.3359 14.7372 19.53 13.6726 19.0413 13.1034L19.0479 13.0967C19.6907 13.5386 19.8782 14.784 20.6683 14.8644C20.0389 14.3421 20.0657 13.2641 19.5033 12.7753C19.5033 12.7753 19.51 12.7686 19.5166 12.7686C20.2197 13.1034 20.5947 14.302 21.3914 14.2551C20.6951 13.8333 20.5478 12.7753 19.9184 12.3736C19.9184 12.3669 19.9251 12.3669 19.9318 12.3602C20.675 12.5879 21.2307 13.706 22.0074 13.5386C21.2575 13.2373 20.9428 12.2129 20.2666 11.9183C20.2666 11.9116 20.2733 11.9049 20.2733 11.9049C21.0366 12.0187 21.7664 13.0298 22.5029 12.7419C21.7128 12.5611 21.2508 11.6103 20.5344 11.4161C20.5344 11.4094 20.5411 11.4027 20.5411 11.396C21.3111 11.396 22.1815 12.2732 22.8578 11.8714C22.0543 11.8178 21.445 10.9541 20.7152 10.8671C20.7152 10.8604 20.7152 10.8537 20.7219 10.847C21.4852 10.7331 22.4694 11.4496 23.0788 10.9541C22.282 11.0278 21.5454 10.2778 20.8156 10.2979C20.8156 10.2912 20.8156 10.2845 20.8156 10.2711C21.5588 10.0502 22.6435 10.5992 23.1591 10.0167ZM20.4072 10.3917C20.3871 10.5524 20.3603 10.7131 20.3201 10.8671C20.3402 10.8738 20.3603 10.8738 20.3871 10.8805C20.3603 10.8871 20.3335 10.8938 20.3134 10.9005C20.2733 11.0545 20.213 11.2085 20.146 11.3558C20.1661 11.3625 20.1862 11.3692 20.2063 11.3759C20.1795 11.3759 20.1527 11.3759 20.1327 11.3826C20.0657 11.5299 19.9853 11.6705 19.8983 11.8045C19.9184 11.8178 19.9385 11.8245 19.9586 11.8379C19.9318 11.8379 19.905 11.8312 19.8849 11.8312C19.7979 11.9652 19.6974 12.0924 19.5903 12.2129C19.6037 12.2263 19.6238 12.2397 19.6439 12.2531C19.6171 12.2464 19.5903 12.2397 19.5702 12.233C19.4631 12.3535 19.3426 12.4606 19.2153 12.5611C19.2287 12.5745 19.2421 12.5945 19.2622 12.6079C19.2354 12.5945 19.2153 12.5879 19.1886 12.5812C19.0613 12.6816 18.9274 12.7753 18.7868 12.8557C18.8002 12.8758 18.8136 12.8892 18.827 12.9092C18.8069 12.8959 18.7868 12.8825 18.76 12.8691C18.6194 12.9494 18.4721 13.0164 18.3248 13.0766C18.3315 13.0967 18.3449 13.1168 18.3583 13.1369C18.3382 13.1168 18.3181 13.1034 18.298 13.09C18.1507 13.1436 17.99 13.1905 17.836 13.2239C17.8427 13.244 17.8494 13.2641 17.8561 13.2909C17.8427 13.2708 17.8226 13.2507 17.8092 13.2306C17.6552 13.2641 17.4946 13.2842 17.3272 13.2909C17.3272 13.311 17.3339 13.3311 17.3339 13.3579C17.3205 13.3378 17.3071 13.311 17.2937 13.2909C17.2468 13.2909 17.1999 13.2909 17.1598 13.2909C17.0392 13.2909 16.9254 13.2842 16.8116 13.2708C16.8116 13.2909 16.8116 13.311 16.8116 13.3378C16.8049 13.311 16.7915 13.2909 16.7848 13.2641C16.6241 13.244 16.4634 13.2172 16.3094 13.1704C16.3027 13.1905 16.3027 13.2106 16.296 13.2373C16.2893 13.2106 16.2826 13.1838 16.2759 13.1637C16.1219 13.1235 15.9679 13.0632 15.8206 12.9963C15.8139 13.0164 15.8072 13.0365 15.8005 13.0632C15.8005 13.0365 15.8005 13.0097 15.7938 12.9896C15.6465 12.9226 15.5059 12.8423 15.372 12.7552C15.3586 12.7753 15.3519 12.7954 15.3385 12.8155C15.3385 12.7887 15.3452 12.7619 15.3452 12.7419C15.2113 12.6548 15.0841 12.5544 14.9636 12.4472C14.9502 12.4606 14.9368 12.4807 14.9234 12.5008C14.9301 12.474 14.9368 12.4472 14.9435 12.4272C14.823 12.32 14.7158 12.1995 14.6154 12.0723C14.602 12.0857 14.5819 12.0991 14.5685 12.1192C14.5819 12.0924 14.5886 12.0723 14.5953 12.0455C14.4949 11.9183 14.4078 11.7844 14.3208 11.6438C14.3007 11.6572 14.2873 11.6705 14.2672 11.6839C14.2806 11.6638 14.294 11.6438 14.3074 11.617C14.2271 11.4764 14.1601 11.3291 14.0998 11.1818C14.0798 11.1885 14.0597 11.2018 14.0396 11.2085C14.0597 11.1885 14.0731 11.1684 14.0864 11.1483C14.0329 11.001 13.986 10.8403 13.9525 10.6863C13.9324 10.693 13.9124 10.6997 13.8856 10.7064C13.9057 10.693 13.9258 10.6729 13.9458 10.6595C13.9124 10.5055 13.8923 10.3448 13.8856 10.1774C13.8655 10.1774 13.8454 10.1841 13.8186 10.1908C13.8387 10.1774 13.8655 10.164 13.8856 10.1506C13.8856 10.1038 13.8856 10.0636 13.8856 10.0167C13.8856 9.90288 13.8923 9.78236 13.9057 9.66853C13.8856 9.66853 13.8655 9.66853 13.8387 9.66853C13.8655 9.66184 13.8856 9.64845 13.9124 9.64175C13.9324 9.48105 13.9592 9.32036 14.0061 9.16636C13.986 9.15966 13.9659 9.15966 13.9391 9.15296C13.9659 9.14627 13.9927 9.13957 14.0128 9.13288C14.053 8.97888 14.1132 8.82488 14.1802 8.67757C14.1601 8.67088 14.14 8.66418 14.1199 8.65748C14.1467 8.65748 14.1735 8.65748 14.1936 8.65079C14.2605 8.50348 14.3409 8.36287 14.4279 8.22896C14.4078 8.21557 14.3878 8.20887 14.3677 8.19548C14.3945 8.19548 14.4212 8.20218 14.4413 8.20218C14.5284 8.06826 14.6288 7.94104 14.7359 7.82052C14.7225 7.80713 14.7025 7.79374 14.6824 7.78035C14.7091 7.78704 14.7359 7.79374 14.756 7.80044C14.8631 7.67991 14.9837 7.57278 15.1109 7.47235C15.0975 7.45895 15.0841 7.43887 15.064 7.42548C15.0908 7.43887 15.1109 7.44556 15.1377 7.45226C15.2649 7.35182 15.3988 7.25808 15.5394 7.17774C15.526 7.15765 15.5193 7.14426 15.4992 7.12417C15.5193 7.13756 15.5394 7.15095 15.5662 7.16434C15.7068 7.084 15.8541 7.01704 16.0014 6.95678C15.9947 6.93669 15.9813 6.9166 15.9746 6.89652C15.9947 6.9166 16.0148 6.93 16.0349 6.94339C16.1822 6.88982 16.3429 6.84295 16.4969 6.80947C16.4902 6.78939 16.4835 6.7693 16.4768 6.74252C16.4902 6.7626 16.5103 6.78269 16.5237 6.80278C16.6777 6.7693 16.8384 6.74921 17.0058 6.74252C17.0058 6.72243 16.9991 6.70234 16.9924 6.67556C17.0058 6.69565 17.0192 6.72243 17.0325 6.74252C17.0794 6.74252 17.1196 6.74252 17.1665 6.74252C17.2803 6.74252 17.4008 6.74921 17.5146 6.7626C17.5146 6.74252 17.5146 6.72243 17.5146 6.69565C17.5213 6.72243 17.5347 6.74252 17.5414 6.7693C17.7021 6.78939 17.8628 6.81617 18.0168 6.85634C18.0235 6.83626 18.0235 6.81617 18.0302 6.78939C18.0369 6.81617 18.0436 6.84295 18.0503 6.86304C18.2043 6.90321 18.3583 6.96347 18.5056 7.03043C18.5123 7.01034 18.519 6.99026 18.5257 6.96347C18.5257 6.99026 18.5257 7.01704 18.5324 7.03713C18.6797 7.10408 18.8203 7.18443 18.9542 7.27148C18.9676 7.25139 18.9743 7.2313 18.9877 7.21121C18.9877 7.238 18.981 7.26478 18.981 7.28487C19.1149 7.37191 19.2421 7.47235 19.3626 7.57948C19.376 7.56609 19.3894 7.546 19.4028 7.52591C19.3961 7.55269 19.3894 7.57948 19.3827 7.59956C19.5033 7.7067 19.6104 7.82722 19.7108 7.95444C19.7242 7.94104 19.7443 7.92765 19.7577 7.90757C19.7443 7.93435 19.7376 7.95444 19.7309 7.98122C19.8313 8.10844 19.9184 8.24235 20.0054 8.38296C20.0255 8.36957 20.0389 8.35618 20.059 8.34279C20.0456 8.36287 20.0322 8.38296 20.0188 8.40974C20.0992 8.55035 20.1661 8.69766 20.2264 8.84496C20.2465 8.83827 20.2666 8.82488 20.2867 8.81148C20.2666 8.83157 20.2532 8.85166 20.2398 8.87175C20.2933 9.01905 20.3402 9.17975 20.3737 9.33375C20.3938 9.32705 20.4139 9.32036 20.4406 9.31366C20.4206 9.32705 20.4005 9.34714 20.3804 9.36053C20.4139 9.51453 20.434 9.67523 20.4406 9.84262C20.4607 9.84262 20.4808 9.83593 20.5076 9.82923C20.4875 9.84262 20.4607 9.85601 20.4406 9.8694C20.4406 9.91627 20.4406 9.96314 20.4406 10.0033C20.4406 10.1238 20.434 10.2377 20.4206 10.3515C20.4407 10.3515 20.4607 10.3515 20.4875 10.3515C20.454 10.3716 20.434 10.385 20.4072 10.3917Z" fill="#F6EC32"/><path d="M16.8466 8.13536C16.3913 7.94788 15.8959 7.83405 15.3803 7.81396C15.3401 7.85414 15.2999 7.88762 15.2598 7.92779C15.7552 7.94788 16.2239 8.06171 16.6592 8.24249C16.7194 8.20901 16.7797 8.16884 16.8466 8.13536Z" fill="#F6EC32"/><path d="M18.7273 7.633C18.2854 7.31161 17.7498 7.11743 17.1605 7.11743C16.578 7.11743 16.0357 7.30491 15.5938 7.633C16.1495 7.65309 16.6718 7.78031 17.1605 7.98788C17.6493 7.78031 18.1783 7.65309 18.7273 7.633Z" fill="#F6EC32"/><path d="M16.4047 8.40322C16.003 8.23582 15.5677 8.12869 15.1124 8.09521C15.0857 8.12869 15.0522 8.16887 15.0254 8.20235C15.4606 8.23582 15.869 8.34296 16.2507 8.51035C16.2976 8.47687 16.3511 8.43669 16.4047 8.40322Z" fill="#F6EC32"/><path d="M17.5368 9.13306C17.4832 9.17323 17.4297 9.2201 17.3828 9.26028C18.1327 9.97002 18.6081 10.9677 18.6282 12.0792C18.7086 12.0256 18.7889 11.9653 18.8693 11.8984C18.7956 10.8003 18.3001 9.82271 17.5368 9.13306Z" fill="#F6EC32"/><path d="M17.6699 8.24249C18.1051 8.06171 18.5738 7.95457 19.0693 7.92779C19.0291 7.88762 18.989 7.84744 18.9488 7.81396C18.4332 7.83405 17.9377 7.94788 17.4824 8.13536C17.5427 8.16884 17.6096 8.20901 17.6699 8.24249Z" fill="#F6EC32"/><path d="M17.9785 8.83179C17.9182 8.86527 17.8513 8.90544 17.791 8.94561C18.5409 9.5951 19.0632 10.5124 19.2105 11.5502C19.2842 11.4565 19.3578 11.3628 19.4181 11.2623C19.2172 10.2981 18.7016 9.44779 17.9785 8.83179Z" fill="#F6EC32"/><path d="M16.0417 8.67773C15.6935 8.51704 15.3119 8.40991 14.9101 8.36304C14.6423 8.78486 14.4883 9.28034 14.4883 9.816C14.4883 10.1374 14.5418 10.4454 14.649 10.7333C14.9168 9.92313 15.4056 9.21339 16.0417 8.67773Z" fill="#F6EC32"/><path d="M18.0798 8.51035C18.4614 8.34296 18.8766 8.23582 19.3051 8.20235C19.2783 8.16217 19.2515 8.12869 19.218 8.09521C18.7627 8.122 18.3275 8.22913 17.9258 8.40322C17.9793 8.43669 18.0262 8.47687 18.0798 8.51035Z" fill="#F6EC32"/><path d="M16.0547 12.1593C16.0547 12.1995 16.0547 12.2397 16.0547 12.2798C16.3895 12.4338 16.7644 12.5209 17.1595 12.5209C17.5545 12.5209 17.9295 12.4338 18.2642 12.2798C18.2642 12.2397 18.2642 12.1995 18.2642 12.1593C18.2642 11.1081 17.8424 10.1506 17.1595 9.46094C16.4765 10.1506 16.0547 11.1081 16.0547 12.1593Z" fill="#F6EC32"/><path d="M17.1601 8.28271C17.0932 8.31619 17.0329 8.34967 16.9727 8.38985C17.0396 8.42332 17.0999 8.4568 17.1601 8.49698C17.2204 8.4635 17.2874 8.42332 17.3476 8.38985C17.2874 8.35637 17.2271 8.31619 17.1601 8.28271Z" fill="#F6EC32"/><path d="M18.2871 8.67763C18.9232 9.21328 19.412 9.92302 19.6798 10.7399C19.7802 10.452 19.8405 10.144 19.8405 9.82258C19.8405 9.28693 19.6865 8.79145 19.4187 8.36963C19.0169 8.4098 18.6353 8.51693 18.2871 8.67763Z" fill="#F6EC32"/><path d="M16.9454 9.26028C16.8919 9.21341 16.8383 9.17323 16.7914 9.13306C16.0281 9.82271 15.5326 10.807 15.459 11.9051C15.5326 11.9653 15.613 12.0256 15.7 12.0859C15.7201 10.9677 16.1955 9.96332 16.9454 9.26028Z" fill="#F6EC32"/><path d="M17.0078 8.94547C17.0614 8.98565 17.1149 9.02582 17.1685 9.06599C17.2221 9.02582 17.2756 8.98565 17.3225 8.94547C17.2689 8.9053 17.2154 8.86513 17.1685 8.82495C17.1082 8.86513 17.0614 8.9053 17.0078 8.94547Z" fill="#F6EC32"/><path d="M16.5313 8.94561C16.4711 8.90544 16.4108 8.86527 16.3439 8.83179C15.6207 9.44779 15.1052 10.2981 14.9043 11.2623C14.9646 11.3628 15.0382 11.4565 15.1119 11.5502C15.2659 10.5191 15.7814 9.60179 16.5313 8.94561Z" fill="#F6EC32"/><path d="M17.4238 8.65767C17.4774 8.69115 17.531 8.73133 17.5778 8.7715C17.6381 8.73133 17.705 8.69785 17.7653 8.66437C17.7117 8.62419 17.6649 8.59071 17.6113 8.55054C17.551 8.58402 17.4841 8.62419 17.4238 8.65767Z" fill="#F6EC32"/><path d="M16.5586 8.66437C16.6189 8.69785 16.6858 8.73802 16.7461 8.7715C16.7996 8.73133 16.8465 8.69785 16.9001 8.65767C16.8398 8.6175 16.7729 8.58402 16.7126 8.55054C16.6657 8.59071 16.6122 8.62419 16.5586 8.66437Z" fill="#F6EC32"/><path stroke="#DADADA" fill="rgba(255,255,255,0)" d="M0.5 0.5H34.5V19.5H0.5z"/></svg>