<svg width="150" height="60" viewBox="0 0 150 60" fill="none" xmlns="http://www.w3.org/2000/svg"><g clip-path="url(#clip0)" fill-rule="evenodd" clip-rule="evenodd"><path d="M3.06598 59.0176C3.86737 59.0176 4.45971 58.6667 4.84298 58.1755L4.32033 57.8246C4.04159 58.2456 3.58863 58.4562 3.06598 58.4562C1.98584 58.4562 1.32382 57.6141 1.32382 56.5614C1.32382 55.5439 2.02068 54.6667 3.10082 54.6667C3.58863 54.6667 4.04159 54.9123 4.25065 55.2281L4.77329 54.8421C4.42486 54.3509 3.728 54.1053 3.10082 54.1053C1.70709 54.1053 0.626953 55.0877 0.626953 56.5614C0.626953 58 1.67225 59.0176 3.06598 59.0176ZM7.56075 58.9123H8.29246L10.627 55.193V58.9123H11.289V54.2105H10.5573L8.22277 57.9298V54.2105H7.56075V58.9123ZM16.62 59.0176C17.4214 59.0176 18.0137 58.6667 18.397 58.1755L17.8743 57.8246C17.5956 58.2456 17.1426 58.4562 16.62 58.4562C15.5398 58.4562 14.8778 57.6141 14.8778 56.5614C14.8778 55.5439 15.5747 54.6667 16.6548 54.6667C17.1426 54.6667 17.5956 54.9123 17.8047 55.2281L18.3273 54.8421C17.9789 54.3509 17.282 54.1053 16.6548 54.1053C15.2611 54.1053 14.181 55.0877 14.181 56.5614C14.181 58 15.1914 59.0176 16.62 59.0176ZM22.0555 58.9123H22.7175V54.807H24.2158V54.2456H20.5921V54.807H22.0904V58.9123H22.0555ZM26.8639 58.9123H29.9301V58.3158H27.4911V56.7369H29.6862V56.1755H27.4911V54.772H29.8256V54.2105H26.8639V58.9123ZM32.8221 58.9123H33.4493V54.9825L34.9824 58.9123H35.4005L36.9336 54.9825V58.9123H37.5956V54.2105H36.5851L35.2263 57.8246L33.8325 54.2105H32.8221V58.9123ZM40.2437 58.9123H40.9754L41.4283 57.7544H43.6235L44.1113 58.9123H44.843L42.8569 54.2105H42.2646L40.2437 58.9123ZM41.6374 57.193L42.5085 54.9825L43.3796 57.193H41.6374ZM50.7315 58.9123H52.2646C53.2402 58.9123 54.0067 58.4913 54.0067 57.579C54.0067 56.9123 53.5886 56.5263 52.9614 56.4562C53.4493 56.3158 53.7628 55.9649 53.7628 55.4386C53.7628 54.5614 52.9963 54.2456 52.2994 54.2456H50.6966V58.9123H50.7315ZM51.3935 58.3509V56.772H52.2646C52.9614 56.772 53.3447 57.0176 53.3447 57.5439C53.3447 58.1755 52.7524 58.3509 52.1949 58.3509H51.3935ZM51.3935 56.2105V54.772H52.1252C52.7524 54.772 53.1357 54.9825 53.1357 55.4737C53.1357 56 52.7175 56.2105 52.2297 56.2105H51.3935ZM56.9684 58.9123H57.7001L60.0346 55.193V58.9123H60.6966V54.2105H59.9649L57.6304 57.9298V54.2105H56.9684V58.9123ZM63.3796 60H63.9719V58.8772H67.4911V60H68.0834V58.3158H67.5608V54.2105H64.4946V55.4386C64.4946 56.8772 64.2158 57.7544 63.728 58.3158H63.3447V60H63.3796ZM64.5294 58.3158C64.843 57.8597 65.1566 57.0176 65.1566 55.5088V54.807H66.9336V58.3509H64.5294V58.3158ZM70.8709 58.9123H73.9371V58.3158H71.498V56.7369H73.6932V56.1755H71.498V54.772H73.8325V54.2105H70.8709V58.9123ZM79.059 59.0176C80.4876 59.0176 81.5329 58 81.5329 56.5614C81.5329 55.0877 80.4876 54.1053 79.059 54.1053C77.6653 54.1053 76.62 55.0877 76.62 56.5614C76.62 58 77.6653 59.0176 79.059 59.0176ZM79.059 58.4211C78.0137 58.4211 77.3168 57.579 77.3168 56.5263C77.3168 55.5088 78.0137 54.6316 79.059 54.6316C80.1391 54.6316 80.836 55.4737 80.836 56.5263C80.836 57.6141 80.1391 58.4211 79.059 58.4211ZM84.4597 58.9123H85.1217V56.772H87.4911V58.9123H88.1531V54.2105H87.4562V56.1755H85.0869V54.2105H84.4249V58.9123H84.4597ZM90.7315 58.9123H91.4632L91.9162 57.7544H94.1113L94.5991 58.9123H95.3308L93.3447 54.2105H92.7524L90.7315 58.9123ZM92.1601 57.193L93.0311 54.9825L93.9022 57.193H92.1601ZM97.944 58.9123H99.4771C100.453 58.9123 101.15 58.4913 101.15 57.5439C101.15 56.5965 100.453 56.1755 99.4423 56.1755H98.6061V54.772H100.871V54.2105H97.9789V58.9123H97.944ZM98.6061 58.3509V56.7369H99.4074C100.104 56.7369 100.522 57.0176 100.522 57.5439C100.522 58.1053 100.104 58.3509 99.4074 58.3509H98.6061ZM104.007 58.9474C105.122 58.9474 105.505 57.8597 105.505 55.579V54.807H107.212V58.9123H107.874V54.2105H104.878V55.4035C104.878 57.6141 104.599 58.3509 103.867 58.3509C103.763 58.3509 103.693 58.3509 103.589 58.3158L103.519 58.9123C103.623 58.9123 103.833 58.9474 104.007 58.9474ZM114.843 59.0176C116.202 59.0176 117.143 57.9298 117.143 56.5614C117.143 55.1579 116.202 54.1053 114.843 54.1053C113.589 54.1053 112.718 54.9825 112.578 56.1755H111.637V54.2105H110.975V58.9123H111.637V56.772H112.543C112.648 58.0702 113.554 59.0176 114.843 59.0176ZM114.843 58.4211C113.833 58.4211 113.24 57.5439 113.24 56.5614C113.24 55.579 113.798 54.6667 114.843 54.6667C115.853 54.6667 116.446 55.5439 116.446 56.5614C116.446 57.5439 115.853 58.4211 114.843 58.4211ZM119.477 60H120.069V58.8772H123.589V60H124.181V58.3158H123.658V54.2105H120.592V55.4386C120.592 56.8772 120.313 57.7544 119.826 58.3158H119.442V60H119.477ZM120.627 58.3158C120.941 57.8597 121.254 57.0176 121.254 55.5088V54.807H123.031V58.3509H120.627V58.3158ZM126.968 58.9123H130.035V58.3158H127.596V56.7369H129.791V56.1755H127.596V54.772H129.93V54.2105H126.968V58.9123ZM132.927 58.9123H133.589V56.772H135.958V58.9123H136.62V54.2105H135.958V56.1755H133.589V54.2105H132.927V58.9123ZM139.756 58.9123H140.488L142.822 55.193V58.9123H143.484V54.2105H142.752L140.418 57.9298V54.2105H139.756V58.9123ZM146.237 58.9123H147.038L148.188 56.9474H148.885V58.9123H149.547V54.2105H148.153C147.108 54.2105 146.446 54.6316 146.446 55.579C146.446 56.2807 146.864 56.7369 147.526 56.8772L146.237 58.9123ZM148.188 56.4211C147.491 56.4211 147.073 56.1404 147.073 55.579C147.073 55.0176 147.491 54.772 148.188 54.772H148.885V56.4211H148.188Z" fill="#000"/><path d="M44.0772 19.0527L46.0633 20.0702C46.6556 20.386 46.8995 21.1228 46.5859 21.7193L42.788 29.2281C42.4744 29.8246 41.7427 30.0702 41.1504 29.7544L32.9971 25.5439L43.45 19.579C43.6939 19.4386 43.903 19.2632 44.0772 19.0527Z" fill="#43AC32"/><path d="M22.7872 25.7544L31.3238 20.5965L25.1217 18L20.7314 23.6842L22.7872 25.7544Z" fill="#43AC32"/><path d="M20.1044 22.8772C18.1881 22.8772 16.6201 24.4561 16.6201 26.386C16.6201 28.3158 18.1881 29.8947 20.1044 29.8947C22.0208 29.8947 23.5888 28.3158 23.5888 26.386C23.5888 24.4561 22.0557 22.8772 20.1044 22.8772ZM20.1044 24.9825C20.871 24.9825 21.4982 25.614 21.4982 26.386C21.4982 27.1579 20.871 27.7895 20.1044 27.7895C19.3379 27.7895 18.7107 27.1579 18.7107 26.386C18.7107 25.614 19.3379 24.9825 20.1044 24.9825Z" fill="#43AC32"/><path d="M31.603 24.5617L12.1953 14.8774L12.8225 2.03534C13.1012 0.386217 14.8782 -0.490976 16.3765 0.245866L43.1709 13.9652C44.7737 14.702 44.8782 16.9827 43.3451 17.8599L31.603 24.5617ZM36.3068 17.4739V17.4389C36.2023 16.8073 35.819 16.316 35.2267 16.0353L17.9444 6.63183C17.4218 6.38622 16.8295 6.42131 16.3068 6.66692L16.272 6.70201C14.9131 7.43885 14.9828 9.40376 16.3765 10.0353L33.7284 19.4389C35.0873 20.0704 36.5507 18.9125 36.3068 17.4739Z" fill="#43AC32"/><path d="M4.2854 43.4737C3.65822 42.807 3.34464 41.9298 3.34464 40.8772C3.34464 39.8947 3.62338 39.0526 4.18087 38.3859V34.6316C3.34463 34.9474 2.57808 35.4386 1.88122 36.1403C0.626865 37.4386 -0.0351562 39.0175 -0.0351562 40.8421C-0.0351562 42.7017 0.592021 44.2456 1.88122 45.5438C3.13558 46.8421 4.73836 47.4737 6.65474 47.4737C8.57112 47.4737 10.1739 46.8421 11.4283 45.5438C12.6826 44.2456 13.3446 42.6666 13.3446 40.8421C13.3446 38.9824 12.7175 37.4386 11.4283 36.1403C10.7662 35.4386 9.96484 34.9474 9.09376 34.6316V38.3859C9.65126 39.0526 9.96484 39.8947 9.96484 40.8772C9.96484 41.9298 9.65125 42.807 8.98923 43.4737C8.36206 44.1403 7.56066 44.4912 6.6199 44.4912C5.71397 44.4912 4.91258 44.1403 4.2854 43.4737ZM5.40038 37.4737V34.3158C5.8185 34.2456 6.23662 34.2105 6.65474 34.2105C7.07286 34.2105 7.49098 34.2456 7.87425 34.3158V37.4737C7.49098 37.3333 7.07286 37.2631 6.65474 37.2631C6.23662 37.2631 5.78366 37.3333 5.40038 37.4737Z" fill="#000"/><path d="M18.5015 41.4386C18.8847 40.8772 19.4074 40.6316 20.0346 40.6316C20.7663 40.6316 21.3586 41.0877 21.3586 42.1754V47.2632H24.5642V41.5439C24.5642 39.193 23.3447 37.7193 21.2889 37.7193C20.2088 37.7193 19.3029 38.1404 18.5015 38.9825V37.9298H15.2959V47.2281H18.5015V41.4386Z" fill="#000"/><path d="M29.233 47.5087C29.9648 47.5087 30.5571 47.4035 31.01 47.1579V44.6316C30.8358 44.7368 30.6616 44.7719 30.4526 44.7719C30.0344 44.7719 29.7905 44.5263 29.7905 44.0702V34.4561H26.585V44.7719C26.6198 46.5965 27.4909 47.5087 29.233 47.5087Z" fill="#000"/><path d="M35.9583 47.2631V37.9649H32.7527V47.2631H35.9583ZM34.3555 37.1228C35.4008 37.1228 36.2022 36.3158 36.2022 35.2632C36.2022 34.2105 35.4008 33.4035 34.3555 33.4035C33.345 33.4035 32.5088 34.2105 32.5088 35.2632C32.5088 36.3158 33.345 37.1228 34.3555 37.1228Z" fill="#000"/><path d="M41.4634 41.4386C41.8467 40.8772 42.3693 40.6316 42.9965 40.6316C43.7282 40.6316 44.3205 41.0877 44.3205 42.1754V47.2632H47.5261V41.5439C47.5261 39.193 46.3066 37.7193 44.2508 37.7193C43.1707 37.7193 42.2648 38.1404 41.4634 38.9825V37.9298H38.2578V47.2281H41.4634V41.4386Z" fill="#000"/><path d="M54.1467 47.5088C55.7146 47.5088 56.9341 47.193 57.8052 46.5263V44.0351C56.8296 44.5614 55.854 44.8421 54.8435 44.8421C53.5195 44.8421 52.4394 44.3509 52.1606 43.4035H58.3279V42.5965C58.3279 41.1579 57.9097 40 57.0735 39.0877C56.2721 38.1754 55.192 37.7193 53.9028 37.7193C52.4394 37.7193 51.2547 38.2105 50.3836 39.1228C49.5125 40.0702 49.0596 41.2281 49.0596 42.5965C49.0596 44.0702 49.5474 45.2632 50.5578 46.1754C51.4986 47.0526 52.7181 47.5088 54.1467 47.5088ZM52.1606 41.6842C52.3 40.7018 52.8923 40.1053 53.7634 40.1053C54.53 40.1053 55.192 40.7368 55.2268 41.6842H52.1606Z" fill="#000"/><path d="M63.5886 47.5088C64.8778 47.5088 65.9231 47.2281 66.6548 46.7018C67.4214 46.1404 67.8047 45.4386 67.8047 44.5263C67.8047 42.9123 66.9336 42.0702 64.9824 41.579C64.6688 41.5088 64.0416 41.3684 63.7977 41.2983L63.3796 41.1579C63.1008 41.0526 62.9615 40.9123 62.9615 40.7368C62.9615 40.4211 63.3099 40.2456 64.0068 40.2456C65.1914 40.2456 66.3064 40.5614 67.3517 41.2632V38.6316C66.3761 38.0351 65.2263 37.7544 63.8674 37.7544C61.2542 37.7544 59.6514 38.8772 59.6514 40.7018C59.6514 41.5439 59.8604 42.1754 60.2785 42.5614C60.6967 42.9474 61.4632 43.2983 62.5085 43.614C62.8569 43.7193 63.5538 43.8947 63.7977 43.9649L64.2158 44.1053C64.5294 44.2456 64.5991 44.3509 64.5991 44.5263C64.5991 44.8421 64.2158 44.9825 63.4841 44.9825C62.7524 44.9825 62.0207 44.8772 61.3238 44.7018C60.627 44.4912 60.1043 44.2456 59.7211 44V46.7368C60.5573 47.2281 61.8813 47.5088 63.5886 47.5088Z" fill="#000"/><path d="M72.1955 47.5088C73.415 47.5088 74.3907 47.1579 75.1224 46.4211C75.5405 47.1228 76.307 47.4737 77.3523 47.4737C78.0492 47.4737 78.5718 47.2982 78.99 46.9825V44.6667C78.8506 44.7368 78.6764 44.7719 78.4673 44.7719C78.1189 44.7719 77.9098 44.5965 77.9098 44.2807V41.4737C77.9098 40.3158 77.4917 39.4386 76.6555 38.7368C75.8192 38.0702 74.7391 37.7193 73.3802 37.7193C72.0562 37.7193 70.8715 37.9298 69.9307 38.386V40.9123C70.7321 40.4561 71.638 40.2456 72.6137 40.2456C73.1711 40.2456 73.5544 40.3158 74.0074 40.4561C74.4952 40.6316 74.7739 41.0526 74.7739 41.7193V41.8597C74.1468 41.5439 73.3454 41.3684 72.4394 41.3684C70.767 41.2982 68.8854 42.2807 68.8506 44.3509C68.8506 45.2632 69.1642 46 69.7914 46.5965C70.3837 47.2281 71.2199 47.5088 72.1955 47.5088ZM73.2757 45.3333C72.544 45.3333 71.9865 44.9474 71.9865 44.2807C71.9865 43.614 72.6137 43.1579 73.415 43.1579C73.9377 43.1579 74.3907 43.2982 74.7391 43.5439V44.5263C74.4255 45.0526 73.9377 45.3333 73.2757 45.3333Z" fill="#000"/><path d="M84.2857 47.5087C85.4703 47.5087 86.4111 47.0877 87.0383 46.2456V47.2982H90.2439V34.4561H87.0383V39.0175C86.3763 38.1754 85.4703 37.7544 84.2857 37.7544C83.0662 37.7544 82.0906 38.2456 81.2892 39.1579C80.4878 40.1052 80.1045 41.228 80.1045 42.6316C80.1045 44.0351 80.4878 45.193 81.2892 46.1403C82.0906 47.0526 83.0662 47.5087 84.2857 47.5087ZM85.1916 44.7719C84.0418 44.7719 83.2404 43.8596 83.2404 42.6316C83.2404 41.4035 84.0418 40.4912 85.1916 40.4912C85.993 40.4912 86.6202 40.807 87.0383 41.4737V43.7895C86.6202 44.421 86.0278 44.7719 85.1916 44.7719Z" fill="#000"/><path d="M95.7493 47.2631V37.9649H92.5437V47.2631H95.7493ZM94.1465 37.1228C95.1918 37.1228 95.9932 36.3158 95.9932 35.2632C95.9932 34.2105 95.1918 33.4035 94.1465 33.4035C93.136 33.4035 92.2998 34.2105 92.2998 35.2632C92.2998 36.3158 93.136 37.1228 94.1465 37.1228Z" fill="#000"/><path d="M101.289 47.2631V43.4386L104.39 47.2631H108.397L104.146 42.1403L107.804 37.9649H104.006L101.289 41.2631V34.4561H98.083V47.2631H101.289Z" fill="#000"/><path d="M112.3 46.9474C112.683 46.5614 112.857 46.1053 112.857 45.5789C112.857 45.0526 112.683 44.5965 112.3 44.2105C111.952 43.8245 111.499 43.6491 110.976 43.6491C110.453 43.6491 110 43.8245 109.617 44.2105C109.269 44.5614 109.06 45.0175 109.06 45.5789C109.06 46.1053 109.234 46.5614 109.617 46.9474C110 47.3333 110.453 47.5088 110.976 47.5088C111.464 47.5088 111.917 47.3333 112.3 46.9474Z" fill="#43AC32"/><path d="M119.059 47.5088C120.104 47.5088 121.045 47.2983 121.951 46.8772V44.1755C121.254 44.5263 120.487 44.7369 119.581 44.7369C118.223 44.7369 117.142 43.9298 117.142 42.6316C117.142 41.3333 118.223 40.5614 119.581 40.5614C120.313 40.5614 121.045 40.7369 121.777 41.0526V38.3509C120.975 37.9649 120.069 37.7895 119.059 37.7895C117.7 37.7895 116.515 38.2456 115.505 39.0877C114.494 39.9298 113.972 41.1228 113.972 42.6667C113.972 44.1755 114.494 45.3684 115.47 46.2456C116.515 47.0526 117.7 47.5088 119.059 47.5088Z" fill="#43AC32"/><path d="M130.348 42.6316C130.348 43.8596 129.512 44.7368 128.327 44.7368C127.142 44.7368 126.306 43.8246 126.306 42.6316C126.306 41.4386 127.142 40.5263 128.327 40.5263C129.512 40.4912 130.348 41.4386 130.348 42.6316ZM132.02 46.1053C132.996 45.1579 133.484 44 133.484 42.5965C133.484 41.193 132.996 40.0702 132.02 39.1228C131.045 38.1754 129.825 37.7193 128.292 37.7193C126.794 37.7193 125.54 38.2105 124.564 39.1228C123.588 40.0702 123.101 41.193 123.101 42.5965C123.101 44 123.588 45.1579 124.564 46.1053C125.54 47.0526 126.759 47.5088 128.292 47.5088C129.825 47.5088 131.045 47.0526 132.02 46.1053Z" fill="#43AC32"/><path d="M138.328 47.2632V41.4737C138.676 40.9123 139.164 40.6316 139.791 40.6316C140.558 40.6316 140.941 41.1228 140.941 42.1404V47.2983H144.146V41.5088C144.46 40.9474 144.948 40.6667 145.61 40.6667C146.376 40.6667 146.76 41.1579 146.76 42.1755V47.3334H149.965V41.5439C149.965 39.1228 148.641 37.8246 146.69 37.8246C145.471 37.8246 144.286 38.4912 143.693 39.3684C143.275 38.5965 142.335 37.8246 141.15 37.8246C139.93 37.8246 138.99 38.2807 138.328 39.1579V38.0702H135.122V47.3684H138.328V47.2632Z" fill="#43AC32"/><path d="M8.5365 28H17.2125V24.772H6.65497C5.67936 24.772 4.77344 25.579 4.77344 26.7369C4.77344 31.0176 4.77344 35.2632 4.77344 39.5439C4.77344 41.0176 6.41107 41.9299 7.63058 41.0878L7.66542 41.0527C8.18807 40.7018 8.50166 40.1404 8.50166 39.5088C8.5365 35.6842 8.5365 31.8597 8.5365 28Z" fill="#43AC32"/></g><defs><clipPath id="clip0"><path fill="#fff" d="M0 0H150V60H0z"/></clipPath></defs></svg>