<svg width="17" height="9" viewBox="0 0 17 9" fill="none" xmlns="http://www.w3.org/2000/svg"><path d="M11.9531 2.13281L13.5 3.65625H0.5625C0.234375 3.65625 0 3.91406 0 4.21875V4.78125C0 5.10938 0.234375 5.34375 0.5625 5.34375H13.5L11.9531 6.89062C11.7422 7.10156 11.7422 7.47656 11.9531 7.6875L12.3516 8.08594C12.5625 8.29688 12.9375 8.29688 13.1484 8.08594L16.3125 4.89844C16.5469 4.6875 16.5469 4.33594 16.3125 4.125L13.1484 0.9375C12.9375 0.726562 12.5625 0.726562 12.3516 0.9375L11.9531 1.33594C11.7422 1.54688 11.7422 1.92188 11.9531 2.13281Z" fill="#2AAC17"/></svg>