<svg width="12" height="9" viewBox="0 0 12 9" fill="none" xmlns="http://www.w3.org/2000/svg"><path d="M0.234375 2.97656C0.796875 3.42188 2.01562 4.3125 3.84375 5.625L4.07812 5.8125C4.45312 6.09375 4.73438 6.30469 4.96875 6.42188C5.34375 6.65625 5.69531 6.75 6 6.75C6.32812 6.75 6.65625 6.65625 7.03125 6.44531C7.26562 6.32812 7.54688 6.11719 7.92188 5.83594L8.15625 5.625C10.0547 4.26562 11.25 3.375 11.7656 2.97656C11.8125 2.95312 11.8828 2.95312 11.9297 2.97656C11.9766 3 12 3.04688 12 3.09375V7.875C12 8.20312 11.9062 8.46094 11.6719 8.67188C11.4609 8.90625 11.2031 9 10.875 9H1.125C0.820312 9 0.5625 8.90625 0.328125 8.67188C0.117188 8.46094 0 8.20312 0 7.875V3.09375C0 3.04688 0.046875 3 0.09375 2.95312C0.140625 2.92969 0.1875 2.92969 0.234375 2.97656ZM6 6C6.21094 6 6.46875 5.90625 6.75 5.71875C6.9375 5.625 7.17188 5.46094 7.47656 5.20312L7.71094 5.03906C9.63281 3.63281 10.9453 2.67188 11.625 2.13281L11.7891 2.01562C11.9297 1.92188 12 1.75781 12 1.57031V1.125C12 0.820312 11.9062 0.5625 11.6719 0.328125C11.4609 0.117188 11.2031 0 10.875 0H1.125C0.820312 0 0.5625 0.117188 0.328125 0.328125C0.117188 0.5625 0 0.820312 0 1.125V1.57031C0 1.75781 0.0703125 1.92188 0.210938 2.01562L0.328125 2.10938C1.00781 2.64844 2.32031 3.63281 4.28906 5.03906L4.52344 5.20312C4.85156 5.46094 5.08594 5.625 5.25 5.71875C5.55469 5.90625 5.8125 6 6 6Z"/></svg>