<svg width="29" height="40" viewBox="0 0 29 40" fill="none" xmlns="http://www.w3.org/2000/svg"><path clip-rule="evenodd" d="M19.3333 15.8824V21.1765C19.3333 25.0765 16.089 28.2353 12.0833 28.2353C8.07771 28.2353 4.83333 25.0706 4.83333 21.1765V7.05882C4.83333 3.15882 8.07771 0 12.0833 0C14.9592 0 17.5088 1.64118 18.6748 4.11765H25.381C27.3808 4.11765 29 5.7 29 7.64706V12.3529C29 14.3 27.3748 15.8824 25.375 15.8824H19.3333ZM14.5 14.8412V14.8882L16.3367 13.7235C16.536 13.6 16.7596 13.5353 16.9952 13.5353H25.375C26.0396 13.5353 26.5833 13.0059 26.5833 12.3588V7.64706C26.5833 7 26.0456 6.47059 25.381 6.47059H15.7023C15.0377 6.47059 14.5 6.99412 14.5 7.64706V12.3529C14.5 13.6176 14.5 14.2059 14.5 14.8412ZM16.9167 16.1588L13.9502 18.0412C13.1467 18.5529 12.0833 17.9941 12.0833 17.0588V7.64706C12.0833 5.7 13.7025 4.11765 15.7023 4.11765H15.8594C14.9652 3.02941 13.5877 2.35294 12.0833 2.35294C9.41292 2.35294 7.25 4.45882 7.25 7.05882V21.1765C7.25 23.7706 9.41292 25.8824 12.0833 25.8824C14.7538 25.8824 16.9167 23.7765 16.9167 21.1765V16.1588ZM10.875 37.6471V32.9412C4.86958 32.9412 0 28.2 0 22.3588C0 21.7118 0.54375 21.1824 1.20833 21.1824C1.87292 21.1824 2.41667 21.7118 2.41667 22.3588C2.41667 26.9 6.20479 30.5882 10.875 30.5882H13.2917C17.9679 30.5882 21.75 26.9059 21.75 22.3588C21.75 21.7118 22.2938 21.1824 22.9583 21.1824C23.6229 21.1824 24.1667 21.7118 24.1667 22.3588C24.1667 28.2059 19.3031 32.9412 13.2917 32.9412V37.6471H18.125C18.7896 37.6471 19.3333 38.1765 19.3333 38.8235C19.3333 39.4706 18.7896 40 18.125 40H6.04167C5.37708 40 4.83333 39.4706 4.83333 38.8235C4.83333 38.1765 5.37708 37.6471 6.04167 37.6471H10.875ZM22.9583 11.1765C22.2938 11.1765 21.75 10.6471 21.75 10C21.75 9.35294 22.2938 8.82353 22.9583 8.82353C23.6229 8.82353 24.1667 9.35294 24.1667 10C24.1667 10.6471 23.6229 11.1765 22.9583 11.1765ZM18.125 11.1765C17.4604 11.1765 16.9167 10.6471 16.9167 10C16.9167 9.35294 17.4604 8.82353 18.125 8.82353C18.7896 8.82353 19.3333 9.35294 19.3333 10C19.3333 10.6471 18.7896 11.1765 18.125 11.1765Z"/></svg>