<svg width="51" height="50" viewBox="0 0 51 50" fill="none" xmlns="http://www.w3.org/2000/svg"><path d="M17.8266 34.1533L18.4033 33.5768C18.2868 37.7959 19.8898 41.8813 22.9622 44.9525C25.9932 47.9825 29.9792 49.5001 33.963 49.5001C37.9471 49.5001 41.9267 47.9823 44.9634 44.9529L44.9638 44.9525C51.0315 38.8871 51.0318 29.0243 44.9638 22.9646C41.8965 19.8984 37.8003 18.2969 33.5783 18.4135L34.1545 17.8375C35.8609 16.1317 35.8621 13.3566 34.1545 11.6556C32.4482 9.94999 29.6722 9.94879 27.9708 11.6558C27.9706 11.656 27.9704 11.6562 27.9702 11.6563L24.8213 14.8041L23.8895 13.8727C24.3964 10.2299 23.1764 6.55197 20.5619 3.93846C15.9818 -0.63997 8.52706 -0.63997 3.94691 3.93846C-0.633206 8.51686 -0.633345 15.9688 3.94649 20.5473C6.54977 23.1616 10.2291 24.3807 13.8728 23.8741L14.8044 24.8053L11.637 27.9714C9.93054 29.6772 9.92939 32.4526 11.6373 34.1535C12.4908 35.0066 13.6093 35.4329 14.7318 35.4329C15.848 35.4329 16.9728 35.0067 17.8266 34.1533ZM43.3992 43.3936L43.399 43.3938C40.8776 45.9143 37.5257 47.3009 33.957 47.3009C30.3883 47.3009 27.0364 45.9143 24.5149 43.3938C21.252 40.1321 19.9276 35.5428 20.9278 31.0533L31.0592 20.9256C35.5443 19.932 40.1415 21.2669 43.399 24.5173C48.6085 29.7247 48.6082 38.1924 43.3992 43.3936ZM32.5897 16.2788L32.5897 16.2788L16.2678 32.6006C16.2678 32.6006 16.2678 32.6006 16.2678 32.6006C15.4193 33.4487 14.0382 33.4487 13.1897 32.6006C12.3414 31.7525 12.3414 30.3722 13.1897 29.5242L29.5177 13.2024C29.941 12.7792 30.4956 12.5692 31.0537 12.5692C31.6118 12.5692 32.1664 12.7792 32.5897 13.2024C33.4381 14.0504 33.4381 15.4307 32.5897 16.2788ZM21.6308 14.0383L21.63 14.0425C21.5659 14.395 21.6715 14.7627 21.9396 15.0224L23.2681 16.3504L16.3575 23.253L15.0253 21.9212C14.7744 21.6704 14.4051 21.5482 14.0458 21.6155L14.0446 21.6157C10.9251 22.2086 7.72774 21.228 5.49412 18.9895L5.49367 18.9891C1.772 15.2688 1.772 9.21145 5.49367 5.49118C9.21521 1.77104 15.2751 1.77056 19.0031 5.49118C21.2431 7.73033 22.2237 10.9266 21.6308 14.0383Z" stroke="#2AAC17"/><path d="M8.37465 17.1208L8.37477 17.1209L8.38383 17.1119C8.81313 16.6827 8.81313 15.9883 8.38383 15.5592L8.03035 15.9128L8.38383 15.5592C6.60568 13.7817 6.60568 10.8964 8.38383 9.11887C8.81313 8.68974 8.81313 7.99529 8.38383 7.56616C7.95474 7.13723 7.26058 7.13713 6.83137 7.56586C4.19419 10.1957 4.19423 14.4825 6.83151 17.1123C7.04267 17.3231 7.32709 17.4321 7.60445 17.4321C7.8928 17.4321 8.16489 17.32 8.37465 17.1208Z" stroke="#2AAC17"/></svg>