<svg width="6" height="12" viewBox="0 0 6 12" fill="none" xmlns="http://www.w3.org/2000/svg"><path d="M0.242485 6.06641C0.184344 5.96094 0.155273 5.85547 0.155273 5.75C0.155273 5.60937 0.184344 5.53906 0.242485 5.46875L4.51586 0.230469C4.60307 0.160156 4.69029 0.125 4.7775 0.125C4.86471 0.125 4.95192 0.160156 5.01006 0.265625L5.59147 0.933594C5.64961 1.00391 5.67868 1.10938 5.67868 1.25C5.67868 1.35547 5.64961 1.46094 5.59147 1.53125L2.13207 5.75L5.59147 9.96875C5.64961 10.0391 5.67868 10.1094 5.67868 10.25C5.67868 10.3555 5.64961 10.4609 5.59147 10.5664L5.01006 11.2695C4.95192 11.3398 4.86471 11.375 4.7775 11.375C4.69028 11.375 4.60307 11.3398 4.51586 11.2695L0.242485 6.06641Z"/></svg>