<svg width="6" height="12" viewBox="0 0 6 12" fill="none" xmlns="http://www.w3.org/2000/svg"><path d="M5.56709 5.43359C5.62523 5.53906 5.6543 5.64453 5.6543 5.75C5.6543 5.89063 5.62523 5.96094 5.56709 6.03125L1.29371 11.2695C1.2065 11.3398 1.11929 11.375 1.03207 11.375C0.944861 11.375 0.85765 11.3398 0.799509 11.2344L0.218098 10.5664C0.159956 10.4961 0.130886 10.3906 0.130886 10.25C0.130886 10.1445 0.159956 10.0391 0.218098 9.96875L3.6775 5.75L0.218098 1.53125C0.159957 1.46094 0.130886 1.39062 0.130886 1.25C0.130886 1.14453 0.159957 1.03906 0.218098 0.933594L0.79951 0.230469C0.857651 0.160156 0.944863 0.125 1.03208 0.125C1.11929 0.125 1.2065 0.160157 1.29371 0.23047L5.56709 5.43359Z"/></svg>