<svg width="23" height="17" viewBox="0 0 23 17" fill="none" xmlns="http://www.w3.org/2000/svg"><path d="M19.125 7.125C18.3516 7.125 17.6836 6.87891 17.1211 6.31641C16.5586 5.75391 16.3125 5.08594 16.3125 4.3125C16.3125 3.53906 16.5586 2.90625 17.1211 2.34375C17.6836 1.78125 18.3516 1.5 19.125 1.5C19.8984 1.5 20.5312 1.78125 21.0938 2.34375C21.6562 2.90625 21.9375 3.53906 21.9375 4.3125C21.9375 5.08594 21.6562 5.75391 21.0938 6.31641C20.5312 6.87891 19.8984 7.125 19.125 7.125ZM19.125 3.1875C18.8086 3.1875 18.5273 3.32812 18.3164 3.53906C18.1055 3.75 18 4.03125 18 4.3125C18 4.62891 18.1055 4.91016 18.3164 5.12109C18.5273 5.33203 18.8086 5.4375 19.125 5.4375C19.4062 5.4375 19.6875 5.33203 19.8984 5.12109C20.1094 4.91016 20.25 4.62891 20.25 4.3125C20.25 4.03125 20.1094 3.75 19.8984 3.53906C19.6875 3.32812 19.4062 3.1875 19.125 3.1875ZM3.375 7.125C2.60156 7.125 1.93359 6.87891 1.37109 6.31641C0.808594 5.75391 0.5625 5.08594 0.5625 4.3125C0.5625 3.53906 0.808594 2.90625 1.37109 2.34375C1.93359 1.78125 2.60156 1.5 3.375 1.5C4.14844 1.5 4.78125 1.78125 5.34375 2.34375C5.90625 2.90625 6.1875 3.53906 6.1875 4.3125C6.1875 5.08594 5.90625 5.75391 5.34375 6.31641C4.78125 6.87891 4.14844 7.125 3.375 7.125ZM3.375 3.1875C3.05859 3.1875 2.77734 3.32812 2.56641 3.53906C2.35547 3.75 2.25 4.03125 2.25 4.3125C2.25 4.62891 2.35547 4.91016 2.56641 5.12109C2.77734 5.33203 3.05859 5.4375 3.375 5.4375C3.65625 5.4375 3.9375 5.33203 4.14844 5.12109C4.35938 4.91016 4.5 4.62891 4.5 4.3125C4.5 4.03125 4.35938 3.75 4.14844 3.53906C3.9375 3.32812 3.65625 3.1875 3.375 3.1875ZM17.2969 10.6055C17.7539 11.3086 18 12.0469 18 12.8555V14.4375C18 14.9297 17.8242 15.3164 17.5078 15.6328C17.1562 15.9844 16.7695 16.125 16.3125 16.125H6.1875C5.69531 16.125 5.30859 15.9844 4.99219 15.6328C4.64062 15.3164 4.5 14.9297 4.5 14.4375V12.8555C4.5 12.0469 4.71094 11.3086 5.20312 10.6055C5.66016 9.90234 6.29297 9.44531 7.13672 9.16406C7.98047 8.88281 8.82422 8.88281 9.66797 9.12891C10.1602 9.30469 10.6875 9.375 11.2148 9.375C11.7422 9.375 12.2695 9.30469 12.832 9.12891C13.6758 8.88281 14.4844 8.88281 15.3281 9.16406C16.1719 9.44531 16.8047 9.90234 17.2969 10.6055ZM16.3125 14.4375V12.8555C16.3125 12.2227 16.0664 11.6953 15.6445 11.2383C15.1875 10.7812 14.6602 10.5352 14.0273 10.5C13.1133 10.8867 12.1641 11.0625 11.25 11.0625C10.3008 11.0625 9.38672 10.8867 8.47266 10.5C7.83984 10.5352 7.27734 10.7812 6.85547 11.2383C6.39844 11.6953 6.1875 12.2227 6.1875 12.8555V14.4375H16.3125ZM19.5469 8.25C20.3555 8.25 21.0586 8.56641 21.6211 9.12891C22.1836 9.69141 22.5 10.3945 22.5 11.2031C22.5 11.4492 22.3945 11.6602 22.2539 11.8008C22.0781 11.9766 21.8672 12.0469 21.6562 12.0469C21.4102 12.0469 21.1992 11.9766 21.0586 11.8008C20.8828 11.6602 20.8125 11.4492 20.8125 11.2031C20.8125 10.8516 20.6719 10.5703 20.4258 10.3242C20.1797 10.0781 19.8984 9.9375 19.5469 9.9375H18.7031C18.5625 9.9375 18.4219 9.97266 18.2812 10.0078C17.9297 9.55078 17.543 9.12891 17.0508 8.74219C17.543 8.42578 18.0703 8.25 18.7031 8.25H19.5469ZM11.25 8.25C10.5469 8.25 9.87891 8.07422 9.28125 7.72266C8.64844 7.37109 8.19141 6.91406 7.83984 6.28125C7.48828 5.68359 7.3125 5.01562 7.3125 4.3125C7.3125 3.60938 7.48828 2.97656 7.83984 2.34375C8.19141 1.74609 8.64844 1.25391 9.28125 0.902344C9.87891 0.550781 10.5469 0.375 11.25 0.375C11.9531 0.375 12.5859 0.550781 13.2188 0.902344C13.8164 1.25391 14.3086 1.74609 14.6602 2.34375C15.0117 2.97656 15.1875 3.60938 15.1875 4.3125C15.1875 5.01562 15.0117 5.68359 14.6602 6.28125C14.3086 6.91406 13.8164 7.37109 13.2188 7.72266C12.5859 8.07422 11.9531 8.25 11.25 8.25ZM11.25 2.0625C10.6172 2.0625 10.0898 2.30859 9.66797 2.73047C9.21094 3.1875 9 3.71484 9 4.3125C9 4.94531 9.21094 5.47266 9.66797 5.89453C10.0898 6.35156 10.6172 6.5625 11.25 6.5625C11.8477 6.5625 12.375 6.35156 12.832 5.89453C13.2539 5.47266 13.5 4.94531 13.5 4.3125C13.5 3.71484 13.2539 3.1875 12.832 2.73047C12.375 2.30859 11.8477 2.0625 11.25 2.0625ZM5.44922 8.74219C4.95703 9.12891 4.53516 9.55078 4.21875 10.043C4.07812 9.97266 3.9375 9.9375 3.79688 9.9375H2.95312C2.60156 9.9375 2.28516 10.0781 2.03906 10.3242C1.79297 10.5703 1.6875 10.8516 1.6875 11.2031C1.6875 11.4492 1.58203 11.6602 1.44141 11.8008C1.26562 11.9766 1.05469 12.0469 0.84375 12.0469C0.597656 12.0469 0.386719 11.9766 0.246094 11.8008C0.0703125 11.6602 0 11.4492 0 11.2031C0 10.3945 0.28125 9.69141 0.84375 9.12891C1.40625 8.56641 2.10938 8.25 2.95312 8.25H3.79688C4.39453 8.25 4.95703 8.42578 5.44922 8.74219Z" fill="#fff"/></svg>