<svg width="12" height="13" viewBox="0 0 12 13" fill="none" xmlns="http://www.w3.org/2000/svg"><path d="M0.445312 1.08595C0.304688 1.10938 0.210938 1.1797 0.117188 1.27345C0.046875 1.39063 0 1.50782 0 1.62501C0 3.59376 0.492188 5.42188 1.47656 7.10938C2.46094 8.75001 3.75 10.0625 5.39062 11.0234C7.07812 12.0078 8.90625 12.5 10.875 12.5C11.0156 12.5 11.1328 12.4766 11.2266 12.3828C11.3438 12.3125 11.4141 12.1953 11.4141 12.0547L11.9766 9.6172C12.0234 9.50001 12 9.38282 11.9297 9.2422C11.8828 9.12501 11.7891 9.03126 11.6484 8.98438L9.02344 7.85938C8.92969 7.81251 8.8125 7.81251 8.67188 7.83595C8.55469 7.85938 8.46094 7.9297 8.36719 8.02345L7.21875 9.4297C6.30469 9.00782 5.48438 8.44532 4.78125 7.71876C4.07812 7.01563 3.49219 6.19532 3.07031 5.28126L4.47656 4.10938C4.57031 4.03907 4.64062 3.94532 4.66406 3.82813C4.71094 3.71095 4.6875 3.59376 4.64062 3.45313L3.51562 0.828134C3.46875 0.734384 3.39844 0.640634 3.25781 0.570321C3.14062 0.523446 3.02344 0.500009 2.88281 0.523446L0.445312 1.08595Z"/></svg>