<svg width="24" height="30" viewBox="0 0 24 30" fill="none" xmlns="http://www.w3.org/2000/svg"><path d="M22.0833 13.0788C22.6042 13.4209 22.9688 13.9341 23.1771 14.5043C23.3854 15.1316 23.3854 15.7588 23.1771 16.329C22.9688 16.9563 22.6042 17.4124 22.0833 17.7546L3.75 29.6151C3.22917 29.9572 2.65625 30.0713 2.08333 29.9572C1.45833 29.8432 0.989583 29.5581 0.572917 29.0449C0.15625 28.5887 0 27.9615 0 27.2772V3.55612C0 2.81484 0.208333 2.1876 0.625 1.73142C1.04167 1.27525 1.51042 0.990138 2.13542 0.876095C2.70833 0.762051 3.22917 0.876095 3.75 1.21823L22.0833 13.0788Z"/></svg>