<svg width="20" height="20" viewBox="0 0 20 20" fill="none" xmlns="http://www.w3.org/2000/svg"><path d="M9.42525 0.192139L1.96514 0.374729C1.07827 0.400813 0.400081 1.10509 0.373996 1.96587L0.191406 9.42598C0.191406 9.86941 0.347912 10.3128 0.660923 10.6259L8.77314 18.7381C9.45133 19.4163 10.3643 19.8075 11.3294 19.8075C12.2945 19.8075 13.2075 19.4423 13.8857 18.7381L18.7373 13.9125C19.4155 13.2343 19.8068 12.3213 19.8068 11.3562C19.8068 10.3911 19.4416 9.47815 18.7373 8.79995L10.6251 0.661656C10.3121 0.348644 9.86868 0.192139 9.42525 0.192139ZM18.2417 11.3562C18.2417 11.904 18.0331 12.4257 17.6418 12.8169L12.8162 17.6425C12.4249 18.0338 11.9033 18.2425 11.3555 18.2425C10.8077 18.2425 10.286 18.0338 9.89476 17.6425L1.78255 9.53031C1.75646 9.50423 1.75646 9.50423 1.75646 9.47815L1.93905 2.01804C1.93905 1.99195 1.96514 1.93979 2.01731 1.93979L9.47741 1.7572C9.5035 1.7572 9.5035 1.7572 9.52958 1.78328L17.6418 9.89549C18.0331 10.2868 18.2417 10.8084 18.2417 11.3562Z" fill="#fff"/><path d="M4.88809 4.88713C3.76647 6.00875 3.76647 7.83465 4.88809 8.95628C5.43586 9.50405 6.19231 9.79098 6.92267 9.79098C7.65303 9.79098 8.38339 9.50405 8.95724 8.95628C10.0789 7.83465 10.0789 6.00875 8.95724 4.88713C7.83562 3.76551 6.00972 3.79159 4.88809 4.88713ZM7.8617 7.86074C7.3661 8.35634 6.5314 8.35634 6.00972 7.86074C5.51412 7.36514 5.51412 6.53044 6.00972 6.00875C6.27056 5.74791 6.60966 5.61749 6.92267 5.61749C7.26176 5.61749 7.60086 5.74791 7.83562 6.00875C8.3573 6.50436 8.3573 7.33905 7.8617 7.86074Z" fill="#fff"/></svg>