<svg width="16" height="16" viewBox="0 0 16 16" fill="none" xmlns="http://www.w3.org/2000/svg"><circle cx="8" cy="8" r="8" fill="#2AAC17"/><path d="M7.73813 11.08C8.12813 11.08 8.43813 10.77 8.43813 10.37C8.43813 9.98 8.12813 9.67 7.73813 9.67C7.33813 9.67 7.03813 9.98 7.03813 10.37C7.03813 10.77 7.33813 11.08 7.73813 11.08ZM8.22813 8.75V7.83C8.72813 7.67 9.15813 7.42 9.50813 7.08C9.86813 6.73 10.0481 6.32 10.0481 5.83C10.0481 5.24 9.82813 4.77 9.38813 4.42C8.94813 4.07 8.41813 3.9 7.78813 3.9C7.03813 3.9 6.38813 4.1 5.85813 4.49V5.44C6.43813 5.06 7.01813 4.87 7.60813 4.87C8.40813 4.87 8.93813 5.25 8.93813 5.9C8.93813 6.24 8.75813 6.54 8.40813 6.79C8.05813 7.04 7.65813 7.21 7.18813 7.3V8.75H8.22813Z" fill="#fff"/></svg>