<svg width="15" height="12" viewBox="0 0 15 12" fill="none" xmlns="http://www.w3.org/2000/svg"><path d="M4.74089 4.49828L6.68225 0.520854C6.79273 0.284102 6.61912 0 6.36658 0H5.04077C4.93029 0 4.8198 0.0473503 4.75667 0.142051L0.589842 5.76096C0.147906 6.40808 -0.0730621 7.21303 0.0216386 8.06534C0.195256 9.73838 1.59998 11.0642 3.28881 11.1431C5.27752 11.2378 6.919 9.65947 6.919 7.68654C6.90322 6.25024 6.00356 5.00335 4.74089 4.49828Z" fill="#4B4F49"/><path d="M12.821 4.49828L14.7623 0.520854C14.8728 0.284102 14.6992 0 14.4467 0H13.1209C13.0104 0 12.8999 0.0473503 12.8367 0.142051L8.66992 5.76096C8.22798 6.40808 8.00702 7.21303 8.10172 8.06534C8.27533 9.73838 9.68006 11.0642 11.3689 11.1431C13.3576 11.2378 14.9991 9.65947 14.9991 7.68654C14.9833 6.25024 14.0836 5.00335 12.821 4.49828Z" fill="#4B4F49"/></svg>