<svg width="40" height="40" viewBox="0 0 40 40" fill="none" xmlns="http://www.w3.org/2000/svg"><path d="M0.92963 36.8929C0.418111 36.8929 0 37.3102 0 37.8207C0 38.3312 0.418111 38.7485 0.92963 38.7485H4.40351C4.47913 39.1835 4.85721 39.5164 5.3198 39.5164H11.0933C11.6093 39.5164 12.0229 39.0991 12.0229 38.5886V25.2361H13.4018C13.5041 25.2361 13.602 25.2183 13.6954 25.1873C13.851 25.134 15.2655 24.6057 15.9416 22.3596C16.809 19.4698 19.4555 18.0848 19.4778 18.0715C19.5044 18.0582 19.5356 18.0404 19.5623 18.0227C19.7535 17.8984 20.7099 17.1881 20.8166 15.1817C20.8922 13.7701 20.8477 11.191 20.8388 10.7249C20.9945 10.6717 21.4171 10.574 22.3067 10.6495C24.4328 10.8359 24.4773 12.9888 24.4729 13.264L24.5574 18.2624C24.5574 18.3734 24.5663 19.3766 25.3491 20.1667C25.9229 20.7482 26.7235 21.0412 27.7421 21.0412L33.7603 21.0013C34.5565 21.0013 35.2103 21.6494 35.2103 22.4484C35.2103 23.2474 34.5609 23.8955 33.7603 23.8955H32.9374C32.8885 23.8955 32.8573 23.8999 32.8351 23.9044C32.3725 23.9576 32.0078 24.3438 32.0078 24.8233C32.0078 25.3071 32.3814 25.7022 32.8529 25.7421C32.8751 25.7466 32.9018 25.751 32.9374 25.751H33.7603C34.5565 25.751 35.2103 26.3991 35.2103 27.1937C35.2103 27.9927 34.5609 28.6408 33.7603 28.6408H33.1687H32.9374H32.3458C31.8298 28.6408 31.4162 29.0581 31.4162 29.5686C31.4162 30.0791 31.8343 30.4963 32.3458 30.4963H32.9374H33.1687C33.9649 30.4963 34.6187 31.1444 34.6187 31.9434C34.6187 32.738 33.9693 33.3906 33.1687 33.3906H32.5771H32.3458H31.7542C31.2383 33.3906 30.8246 33.8078 30.8246 34.3183C30.8246 34.8288 31.2427 35.2461 31.7542 35.2461H32.3458H32.5771C33.3733 35.2461 34.0271 35.8942 34.0271 36.6932C34.0271 37.4922 33.3777 38.1403 32.5771 38.1403H18.6682C18.4636 38.1226 17.0536 37.9361 16.3019 36.6088C15.8438 35.8009 14.923 35.6234 14.2558 35.7965C13.7576 35.9252 13.4507 36.4402 13.5797 36.9329C13.7087 37.4301 14.2069 37.7275 14.7051 37.5987C14.7095 37.5987 14.714 37.5987 14.7229 37.5943C16.035 39.8227 18.4725 39.9869 18.5748 39.9958C18.5926 39.9958 18.6104 39.9958 18.6282 39.9958H32.5727C34.3963 39.9958 35.882 38.5132 35.882 36.6932C35.882 35.8986 35.5973 35.1662 35.1302 34.598C35.9442 33.9943 36.478 33.031 36.478 31.9434C36.478 31.1489 36.1933 30.4164 35.7263 29.8482C36.5403 29.2445 37.074 28.2812 37.074 27.1937C37.074 26.2615 36.6826 25.4225 36.0599 24.8188C36.6826 24.2195 37.074 23.3761 37.074 22.4439C37.074 20.6239 35.5884 19.1413 33.7558 19.1413L27.7377 19.1813C26.6168 19.1813 26.4344 18.6086 26.4211 18.2579L26.3366 13.264C26.3633 11.8391 25.5937 9.06917 22.4713 8.79839C20.91 8.66078 19.887 8.90937 19.3399 9.56191C19.0018 9.96142 18.9307 10.4231 18.9796 10.7649C18.9885 11.2221 19.033 13.7568 18.9573 15.084C18.9084 15.9985 18.6148 16.3802 18.5303 16.4735C17.9432 16.7975 15.1588 18.4843 14.1535 21.8314C13.8466 22.8568 13.3707 23.2607 13.1838 23.385H12.0185V22.5327C12.0185 22.0178 11.6004 21.605 11.0888 21.605H5.3198C4.80383 21.605 4.39017 22.0222 4.39017 22.5327V22.5682H0.92963C0.418111 22.5594 0 22.9766 0 23.4871C0 23.9976 0.418111 24.4149 0.92963 24.4149H4.38572V36.8885L0.92963 36.8929ZM6.25388 23.4516H10.1637V37.6565H6.25388V23.4871V23.4516Z"/><path d="M8.20697 36.8171C8.45161 36.8171 8.69181 36.715 8.86528 36.5419C9.03875 36.3688 9.14105 36.1291 9.14105 35.8849C9.14105 35.6408 9.03875 35.4011 8.86528 35.2279C8.52278 34.8817 7.89561 34.8817 7.54867 35.2279C7.3752 35.4011 7.27734 35.6408 7.27734 35.8849C7.27734 36.1291 7.3752 36.3688 7.54867 36.5419C7.72214 36.715 7.96233 36.8171 8.20697 36.8171Z"/><path d="M11.662 13.7565H16.2435C16.7594 13.7565 17.1731 13.3392 17.1731 12.8288C17.1731 12.3183 16.755 11.901 16.2435 11.901H11.662C11.324 11.901 11.0482 11.6258 11.0482 11.2884V2.47253C11.0482 2.13517 11.324 1.85995 11.662 1.85995H36.5263C36.8644 1.85995 37.1402 2.13517 37.1402 2.47253V11.2884C37.1402 11.6258 36.8644 11.901 36.5263 11.901H34.9784C34.7783 11.901 34.5826 11.9676 34.4224 12.0874L31.0597 14.5999V12.8288C31.0597 12.3138 30.6416 11.901 30.1301 11.901H28.5867C28.0707 11.901 27.657 12.3183 27.657 12.8288C27.657 13.3392 28.0751 13.7565 28.5867 13.7565H29.2005V16.451C29.2005 16.8017 29.4006 17.1257 29.7164 17.2811C29.8499 17.3477 29.9922 17.3788 30.1346 17.3788C30.3303 17.3788 30.5304 17.3166 30.6906 17.1923L35.2942 13.7521H36.5308C37.8963 13.7521 39.0039 12.6423 39.0039 11.2795V2.47253C39.0039 1.10975 37.8919 0 36.5308 0H11.6665C10.301 0 9.19341 1.10975 9.19341 2.47253V11.2884C9.18452 12.6468 10.2965 13.7565 11.662 13.7565Z"/><path d="M31.6777 6.48539H31.7978C32.3137 6.48539 32.7274 6.06813 32.7274 5.55764C32.7274 5.04715 32.3093 4.62988 31.7978 4.62988H31.6777C31.1617 4.62988 30.748 5.04715 30.748 5.55764C30.748 6.06813 31.1662 6.48539 31.6777 6.48539Z"/><path d="M16.7285 4.62549C16.2125 4.62549 15.7988 5.04276 15.7988 5.55324C15.7988 6.06373 16.2169 6.481 16.7285 6.481H16.8486C17.3645 6.481 17.7782 6.06373 17.7782 5.55324C17.7782 5.04276 17.3601 4.62549 16.8486 4.62549H16.7285Z"/><path d="M21.7109 4.62549C21.1949 4.62549 20.7812 5.04276 20.7812 5.55324C20.7812 6.06373 21.1994 6.481 21.7109 6.481H21.831C22.3469 6.481 22.7606 6.06373 22.7606 5.55324C22.7606 5.04276 22.3425 4.62549 21.831 4.62549H21.7109Z"/><path d="M26.8173 4.62549H26.6972C26.1812 4.62549 25.7676 5.04276 25.7676 5.55324C25.7676 6.06373 26.1857 6.481 26.6972 6.481H26.8173C27.3333 6.481 27.7469 6.06373 27.7469 5.55324C27.7469 5.04276 27.3333 4.62549 26.8173 4.62549Z"/></svg>