<svg width="14" height="17" viewBox="0 0 14 17" fill="none" xmlns="http://www.w3.org/2000/svg"><path d="M8.54297 10.2891H4.5V11.625H10.8281C10.9336 11.625 11.0391 11.6953 11.1094 11.7656C11.1797 11.8359 11.25 11.9414 11.25 12.0469V12.8906C11.25 13.0312 11.1797 13.1367 11.1094 13.207C11.0391 13.2773 10.9336 13.3125 10.8281 13.3125H4.5V15.7031C4.5 15.8438 4.42969 15.9492 4.35938 16.0195C4.28906 16.0898 4.18359 16.125 4.07812 16.125H2.67188C2.53125 16.125 2.42578 16.0898 2.35547 16.0195C2.28516 15.9492 2.25 15.8438 2.25 15.7031V13.3125H0.421875C0.28125 13.3125 0.175781 13.2773 0.105469 13.207C0.0351562 13.1367 0 13.0312 0 12.8906V12.0469C0 11.9414 0.0351562 11.8359 0.105469 11.7656C0.175781 11.6953 0.28125 11.625 0.421875 11.625H2.25V10.2891H0.421875C0.28125 10.2891 0.175781 10.2539 0.105469 10.1836C0.0351562 10.1133 0 10.0078 0 9.86719V8.8125C0 8.70703 0.0351562 8.60156 0.105469 8.53125C0.175781 8.46094 0.28125 8.39062 0.421875 8.39062H2.25V0.796875C2.25 0.691406 2.28516 0.585938 2.35547 0.515625C2.42578 0.445312 2.53125 0.375 2.67188 0.375H8.54297C9.98438 0.375 11.1797 0.832031 12.0938 1.74609C13.0078 2.66016 13.5 3.85547 13.5 5.33203C13.5 6.80859 13.0078 8.00391 12.0938 8.91797C11.1797 9.83203 9.98438 10.2891 8.54297 10.2891ZM4.5 2.30859V8.39062H8.19141C9.10547 8.39062 9.84375 8.14453 10.4062 7.58203C10.9688 7.01953 11.25 6.28125 11.25 5.33203C11.25 4.38281 10.9688 3.64453 10.4414 3.11719C9.87891 2.58984 9.14062 2.30859 8.22656 2.30859H4.5Z" fill="#fff"/></svg>