<svg width="17" height="17" viewBox="0 0 17 17" fill="none" xmlns="http://www.w3.org/2000/svg"><path d="M13.9486 15.7217C14.185 15.9581 14.4687 16.1 14.8233 16.1C15.1543 16.1 15.438 15.9818 15.6981 15.7217C15.9345 15.4853 16.0764 15.178 16.0764 14.847C16.0764 14.516 15.9581 14.2087 15.7217 13.9722L12.4119 10.6624C13.2157 9.50396 13.6176 8.22731 13.6176 6.80881C13.6176 5.88678 13.4285 5.01204 13.0739 4.16094C12.7192 3.30984 12.2228 2.60059 11.6317 1.9859C11.0407 1.37122 10.3078 0.898385 9.45668 0.543759C8.60558 0.189134 7.73084 0 6.80881 0C5.88678 0 5.01204 0.189134 4.16094 0.543759C3.30984 0.898385 2.60059 1.39486 1.9859 1.9859C1.37122 2.60059 0.898385 3.30984 0.543759 4.16094C0.189134 5.01204 0 5.88678 0 6.80881C0 7.73084 0.189134 8.60558 0.543759 9.45668C0.898385 10.3078 1.39486 11.017 1.9859 11.6317C2.60059 12.2464 3.30984 12.7192 4.16094 13.0739C5.01204 13.4285 5.88678 13.6176 6.80881 13.6176C8.22731 13.6176 9.50396 13.2157 10.6624 12.4119L13.9486 15.7217ZM6.78517 11.1589C5.60308 11.1589 4.58649 10.7333 3.73539 9.88223C2.88429 9.03113 2.45874 8.01454 2.45874 6.83245C2.45874 5.65037 2.88429 4.63377 3.73539 3.78267C4.58649 2.93157 5.60308 2.50602 6.78517 2.50602C7.96725 2.50602 8.98385 2.93157 9.83495 3.78267C10.686 4.63377 11.1116 5.65037 11.1116 6.83245C11.1116 8.01454 10.686 9.03113 9.83495 9.88223C8.98385 10.7333 7.96725 11.1589 6.78517 11.1589Z"/></svg>