<svg width="25" height="23" viewBox="0 0 25 23" fill="none" xmlns="http://www.w3.org/2000/svg"><path d="M18.3594 11.625C18.3594 11.9668 18.457 12.2598 18.7012 12.4551C18.8965 12.6992 19.1895 12.7969 19.5312 12.7969C19.8242 12.7969 20.1172 12.6992 20.3613 12.4551C20.5566 12.2598 20.7031 11.9668 20.7031 11.625C20.7031 11.332 20.5566 11.0391 20.3613 10.7949C20.1172 10.5996 19.8242 10.4531 19.5312 10.4531C19.1895 10.4531 18.8965 10.5996 18.7012 10.7949C18.457 11.0391 18.3594 11.332 18.3594 11.625ZM16.4062 12.7969C16.0645 12.7969 15.7715 12.6992 15.5762 12.4551C15.332 12.2598 15.2344 11.9668 15.2344 11.625C15.2344 11.332 15.332 11.0391 15.5762 10.7949C15.7715 10.5996 16.0645 10.4531 16.4062 10.4531C16.6992 10.4531 16.9922 10.5996 17.2363 10.7949C17.4316 11.0391 17.5781 11.332 17.5781 11.625C17.5781 11.9668 17.4316 12.2598 17.2363 12.4551C16.9922 12.6992 16.6992 12.7969 16.4062 12.7969ZM25 6.54688V2.64062C25 2.00586 24.7559 1.46875 24.3164 0.980469C23.8281 0.541016 23.291 0.296875 22.6562 0.296875H2.34375C1.66016 0.296875 1.12305 0.541016 0.683594 0.980469C0.195312 1.46875 0 2.00586 0 2.64062V6.54688C0 7.13281 0.195312 7.66992 0.585938 8.10938C0.195312 8.59766 0 9.08594 0 9.67188V13.5781C0 14.1641 0.195312 14.7012 0.585938 15.1406C0.195312 15.6289 0 16.1172 0 16.7031V20.6094C0 21.293 0.195312 21.8301 0.683594 22.2695C1.12305 22.7578 1.66016 22.9531 2.34375 22.9531H22.6562C23.291 22.9531 23.8281 22.7578 24.3164 22.2695C24.7559 21.8301 25 21.293 25 20.6094V16.7031C25 16.1172 24.8047 15.6289 24.4141 15.1406C24.8047 14.7012 25 14.1641 25 13.5781V9.67188C25 9.08594 24.8047 8.59766 24.4141 8.10938C24.8047 7.66992 25 7.13281 25 6.54688ZM1.5625 6.54688V2.64062C1.5625 2.44531 1.61133 2.25 1.75781 2.10352C1.9043 1.95703 2.09961 1.85938 2.34375 1.85938H22.6562C22.8516 1.85938 23.0469 1.95703 23.1934 2.10352C23.3398 2.25 23.4375 2.44531 23.4375 2.64062V6.54688C23.4375 6.79102 23.3398 6.98633 23.1934 7.13281C23.0469 7.2793 22.8516 7.32812 22.6562 7.32812H2.34375C2.09961 7.32812 1.9043 7.2793 1.75781 7.13281C1.61133 6.98633 1.5625 6.79102 1.5625 6.54688ZM22.6562 8.89062C22.8516 8.89062 23.0469 8.98828 23.1934 9.13477C23.3398 9.28125 23.4375 9.47656 23.4375 9.67188V13.5781C23.4375 13.8223 23.3398 14.0176 23.1934 14.1641C23.0469 14.3105 22.8516 14.3594 22.6562 14.3594H2.34375C2.09961 14.3594 1.9043 14.3105 1.75781 14.1641C1.61133 14.0176 1.5625 13.8223 1.5625 13.5781V9.67188C1.5625 9.47656 1.61133 9.28125 1.75781 9.13477C1.9043 8.98828 2.09961 8.89062 2.34375 8.89062H22.6562ZM23.4375 16.7031V20.6094C23.4375 20.8535 23.3398 21.0488 23.1934 21.1953C23.0469 21.3418 22.8516 21.3906 22.6562 21.3906H2.34375C2.09961 21.3906 1.9043 21.3418 1.75781 21.1953C1.61133 21.0488 1.5625 20.8535 1.5625 20.6094V16.7031C1.5625 16.5078 1.61133 16.3125 1.75781 16.166C1.9043 16.0195 2.09961 15.9219 2.34375 15.9219H22.6562C22.8516 15.9219 23.0469 16.0195 23.1934 16.166C23.3398 16.3125 23.4375 16.5078 23.4375 16.7031ZM19.5312 5.76562C19.1895 5.76562 18.8965 5.66797 18.7012 5.42383C18.457 5.22852 18.3594 4.93555 18.3594 4.59375C18.3594 4.30078 18.457 4.00781 18.7012 3.76367C18.8965 3.56836 19.1895 3.42188 19.5312 3.42188C19.8242 3.42188 20.1172 3.56836 20.3613 3.76367C20.5566 4.00781 20.7031 4.30078 20.7031 4.59375C20.7031 4.93555 20.5566 5.22852 20.3613 5.42383C20.1172 5.66797 19.8242 5.76562 19.5312 5.76562ZM16.4062 5.76562C16.0645 5.76562 15.7715 5.66797 15.5762 5.42383C15.332 5.22852 15.2344 4.93555 15.2344 4.59375C15.2344 4.30078 15.332 4.00781 15.5762 3.76367C15.7715 3.56836 16.0645 3.42188 16.4062 3.42188C16.6992 3.42188 16.9922 3.56836 17.2363 3.76367C17.4316 4.00781 17.5781 4.30078 17.5781 4.59375C17.5781 4.93555 17.4316 5.22852 17.2363 5.42383C16.9922 5.66797 16.6992 5.76562 16.4062 5.76562ZM19.5312 17.4844C19.8242 17.4844 20.1172 17.6309 20.3613 17.8262C20.5566 18.0703 20.7031 18.3633 20.7031 18.6562C20.7031 18.998 20.5566 19.291 20.3613 19.4863C20.1172 19.7305 19.8242 19.8281 19.5312 19.8281C19.1895 19.8281 18.8965 19.7305 18.7012 19.4863C18.457 19.291 18.3594 18.998 18.3594 18.6562C18.3594 18.3633 18.457 18.0703 18.7012 17.8262C18.8965 17.6309 19.1895 17.4844 19.5312 17.4844ZM16.4062 17.4844C16.6992 17.4844 16.9922 17.6309 17.2363 17.8262C17.4316 18.0703 17.5781 18.3633 17.5781 18.6562C17.5781 18.998 17.4316 19.291 17.2363 19.4863C16.9922 19.7305 16.6992 19.8281 16.4062 19.8281C16.0645 19.8281 15.7715 19.7305 15.5762 19.4863C15.332 19.291 15.2344 18.998 15.2344 18.6562C15.2344 18.3633 15.332 18.0703 15.5762 17.8262C15.7715 17.6309 16.0645 17.4844 16.4062 17.4844Z" fill="#fff"/></svg>