<svg width="193" height="206" viewBox="0 0 193 206" fill="none" xmlns="http://www.w3.org/2000/svg"><path d="M180.938 33.6798C184.556 35.2884 187.371 37.2992 189.783 40.5163C191.794 43.7335 193 47.3529 193 51.3743C193 79.1225 187.773 104.458 177.721 127.38C168.875 146.683 156.812 163.573 142.337 178.051C129.873 190.115 117.006 198.962 103.737 204.19C98.9125 206.603 94.0875 206.603 89.2625 204.19C73.9833 198.158 59.9104 188.104 47.0437 174.431C32.5687 159.954 21.7125 142.662 13.6708 122.554C4.42292 100.436 0 76.7096 0 51.3743C0 47.3529 0.804167 43.7335 3.21667 40.5163C5.22708 37.2992 8.04167 35.2884 12.0625 33.6798L89.2625 1.50805C94.0875 -0.502684 98.9125 -0.502684 103.737 1.50805L180.938 33.6798ZM98.9125 192.528C112.583 187.3 125.45 178.051 137.512 164.78C150.379 151.107 160.431 134.619 167.669 116.12C175.71 95.6105 180.133 73.8946 180.133 51.3743C180.133 48.5593 178.525 46.5486 176.112 45.3421L98.9125 13.1703C97.3042 12.7682 95.6958 12.7682 94.0875 13.1703L16.8875 45.3421C14.0729 46.5486 12.8667 48.5593 12.8667 51.3743C12.8667 73.8946 16.8875 95.6105 25.3312 116.12C32.5687 134.619 42.6208 151.107 55.4875 164.78C67.55 178.051 80.4167 187.3 94.0875 192.528C95.6958 193.332 97.3042 193.332 98.9125 192.528ZM157.215 71.8839C158.019 71.0796 158.421 70.2753 158.421 68.6667C158.421 67.4602 158.019 66.2538 157.215 65.0473L153.596 61.8302C152.792 61.0259 151.585 60.2216 150.379 60.2216C148.771 60.2216 147.565 61.0259 146.76 61.8302L81.2208 126.978L53.4771 98.8277C52.6729 98.0234 51.4667 97.6213 50.2604 97.6213C48.6521 97.6213 47.4458 98.0234 46.6417 98.8277L43.425 102.447C42.2188 103.251 41.8167 104.458 41.8167 105.664C41.8167 107.273 42.2188 108.479 43.0229 109.284L77.6021 143.868C78.4062 145.075 79.6125 145.477 81.2208 145.477C82.4271 145.477 83.6333 145.075 84.4375 143.868L157.215 71.8839Z" fill="#D8EDF9"/></svg>