<svg width="19" height="24" viewBox="0 0 19 24" fill="none" xmlns="http://www.w3.org/2000/svg"><path d="M9.52701 22.3519C4.63328 19.256 2.80087 17.1654 2.05792 14.7707C1.6624 13.4959 1.55287 12.0637 1.55471 10.2133C1.55554 9.38318 1.57833 8.48796 1.6036 7.49525C1.60643 7.38408 1.60929 7.27169 1.61215 7.15803C1.63353 6.30978 1.65492 5.397 1.66413 4.41233C4.57755 4.30725 7.03658 3.69067 9.52238 1.81638C11.9667 3.69213 14.4242 4.30741 17.3332 4.41234C17.3424 5.39036 17.3638 6.2977 17.3852 7.14159C17.3882 7.25947 17.3912 7.37599 17.3942 7.4912C17.4194 8.4753 17.4423 9.36409 17.4435 10.1894C17.4463 12.0372 17.3385 13.4723 16.9459 14.752C16.2087 17.1545 14.3882 19.2579 9.52701 22.3519Z" stroke="#fff" stroke-width="2" fill="rgba(255,255,255,0)"/><path fill-rule="evenodd" clip-rule="evenodd" d="M12.5211 9.39662L8.63002 13.1624L6.47495 11.1347C5.81645 10.4394 4.79878 11.4823 5.45727 12.1195L8.09125 14.6687C8.39056 14.9583 8.86947 14.9583 9.16878 14.6687L13.5388 10.4394C14.2571 9.74423 13.1796 8.75935 12.5211 9.39662Z" fill="#fff"/></svg>