<svg width="20" height="21" viewBox="0 0 20 21" fill="none" xmlns="http://www.w3.org/2000/svg"><path d="M2.39583 15.8619C2.32083 16.8369 2.24167 17.9452 1.07917 19.1119C0.841667 19.3494 0.766667 19.7077 0.895833 20.0202C1.025 20.3327 1.32917 20.5327 1.66667 20.5327C3.8625 20.4744 6.00417 19.8244 7.85833 18.6452C8.5625 18.791 9.27917 18.8619 10 18.866C15.5125 18.866 20 14.7535 20 9.69938C20 4.64521 15.5125 0.532715 10 0.532715C4.4875 0.532715 0 4.64521 0 9.69938C0.0125 11.9202 0.875 14.0494 2.40833 15.6535L2.39583 15.8619ZM1.66667 9.69938C1.66667 5.56188 5.41667 2.19938 10 2.19938C14.5833 2.19938 18.3333 5.56188 18.3333 9.69938C18.3333 14.4577 13.3333 18.2452 7.87083 16.941C7.63333 16.8827 7.37917 16.9369 7.18333 17.0827C6.0625 17.8702 4.78333 18.4077 3.43333 18.6494C3.8125 17.8119 4.02083 16.9035 4.04583 15.9827C4.04583 15.7952 4.075 15.6202 4.09583 15.466C4.13333 15.2035 4.04167 14.941 3.85417 14.7577C2.47083 13.4369 1.68333 11.6119 1.66667 9.69938Z" fill="#fff"/><path d="M8.33338 10.5327H10.4167L9.20421 13.5577C9.03338 13.9868 9.24171 14.4702 9.67088 14.641C9.77504 14.6827 9.88754 14.6993 10 14.6993C10.3417 14.6993 10.65 14.491 10.775 14.1743L12.4417 10.0077C12.6125 9.57851 12.4042 9.09518 11.975 8.92434C11.8792 8.88684 11.7709 8.86601 11.6667 8.86601H9.58338L10.7959 5.84101C10.9667 5.41184 10.7584 4.92851 10.3292 4.75768C9.90004 4.58684 9.41671 4.79518 9.24588 5.22434L7.57921 9.39101C7.40838 9.82018 7.61671 10.3035 8.04588 10.4743C8.13754 10.5118 8.23338 10.5285 8.33338 10.5327Z" fill="#fff"/></svg>