<svg width="20" height="24" viewBox="0 0 20 24" fill="none" xmlns="http://www.w3.org/2000/svg"><path d="M18.913 19.4004L17.4363 16.6665V11.2523C17.3672 8.17391 15.4815 5.43993 12.6556 4.31513C12.6556 4.28284 12.6556 4.25593 12.6556 4.22364C12.6556 2.73825 11.4657 1.53271 9.99962 1.53271C8.53354 1.53271 7.34367 2.73825 7.34367 4.22364C7.34367 4.25593 7.34367 4.28284 7.34367 4.31513C4.51774 5.43993 2.63201 8.17391 2.56296 11.2523V16.6665L1.08625 19.4004C0.884395 19.8095 1.04906 20.31 1.45277 20.5091C1.58557 20.5737 1.7343 20.606 1.88303 20.5952H7.44991C7.85892 22.0214 9.33563 22.8394 10.7433 22.425C11.6144 22.1667 12.2944 21.4778 12.5493 20.5952H18.1162C18.5677 20.6329 18.9608 20.2884 18.998 19.8364C19.0086 19.6857 18.9767 19.535 18.913 19.4004Z" stroke="#fff" stroke-width="2" fill="rgba(255,255,255,0)"/></svg>