<svg width="20" height="21" viewBox="0 0 20 21" fill="none" xmlns="http://www.w3.org/2000/svg"><path d="M18.5 3.53271H17V1.03271C17 0.757715 16.7775 0.532715 16.5 0.532715H3C1.895 0.535215 1.0025 1.42771 1 2.53271C1.0025 2.64521 1.0125 2.75521 1.0325 2.86521C1.0125 2.92021 1.0025 2.97521 1 3.03271V18.5327C1.0025 19.6377 1.895 20.5302 3 20.5327H18.5C18.775 20.5327 19 20.3102 19 20.0327V4.03271C19 3.75771 18.7775 3.53271 18.5 3.53271ZM3 1.53271H16V3.53271H3C2.4475 3.53271 2 3.08521 2 2.53271C2 1.98021 2.4475 1.53271 3 1.53271ZM18 19.5327H3C2.4475 19.5327 2 19.0852 2 18.5327V4.25521C2.3025 4.43521 2.6475 4.53021 3 4.53271H18V19.5327Z" fill="#fff" stroke="#fff" stroke-width=".5"/><path d="M15.5 6.53271H4.5C4.225 6.53271 4 6.75521 4 7.03271V17.0327C4 17.3077 4.2225 17.5327 4.5 17.5327H15.5C15.775 17.5327 16 17.3102 16 17.0327V7.03271C16 6.75771 15.7775 6.53271 15.5 6.53271ZM15 7.53271V12.2227L13.7225 11.5852C13.53 11.4877 13.2975 11.5252 13.145 11.6802L11.4 13.4252L9.7225 12.5852C9.5475 12.4977 9.34 12.5202 9.1875 12.6427L5 15.9927V7.53271H15ZM5.925 16.5327L9.5625 13.6227L11.2775 14.4802C11.47 14.5752 11.7025 14.5377 11.855 14.3852L13.6 12.6402L15.0025 13.3402V16.5327H5.925Z" fill="#fff" stroke="#fff" stroke-width=".5"/><path d="M7.5 11.5327C8.3275 11.5327 9 10.8602 9 10.0327C9 9.20521 8.3275 8.53271 7.5 8.53271C6.6725 8.53271 6 9.20521 6 10.0327C6 10.8602 6.6725 11.5327 7.5 11.5327ZM7.5 9.53271C7.775 9.53271 8 9.75771 8 10.0327C8 10.3077 7.775 10.5327 7.5 10.5327C7.225 10.5327 7 10.3077 7 10.0327C7 9.75771 7.225 9.53271 7.5 9.53271Z" fill="#fff" stroke="#fff" stroke-width=".5"/></svg>