<svg width="32" height="26" viewBox="0 0 32 26" fill="none" xmlns="http://www.w3.org/2000/svg"><path d="M29.6875 17.3125C30.0781 17.3125 30.4688 17.5078 30.7617 17.8008C31.0547 18.0938 31.25 18.4844 31.25 18.875V23.5625C31.25 24.002 31.0547 24.3926 30.7617 24.6855C30.4688 24.9785 30.0781 25.125 29.6875 25.125H25C24.5605 25.125 24.1699 24.9785 23.877 24.6855C23.584 24.3926 23.4375 24.002 23.4375 23.5625V18.875C23.4375 18.4844 23.584 18.0938 23.877 17.8008C24.1699 17.5078 24.5605 17.3125 25 17.3125H26.5625V12.625H16.4062V17.3125H17.9688C18.3594 17.3125 18.75 17.5078 19.043 17.8008C19.3359 18.0938 19.5312 18.4844 19.5312 18.875V23.5625C19.5312 24.002 19.3359 24.3926 19.043 24.6855C18.75 24.9785 18.3594 25.125 17.9688 25.125H13.2812C12.8418 25.125 12.4512 24.9785 12.1582 24.6855C11.8652 24.3926 11.7188 24.002 11.7188 23.5625V18.875C11.7188 18.4844 11.8652 18.0938 12.1582 17.8008C12.4512 17.5078 12.8418 17.3125 13.2812 17.3125H14.8438V12.625H4.6875V17.3125H6.25C6.64062 17.3125 7.03125 17.5078 7.32422 17.8008C7.61719 18.0938 7.8125 18.4844 7.8125 18.875V23.5625C7.8125 24.002 7.61719 24.3926 7.32422 24.6855C7.03125 24.9785 6.64062 25.125 6.25 25.125H1.5625C1.12305 25.125 0.732422 24.9785 0.439453 24.6855C0.146484 24.3926 0 24.002 0 23.5625V18.875C0 18.4844 0.146484 18.0938 0.439453 17.8008C0.732422 17.5078 1.12305 17.3125 1.5625 17.3125H3.125V12.5273C3.125 12.1367 3.27148 11.7949 3.56445 11.502C3.85742 11.209 4.19922 11.0625 4.58984 11.0625H14.8438V7.9375H12.5C12.0605 7.9375 11.6699 7.79102 11.377 7.49805C11.084 7.20508 10.9375 6.81445 10.9375 6.375V1.6875C10.9375 1.29688 11.084 0.90625 11.377 0.613281C11.6699 0.320312 12.0605 0.125 12.5 0.125H18.75C19.1406 0.125 19.5312 0.320312 19.8242 0.613281C20.1172 0.90625 20.3125 1.29688 20.3125 1.6875V6.375C20.3125 6.81445 20.1172 7.20508 19.8242 7.49805C19.5312 7.79102 19.1406 7.9375 18.75 7.9375H16.4062V11.0625H26.6602C27.0508 11.0625 27.3926 11.209 27.6855 11.502C27.9785 11.7949 28.125 12.1367 28.125 12.5273V17.3125H29.6875ZM6.25 18.875H1.5625V23.5625H6.25V18.875ZM17.9688 18.875H13.2812V23.5625H17.9688V18.875ZM12.5 6.375H18.75V1.6875H12.5V6.375ZM29.6875 23.5625V18.875H25V23.5625H29.6875Z" fill="#fff"/></svg>