<svg width="36" height="25" viewBox="0 0 36 25" fill="none" xmlns="http://www.w3.org/2000/svg"><path d="M34.9509 17.2878C34.9509 16.2082 34.3121 15.2694 33.3786 14.8C33.4769 14.4714 33.526 14.1429 33.526 13.8143C33.526 12.2184 32.4942 10.7633 30.9711 10.1531C31.1676 9.63673 31.315 9.12041 31.315 8.55714C31.315 6.2102 29.3006 4.28571 26.8439 4.28571C26.5983 4.28571 26.3526 4.28571 26.1069 4.33265C25.6647 2.4551 23.896 1 21.7832 1C20.4566 1 19.2283 1.56327 18.3931 2.50204C17.5578 1.56327 16.3295 1 15.0029 1C12.5462 1 10.5809 2.87755 10.5318 5.17755C8.51734 5.17755 6.74856 6.49184 6.20809 8.36939C4.43931 8.97959 3.26012 10.5755 3.26012 12.3592C3.26012 13.0163 3.40751 13.6265 3.70231 14.2367C2.37572 14.9878 1.54046 16.3959 1.54046 17.898C1.54046 18.4612 1.63873 18.9776 1.83526 19.4939C1.2948 19.9633 1 20.6673 1 21.3714C1 22.8265 2.22832 24 3.75145 24C4.63584 24 5.42197 23.6245 5.91329 22.9673C6.69942 23.6245 7.73121 24 8.81214 24C10.4335 24 11.9566 23.1082 12.7428 21.7469C14.315 22.6388 16.1329 23.1551 18.0491 23.1551C19.8179 23.1551 21.5376 22.7327 23.0116 21.9347C23.7977 23.202 25.2717 24 26.8439 24C28.1705 24 29.448 23.4367 30.2832 22.451C30.7746 22.8265 31.4133 23.0143 32.052 23.0143C33.6734 23.0143 35 21.7469 35 20.198C35 19.6816 34.8526 19.1653 34.5578 18.7429C34.8035 18.3204 34.9509 17.8041 34.9509 17.2878ZM11.9075 21.2306C11.3179 22.3102 10.0896 23.0612 8.81214 23.0612C7.78035 23.0612 6.84682 22.6388 6.15896 21.8878C6.06069 21.7469 5.86416 21.7 5.71676 21.7469C5.56936 21.7939 5.42197 21.8878 5.3237 22.0286C5.0289 22.6388 4.39017 23.0612 3.70231 23.0612C2.71965 23.0612 1.93353 22.3102 1.93353 21.3714C1.93353 20.8082 2.22832 20.3388 2.67052 20.0102C2.86705 19.8694 2.91619 19.6347 2.81792 19.4C2.57225 18.9306 2.42486 18.4143 2.42486 17.898C2.42486 16.5837 3.21098 15.4102 4.43931 14.8939C4.48844 14.8939 4.53757 14.8469 4.58671 14.8C4.78324 14.6592 4.83237 14.3776 4.68497 14.1898C4.34104 13.6735 4.14451 13.0163 4.14451 12.4061C4.14451 10.951 5.1763 9.63673 6.65029 9.21429C6.84682 9.16735 6.94509 9.02653 6.99422 8.83878C7.28902 7.2898 8.76301 6.16327 10.4335 6.16327C10.4335 6.16327 10.4335 6.16327 10.4827 6.16327C10.4827 6.30408 10.4827 6.4449 10.5318 6.53878C9.10694 7.94694 8.17341 9.77755 7.82948 11.8429C6.40462 12.0306 5.3237 13.2041 5.3237 14.6122C5.3237 16.1612 6.60116 17.3816 8.22254 17.3816C8.36994 17.3816 8.51734 17.3816 8.66474 17.3347C9.40173 18.8837 10.5318 20.198 11.9075 21.2306ZM9.40173 16.5837L9.25434 16.1612L8.81214 16.302C8.61561 16.349 8.41908 16.3959 8.22254 16.3959C7.14162 16.3959 6.30636 15.551 6.30636 14.5653C6.30636 13.5796 7.19075 12.7347 8.17341 12.7347H8.71387L8.76301 12.3122C8.95954 10.4816 9.74567 8.83878 10.8757 7.52449C12.6936 10.951 17.5087 13.1571 23.5029 13.1571C24.5838 13.1571 25.7139 13.0633 26.7457 12.8286C26.8439 12.8286 26.8931 12.7816 26.9913 12.7816C27.0896 12.7816 27.1879 12.7347 27.2861 12.7347H27.7283C27.7775 12.7347 27.7775 12.7347 27.7775 12.7347C28.8584 12.7347 29.6936 13.5796 29.6936 14.5653C29.6936 15.551 28.8092 16.3959 27.7775 16.3959C27.5809 16.3959 27.4335 16.349 27.1879 16.302L26.7457 16.1612L26.5983 16.5837C25.1734 19.9633 21.7832 22.1694 17.9509 22.1694C14.1185 22.1694 10.8757 19.9633 9.40173 16.5837ZM33.526 19.0714C33.8208 19.4 33.9682 19.8224 33.9682 20.2449C33.9682 21.2776 33.0838 22.1224 32.0029 22.1224C31.4624 22.1224 30.922 21.8878 30.5289 21.4653C30.4306 21.3714 30.2832 21.2776 30.1358 21.3245C29.9884 21.3245 29.841 21.4184 29.7428 21.5592C29.104 22.5449 28.0231 23.1082 26.7948 23.1082C25.6156 23.1082 24.4855 22.498 23.8468 21.5592C23.896 21.5122 23.896 21.5122 23.896 21.4653C25.4191 20.4796 26.6474 19.0714 27.4335 17.3816C27.5809 17.4286 27.7283 17.4286 27.8757 17.4286C29.4971 17.4286 30.7746 16.1612 30.7746 14.6592C30.7746 13.3449 29.841 12.2653 28.5636 11.9837C28.5145 11.9367 28.4653 11.9367 28.3671 11.9367C27.5809 11.8429 27.1879 11.9367 26.8439 11.9837C26.7948 11.9837 26.6965 12.0306 26.5983 12.0306C25.5665 12.2184 24.5347 12.3122 23.5029 12.3122C17.7052 12.2184 12.8902 9.91837 11.5636 6.53878C11.5636 6.35102 11.5145 5.74082 11.5145 5.27143C11.5145 3.44082 13.0867 1.93878 15.0029 1.93878C16.2312 1.93878 17.3613 2.54898 18 3.53469C18.1965 3.81633 18.6387 3.81633 18.8353 3.53469C19.4249 2.54898 20.5549 1.93878 21.7832 1.93878C23.552 1.93878 25.0751 3.25306 25.2717 4.9898C25.2717 5.13061 25.3699 5.27143 25.4682 5.31837C25.5665 5.41224 25.763 5.41225 25.8613 5.36531C26.2052 5.27143 26.5 5.22449 26.8439 5.22449C28.7601 5.22449 30.3324 6.72653 30.3324 8.55714C30.3324 9.12041 30.185 9.68367 29.8902 10.2C29.7919 10.3408 29.7919 10.4816 29.841 10.6224C29.8902 10.7633 30.0376 10.8571 30.185 10.9041C31.5607 11.2327 32.5434 12.4531 32.5434 13.8143C32.5434 14.1898 32.4451 14.5653 32.3468 14.8939C32.2977 15.0347 32.2977 15.1286 32.3468 15.2694C32.396 15.4102 32.4942 15.4571 32.6416 15.5041C33.4769 15.7388 34.0173 16.4429 34.0173 17.2878C34.0173 17.7102 33.8699 18.1327 33.5751 18.4612C33.3786 18.649 33.3786 18.8837 33.526 19.0714Z" fill="#fff" stroke="#fff"/></svg>