<svg width="24" height="31" viewBox="0 0 24 31" fill="none" xmlns="http://www.w3.org/2000/svg"><path d="M6.75261 7.37592H0.648944C0.389765 7.37592 0.150024 7.22092 0.0528316 6.9755C-0.0508401 6.73654 0.00747527 6.45884 0.19538 6.27154L6.29905 0.187795C6.48048 0.00696143 6.75909 -0.0511636 6.99884 0.0521698C7.23858 0.149045 7.40056 0.388003 7.40056 0.646336V6.73009C7.40056 7.08529 7.10899 7.37592 6.75261 7.37592ZM2.2105 6.08425H6.09819V2.20925L2.2105 6.08425Z" fill="#fff"/><path d="M23.3521 31H0.647948C0.291577 31 0 30.7094 0 30.3542V6.72958C0 6.55521 0.0712743 6.39375 0.187905 6.27104L6.29158 0.187292C6.41469 0.0710417 6.57667 0 6.75162 0H23.3521C23.7084 0 24 0.290625 24 0.645833V30.3542C24 30.7094 23.7084 31 23.3521 31ZM1.2959 29.7083H22.7041V1.29167H7.01728L1.2959 6.99437V29.7083Z" fill="#fff"/><path d="M20.7476 28.2551H3.58349C3.22712 28.2551 2.93555 27.9645 2.93555 27.6093C2.93555 27.2541 3.22712 26.9635 3.58349 26.9635H20.0997V11.4635C20.0997 11.1083 20.3913 10.8176 20.7476 10.8176C21.104 10.8176 21.3956 11.1083 21.3956 11.4635V27.6093C21.3956 27.9645 21.1105 28.2551 20.7476 28.2551Z" fill="#fff"/><path d="M13.8664 23.3018C13.6979 23.3018 13.5359 23.2372 13.4063 23.1145C13.1536 22.8626 13.1536 22.4557 13.4063 22.2039L15.4668 20.163C15.7195 19.9112 16.1277 19.9112 16.3804 20.163C16.6331 20.4149 16.6331 20.8218 16.3804 21.0737L14.3199 23.1145C14.1968 23.2372 14.0348 23.3018 13.8664 23.3018Z" fill="#fff"/><path d="M5.33973 20.3759C5.11294 20.3759 4.89912 20.2597 4.77601 20.053L2.23605 15.6291C2.05463 15.3191 2.16478 14.9251 2.47579 14.7507C2.78681 14.5763 3.18206 14.6797 3.357 14.9897L5.90344 19.4136C6.08487 19.7236 5.97471 20.1176 5.6637 20.292C5.56003 20.3501 5.44988 20.3759 5.33973 20.3759Z" fill="#fff"/><path d="M12.2469 23.0886C12.0266 23.0886 11.8063 22.9724 11.6897 22.7721L9.55796 19.1426L7.51692 20.6151C7.22535 20.8217 6.82362 20.7571 6.6098 20.473C6.40245 20.1824 6.46725 19.7819 6.75235 19.5688L9.37006 17.6765C9.51908 17.5732 9.70051 17.528 9.88193 17.5667C10.0634 17.6055 10.2124 17.7153 10.3096 17.8703L12.8042 22.1134C12.9856 22.4234 12.8819 22.8174 12.5709 22.9982C12.4672 23.0563 12.3571 23.0886 12.2469 23.0886Z" fill="#fff"/><path d="M20.7464 24.1541C20.5779 24.1541 20.4159 24.0896 20.2863 23.9669L17.377 21.0671C17.1243 20.8152 17.1243 20.4083 17.377 20.1564C17.6297 19.9046 18.0379 19.9046 18.2906 20.1564L21.1999 23.0562C21.4526 23.3081 21.4526 23.715 21.1999 23.9669C21.0768 24.096 20.9083 24.1541 20.7464 24.1541Z" fill="#fff"/><path d="M16.8785 21.6482C16.3731 21.6482 15.8742 21.448 15.5048 21.0928C15.466 21.0605 15.4271 21.0153 15.3947 20.9766C15.0642 20.6214 14.8828 20.1564 14.8828 19.6526C14.8828 18.5547 15.777 17.657 16.872 17.657C17.9735 17.657 18.8742 18.5547 18.8742 19.6526C18.8742 20.1693 18.6668 20.6666 18.2975 21.0541C17.9152 21.4416 17.4098 21.6482 16.8785 21.6482ZM16.4314 20.1951C16.7035 20.4212 17.1247 20.3953 17.3709 20.1499C17.507 20.0078 17.5783 19.8399 17.5783 19.6526C17.5783 19.2651 17.2608 18.9487 16.872 18.9487C16.4897 18.9487 16.1787 19.2651 16.1787 19.6526C16.1787 19.8399 16.25 20.0078 16.3731 20.1305C16.399 20.1564 16.4185 20.1757 16.4314 20.1951Z" fill="#fff"/><path d="M12.913 25.5944C11.8115 25.5944 10.9238 24.6967 10.9238 23.5988C10.9238 22.8755 11.3126 22.2167 11.9346 21.8744C12.2132 21.7065 12.5567 21.6096 12.913 21.6096C13.4573 21.6096 13.9757 21.8227 14.3385 22.2038C14.7014 22.5655 14.9152 23.0757 14.9152 23.5988C14.9152 24.6967 14.0145 25.5944 12.913 25.5944ZM12.913 22.9013C12.7964 22.9013 12.6798 22.9336 12.5761 22.9917C12.3428 23.1209 12.2132 23.3469 12.2132 23.5923C12.2132 23.9798 12.5243 24.2963 12.9065 24.2963C13.2953 24.2963 13.6128 23.9798 13.6128 23.5923C13.6128 23.4115 13.5351 23.2371 13.4055 23.1015C13.2824 22.9788 13.1009 22.9013 12.913 22.9013Z" fill="#fff"/><path d="M6.04513 22.8755C4.94362 22.8755 4.04297 21.9778 4.04297 20.8799C4.04297 20.1889 4.39934 19.5559 4.99545 19.1878C5.8637 18.6518 7.06889 18.8972 7.65204 19.7174C7.89826 20.0532 8.03433 20.4601 8.03433 20.8799C8.03433 21.9778 7.14016 22.8755 6.04513 22.8755ZM6.04513 20.1759C5.88314 20.1759 5.76003 20.2341 5.68228 20.2793C5.46846 20.4149 5.33887 20.6345 5.33887 20.8799C5.33887 21.2674 5.65636 21.5839 6.04513 21.5839C6.42742 21.5839 6.73843 21.2674 6.73843 20.8799C6.73843 20.7314 6.69308 20.5957 6.60236 20.473C6.47277 20.2857 6.26543 20.1759 6.04513 20.1759Z" fill="#fff"/></svg>