<svg width="27" height="27" viewBox="0 0 27 27" fill="none" xmlns="http://www.w3.org/2000/svg"><path d="M13.7653 5.66208V4.66083C14.6397 4.50438 15.2956 3.75344 15.2956 2.84606C15.2956 1.84481 14.4836 1 13.453 1C12.4224 1 11.6104 1.81352 11.6104 2.84606C11.6104 3.75344 12.2662 4.50438 13.1407 4.66083V5.66208C7.55042 5.72466 2.70969 7.22653 1.05448 9.47935C0.960785 9.60451 0.992015 9.82353 1.11694 9.9174C1.1794 9.94869 1.24186 9.97997 1.30432 9.97997C1.39801 9.97997 1.4917 9.94868 1.55416 9.85482C2.21 8.97872 3.39676 8.22778 4.98952 7.63329V12.4205C4.42737 11.9825 3.7403 11.8573 3.05323 12.1389C2.21 12.4831 1.46047 13.4531 1.77278 14.8298C2.27247 17.0826 5.05198 18.209 5.1769 18.2716C5.20813 18.2716 5.23936 18.3029 5.30182 18.3029C5.36428 18.3029 5.39551 18.3029 5.42674 18.2716C5.55167 18.209 8.29995 17.0826 8.83087 14.8298C9.14317 13.4844 8.39364 12.4831 7.55042 12.1389C6.86335 11.8573 6.17628 11.9825 5.61413 12.4205V7.41427C7.70657 6.72591 10.3612 6.31915 13.1719 6.28786V18.3655C12.4224 17.6771 11.4542 17.4894 10.4861 17.8648C9.39301 18.3029 8.42487 19.5857 8.83087 21.3692C9.51794 24.3417 13.2344 25.9061 13.3905 25.9687C13.4217 25.9687 13.453 26 13.5154 26C13.5779 26 13.6091 26 13.6404 25.9687C13.7965 25.9061 17.5129 24.373 18.2 21.3692C18.606 19.5857 17.6066 18.3029 16.5448 17.8648C15.5766 17.4581 14.5773 17.6771 13.8277 18.3967V6.28786C16.6697 6.31915 19.3243 6.72591 21.448 7.44556V12.4518C20.8858 12.0138 20.1988 11.8886 19.5117 12.1702C18.6685 12.5144 17.9189 13.4844 18.2312 14.8611C18.7309 17.1139 21.5104 18.2403 21.6354 18.3029C21.6666 18.3029 21.6978 18.3342 21.7603 18.3342C21.8227 18.3342 21.854 18.3342 21.8852 18.3029C22.0101 18.2403 24.7584 17.1139 25.2893 14.8611C25.6016 13.5156 24.8521 12.5144 24.0089 12.1702C23.3218 11.8886 22.6347 12.0138 22.0726 12.4518V7.66458C23.6341 8.25907 24.8209 8.97872 25.4455 9.85482C25.5392 9.97997 25.7578 10.0113 25.8827 9.9174C26.0076 9.82353 26.0389 9.60451 25.9452 9.47935C24.1963 7.22653 19.3555 5.72466 13.7653 5.66208ZM7.26934 12.7334C7.86272 12.9837 8.39364 13.7034 8.17503 14.7046C7.80026 16.3942 5.77028 17.4268 5.27059 17.6458C4.7709 17.3955 2.74092 16.3942 2.36616 14.7046C2.14754 13.7034 2.67846 12.9837 3.27184 12.7334C3.42799 12.6708 3.58415 12.6395 3.77153 12.6395C4.17752 12.6395 4.64598 12.8586 4.98952 13.4218C5.11444 13.6095 5.39551 13.6095 5.52044 13.4218C6.05135 12.6083 6.76965 12.5457 7.26934 12.7334ZM12.235 2.84606C12.235 2.18899 12.7659 1.62578 13.453 1.62578C14.14 1.62578 14.671 2.1577 14.671 2.84606C14.671 3.53442 14.1088 4.06633 13.453 4.06633C12.7971 4.06633 12.235 3.50313 12.235 2.84606ZM16.2325 18.4593C17.0757 18.8035 17.8565 19.836 17.5129 21.2753C16.982 23.6533 14.0776 25.0926 13.453 25.3742C12.8284 25.0926 9.95516 23.6533 9.39301 21.2753C9.08071 19.836 9.83024 18.8348 10.6735 18.4593C10.8921 18.3655 11.1419 18.3029 11.423 18.3029C12.0164 18.3029 12.6722 18.5845 13.1719 19.398C13.2968 19.5857 13.5779 19.5857 13.7028 19.398C14.4524 18.2403 15.483 18.1464 16.2325 18.4593ZM23.6966 12.7334C24.29 12.9837 24.8209 13.7034 24.6023 14.7046C24.2275 16.3942 22.1975 17.4268 21.6978 17.6458C21.1981 17.3955 19.1682 16.3942 18.7934 14.7046C18.5748 13.7034 19.1057 12.9837 19.6991 12.7334C19.8552 12.6708 20.0114 12.6395 20.1988 12.6395C20.6048 12.6395 21.0732 12.8586 21.4167 13.4218C21.5417 13.6095 21.8227 13.6095 21.9477 13.4218C22.4786 12.6083 23.1969 12.5457 23.6966 12.7334Z" fill="#fff" stroke="#fff"/></svg>