<svg width="26" height="26" viewBox="0 0 26 26" fill="none" xmlns="http://www.w3.org/2000/svg"><path d="M25.5601 18.0938C25.853 18.3867 25.9995 18.7773 25.9995 19.2168C25.9995 19.6562 25.853 19.998 25.5601 20.291L21.1655 24.6855C20.8726 24.9785 20.4819 25.125 20.0425 25.125C19.603 25.125 19.2612 24.9785 18.9683 24.6855L12.9624 18.6797L7.44482 24.1973L2.22021 25.125C1.87842 25.1738 1.58545 25.0762 1.29248 24.832C0.999512 24.5879 0.901855 24.2949 0.999512 23.9043L1.92725 18.6797L7.44482 13.1621L1.43896 7.15625C1.146 6.86328 0.999512 6.52148 0.999512 6.08203C0.999512 5.64258 1.146 5.25195 1.43896 4.95898L5.8335 0.564453C6.12646 0.271484 6.46826 0.125 6.90771 0.125C7.34717 0.125 7.73779 0.271484 8.03076 0.564453L14.0366 6.57031L19.7983 0.808594C20.2378 0.369141 20.7749 0.125 21.4585 0.125C22.0933 0.125 22.6304 0.369141 23.1187 0.808594L25.3159 3.00586C25.7554 3.49414 25.9995 4.03125 25.9995 4.66602C25.9995 5.34961 25.7554 5.88672 25.3159 6.32617L19.5542 12.0879L25.5601 18.0938ZM20.8726 1.93164L18.6265 4.17773L21.9468 7.49805L24.1929 5.25195C24.3394 5.10547 24.437 4.91016 24.437 4.71484C24.437 4.51953 24.3394 4.32422 24.1929 4.12891L21.9956 1.93164C21.8979 1.83398 21.7026 1.78516 21.4097 1.78516C21.1167 1.78516 20.9702 1.83398 20.8726 1.93164ZM2.56201 6.08203L8.56787 12.0391L12.9136 7.69336L10.7651 5.54492L8.86084 7.44922C8.76318 7.54688 8.66553 7.54688 8.56787 7.54688C8.47021 7.54688 8.37256 7.54688 8.32373 7.44922L7.73779 6.86328C7.64014 6.81445 7.64014 6.7168 7.64014 6.61914C7.64014 6.52148 7.64014 6.42383 7.73779 6.32617L9.64209 4.42188L6.90771 1.6875L2.56201 6.08203ZM6.7124 22.7324L20.8726 8.57227L17.5522 5.25195L3.39209 19.4121L2.7085 23.4648L6.7124 22.7324ZM20.0913 23.5625L24.437 19.168L21.7026 16.4336L19.7983 18.3867C19.7007 18.4844 19.603 18.4844 19.5054 18.4844C19.4077 18.4844 19.3101 18.4844 19.2612 18.3867L18.6753 17.8008C18.5776 17.752 18.5776 17.6543 18.5776 17.5566C18.5776 17.459 18.5776 17.3613 18.6753 17.2637L20.6284 15.3594L18.4312 13.2109L14.0854 17.5566L20.0913 23.5625Z" fill="#fff"/></svg>