<svg width="11" height="13" viewBox="0 0 11 13" fill="none" xmlns="http://www.w3.org/2000/svg"><path d="M7.35938 7.625C7.92188 7.625 8.4375 7.76562 8.92969 8.04688C9.39844 8.32812 9.79688 8.72656 10.0781 9.19531C10.3594 9.6875 10.5 10.2031 10.5 10.7656V11.375C10.5 11.7031 10.3828 11.9609 10.1719 12.1719C9.9375 12.4062 9.67969 12.5 9.375 12.5H1.125C0.796875 12.5 0.539062 12.4062 0.328125 12.1719C0.09375 11.9609 0 11.7031 0 11.375V10.7656C0 10.2031 0.140625 9.6875 0.421875 9.19531C0.703125 8.72656 1.07812 8.32812 1.57031 8.04688C2.03906 7.76562 2.57812 7.625 3.14062 7.625C3.32812 7.625 3.60938 7.69531 3.9375 7.78906C4.14844 7.85938 4.33594 7.90625 4.47656 7.92969C4.71094 7.97656 4.96875 8 5.25 8C5.53125 8 5.78906 7.97656 6.02344 7.92969C6.16406 7.90625 6.32812 7.85938 6.5625 7.78906C6.89062 7.69531 7.14844 7.625 7.35938 7.625ZM9.375 11.375V10.7656C9.375 10.2266 9.16406 9.75781 8.76562 9.35938C8.36719 8.96094 7.89844 8.75 7.35938 8.75C7.26562 8.75 7.10156 8.79688 6.89062 8.84375C6.32812 9.03125 5.76562 9.125 5.25 9.125C4.73438 9.125 4.17188 9.03125 3.60938 8.84375C3.375 8.79688 3.21094 8.75 3.14062 8.75C2.57812 8.75 2.10938 8.96094 1.71094 9.35938C1.3125 9.75781 1.125 10.2266 1.125 10.7656V11.375H9.375ZM5.25 7.25C4.64062 7.25 4.07812 7.10938 3.5625 6.80469C3.04688 6.5 2.625 6.07812 2.32031 5.5625C2.01562 5.04688 1.875 4.48438 1.875 3.875C1.875 3.26562 2.01562 2.70312 2.32031 2.1875C2.625 1.67188 3.04688 1.27344 3.5625 0.96875C4.07812 0.664062 4.64062 0.5 5.25 0.5C5.85938 0.5 6.42188 0.664062 6.9375 0.96875C7.45312 1.27344 7.85156 1.67188 8.15625 2.1875C8.46094 2.70312 8.625 3.26562 8.625 3.875C8.625 4.48438 8.46094 5.04688 8.15625 5.5625C7.85156 6.07812 7.45312 6.5 6.9375 6.80469C6.42188 7.10938 5.85938 7.25 5.25 7.25ZM5.25 1.625C4.61719 1.625 4.07812 1.85938 3.65625 2.28125C3.21094 2.72656 3 3.26562 3 3.875C3 4.50781 3.21094 5.04688 3.65625 5.46875C4.07812 5.91406 4.61719 6.125 5.25 6.125C5.85938 6.125 6.39844 5.91406 6.84375 5.46875C7.26562 5.04688 7.5 4.50781 7.5 3.875C7.5 3.26562 7.26562 2.72656 6.84375 2.28125C6.39844 1.85938 5.85938 1.625 5.25 1.625Z"/></svg>