<svg width="11" height="13" viewBox="0 0 11 13" fill="none" xmlns="http://www.w3.org/2000/svg"><path d="M5.25 6.5C4.6875 6.5 4.19531 6.38281 3.72656 6.10156C3.25781 5.84375 2.90625 5.49219 2.64844 5.02344C2.36719 4.55469 2.25 4.0625 2.25 3.5C2.25 2.96094 2.36719 2.46875 2.64844 2C2.90625 1.53125 3.25781 1.17969 3.72656 0.898438C4.19531 0.640625 4.6875 0.5 5.25 0.5C5.78906 0.5 6.28125 0.640625 6.75 0.898438C7.21875 1.17969 7.57031 1.53125 7.85156 2C8.10938 2.46875 8.25 2.96094 8.25 3.5C8.25 4.0625 8.10938 4.55469 7.85156 5.02344C7.57031 5.49219 7.21875 5.84375 6.75 6.10156C6.28125 6.38281 5.78906 6.5 5.25 6.5ZM7.35938 7.25C7.92188 7.25 8.4375 7.39062 8.92969 7.67188C9.39844 7.95312 9.79688 8.35156 10.0781 8.82031C10.3594 9.3125 10.5 9.82812 10.5 10.3906V11.375C10.5 11.7031 10.3828 11.9609 10.1719 12.1719C9.9375 12.4062 9.67969 12.5 9.375 12.5H1.125C0.796875 12.5 0.539062 12.4062 0.328125 12.1719C0.09375 11.9609 0 11.7031 0 11.375V10.3906C0 9.82812 0.140625 9.3125 0.421875 8.82031C0.703125 8.35156 1.07812 7.95312 1.57031 7.67188C2.03906 7.39062 2.57812 7.25 3.14062 7.25H3.53906C4.07812 7.50781 4.64062 7.625 5.25 7.625C5.83594 7.625 6.39844 7.50781 6.96094 7.25H7.35938Z"/></svg>