<svg width="27" height="16" viewBox="0 0 27 16" fill="none" xmlns="http://www.w3.org/2000/svg"><path d="M25.5469 1.53125C25.4531 2 25.0781 2.79688 24.4219 3.875C23.9531 4.67188 23.3906 5.5625 22.7344 6.59375C22.1719 7.4375 21.8438 7.85938 21.8438 7.85938C21.6562 8.14062 21.5625 8.375 21.5625 8.51562C21.5625 8.70312 21.6562 8.89062 21.8438 9.07812L22.2656 9.54688C24.5156 11.8906 25.7812 13.4844 26.0625 14.3281C26.1562 14.7031 26.1094 15.0312 25.9219 15.2188C25.7344 15.4062 25.5 15.5 25.125 15.5H22.3594C21.9844 15.5 21.7031 15.4062 21.4219 15.1719C21.2344 15.0781 20.8594 14.75 20.3906 14.1875C19.9219 13.625 19.5 13.1562 19.125 12.7812C17.8594 11.6094 16.9219 11 16.3594 11C16.0781 11 15.8906 11.0469 15.7969 11.1406C15.7031 11.2344 15.6562 11.4688 15.6562 11.75C15.6094 11.9844 15.6094 12.4531 15.6094 13.2031V14.4219C15.6094 14.7969 15.5156 15.0781 15.3281 15.2188C15.0469 15.4062 14.4844 15.5 13.6406 15.5C12.1406 15.5 10.6875 15.0781 9.1875 14.1875C7.6875 13.3438 6.375 12.0781 5.25 10.4375C4.17188 9.03125 3.28125 7.57812 2.57812 6.07812C2.01562 4.95312 1.54688 3.92188 1.21875 2.9375C0.984375 2.1875 0.890625 1.625 0.890625 1.29688C0.890625 0.78125 1.17188 0.5 1.82812 0.5H4.59375C4.92188 0.5 5.15625 0.59375 5.34375 0.734375C5.53125 0.921875 5.67188 1.20312 5.8125 1.57812C6.23438 2.84375 6.75 4.0625 7.40625 5.23438C7.96875 6.35938 8.53125 7.25 9.09375 7.90625C9.65625 8.60938 10.0781 8.9375 10.4062 8.9375C10.5938 8.9375 10.6875 8.89062 10.7812 8.75C10.875 8.60938 10.9219 8.32812 10.9219 7.90625V3.82812C10.875 3.35938 10.7812 2.89062 10.5938 2.51562C10.5 2.32812 10.3125 2.09375 10.125 1.8125C9.89062 1.53125 9.79688 1.34375 9.79688 1.15625C9.79688 0.96875 9.84375 0.828125 9.98438 0.6875C10.125 0.59375 10.3125 0.5 10.5 0.5H14.8594C15.1406 0.5 15.3281 0.59375 15.4219 0.734375C15.5156 0.921875 15.6094 1.15625 15.6094 1.53125V6.96875C15.6094 7.25 15.6562 7.48438 15.75 7.57812C15.8438 7.71875 15.9375 7.76562 16.0781 7.76562C16.2188 7.76562 16.4062 7.71875 16.5938 7.625C16.7812 7.53125 17.0156 7.29688 17.3438 6.92188C17.9062 6.26562 18.5156 5.46875 19.125 4.48438C19.5 3.82812 19.9219 3.07812 20.2969 2.23438L20.7656 1.29688C20.9531 0.78125 21.375 0.5 21.9375 0.5H24.7031C25.4531 0.5 25.7344 0.875 25.5469 1.53125Z"/></svg>