<svg width="51" height="40" viewBox="0 0 51 40" fill="none" xmlns="http://www.w3.org/2000/svg"><path d="M5.96628 6.14189H41.9774C42.5941 6.14189 43.0941 5.64479 43.0941 5.0317C43.0941 4.41861 42.5941 3.92151 41.9774 3.92151H5.96628C5.34961 3.92151 4.84961 4.41861 4.84961 5.0317C4.84961 5.64479 5.34961 6.14189 5.96628 6.14189Z"/><path d="M47.9444 16.1335V5.9706C47.9444 5.71653 47.9222 5.4735 47.8944 5.22495C47.8944 5.15867 47.9056 5.09792 47.9056 5.03164C47.9056 2.25892 45.6333 -0.00012207 42.8444 -0.00012207H41.9444H6.00556H5.1C2.31111 -0.00012207 0.0388889 2.25892 0.0388889 5.03164C0.0388889 5.09792 0.0444444 5.15867 0.05 5.22495C0.0222222 5.46798 0 5.71653 0 5.9706V34.0292C0 37.3211 2.69444 39.9999 6.00556 39.9999H41.9444C45.2556 39.9999 47.95 37.3211 47.95 34.0292V28.2959C49.1833 27.5006 50.0056 26.1197 50.0056 24.5566V19.8728C50 18.3042 49.1778 16.9289 47.9444 16.1335ZM5.1 2.21474H6H41.9444H42.8444C44.4056 2.21474 45.6778 3.47958 45.6778 5.03164C45.6778 6.58369 44.4056 7.84854 42.8444 7.84854H5.1C3.53889 7.84854 2.26667 6.58369 2.26667 5.03164C2.26667 3.47958 3.53889 2.21474 5.1 2.21474ZM45.7167 34.0292C45.7167 36.1004 44.0222 37.7795 41.9444 37.7795H6.00556C3.92222 37.7795 2.22778 36.0949 2.22778 34.0292V9.16862C3.04444 9.732 4.03333 10.0634 5.1 10.0634H42.8389C43.9056 10.0634 44.8944 9.732 45.7111 9.16862V15.4266C45.6444 15.421 45.5778 15.4155 45.5056 15.4155H33.5556C29.7833 15.4155 26.7167 18.4644 26.7167 22.2147C26.7167 25.9651 29.7833 29.014 33.5556 29.014H45.5167C45.5833 29.014 45.6556 29.0084 45.7222 29.0029V34.0292H45.7167ZM47.7722 24.5566C47.7722 25.7939 46.7611 26.7991 45.5167 26.7991H33.5556C31.0111 26.7991 28.9444 24.7444 28.9444 22.2147C28.9444 19.6851 31.0111 17.6304 33.5556 17.6304H45.5167C46.7611 17.6304 47.7722 18.6356 47.7722 19.8728V24.5566Z"/><path d="M33.8999 18.9393C32.0832 18.9393 30.6055 20.4085 30.6055 22.2147C30.6055 24.0208 32.0832 25.49 33.8999 25.49C35.7166 25.49 37.1944 24.0208 37.1944 22.2147C37.1944 20.4085 35.7166 18.9393 33.8999 18.9393ZM33.8999 23.8275C33.0055 23.8275 32.2777 23.1039 32.2777 22.2147C32.2777 21.3254 33.0055 20.6019 33.8999 20.6019C34.7944 20.6019 35.5221 21.3254 35.5221 22.2147C35.5221 23.1039 34.7944 23.8275 33.8999 23.8275Z"/></svg>