<svg width="19" height="20" viewBox="0 0 19 20" fill="none" xmlns="http://www.w3.org/2000/svg"><path d="M12.5059 6.33984H5.9375C6.19727 4.66992 6.64258 3.29688 7.23633 2.25781C7.83008 1.21875 8.46094 0.699219 9.20312 0.699219C9.9082 0.699219 10.5762 1.21875 11.1699 2.25781C11.7637 3.29688 12.209 4.66992 12.5059 6.33984ZM5.64062 9.90234C5.64062 9.12305 5.67773 8.34375 5.75195 7.52734H12.6543C12.7285 8.34375 12.7656 9.12305 12.7656 9.90234C12.7656 10.7188 12.7285 11.498 12.6543 12.2773H5.75195C5.67773 11.498 5.64062 10.7188 5.64062 9.90234ZM17.7012 6.33984H13.6934C13.3223 4.07617 12.6914 2.33203 11.8379 1.07031C13.1367 1.47852 14.2871 2.14648 15.3262 3.07422C16.3652 4.00195 17.1445 5.07812 17.7012 6.33984ZM6.56836 1.07031C5.67773 2.33203 5.04688 4.07617 4.71289 6.33984H0.705078C1.22461 5.07812 2.00391 4.00195 3.04297 3.07422C4.08203 2.14648 5.23242 1.47852 6.56836 1.07031ZM18.0723 7.52734C18.2949 8.34375 18.4062 9.12305 18.4062 9.90234C18.4062 10.7188 18.2949 11.498 18.0723 12.2773H13.8418C13.916 11.4609 13.9531 10.6816 13.9531 9.90234C13.9531 9.16016 13.916 8.34375 13.8418 7.52734H18.0723ZM4.45312 9.90234C4.45312 10.6445 4.49023 11.4609 4.56445 12.2773H0.333984C0.111328 11.4609 0 10.6816 0 9.90234C0 9.16016 0.111328 8.34375 0.333984 7.52734H4.56445C4.49023 8.34375 4.45312 9.16016 4.45312 9.90234ZM5.9375 13.4648H12.4688C12.1719 15.1719 11.7637 16.5078 11.1699 17.5469C10.5762 18.5859 9.9082 19.1055 9.20312 19.1055C8.46094 19.1055 7.83008 18.5859 7.23633 17.5469C6.64258 16.5078 6.19727 15.1719 5.9375 13.4648ZM11.8379 18.7344C12.7285 17.5098 13.3223 15.7656 13.6934 13.4648H17.7012C17.1445 14.7266 16.3652 15.8398 15.3262 16.7676C14.2871 17.6953 13.1367 18.3633 11.8379 18.7344ZM0.705078 13.4648H4.71289C5.08398 15.7656 5.67773 17.5098 6.56836 18.7344C5.23242 18.3633 4.08203 17.6953 3.04297 16.7676C2.00391 15.8398 1.22461 14.7266 0.705078 13.4648Z"/></svg>