<svg width="19" height="18" viewBox="0 0 19 18" fill="none" xmlns="http://www.w3.org/2000/svg"><path d="M3.5 4.87C3.5 4.43 3.7 4.03 4 3.76V1C4 0.45 4.45 0 5 0C5.55 0 6 0.45 6 1V3.76C6.3 4.03 6.5 4.43 6.5 4.87C6.5 5.7 5.83 6.37 5 6.37C4.17 6.37 3.5 5.7 3.5 4.87ZM14 6.37C14.83 6.37 15.5 5.7 15.5 4.87C15.5 4.43 15.3 4.03 15 3.76V1C15 0.45 14.55 0 14 0C13.45 0 13 0.45 13 1V3.76C12.7 4.03 12.5 4.43 12.5 4.87C12.5 5.7 13.17 6.37 14 6.37ZM8 4H11C11.55 4 12 3.55 12 3C12 2.45 11.55 2 11 2H8C7.45 2 7 2.45 7 3C7 3.55 7.45 4 8 4ZM19 3V17C19 17.55 18.55 18 18 18H1C0.45 18 0 17.55 0 17V3C0 2.45 0.45 2 1 2H2C2.55 2 3 2.45 3 3C3 3.55 2.55 4 2 4V6.88H17V4C16.45 4 16 3.55 16 3C16 2.45 16.45 2 17 2H18C18.55 2 19 2.45 19 3ZM17 16V8.88H2V16H17ZM5 9.79H4C3.45 9.79 3 10.24 3 10.79C3 11.34 3.45 11.79 4 11.79H5C5.55 11.79 6 11.34 6 10.79C6 10.24 5.55 9.79 5 9.79ZM15 9.79H14C13.45 9.79 13 10.24 13 10.79C13 11.34 13.45 11.79 14 11.79H15C15.55 11.79 16 11.34 16 10.79C16 10.24 15.55 9.79 15 9.79ZM10 9.79H9C8.45 9.79 8 10.24 8 10.79C8 11.34 8.45 11.79 9 11.79H10C10.55 11.79 11 11.34 11 10.79C11 10.24 10.55 9.79 10 9.79ZM5 12.79H4C3.45 12.79 3 13.24 3 13.79C3 14.34 3.45 14.79 4 14.79H5C5.55 14.79 6 14.34 6 13.79C6 13.24 5.55 12.79 5 12.79ZM15 12.79H14C13.45 12.79 13 13.24 13 13.79C13 14.34 13.45 14.79 14 14.79H15C15.55 14.79 16 14.34 16 13.79C16 13.24 15.55 12.79 15 12.79ZM10 12.79H9C8.45 12.79 8 13.24 8 13.79C8 14.34 8.45 14.79 9 14.79H10C10.55 14.79 11 14.34 11 13.79C11 13.24 10.55 12.79 10 12.79Z"/></svg>