<svg width="48" height="63" viewBox="0 0 48 63" fill="none" xmlns="http://www.w3.org/2000/svg"><path d="M13.8537 6.54419V4.88372H3.41463C2.92683 4.88372 2.43902 5.27442 2.43902 5.86047V59.5814C2.43902 60.0698 2.82927 60.5581 3.41463 60.5581H44.5854C45.0732 60.5581 45.561 60.1674 45.561 59.5814V5.86047C45.561 5.37209 45.1707 4.88372 44.5854 4.88372H34.1463V6.54419H43.9024V48.4465C40.3902 51.8651 36.8781 55.3814 33.4634 58.8977C23.7073 58.8977 13.9512 58.8977 4.19512 58.8977V6.54419H13.8537ZM13.8537 9.08372H6.63415V56.4558H30.7317V45.614H41.3659V9.08372H34.1463C34.1463 10.5488 33.1707 11.7209 31.7073 11.7209H16.3902C14.9268 11.6233 13.8537 10.4512 13.8537 9.08372ZM16.3902 0H31.7073C32.9756 0 34.0488 1.07442 34.1463 2.44186H44.5854C46.439 2.44186 48 4.00465 48 5.86047V59.5814C48 61.4372 46.439 63 44.5854 63H3.41463C1.56098 63 0 61.4372 0 59.5814V5.86047C0 4.00465 1.56098 2.44186 3.41463 2.44186H13.8537C13.9512 1.07442 15.0244 0 16.3902 0ZM31.6098 2.44186H16.3902V9.08372H31.7073V2.44186H31.6098ZM33.2683 48.0558V55.5767L40.7805 48.0558H33.2683Z" fill="#2AAC17"/><path d="M12.1037 14.9445H16.5915C17.5671 14.9445 18.4451 15.7259 18.4451 16.8003V21.2933C18.4451 22.27 17.6646 23.1491 16.5915 23.1491H12.1037C11.128 23.1491 10.25 22.3677 10.25 21.2933V16.8003C10.3476 15.8235 11.128 14.9445 12.1037 14.9445ZM15.9085 17.484H12.7866V20.6096H15.9085V17.484Z" fill="#2AAC17"/><path fill-rule="evenodd" clip-rule="evenodd" d="M21.1699 16.8975C21.1699 16.2137 21.7553 15.6277 22.4382 15.6277H35.3163C35.9992 15.6277 36.5846 16.2137 36.5846 16.8975C36.5846 17.5812 35.9992 18.1672 35.3163 18.1672H22.3407C21.6577 18.1672 21.1699 17.5812 21.1699 16.8975Z" fill="#2AAC17"/><path fill-rule="evenodd" clip-rule="evenodd" d="M21.1699 21.293C21.1699 20.6092 21.7553 20.0232 22.4382 20.0232H25.9504C26.6333 20.0232 27.2187 20.6092 27.2187 21.293C27.2187 21.9767 26.6333 22.5627 25.9504 22.5627H22.3407C21.6577 22.5627 21.1699 21.9767 21.1699 21.293Z" fill="#2AAC17"/><path fill-rule="evenodd" clip-rule="evenodd" d="M29.1629 20.0232C29.7483 20.0232 30.3337 20.5116 30.3337 21.1953C30.3337 21.7813 29.8458 22.3674 29.1629 22.3674C28.5776 22.3674 27.9922 21.879 27.9922 21.1953C27.9922 20.6092 28.48 20.0232 29.1629 20.0232Z" fill="#2AAC17"/><path d="M12.1037 25.7861H16.5915C17.5671 25.7861 18.4451 26.5675 18.4451 27.6419V32.135C18.4451 33.1117 17.6646 33.9908 16.5915 33.9908H12.1037C11.128 33.9908 10.25 33.2094 10.25 32.135V27.6419C10.3476 26.6652 11.128 25.7861 12.1037 25.7861ZM15.9085 28.3257H12.7866V31.4512H15.9085V28.3257Z" fill="#2AAC17"/><path fill-rule="evenodd" clip-rule="evenodd" d="M21.1699 27.7397C21.1699 27.056 21.7553 26.47 22.4382 26.47H35.3163C35.9992 26.47 36.5846 27.056 36.5846 27.7397C36.5846 28.4235 35.9992 29.0095 35.3163 29.0095H22.3407C21.6577 29.0095 21.1699 28.4235 21.1699 27.7397Z" fill="#2AAC17"/><path fill-rule="evenodd" clip-rule="evenodd" d="M21.1699 32.1346C21.1699 31.4509 21.7553 30.8649 22.4382 30.8649H25.9504C26.6333 30.8649 27.2187 31.4509 27.2187 32.1346C27.2187 32.8184 26.6333 33.4044 25.9504 33.4044H22.3407C21.6577 33.4044 21.1699 32.8184 21.1699 32.1346Z" fill="#2AAC17"/><path fill-rule="evenodd" clip-rule="evenodd" d="M29.1629 30.8649C29.7483 30.8649 30.3337 31.3532 30.3337 32.037C30.3337 32.623 29.8458 33.2091 29.1629 33.2091C28.5776 33.2091 27.9922 32.7207 27.9922 32.037C27.9922 31.3532 28.48 30.8649 29.1629 30.8649Z" fill="#2AAC17"/><path d="M12.1037 36.6279H16.5915C17.5671 36.6279 18.4451 37.4093 18.4451 38.4837V42.9768C18.4451 43.9535 17.6646 44.8326 16.5915 44.8326H12.1037C11.128 44.8326 10.25 44.0512 10.25 42.9768V38.4837C10.3476 37.507 11.128 36.6279 12.1037 36.6279ZM15.9085 39.0698H12.7866V42.1954H15.9085V39.0698Z" fill="#2AAC17"/><path fill-rule="evenodd" clip-rule="evenodd" d="M21.1699 38.5815C21.1699 37.8978 21.7553 37.3118 22.4382 37.3118H35.3163C35.9992 37.3118 36.5846 37.8978 36.5846 38.5815C36.5846 39.2653 35.9992 39.8513 35.3163 39.8513H22.3407C21.6577 39.8513 21.1699 39.2653 21.1699 38.5815Z" fill="#2AAC17"/><path fill-rule="evenodd" clip-rule="evenodd" d="M21.1699 42.9769C21.1699 42.2932 21.7553 41.7072 22.4382 41.7072H25.9504C26.6333 41.7072 27.2187 42.2932 27.2187 42.9769C27.2187 43.6606 26.6333 44.2467 25.9504 44.2467H22.3407C21.7553 44.2467 21.1699 43.6606 21.1699 42.9769Z" fill="#2AAC17"/><path fill-rule="evenodd" clip-rule="evenodd" d="M29.1629 41.7072C29.7483 41.7072 30.3337 42.1955 30.3337 42.8792C30.3337 43.563 29.7483 43.9537 29.1629 43.9537C28.5776 43.9537 27.9922 43.4653 27.9922 42.7816C27.9922 42.0979 28.48 41.7072 29.1629 41.7072Z" fill="#2AAC17"/></svg>