<svg width="20" height="25" viewBox="0 0 20 25" fill="none" xmlns="http://www.w3.org/2000/svg"><path d="M10 0.545654C4.47576 0.545654 0 5.18358 0 10.9031C0 16.6225 10 24.5457 10 24.5457C10 24.5457 20 16.6225 20 10.9031C20 5.18358 15.5212 0.545654 10 0.545654ZM10 16.1301C7.15455 16.1301 4.84848 13.7581 4.84848 10.8314C4.84848 7.90461 7.15455 5.53267 10 5.53267C12.8455 5.53267 15.1515 7.90461 15.1515 10.8314C15.1515 13.7581 12.8455 16.1301 10 16.1301Z" fill="#fff"/><path d="M7.84998 10.0246C7.67867 9.34965 7.83941 9.21748 7.99486 9.21856C8.03081 9.21856 8.0361 9.21856 8.06782 9.22723V9.21206C8.06782 9.21206 7.60676 7.6357 8.71605 6.94232C8.71605 6.94232 8.52147 6.78089 8.53628 6.54796C8.53628 6.54796 9.04492 6.60754 9.53135 6.60754C9.75237 6.60754 9.9702 6.59671 10.1331 6.56204C10.1986 6.55012 10.2642 6.54471 10.3297 6.54579C10.7876 6.55771 11.2254 6.92282 11.3026 7.27601C11.3026 7.27601 11.309 7.27492 11.3216 7.27492C11.4665 7.27492 12.3749 7.34535 11.9392 9.21856C11.9392 9.21856 11.9392 9.22073 11.9381 9.22614C11.9593 9.22181 11.9815 9.21856 12.0037 9.21856C12.1592 9.21639 12.322 9.34857 12.1496 10.0246C12.0122 10.5652 11.8853 10.7039 11.7912 10.7039C11.7594 10.7039 11.7319 10.6877 11.7087 10.6671C11.6421 11.0918 11.4686 11.6096 11.0382 11.9769C9.97549 12.8133 8.96561 11.9932 8.96561 11.9932C8.52465 11.6281 8.34593 11.108 8.2772 10.6779C8.25605 10.6942 8.23279 10.7039 8.20635 10.7039C8.11223 10.7017 7.9864 10.5609 7.84998 10.0246ZM13.9928 14.719C14.0235 14.2813 13.9875 13.3962 13.2388 13.2023C12.2364 12.9412 11.421 12.3529 11.421 12.3529L10.666 14.7992L10.5624 15.1307L10.224 14.1492C11.0721 12.9368 9.99981 12.9845 9.99981 12.9845C9.99981 12.9845 8.92754 12.9379 9.77563 14.1502L9.44041 15.1242L9.33572 14.7959L9.33361 14.8014L9.21411 14.4135L8.57858 12.3529C8.57858 12.3529 7.76327 12.9401 6.76079 13.2023C6.01316 13.3973 5.97721 14.2813 6.00682 14.719C6.00682 14.719 5.99836 15.3268 6.09353 15.5738C6.09353 15.5738 7.55389 16.5457 9.99981 16.5457L10.004 16.4893L10.003 16.5457C12.4489 16.5457 13.9093 15.5738 13.9093 15.5738C14.0044 15.3268 13.996 14.719 13.996 14.719H13.9928Z" fill="#fff"/></svg>