<svg width="20" height="25" viewBox="0 0 20 25" fill="none" xmlns="http://www.w3.org/2000/svg"><path d="M4.62496 8.89516C4.19668 7.27525 4.59852 6.95803 4.98714 6.96063C5.07702 6.96063 5.09024 6.96063 5.16955 6.98143V6.94503C5.16955 6.94503 4.01691 3.16176 6.79012 1.49765C6.79012 1.49765 6.30368 1.11022 6.3407 0.55118C6.3407 0.55118 7.6123 0.69419 8.82839 0.69419C9.38091 0.69419 9.92551 0.668188 10.3326 0.584982C10.4965 0.55638 10.6604 0.543379 10.8244 0.545979C11.9691 0.574581 13.0635 1.45084 13.2565 2.2985C13.2565 2.2985 13.2724 2.2959 13.3041 2.2959C13.6663 2.2959 15.9372 2.46491 14.848 6.96063C14.848 6.96063 14.848 6.96583 14.8454 6.97883C14.8982 6.96843 14.9538 6.96063 15.0093 6.96063C15.3979 6.95543 15.805 7.27265 15.3741 8.89516C15.0304 10.1927 14.7132 10.5255 14.4779 10.5255C14.3986 10.5255 14.3299 10.4865 14.2717 10.4371C14.1051 11.4563 13.6716 12.6992 12.5956 13.5807C9.93873 15.588 7.41403 13.6197 7.41403 13.6197C6.31162 12.7434 5.86484 11.4953 5.693 10.4631C5.64012 10.5021 5.58196 10.5255 5.51587 10.5255C5.28059 10.5203 4.96599 10.1823 4.62496 8.89516ZM19.982 20.1617C20.0587 19.1113 19.9688 16.9869 18.0971 16.5215C15.5909 15.8948 13.5526 14.483 13.5526 14.483L11.665 20.3542L11.406 21.1498L10.56 18.7941C12.6802 15.8844 9.99953 15.9989 9.99953 15.9989C9.99953 15.9989 7.31885 15.8871 9.43907 18.7967L8.60103 21.1342L8.33931 20.3464L8.33402 20.3594L8.03529 19.4285L6.44644 14.483C6.44644 14.483 4.40817 15.8923 1.90198 16.5215C0.0329055 16.9895 -0.0569791 19.1113 0.0170436 20.1617C0.0170436 20.1617 -0.00410577 21.6205 0.233824 22.2133C0.233824 22.2133 3.88473 24.5457 9.99953 24.5457L10.0101 24.4104L10.0075 24.5457C16.1223 24.5457 19.7732 22.2133 19.7732 22.2133C20.0111 21.6205 19.99 20.1617 19.99 20.1617H19.982Z" fill="#fff"/></svg>