<svg width="18" height="18" viewBox="0 0 18 18" fill="none" xmlns="http://www.w3.org/2000/svg"><path d="M7.49533 9.01844L7.96262 14.8279C7.98131 15.0307 8.14953 15.1967 8.35514 15.1967H9.66355C9.86916 15.1967 10.0374 15.0307 10.0561 14.8279L10.5047 9.01844L11.0093 8.42828C11.2523 8.15164 11.3832 7.78279 11.3832 7.41393V4.94262V4.27869C11.3832 4.13115 11.3271 4.00205 11.215 3.90984C10.5981 3.41189 9.94392 3.09836 9.81308 3.02459C9.79439 3.02459 9.79439 3.00615 9.79439 2.98771V2.58197C9.85047 2.45287 9.88785 2.32377 9.90654 2.21311C9.92523 2.21311 9.92523 2.23156 9.94392 2.23156C10 2.23156 10.0748 2.15779 10.1495 1.88115C10.2243 1.60451 10.1869 1.5123 10.1121 1.47541C10.3364 0.405738 9.81308 0.368852 9.81308 0.368852C9.81308 0.368852 9.75701 0.239754 9.5514 0.129098C9.43925 0.0553279 9.27103 0 9.06542 0C9.02804 0 8.99065 0 8.97196 0C8.8972 0 8.80374 0.0184426 8.74766 0.0368852C8.65421 0.0737705 8.56075 0.110656 8.48598 0.165984C8.39252 0.221311 8.29906 0.295082 8.2243 0.387295C8.09346 0.516393 7.98131 0.682377 7.92523 0.885246C7.88785 1.05123 7.88785 1.23566 7.96262 1.43852H7.94392C7.85047 1.43852 7.75701 1.5123 7.86916 1.84426C7.94392 2.10246 8.01869 2.17623 8.07477 2.19467C8.09346 2.34221 8.14953 2.5082 8.24299 2.67418V3.02459C8.24299 3.04303 8.24299 3.06148 8.2243 3.06148C8.09346 3.1168 7.43925 3.44877 6.82243 3.94672C6.71028 4.03893 6.6542 4.16803 6.6542 4.31557V4.94262V7.41393C6.6542 7.78279 6.78505 8.1332 7.02804 8.42828L7.49533 9.01844ZM9.00935 3.39344C9.1028 3.39344 9.62617 3.43033 9.14019 4.09426L9.38318 6.12295L9.00935 6.52869L8.63551 6.12295L8.8785 4.09426C8.39252 3.43033 8.91589 3.39344 9.00935 3.39344ZM18 15.7684V16.6168C18 17.373 17.3832 18 16.5981 18H15.271H2.72897H1.40187C0.635514 18 0 17.3914 0 16.6168V15.7684H1.1215H1.17757V7.04508C1.17757 6.36271 1.73832 5.79098 2.4486 5.79098H4.03738H5.71963V7.4877H4.03738H2.8972V15.7684H7.3271V15.8607C7.3271 16.1189 7.53271 16.3402 7.81308 16.3402H10.2243C10.486 16.3402 10.7103 16.1373 10.7103 15.8607V15.7684H15.1215V7.4877H14.3925H12.2991V5.79098H14.3925H15.5701C16.2617 5.79098 16.8411 6.34426 16.8411 7.04508V15.7869H16.8972H18V15.7684Z"/></svg>