<svg width="27" height="19" viewBox="0 0 27 19" fill="none" xmlns="http://www.w3.org/2000/svg"><path d="M26.293 3.17969C26.4883 4.05859 26.6836 5.42578 26.7812 7.18359L26.8301 9.625L26.7812 12.0664C26.6836 13.9219 26.4883 15.2402 26.293 16.1191C26.0977 16.7051 25.8047 17.1934 25.4141 17.584C24.9746 18.0234 24.4863 18.3164 23.9004 18.4629C23.0215 18.707 21.0684 18.8535 17.9434 18.9512L13.5 19L9.05664 18.9512C5.93164 18.8535 3.92969 18.707 3.09961 18.4629C2.51367 18.3164 1.97656 18.0234 1.58594 17.584C1.14648 17.1934 0.853516 16.7051 0.707031 16.1191C0.462891 15.2402 0.316406 13.9219 0.21875 12.0664L0.169922 9.625C0.169922 8.94141 0.169922 8.11133 0.21875 7.18359C0.316406 5.42578 0.462891 4.05859 0.707031 3.17969C0.853516 2.59375 1.14648 2.10547 1.58594 1.66602C1.97656 1.27539 2.51367 0.982422 3.09961 0.787109C3.92969 0.591797 5.93164 0.396484 9.05664 0.298828L13.5 0.25L17.9434 0.298828C21.0684 0.396484 23.0215 0.591797 23.9004 0.787109C24.4863 0.982422 24.9746 1.27539 25.4141 1.66602C25.8047 2.10547 26.0977 2.59375 26.293 3.17969ZM10.7656 13.6289L17.748 9.625L10.7656 5.66992V13.6289Z"/></svg>