<svg version="1.1" id="Слой_1" xmlns="http://www.w3.org/2000/svg" x="0" y="0" viewBox="0 0 308.9 221" xml:space="preserve"><style>.st0{fill:#d7e7c1}</style><path class="st0" d="M273.6,118.5c-0.2,0.7,0.3,1,0.7,1.4c1.1,0.8,2.1,1.5,3.2,2.2c-0.5,1.4-1,2.7-1.4,4c-0.2,0.6-0.6,1.3,0.2,1.8	c0.7,0.5,1.5,0.2,2-0.3c2.3-2.4,4.8-2.9,7.8-1.4c1.4,0.7,1.9-0.1,1.5-1.7c-0.3-1.3-1.1-2.5-1.8-3.8c1-0.5,1.9-0.9,2.8-1.4	c0.6-0.3,1.3-0.6,1-1.5c-0.2-0.7-0.9-0.7-1.5-0.8c-1.4-0.1-2.9-0.2-4.4-0.3c-0.3-1.5-0.4-3-1.2-4.3c-0.3-0.1-0.6-0.1-0.9-0.2	c-1.3,1.4-1.7,3.2-2.2,5c-1.6,0.2-3.2,0.3-4.7,0.5C274.3,117.9,273.8,117.9,273.6,118.5z M281.5,114.4c0.8,1,0.9,1.8,1,2.5	c0.2,1.3,0.9,1.7,2.1,1.6c0.8-0.1,1.7,0,2.9-0.1c-1,0.4-1.6,0.7-2.2,1c-1.7,0.8-1.9,1.3-0.7,2.9c0.6,0.8,1.3,1.6,1.7,2.6	c-1.6,0.2-2.9-1-4.4-0.9c-1.6,0.1-2.5,1.7-4.4,2.1c2.3-3.1,1.6-5.4-1.8-7C279,119,281.2,118.1,281.5,114.4z"/><path class="st0" d="M288.2,135.6c-0.8-0.3-1.7-0.6-2.5-0.9c0.1-0.9,0.3-1.8,0-2.7c-0.2-0.1-0.3-0.2-0.5-0.3c-1,0.6-1.6,1.6-2.1,2.6	c-1-0.2-1.9-0.3-2.9-0.5c-0.3,0-0.6-0.1-0.8,0.2c-0.2,0.4,0,0.7,0.2,0.9c0.5,0.6,1,1.3,1.5,1.9c-0.5,0.8-1,1.4-1.5,2.2	c-0.2,0.3-0.6,0.7-0.2,1.1c0.3,0.4,0.8,0.4,1.2,0.1c1.8-1,3.3-0.9,4.9,0.5c0.7,0.6,1.1,0.3,1.2-0.7c0-0.9-0.2-1.7-0.4-2.5	c0.7-0.1,1.3-0.2,1.9-0.4c0.4-0.1,0.9-0.2,0.9-0.7C289,135.9,288.6,135.8,288.2,135.6z M286.2,136.5c-1.1,0.2-1.3,0.5-0.9,1.6	c0.2,0.6,0.5,1.2,0.6,1.9c-1-0.1-1.5-1.1-2.4-1.3c-1-0.2-1.8,0.6-3,0.5c1.9-1.5,1.9-2.9,0.1-4.4c1.9,0.5,3.4,0.3,4.2-1.8	c0.3,0.7,0.2,1.2,0.2,1.6c-0.1,0.8,0.2,1.2,1,1.3c0.5,0.1,1,0.3,1.8,0.5C287,136.4,286.6,136.4,286.2,136.5z"/><path class="st0" d="M266.7,159.3c-0.6-0.6-1.2-1.3-1.9-1.8c-0.8-0.6-1.3-2-2.4-1.4c-1.1,0.6-0.4,1.9-0.3,2.8c1.1,6,2.6,12,5.1,17.6	c-2,1.2-3.8,2.5-5.1,4.3c-1,1.3-1.8,2.8-1,4.5c0.7,1.6,2.4,1.7,3.9,2c0.4,0.1,0.8,0,1.2-0.1c2.5-0.4,4.9-1.2,7.2-2.3	c0.4-0.2,0.8-0.6,1.4-0.2c2.9,1.8,6.3,2.3,9.4,3.4c3.2,1,6.4,2.1,9.7,3.2c-0.5,0.8-0.9,1.5-1.3,2.2c-2.3,4.1-4.5,8.3-5.4,13.1	c-1.1,6.1,3.7,11.7,9.5,11.2c2.5-0.2,4.7-1.2,6.8-2.5c1.9-1.1,3.7-2.2,5.4-3.5v-1.7c-1.9,1.5-3.9,2.8-6,4.1c-1.6,1-3.3,1.6-5,2.1	c-5.7,1.8-9.9-4.5-9.2-8.6c0.5-2.9,1.6-5.6,2.9-8.2c3.5-6.7,7-13.4,13-18.3c1.5-1.2,2.8-2.1,4.3-2.6v-1.8c-1.9,0.6-3.7,1.5-5.3,2.9	c-3.6,3-6.7,6.4-9,10.4c-2.7-0.6-17.7-5.7-18.8-6.5c1.6-1,3.1-2,4.3-3.4c1.1-1.3,2.1-2.6,1.2-4.4c-0.8-1.7-2.4-2-3.9-2.2	c-2.9-0.4-5.5,0.6-8.1,1.7c-0.4,0.2-0.8,0.4-1.4,0.6c-0.5-3-2-5.6-2.6-8.4c-0.6-2.8-1.2-5.6-1.8-8.8c1.5,1.3,2.8,2.3,4,3.4	c2.4,2.2,5.2,2.5,8.3,2.1c11.1-1.5,22-4,33-6.3v-2c-10.3,2.1-20.5,4.8-30.9,6.5C273.5,163.3,269.8,162.7,266.7,159.3z M276.3,174.7	c1.8,0.2,3.5-0.1,4.2,1.7c0.7,1.8-0.6,2.9-1.8,3.9c-3.9,3-8.3,5.1-13.3,5.7c-1.3,0.1-2.8,0.2-3.4-1.2c-0.6-1.3,0.4-2.5,1.2-3.4	C267,177.5,271.4,175.3,276.3,174.7z"/><path class="st0" d="M242,181c-1.3-1.1-2.6-2.3-3.9-3.4c-1-0.8-1.3-1.8-1.3-3.1c0-3.2,0.3-6.4-0.3-9.6c-1-5-3.3-9-8.8-10.1	c-0.6-0.1-1.3-0.2-1.9-0.4c-6.1-1.6-12.6-1.4-18.6-3.9c-0.3-0.1-0.7-0.2-1,0.1c-0.4,0.4-0.1,0.8,0.1,1.1c0.6,1.1,0.9,2.2,1.2,3.4	c0.8,3.3,0.6,6.8,0.8,10.2c0.5,8.5,7.9,15.5,16.4,15.1c3.5-0.2,7.1-0.3,10.5-1.8c1.2-0.5,2.1-0.2,3.1,0.6c1.1,1.1,2.3,2,3.6,2.8	c0.4,0.2,0.8,0.8,1.4,0.3C243,181.7,242.5,181.4,242,181z M233.5,160.4c2.6,5.1,2,10.2,2.1,15.4c-2-1.4-3.5-3-5.1-4.6	c-0.3-0.2-0.3-0.6-0.1-0.8C231.9,167.3,232.6,163.9,233.5,160.4z M230.7,157.3c1.8,1.1,2.4,1.1,1.8,3.6c-0.7,2.9-1.3,5.8-2.8,8.7	c-1.6-5.5-3.8-10.4-7.7-14.7C225.2,155.6,228.2,155.7,230.7,157.3z M219.6,154.4c0.8,0.1,1.4,0.8,1.9,1.4c3.5,3.9,5.6,8.5,7.1,13.5	c-5.1-6.1-10.6-11.7-17.5-16C214,153.9,216.8,154.1,219.6,154.4z M207.9,152.5c5.6,3.5,10.8,6.9,14.8,11.9c-0.8,0.1-1.2-0.3-1.6-0.6	c-3.3-1.9-6.9-3.1-10.6-4c-0.8-0.2-1.3-0.5-1.3-1.5C209,156.6,208.6,154.7,207.9,152.5z M210.5,168.8c-1-2.6-1.1-5.4-1.2-8.3	c9,1.6,16.3,5.8,21.8,13c-2.5-0.7-5.1-1.5-7.8-1.8c-3-0.3-6.1-0.6-9.1-0.6C211.6,171.2,211.4,171,210.5,168.8z M228.5,178.5	c-3.3,0.2-6.7,0.6-9.9-0.8c-2.6-1.2-4.6-2.9-6.3-5.6c8,1.1,16.2-0.2,23.4,4.9C233.1,177.8,230.8,178.3,228.5,178.5z"/><path class="st0" d="M266.2,127.5c-4.2,1-8.4,1.2-12.7,1.2c-2,0-4.1,0.2-6.1,0.6c-8.6,1.9-13.1,8.8-11.5,17.4	c0.6,3.5,2.8,6.5,2.6,10.4c1.1-0.5,1.2-1.2,1.2-1.9c-0.1-1.3,0.6-1.8,1.7-2.1c1.8-0.4,3.5-0.3,5.3-0.1c2.5,0.4,5,0.7,7.5,0.4	c4.2-0.6,6.6-3.6,8.3-7.1c2.6-5.5,3.8-11.4,5.3-17.2C268.1,127.8,267.5,127.2,266.2,127.5z M254.5,130.6c0.2-0.3,0.5-0.4,0.8-0.4	c3.2,0.1,6.4-0.3,9.6-0.9c-3.7,2.5-8.1,3.6-12.2,5.7C252.9,133.2,253.7,131.9,254.5,130.6z M241.3,134.7c0.1-0.9,0.6-1.6,1.4-2	c2.7-1.5,7.5-2.6,10.7-2.3c-0.7,1.7-1.7,3.1-1.8,4.8c0,0.4-0.4,0.5-0.8,0.7c-1.7,0.8-3.4,1.7-4.9,2.8c-1.5,1.1-2.9,2.4-4.3,4.1	C241.2,139.9,241,137.3,241.3,134.7z M238.5,150.1c-2.5-3.6-2.1-12.2,1.4-14.9c0,2.8,0.1,5.6,0.9,8.3c0.1,0.2-0.1,0.5-0.2,0.7	C239.6,146,239,148,238.5,150.1z M258.3,149.6c-1.5,1.5-3.2,2.3-5.3,2.3c-2.2,0-4.4,0-6.5-0.4c-2.4-0.4-4.6-0.2-7,0.9	c0.5-3.9,1.6-7.3,4.3-10.2c0.4-0.4,0.7-0.8,1.4-0.8c5.6,0,11,1.3,16.4,2.8C260.8,146.4,259.7,148.2,258.3,149.6z M261.9,143.4	c-5.2-1.5-10.3-2.9-16.2-2.9c3.4-3,7-4.6,10.6-5.8c2.5-0.8,5.2,0.5,7.8,1.6C263.6,138.7,262.9,141,261.9,143.4z M264.4,135.4	c-2-0.7-3.8-1.4-6.2-1.7c2.9-1.2,5.3-2.4,7.9-3.9C265.4,131.8,264.9,133.6,264.4,135.4z"/><path class="st0" d="M306.1,127.1c-4-0.7-7.5,0.4-10.4,3.2c-3.7,3.5-3.7,5.7-1.6,9.3c-1.3,0.3-2.5,0.6-3.4,1.4	c-0.9,0.7-1.6,1.5-1.3,2.7c0.3,1.3,1.3,1.9,2.4,2c1.2,0.2,2.4,0.2,3.7,0.2c2.9-0.1,5.8-0.6,8.7-0.9c1.6-0.1,3.2-0.2,4.9-0.3v-1.6	c-4.9,0.2-9.7,0.6-14.6,1c-0.9,0.1-1.7,0.2-2.6-0.2c-0.9-0.4-1-0.9-0.4-1.6c0.8-0.9,2-1.3,3.1-1.5s1.3-0.7,0.9-1.6	c-0.8-1.7-1.8-3.4-0.6-5.3c1.6-2.7,3.8-4.5,6.8-5.3c1.3-0.4,2.7-0.6,3.9-0.2c1.4,0.4,2.5,0.2,3.4-0.5v-2.2c-0.1,0.1-0.1,0.2-0.2,0.2	C308,127,307.4,127.4,306.1,127.1z"/><path class="st0" d="M273.1,199.1c-2,0.3-4,0.7-6,1.1c-1.2-2.4-2.5-4.8-4.7-6.8c-1.3,1.9-1.7,3.9-1.9,5.8c-0.1,1.1-0.5,1.3-1.5,1.4	c-2,0.1-4.1-0.2-6.1,0.3c-1.4,0.4-1.7,1-0.7,2.1c1.2,1.4,2.6,2.4,4,3.5c0.6,0.4,0.8,0.8,0.7,1.6c-0.3,2-0.8,4-0.7,6	c0,1-0.4,2.4,0.9,2.8c1.2,0.4,1.9-0.8,2.5-1.6c1.5-1.7,2.8-3.5,4.2-5.2c2.4,1.3,4.4,2.9,6.8,4c0.5,0.2,1,0.5,1.4,0.1	c0.5-0.4,0.3-1,0.1-1.6c-0.7-1.9-1.3-3.8-2.1-5.7c-0.3-0.8-0.2-1.3,0.3-1.9c1.2-1.3,2.5-2.6,3.7-3.9c0.4-0.4,0.9-1,0.6-1.6	C274.4,198.8,273.6,199,273.1,199.1z M269.6,203.8c-1.2,1.1-1.5,2.3-0.7,3.8c0.9,1.6,1.5,3.4,2,5.2c-1.8-1.1-3.7-2.2-5.5-3.5	c-1.1-0.8-1.9-0.7-2.8,0.3c-1.2,1.4-2.5,2.8-3.7,4.3c-0.4,0.4-0.6,0.9-1.3,1.2c-0.2-2.4,0.4-4.7,0.7-7c0.2-1.2-0.2-1.9-1.1-2.5	c-1.5-1-3-2.1-4.3-3.5c0.5-0.6,1.2-0.3,1.7-0.4c0.5-0.1,1,0,1.5,0c5.9-0.4,4.8,0,6-4.9c0-0.2,0.1-0.4,0.3-0.8c1,1.4,1.9,2.6,2.6,3.9	c0.7,1.3,1.5,1.7,2.9,1.3c1.5-0.5,3-0.7,5-1.2C271.8,201.6,270.7,202.8,269.6,203.8z"/><path class="st0" d="M250.2,189.6c-0.7,0.4-1.4,1-2,1.6c-0.5-0.7-0.9-1.5-1.4-2.2c-0.4-0.6-1-1.1-1.8-0.9c-0.8,0.2-1.2,0.9-1.3,1.7	c-0.3,2.6,0.1,5.1,1.2,7.5c0.6,1.3,1.5,1.5,2.5,0.5c1.5-1.5,2.9-3,3.9-4.9c0.4-0.7,0.7-1.4,0.8-2.1	C252.1,189.6,251.3,189,250.2,189.6z"/><path class="st0" d="M276.2,150.9c-0.4-0.5-1-0.7-1.7-0.5c-0.7,0.2-0.9,0.7-1,1.4c0,0.4,0,0.8,0,1.4c-1.2-0.6-2-1.2-3.1-1.4	c-0.8-0.1-1.6-0.3-2,0.6c-0.4,0.8,0.1,1.5,0.8,2c2.3,1.6,4.9,2.5,7.6,3c1.4,0.3,2.1-0.5,1.8-2C278.3,153.7,277.3,152.3,276.2,150.9z"/><path class="st0" d="M300.8,121.3c1.4,0.9,2.6,0.2,3.6-0.7c2.1-1.9,2.5-4.7,3.1-7.3c0.1-0.2,0-0.5-0.5-0.8c-2.7,0.8-5.4,1.9-6.8,4.8	C299.4,118.8,299.7,120.6,300.8,121.3z M301.9,117.1c1.1-1.4,2.5-2.4,4.3-3.1c-0.5,1.9-0.8,3.5-1.7,5c-0.8,1.3-2.3,2-3,1.5	C300.7,119.9,300.9,118.3,301.9,117.1z"/><path class="st0" d="M291.4,156.6c1.4,0.9,2.6,0.2,3.6-0.7c2.1-1.9,2.5-4.7,3.1-7.3c0.1-0.2,0-0.5-0.5-0.8c-2.7,0.8-5.4,1.9-6.8,4.8	C290,154.1,290.3,155.9,291.4,156.6z M292.5,152.4c1.1-1.4,2.5-2.4,4.3-3.1c-0.5,1.9-0.8,3.5-1.7,5c-0.8,1.3-2.3,2-3,1.5	C291.4,155.2,291.5,153.6,292.5,152.4z"/><path class="st0" d="M255.9,177.9c1-0.1,1.7-0.6,1.7-1.6s-0.7-1.6-1.7-1.6c-0.9,0-1.5,0.6-1.5,1.5	C254.3,177.2,255,177.7,255.9,177.9z"/><path class="st0" d="M274.1,146.7c0-0.8-0.6-1.2-1.5-1.2c-0.8,0.1-1.3,0.5-1.4,1.4c0,0.9,0.6,1.3,1.3,1.3	C273.4,148.2,274.1,147.7,274.1,146.7z"/><path class="st0" d="M255.9,169.5c0-0.8-0.4-1.2-1.2-1.3c-0.8,0.1-1.1,0.6-1.1,1.4c0,0.7,0.5,1.1,1.2,1.1	C255.5,170.6,255.9,170.2,255.9,169.5z"/><path class="st0" d="M294.3,174c2.4,0.1,4.5-1.7,4.5-3.8c0-2.5-1.8-4.1-4.6-4.2c-2.5,0-4.5,1.8-4.5,4	C289.6,172.1,291.7,173.9,294.3,174z M294.6,166.6c1.2,0,2.9,2.1,2.9,3.5c0,1.4-1.2,2.6-2.8,2.6c-1.7,0-3.6-1.4-3.6-2.9	C291.1,168.4,293,166.6,294.6,166.6z"/><path class="st0" d="M303.6,167.6c0,2.2,1.7,3.8,4,3.9c0.5,0,0.9-0.1,1.4-0.2v-1.2c-0.3,0.1-0.6,0.1-1,0.1c-1.6,0-2.9-1.3-2.9-2.8	c0.1-1.5,1.7-2.8,3.3-2.7c0.2,0,0.4,0.1,0.5,0.1v-1c-0.3-0.1-0.7-0.1-1.1-0.1C305.4,163.9,303.6,165.4,303.6,167.6z"/><path class="st0" d="M247.9,149.4c0.6-0.2,1.3-0.4,1.5-1.2c-0.1-0.5-0.4-0.8-0.9-0.9c-0.9-0.2-1.6,0.2-2.1,1c-0.2,0.4-0.4,0.9,0,1.2	C247,150,247.5,149.6,247.9,149.4z"/><path class="st0" d="M305.7,134.1c-0.6,0-1.1,0.2-1.2,0.9c-0.1,0.5,0.2,0.9,0.8,1c0.6-0.1,1-0.4,1.1-1	C306.5,134.5,306.2,134.2,305.7,134.1z"/><path class="st0" d="M135.2,172.9c-0.2-0.7-0.9-0.7-1.5-0.8c-1.4-0.1-2.9-0.2-4.4-0.3c-0.3-1.5-0.4-3-1.2-4.3	c-0.3-0.1-0.6-0.1-0.9-0.2c-1.3,1.4-1.7,3.2-2.2,5c-1.6,0.2-3.2,0.3-4.7,0.5c-0.5,0.1-1,0.1-1.2,0.8c-0.2,0.7,0.3,1,0.7,1.4	c1.1,0.8,2.1,1.5,3.2,2.2c-0.5,1.4-1,2.7-1.4,4c-0.2,0.6-0.6,1.3,0.2,1.8c0.7,0.5,1.5,0.2,2-0.3c2.3-2.4,4.8-2.9,7.8-1.4	c1.4,0.7,1.9-0.1,1.5-1.7c-0.3-1.3-1.1-2.5-1.8-3.8c1-0.5,1.9-0.9,2.8-1.4C134.7,174.1,135.4,173.7,135.2,172.9z M130.9,174.4	c-1.7,0.8-1.9,1.3-0.7,2.9c0.6,0.8,1.3,1.6,1.7,2.6c-1.6,0.2-2.9-1-4.4-0.9c-1.6,0.1-2.5,1.7-4.4,2.1c2.3-3.1,1.6-5.4-1.8-7	c3.2-0.1,5.4-1.1,5.7-4.7c0.8,1,0.9,1.8,1,2.5c0.2,1.3,0.9,1.7,2.1,1.6c0.8-0.1,1.7,0,2.9-0.1C132.1,173.8,131.5,174.1,130.9,174.4z"/><path class="st0" d="M133.7,190.6c-0.8-0.3-1.7-0.6-2.5-0.9c0.1-0.9,0.3-1.8,0-2.7c-0.2-0.1-0.3-0.2-0.5-0.3c-1,0.6-1.6,1.6-2.1,2.6	c-1-0.2-1.9-0.3-2.9-0.5c-0.3,0-0.6-0.1-0.8,0.2c-0.2,0.4,0,0.7,0.2,0.9c0.5,0.6,1,1.3,1.5,1.9c-0.5,0.8-1,1.4-1.5,2.2	c-0.2,0.3-0.6,0.7-0.2,1.1c0.3,0.4,0.8,0.4,1.2,0.1c1.8-1,3.3-0.9,4.9,0.5c0.7,0.6,1.1,0.3,1.2-0.7c0-0.9-0.2-1.7-0.4-2.5	c0.7-0.1,1.3-0.2,1.9-0.4c0.4-0.1,0.9-0.2,0.9-0.7C134.5,190.9,134.1,190.8,133.7,190.6z M131.7,191.5c-1.1,0.2-1.3,0.5-0.9,1.6	c0.2,0.6,0.5,1.2,0.6,1.9c-1-0.1-1.5-1.1-2.4-1.3c-1-0.2-1.8,0.6-3,0.5c1.9-1.5,1.9-2.9,0.1-4.4c1.9,0.5,3.4,0.3,4.2-1.8	c0.3,0.7,0.2,1.2,0.2,1.6c-0.1,0.8,0.2,1.2,1,1.3c0.5,0.1,1,0.3,1.8,0.5C132.5,191.4,132.1,191.4,131.7,191.5z"/><path class="st0" d="M197.2,215.9c-6.2-5.1-13.5-6.9-21.3-7.1c-6.8-0.1-13.6,0.7-20.2,2c-10.7,2.2-21.3,5-32.1,6.8	c-4.5,0.7-8.3,0.1-11.4-3.3c-0.6-0.6-1.2-1.3-1.9-1.8c-0.8-0.6-1.3-2-2.4-1.4c-1.1,0.6-0.4,1.9-0.3,2.8c0.4,2.1,0.8,4.1,1.3,6.1h1.6	c-0.4-2-0.8-4.1-1.3-6.2c1.5,1.3,2.8,2.3,4,3.4c2.4,2.2,5.2,2.5,8.3,2.1c11.3-1.5,22.3-4.1,33.4-6.4c7.1-1.5,14.4-2.4,21.7-2.3	c6.8,0.1,13.1,1.8,18.6,6c0.4,0.3,1,0.5,1.2,1.4c-2.5-0.4-4.9-0.2-7.4-0.1c-3,0.2-6,0.7-8.8,1.7c-0.4,0.1-0.8,0.3-1.2,0.5h5.1	c4.4-0.9,8.9-1,13.3-0.9c0.7,0,1.1,0.4,1.5,0.9h2.3C200.1,218.6,198.7,217.1,197.2,215.9z"/><path class="st0" d="M73.2,209.8c-0.6-0.1-1.3-0.2-1.9-0.4c-6.1-1.6-12.6-1.4-18.6-3.9c-0.3-0.1-0.7-0.2-1,0.1	c-0.4,0.4-0.1,0.8,0.1,1.1c0.6,1.1,0.9,2.2,1.2,3.4c0.8,3.3,0.6,6.6,0.8,9.9h1.3c-0.2-1.5-0.3-3-0.4-4.6c4.6,0.8,8.8,2.3,12.4,4.6	h3.3c-4.1-4.5-8.6-8.5-13.8-11.8c2.8,0.5,5.6,0.8,8.4,1.1c0.8,0.1,1.4,0.8,1.9,1.4c2.5,2.8,4.2,5.9,5.6,9.3h1	c-1.5-3.7-3.4-7.1-6.2-10.2c3.2,0.7,6.2,0.8,8.8,2.4c1.8,1.1,2.4,1.1,1.8,3.6c-0.3,1.4-0.7,2.8-1.1,4.2h0.8c0.4-1.5,0.8-3.1,1.2-4.7	c0.8,1.6,1.3,3.1,1.6,4.7H82c0-0.1,0-0.1,0-0.2C81,214.9,78.7,210.9,73.2,209.8z M68.2,219.4c-0.8,0.1-1.2-0.3-1.6-0.6	c-3.3-1.9-6.9-3.1-10.6-4c-0.8-0.2-1.3-0.5-1.3-1.5c-0.2-1.9-0.6-3.7-1.2-5.9C59,211,64.2,214.4,68.2,219.4z"/><path class="st0" d="M111.7,182.5c-4.2,1-8.4,1.2-12.7,1.2c-2,0-4.1,0.2-6.1,0.6c-8.6,1.9-13.1,8.8-11.5,17.4	c0.6,3.5,2.8,6.5,2.6,10.4c1.1-0.5,1.2-1.2,1.2-1.9c-0.1-1.3,0.6-1.8,1.7-2.1c1.8-0.4,3.5-0.3,5.3-0.1c2.5,0.4,5,0.7,7.5,0.4	c4.2-0.6,6.6-3.6,8.3-7.1c2.6-5.5,3.8-11.4,5.3-17.2C113.6,182.8,113,182.2,111.7,182.5z M100,185.6c0.2-0.3,0.5-0.4,0.8-0.4	c3.2,0.1,6.4-0.3,9.6-0.9c-3.7,2.5-8.1,3.6-12.2,5.7C98.4,188.2,99.2,186.9,100,185.6z M86.8,189.7c0.1-0.9,0.6-1.6,1.4-2	c2.7-1.5,7.5-2.6,10.7-2.3c-0.7,1.7-1.7,3.1-1.8,4.8c0,0.4-0.4,0.5-0.8,0.7c-1.7,0.8-3.4,1.7-4.9,2.8c-1.5,1.1-2.9,2.4-4.3,4.1	C86.7,194.9,86.5,192.3,86.8,189.7z M84,205.1c-2.5-3.6-2.1-12.2,1.4-14.9c0,2.8,0.1,5.6,0.9,8.3c0.1,0.2-0.1,0.5-0.2,0.7	C85.1,201,84.5,203,84,205.1z M103.8,204.6c-1.5,1.5-3.2,2.3-5.3,2.3c-2.2,0-4.4,0-6.5-0.4c-2.4-0.4-4.6-0.2-7,0.9	c0.5-3.9,1.6-7.3,4.3-10.2c0.4-0.4,0.7-0.8,1.4-0.8c5.6,0,11,1.3,16.4,2.8C106.3,201.4,105.2,203.2,103.8,204.6z M107.4,198.4	c-5.2-1.5-10.3-2.9-16.2-2.9c3.4-3,7-4.6,10.6-5.8c2.5-0.8,5.2,0.5,7.8,1.6C109.1,193.7,108.4,196,107.4,198.4z M109.9,190.4	c-2-0.7-3.8-1.4-6.2-1.7c2.9-1.2,5.3-2.4,7.9-3.9C110.9,186.8,110.4,188.6,109.9,190.4z"/><path class="st0" d="M179.6,186.4c-0.8-3.8-2.2-6.1-5.2-8.5c-6.5-4.9-15.3-3.7-20.1,3c-0.8,1-1.4,1.4-2.7,1.2	c-4-0.7-7.5,0.4-10.4,3.2c-3.7,3.5-3.7,5.7-1.6,9.3c-1.3,0.3-2.5,0.6-3.4,1.4c-0.9,0.7-1.6,1.5-1.3,2.7c0.3,1.3,1.3,1.9,2.4,2	c1.2,0.2,2.4,0.2,3.7,0.2c2.9-0.1,5.8-0.6,8.7-0.9c5.8-0.5,11.7-0.5,17.6-0.4c5.1,0.2,10.3,0.2,15.4,0.2c2.5,0,4.1-1.3,4.8-3.6	C188.8,191,185.3,186.5,179.6,186.4z M180.7,198.9c-7-0.4-13.9-0.9-20.9-0.9c-6.6,0-13.2,0.6-19.8,1.1c-0.9,0.1-1.7,0.2-2.6-0.2	c-0.9-0.4-1-0.9-0.4-1.6c0.8-0.9,2-1.3,3.1-1.5c1.1-0.2,1.3-0.7,0.9-1.6c-0.8-1.7-1.8-3.4-0.6-5.3c1.6-2.7,3.8-4.5,6.8-5.3	c1.3-0.4,2.7-0.6,3.9-0.2c2.1,0.6,3.3-0.1,4.6-1.8c5.5-7,15.1-6.8,20.5,0.3c1.1,1.5,1.7,3.1,1.9,4.9c0.1,0.9,0.4,1.3,1.5,1.2	c3.8-0.4,6.7,2.2,6.6,6.1C186.2,197.6,184.4,199.1,180.7,198.9z"/><path class="st0" d="M236.8,199.9c-0.5-0.2-1.1-0.1-1.5-0.5c-0.5-4.5-4.1-7.1-8.3-6c-2.2-3.5-5.4-4.8-9.3-4c-4.8,1-7.3,4.5-8.6,9	c-4.9-1.9-8.6,0.1-9.1,5c-1.4,0.2-2.8,0.3-3.9,1.4c-1,1-0.8,2.1,0.3,2.8c0.5,0.3,1.1,0.5,1.6,0.6c1.7,0.4,3.5,0.4,5.2,0.4	c6.9,0,13.8-0.4,20.6-0.1c3.6,0.1,7.3,0.4,10.9,0c2-0.3,4-0.5,4.9-2.7C240.7,203.6,239.2,200.8,236.8,199.9z M237.2,206.7	c-1.3,0.5-2.6,0.7-4,0.7c-4.4,0-8.7-0.1-13.1-0.2c-5.5-0.2-11,0.4-16.5,0.2c-1.8,0-3.6-0.1-5.4-0.5c-0.6-0.1-1.2-0.2-1.6-0.9	c0.9-1.2,2.1-1.6,3.5-1.4c0.9,0.1,1.3-0.2,1.1-1.1c-0.4-1.7,0.2-2.9,1.5-3.8c1.6-1,3.2-1.6,5.1-0.7c0.2,0.1,0.5,0.3,0.7,0.4	c0.9,0.6,1.4,0.4,1.6-0.7c0.5-2.8,2.3-4.8,4.4-6.6c3.9-3.3,10.2-1.4,11.7,2.5c0,0.1,0.2,0.2,0.3,0.4c3.3-2.1,7.3,0.1,7.5,4	c0.1,1,0.4,1.6,1.5,1.6c1.4,0.1,2.5,0.8,3.1,2.1C239.6,204.5,239,206,237.2,206.7z"/><path class="st0" d="M234.6,216.4c0.1-1.3-0.7-1.9-1.8-1.2c-0.7,0.4-1.4,1-2,1.6c-0.5-0.7-0.9-1.5-1.4-2.2c-0.4-0.6-1-1.1-1.8-0.9	c-0.8,0.2-1.2,0.9-1.3,1.7c-0.2,1.6-0.1,3.1,0.2,4.6h6.4c0.3-0.5,0.7-1,1-1.5C234.2,217.9,234.5,217.2,234.6,216.4z"/><path class="st0" d="M197,189.7c-0.6,2.3,0.8,4.1,2.7,4.1c2.2,0,3.3-1,4.1-2.4c1.5-2.3,1.8-4.9,2.5-7.5c0.2-0.9-0.2-1.7-1.3-1.5	C202.4,182.8,197.6,187.1,197,189.7z M205,184.3c-0.9,2.6-1.5,4.9-2.9,7c-0.8,1.2-2,1.6-2.9,0.9c-1.1-0.9-0.6-1.9,0-2.9	C200.6,187.3,202.6,185.8,205,184.3z"/><path class="st0" d="M121.7,205.9c-0.4-0.5-1-0.7-1.7-0.5c-0.7,0.2-0.9,0.7-1,1.4c0,0.4,0,0.8,0,1.4c-1.2-0.6-2-1.2-3.1-1.4	c-0.8-0.1-1.6-0.3-2,0.6c-0.4,0.8,0.1,1.5,0.8,2c2.3,1.6,4.9,2.5,7.6,3c1.4,0.3,2.1-0.5,1.8-2C123.8,208.7,122.8,207.3,121.7,205.9z"/><path class="st0" d="M219.3,219.7c-0.3,0.1-0.5,0.3-0.7,0.4h2.2C220.6,219.6,220.1,219.4,219.3,219.7z"/><path class="st0" d="M200.3,174.3c0.1-0.2,0-0.5-0.5-0.8c-2.7,0.8-5.4,1.9-6.8,4.8c-0.7,1.5-0.4,3.2,0.6,3.9	c1.4,0.9,2.6,0.2,3.6-0.7C199.3,179.6,199.7,176.9,200.3,174.3z M194.3,181.4c-0.8-0.5-0.6-2.1,0.4-3.3c1.1-1.4,2.5-2.4,4.3-3.1	c-0.5,1.9-0.8,3.5-1.7,5C196.5,181.2,195.1,181.9,194.3,181.4z"/><path class="st0" d="M145.6,172.4c-0.7,1.5-0.4,3.2,0.6,3.9c1.4,0.9,2.6,0.2,3.6-0.7c2.1-1.9,2.5-4.7,3.1-7.3c0.1-0.2,0-0.5-0.5-0.8	C149.7,168.4,147.1,169.5,145.6,172.4z M150,173.9c-0.8,1.3-2.3,2-3,1.5c-0.8-0.5-0.6-2.1,0.4-3.3c1.1-1.4,2.5-2.4,4.3-3.1	C151.2,170.8,150.9,172.5,150,173.9z"/><path class="st0" d="M143.1,202.8c-2.7,0.8-5.4,1.9-6.8,4.8c-0.7,1.5-0.4,3.2,0.6,3.9c1.4,0.9,2.6,0.2,3.6-0.7	c2.1-1.9,2.5-4.7,3.1-7.3C143.6,203.4,143.5,203.1,143.1,202.8z M140.6,209.2c-0.8,1.3-2.3,2-3,1.5c-0.8-0.5-0.6-2.1,0.4-3.3	c1.1-1.4,2.5-2.4,4.3-3.1C141.8,206.1,141.5,207.8,140.6,209.2z"/><path class="st0" d="M118,203.2c0.9,0,1.6-0.5,1.6-1.5c0-0.8-0.6-1.2-1.5-1.2c-0.8,0.1-1.3,0.5-1.4,1.4	C116.7,202.7,117.3,203.1,118,203.2z"/><path class="st0" d="M245,214c-0.8,0.1-1.3,0.5-1.4,1.4c0,0.9,0.6,1.3,1.3,1.3c0.9,0,1.6-0.5,1.6-1.5C246.5,214.4,245.9,214,245,214	z"/><path class="st0" d="M188,202.3c-0.6,0-1.1,0.3-1.1,0.9c0,0.8,0.4,1.2,1.2,1.2c0.6,0,1-0.3,1.2-1.1	C189.1,202.8,188.7,202.3,188,202.3z"/><path class="st0" d="M207.2,219.5c-0.4,0.1-0.7,0.3-0.8,0.6h1.7C208.1,219.7,207.8,219.4,207.2,219.5z"/><path class="st0" d="M216.7,182c0-0.5-0.3-0.8-0.9-0.8c-0.6,0-0.9,0.4-0.9,1c0,0.5,0.3,0.8,0.9,0.8	C216.4,182.9,216.7,182.6,216.7,182z"/><path class="st0" d="M167.4,218c-1.6-0.1-3.3,0.8-4.4,2.1h1.8c0.8-0.6,1.8-1,2.8-0.9c1.1,0.1,1.8,0.3,2.1,0.9h1.1	C170.2,218.9,168.9,218.1,167.4,218z"/><path class="st0" d="M153.4,218.8c-1.4,0-2.5,0.5-3.2,1.3h2.4c0.5-0.2,0.9-0.3,1.5-0.3c0.3,0,0.6,0.1,0.9,0.3h1.7	C155.9,219.3,154.8,218.8,153.4,218.8z"/><path class="st0" d="M93.4,204.4c0.6-0.2,1.3-0.4,1.5-1.2c-0.1-0.5-0.4-0.8-0.9-0.9c-0.9-0.2-1.6,0.2-2.1,1c-0.2,0.4-0.4,0.9,0,1.2	C92.5,205,93,204.6,93.4,204.4z"/><path class="st0" d="M151.2,189.1c-0.6,0-1.1,0.2-1.2,0.9c-0.1,0.5,0.2,0.9,0.8,1c0.6-0.1,1-0.4,1.1-1	C152,189.5,151.7,189.2,151.2,189.1z"/><path class="st0" d="M51.3,195.1c0.8-0.8,1.5-1.5,2.2-2.2c0.4-0.5,1-1,0.5-1.7c-0.4-0.6-1.1-0.4-1.7-0.2c-1.4,0.4-2.8,0.7-4.2,1.1	c-0.7-1.3-1.4-2.7-2.5-3.7c-0.3,0-0.6,0.1-0.9,0.1c-0.8,1.7-0.6,3.6-0.5,5.4c-1.5,0.7-2.9,1.3-4.3,2c-0.5,0.2-0.9,0.5-0.9,1.1	c0,0.7,0.6,0.9,1.1,1.1c1.2,0.4,2.5,0.7,3.7,1.1c0,1.5-0.1,2.9,0,4.3c0,0.6-0.1,1.4,0.7,1.7c0.8,0.2,1.4-0.3,1.7-1	c1.4-3,3.6-4.3,7-3.9c1.5,0.2,1.8-0.7,0.9-2.1C53.5,196.9,52.3,196.1,51.3,195.1z M48.7,199.4c-1.5,0.6-1.8,2.4-3.5,3.4	c1.1-3.7-0.2-5.6-3.9-6c3-1.1,4.8-2.8,3.9-6.3c1.1,0.7,1.4,1.4,1.7,2c0.6,1.1,1.4,1.3,2.5,0.8c0.8-0.4,1.6-0.6,2.8-1	c-0.8,0.7-1.3,1.1-1.7,1.6c-1.4,1.3-1.3,1.8,0.2,2.9c0.8,0.6,1.7,1.1,2.5,2C51.6,199.5,50.1,198.8,48.7,199.4z"/><path class="st0" d="M13.6,197.1c0.9-1.7,1.9-2.5,4.1-2.8c5.1-0.6,10.2-1.8,15.2-3.2c5.2-1.5,10.1-3.5,13.8-7.7	c2.5-2.8,3.6-6.1,3.3-9.7c-0.4-5.3-3.2-9.5-7.3-12.8c-6.2-5.1-13.5-6.9-21.3-7.1c-6.8-0.1-13.6,0.7-20.2,2c-0.4,0.1-0.8,0.2-1.1,0.2	v2c0.2,0,0.3-0.1,0.5-0.1c7.1-1.5,14.4-2.4,21.7-2.3c6.8,0.1,13.1,1.8,18.6,6c0.4,0.3,1,0.5,1.2,1.4c-2.5-0.4-4.9-0.2-7.4-0.1	c-3,0.2-6,0.7-8.8,1.7c-0.9,0.3-1.7,0.7-2.5,1.2c-0.8,0.6-1.5,1.2-1.3,2.3c0.2,1.1,1,1.7,2.1,2c1.7,0.5,3.4,0.3,5,0.2	c5.8-0.5,11.5-1.1,17.3-1.7c2.9,4.5,2.1,11-1.6,14.7c-3.5,3.4-7.9,5.1-12.5,6.4c-5.1,1.5-10.4,2.3-15.6,3.6c-0.2,0.1-0.5,0-0.8,0	c0.8-2.3,1.6-4.4,2.3-6.7c0.9-2.9-0.3-4.6-2.3-6.4c-4.2-3.6-10.4-5-15.8-3.4v1.8c1.6-0.7,3.4-1,5.5-1c4.3,0.2,8.2,2.2,11.4,5.5	c0.3,0.3,0.4,0.6,0.4,1.1c-0.6,4.2-2.2,8.1-4.4,11.8c-3.4,5.6-7.8,10.2-12.9,14v1.8C5.5,207.9,10.2,203.3,13.6,197.1z M34.6,168.5	c-3.1,0.3-6.2,0.5-9.3,0.3c-0.4,0-0.8-0.1-1.2-0.2c-0.8-0.3-1-0.8-0.2-1.5c0.7-0.6,1.5-0.9,2.3-1.2c5.5-1.8,11.1-2,16.8-1.8	c1.6,0.1,1.9,2,3.1,3.2C42,167.8,38.3,168.1,34.6,168.5z"/><path class="st0" d="M12.7,144.7c5.1,0.2,10.3,0.2,15.4,0.2c2.5,0,4.1-1.3,4.8-3.6c1.4-5.2-2.2-9.7-7.8-9.8	c-0.8-3.8-2.2-6.1-5.2-8.5c-6.4-4.9-15-3.7-19.9,2.8v2.2c0.4-0.3,0.8-0.7,1.2-1.3c5.5-7,15.1-6.8,20.5,0.3c1.1,1.5,1.7,3.1,1.9,4.9	c0.1,0.9,0.4,1.3,1.5,1.2c3.8-0.4,6.7,2.2,6.6,6.1c0,3.5-1.9,5-5.6,4.7c-7-0.4-13.9-0.9-20.9-0.9c-1.7,0-3.5,0-5.2,0.1v1.6	C4.2,144.5,8.5,144.5,12.7,144.7z"/><path class="st0" d="M69.4,153.6c3.6,0.1,7.3,0.4,10.9,0c2-0.3,4-0.5,4.9-2.7c0.9-2.3-0.5-5-3-6c-0.5-0.2-1.1-0.1-1.5-0.5	c-0.5-4.5-4.1-7.1-8.3-6c-2.2-3.5-5.4-4.8-9.3-4c-4.8,1-7.3,4.5-8.6,9c-4.9-1.9-8.6,0.1-9.1,5c-1.4,0.2-2.8,0.3-3.9,1.4	c-1,1-0.8,2.1,0.3,2.8c0.5,0.3,1.1,0.5,1.6,0.6c1.7,0.4,3.5,0.4,5.2,0.4C55.7,153.8,62.6,153.3,69.4,153.6z M49.2,152.4	c-1.8,0-3.6-0.1-5.4-0.5c-0.6-0.1-1.2-0.2-1.6-0.9c0.9-1.2,2.1-1.6,3.5-1.4c0.9,0.1,1.3-0.2,1.1-1.1c-0.4-1.7,0.2-2.9,1.5-3.8	c1.6-1,3.2-1.6,5.1-0.7c0.2,0.1,0.5,0.3,0.7,0.4c0.9,0.6,1.4,0.4,1.6-0.7c0.5-2.8,2.3-4.8,4.4-6.6c3.9-3.3,10.2-1.4,11.7,2.5	c0,0.1,0.2,0.2,0.3,0.4c3.3-2.1,7.3,0.1,7.5,4c0.1,1,0.4,1.6,1.5,1.6c1.4,0.1,2.5,0.8,3.1,2.1c0.8,1.7,0.3,3.2-1.5,3.9	c-1.3,0.5-2.6,0.7-4,0.7c-4.4,0-8.7-0.1-13.1-0.2C60.2,152,54.7,152.6,49.2,152.4z"/><path class="st0" d="M79,190c-1.8-0.7-3.6-1.3-5.5-2c0.1-2.6,0.3-5.1-0.5-7.9c-2,0.9-3.3,2.4-4.4,3.8c-0.6,0.8-1,0.9-1.9,0.4	c-1.7-0.9-3.2-2.2-5.1-2.8c-1.4-0.4-1.8,0-1.6,1.4c0.3,1.7,0.9,3.3,1.6,4.8c0.3,0.6,0.3,1-0.2,1.6c-1.2,1.5-2.6,2.9-3.6,4.6	c-0.5,0.8-1.5,1.7-0.7,2.7c0.8,0.9,1.9,0.2,2.8-0.1c2-0.7,4-1.4,6-2.2c1.3,2.2,2.2,4.5,3.6,6.5c0.3,0.4,0.6,0.9,1.1,0.8	c0.6-0.1,0.8-0.7,0.9-1.2c0.4-1.9,0.8-3.8,1.1-5.7c0.1-0.8,0.5-1.2,1.2-1.4c1.6-0.4,3.3-0.9,4.9-1.4c0.5-0.2,1.2-0.3,1.2-1	C80.2,190.4,79.5,190.2,79,190z M73.9,192.2c-1.5,0.4-2.3,1.1-2.4,2.8c-0.1,1.8-0.4,3.5-0.9,5.3c-0.9-1.8-1.9-3.6-2.8-5.5	c-0.5-1.2-1.3-1.5-2.4-1.1c-1.7,0.6-3.4,1.1-5.1,1.7c-0.5,0.2-0.9,0.5-1.6,0.4c1-2.1,2.6-3.6,4-5.3c0.8-0.9,0.8-1.6,0.3-2.6	c-0.7-1.6-1.4-3.2-1.8-4.9c0.7-0.2,1.1,0.3,1.6,0.6c0.4,0.2,0.8,0.5,1.3,0.7c5,2.5,3.9,2.3,7.3-1.1c0.1-0.1,0.3-0.2,0.6-0.5	c0.1,1.6,0.3,3.1,0.2,4.5c-0.1,1.4,0.4,2.1,1.8,2.5c1.4,0.3,2.8,0.9,4.6,1.5C76.7,191.4,75.3,191.8,73.9,192.2z"/><path class="st0" d="M80.1,161.4c0.1-1.3-0.7-1.9-1.8-1.2c-0.7,0.4-1.4,1-2,1.6c-0.5-0.7-0.9-1.5-1.4-2.2c-0.4-0.6-1-1.1-1.8-0.9	c-0.8,0.2-1.2,0.9-1.3,1.7c-0.3,2.6,0.1,5.1,1.2,7.5c0.6,1.3,1.5,1.5,2.5,0.5c1.5-1.5,2.9-3,3.9-4.9C79.7,162.9,80,162.2,80.1,161.4	z"/><path class="st0" d="M50.5,127.4c-2.6,0.3-7.4,4.7-8,7.2c-0.6,2.3,0.8,4.1,2.7,4.1c2.2,0,3.3-1,4.1-2.4c1.5-2.3,1.8-4.9,2.5-7.5	C52.1,128.1,51.7,127.3,50.5,127.4z M47.6,136.3c-0.8,1.2-2,1.6-2.9,0.9c-1.1-0.9-0.6-1.9,0-2.9c1.4-2.1,3.4-3.5,5.7-5	C49.6,131.9,49,134.3,47.6,136.3z"/><path class="st0" d="M45.7,214.2c-2.2,0.3-5.9,3.4-7.4,5.9h2.4c1.3-1.5,3-2.7,5-4c-0.5,1.4-0.9,2.7-1.3,4H46	c0.4-1.4,0.7-2.9,1.1-4.4C47.3,214.9,46.9,214.1,45.7,214.2z"/><path class="st0" d="M78.1,173.2c2.3,1.6,4.9,2.5,7.6,3c1.4,0.3,2.1-0.5,1.8-2c-0.4-1.7-1.3-3.2-2.4-4.5c-0.4-0.5-1-0.7-1.7-0.5	c-0.7,0.2-0.9,0.7-1,1.4c0,0.4,0,0.8,0,1.4c-1.2-0.6-2-1.2-3.1-1.4c-0.8-0.1-1.6-0.3-2,0.6C77,172.1,77.5,172.7,78.1,173.2z"/><path class="st0" d="M64.8,164.7c-2,0.8-3.5,2.3-4.9,3.8c-0.8,0.9-1.3,2-1.4,3.2c-0.2,1.8,1.2,3.6,2.7,3.5c0.6-0.1,1.2-0.3,1.7-0.8	c2.4-2.4,3-5.6,3.4-8.7C66.4,164.8,65.8,164.3,64.8,164.7z M62.9,172.3c-0.5,0.8-1.1,1.8-2.1,1.3c-1.1-0.6-0.6-1.8-0.1-2.7	c1-1.7,2.5-3,4.2-4.8C64.4,168.5,64,170.5,62.9,172.3z"/><path class="st0" d="M45.8,119.3c0.1-0.2,0-0.5-0.5-0.8c-2.7,0.8-5.4,1.9-6.8,4.8c-0.7,1.5-0.4,3.2,0.6,3.9c1.4,0.9,2.6,0.2,3.6-0.7	C44.8,124.6,45.2,121.9,45.8,119.3z M39.8,126.4c-0.8-0.5-0.6-2.1,0.4-3.3c1.1-1.4,2.5-2.4,4.3-3.1c-0.5,1.9-0.8,3.5-1.7,5	C42,126.2,40.6,126.9,39.8,126.4z"/><path class="st0" d="M90.5,159c-0.8,0.1-1.3,0.5-1.4,1.4c0,0.9,0.6,1.3,1.3,1.3c0.9,0,1.6-0.5,1.6-1.5C92,159.4,91.4,159,90.5,159z"/><path class="st0" d="M33.5,147.3c-0.6,0-1.1,0.3-1.1,0.9c0,0.8,0.4,1.2,1.2,1.2c0.6,0,1-0.3,1.2-1.1	C34.6,147.8,34.2,147.3,33.5,147.3z"/><path class="st0" d="M92,170.1c0,0.8,0.4,1.2,1.2,1.2c0.6,0,1-0.3,1.2-1.1c-0.2-0.6-0.5-1.1-1.3-1.1C92.5,169.1,92,169.4,92,170.1z"/><path class="st0" d="M52,165.5c0.1,0.5,0.3,0.9,0.9,0.9c0.6-0.1,1-0.4,0.9-1c-0.1-0.6-0.4-1.1-1.1-1C52.2,164.5,51.9,165,52,165.5z"/><path class="st0" d="M60.5,127.2c0,0.5,0.3,0.8,0.9,0.8c0.5-0.1,0.9-0.5,0.9-1s-0.3-0.8-0.9-0.8C60.8,126.2,60.5,126.6,60.5,127.2z"/><path class="st0" d="M12,171.9c2.3,0.2,5-1.4,4.8-4.4c0.1-2.4-1.5-4.3-3.9-4.5s-5.2,2.1-5.3,4.3C7.4,169.3,9.8,171.6,12,171.9z M13.1,164.2c1.9,0.1,2.6,0.9,2.5,2.8c-0.2,2.5-1.2,3.8-3.1,3.6c-1.8-0.1-3.5-1.9-3.4-3.5C9.1,165.5,11.1,164.1,13.1,164.2z"/><path class="st0" d="M2.9,167.7c0-2.1-1-3.4-2.9-3.8v1c1,0.4,1.7,1.5,1.7,2.9c0,1.2-0.7,2-1.7,2.3v1.2	C1.7,170.9,2.9,169.5,2.9,167.7z"/><path class="st0" d="M29.4,183.5c0.7,0,1.1-0.4,1.2-1.1c-0.1-0.5-0.3-1-0.9-1c-0.7,0-1.2,0.5-1.4,1.2	C28.3,183.2,28.8,183.5,29.4,183.5z"/><path class="st0" d="M34.5,206.8c-1-2.7-3.2-4.9-3.6-8c-0.8,0.6-0.8,1.2-0.7,1.7c0.3,1-0.2,1.6-1.1,2c-1.4,0.6-2.8,0.8-4.3,0.8	c-2.1,0-4.1,0.2-6.1,0.8c-3.3,1.1-4.8,3.9-5.7,7c-0.8,2.9-1.1,5.9-1.3,8.9H16c-1-0.1-2-0.4-2.9-0.6c0.1-2.1,0.3-4,0.8-6.1	c4.4,0.5,8.8,0.8,13.5-0.1c-2.3,2.9-5,4.8-7.7,6.3c-0.4,0.2-0.9,0.4-1.3,0.4h2.4c0.6-0.4,1.3-0.8,1.9-1.3c0,0.5,0,0.9-0.1,1.3h0.8	c0.1-0.5,0.2-1,0.1-1.6c0-0.3,0.3-0.5,0.5-0.6c1.3-0.9,2.5-1.9,3.5-3c1.1-1.1,2-2.4,2.8-3.9c0.8,2.2,1.4,4.2,1.5,6.4	c0.1,0.7-0.2,1.3-0.8,1.9c-0.3,0.3-0.8,0.6-1.2,0.9h1.9C35.4,216.8,36.5,212,34.5,206.8z M28.8,211.6c-0.3,0.4-0.5,0.8-1,0.9	c-4.5,0.9-9.1,0.6-13.7,0.2c0.3-1.8,0.9-3.4,1.9-4.8c1-1.4,2.2-2.3,3.9-2.7c1.8-0.4,3.6-0.6,5.4-0.6c2,0,3.8-0.6,5.5-1.7	C30.9,206,30.5,208.9,28.8,211.6z M31,210.1c-0.1-0.2,0-0.4,0-0.6c0.6-1.6,0.7-3.3,0.8-5.1c2.5,2.5,3.5,9.5,1.1,12.2	C32.5,214.4,32,212.2,31,210.1z"/><path class="st0" d="M28.3,217.8c-0.5-0.3-0.8,0.1-1.1,0.3c-0.4,0.3-1,0.5-1.1,1.2c0.1,0.4,0.4,0.6,0.8,0.6c0.8,0,1.3-0.4,1.5-1.1	C28.6,218.4,28.7,218,28.3,217.8z"/><path class="st0" d="M274.4,9.9c1.1,0.8,2.1,1.5,3.2,2.2c-0.5,1.4-1,2.7-1.4,4c-0.2,0.6-0.6,1.3,0.2,1.8c0.7,0.5,1.5,0.2,2-0.3	c2.3-2.4,4.8-2.9,7.8-1.4c1.4,0.7,1.9-0.1,1.5-1.7c-0.3-1.3-1.1-2.5-1.8-3.8c1-0.5,1.9-0.9,2.8-1.4c0.6-0.3,1.3-0.6,1-1.5	c-0.2-0.7-0.9-0.7-1.5-0.8c-1.4-0.1-2.9-0.2-4.4-0.3c-0.3-1.5-0.4-3-1.2-4.3c-0.3-0.1-0.6-0.1-0.9-0.2c-1.3,1.4-1.7,3.2-2.2,5	c-1.6,0.2-3.2,0.3-4.7,0.5c-0.5,0.1-1,0.1-1.2,0.8C273.4,9.2,273.9,9.6,274.4,9.9z M281.5,4.4c0.8,1,0.9,1.8,1,2.5	c0.2,1.3,0.9,1.7,2.1,1.6c0.8-0.1,1.7,0,2.9-0.1c-1,0.4-1.6,0.7-2.2,1c-1.7,0.8-1.9,1.3-0.7,2.9c0.6,0.8,1.3,1.6,1.7,2.6	c-1.6,0.2-2.9-1-4.4-0.9c-1.6,0.1-2.5,1.7-4.4,2.1c2.3-3.1,1.6-5.4-1.8-7C279,9,281.2,8.1,281.5,4.4z"/><path class="st0" d="M288.2,25.6c-0.8-0.3-1.7-0.6-2.5-0.9c0.1-0.9,0.3-1.8,0-2.7c-0.2-0.1-0.3-0.2-0.5-0.3c-1,0.6-1.6,1.6-2.1,2.6	c-1-0.2-1.9-0.3-2.9-0.5c-0.3,0-0.6-0.1-0.8,0.2c-0.2,0.4,0,0.7,0.2,0.9c0.5,0.6,1,1.3,1.5,1.9c-0.5,0.8-1,1.4-1.5,2.2	c-0.2,0.3-0.6,0.7-0.2,1.1c0.3,0.4,0.8,0.4,1.2,0.1c1.8-1,3.3-0.9,4.9,0.5c0.7,0.6,1.1,0.3,1.2-0.7c0-0.9-0.2-1.7-0.4-2.5	c0.7-0.1,1.3-0.2,1.9-0.4c0.4-0.1,0.9-0.2,0.9-0.7C289,25.9,288.6,25.8,288.2,25.6z M286.2,26.5c-1.1,0.2-1.3,0.5-0.9,1.6	c0.2,0.6,0.5,1.2,0.6,1.9c-1-0.1-1.5-1.1-2.4-1.3c-1-0.2-1.8,0.6-3,0.5c1.9-1.5,1.9-2.9,0.1-4.4c1.9,0.5,3.4,0.3,4.2-1.8	c0.3,0.7,0.2,1.2,0.2,1.6c-0.1,0.8,0.2,1.2,1,1.3c0.5,0.1,1,0.3,1.8,0.5C287,26.4,286.6,26.4,286.2,26.5z"/><path class="st0" d="M266.7,49.3c-0.6-0.6-1.2-1.3-1.9-1.8c-0.8-0.6-1.3-2-2.4-1.4c-1.1,0.6-0.4,1.9-0.3,2.8c1.1,6,2.6,12,5.1,17.6	c-2,1.2-3.8,2.5-5.1,4.3c-1,1.3-1.8,2.8-1,4.5c0.7,1.6,2.4,1.7,3.9,2c0.4,0.1,0.8,0,1.2-0.1c2.5-0.4,4.9-1.2,7.2-2.3	c0.4-0.2,0.8-0.6,1.4-0.2c2.9,1.8,6.3,2.3,9.4,3.4c3.2,1,6.4,2.1,9.7,3.2c-0.5,0.8-0.9,1.5-1.3,2.2c-2.3,4.1-4.5,8.3-5.4,13.1	c-1.1,6.1,3.7,11.7,9.5,11.2c2.5-0.2,4.7-1.2,6.8-2.5c1.9-1.1,3.7-2.2,5.4-3.5v-1.7c-1.9,1.5-3.9,2.8-6,4.1c-1.6,1-3.3,1.6-5,2.1	c-5.7,1.8-9.9-4.5-9.2-8.6c0.5-2.9,1.6-5.6,2.9-8.2c3.5-6.7,7-13.4,13-18.3c1.5-1.2,2.8-2.1,4.3-2.6v-1.8c-1.9,0.6-3.7,1.5-5.3,2.9	c-3.6,3-6.7,6.4-9,10.4c-2.7-0.6-17.7-5.7-18.8-6.5c1.6-1,3.1-2,4.3-3.4c1.1-1.3,2.1-2.6,1.2-4.4c-0.8-1.7-2.4-2-3.9-2.2	c-2.9-0.4-5.5,0.6-8.1,1.7c-0.4,0.2-0.8,0.4-1.4,0.6c-0.5-3-2-5.6-2.6-8.4c-0.6-2.8-1.2-5.6-1.8-8.8c1.5,1.3,2.8,2.3,4,3.4	c2.4,2.2,5.2,2.5,8.3,2.1c11.1-1.5,22-4,33-6.3v-2c-10.3,2.1-20.5,4.8-30.9,6.5C273.5,53.3,269.8,52.7,266.7,49.3z M276.3,64.7	c1.8,0.2,3.5-0.1,4.2,1.7c0.7,1.8-0.6,2.9-1.8,3.9c-3.9,3-8.3,5.1-13.3,5.7c-1.3,0.1-2.8,0.2-3.4-1.2c-0.6-1.3,0.4-2.5,1.2-3.4	C267,67.5,271.4,65.3,276.3,64.7z"/><path class="st0" d="M236.5,54.9c-1-5-3.3-9-8.8-10.1c-0.6-0.1-1.3-0.2-1.9-0.4c-6.1-1.6-12.6-1.4-18.6-3.9c-0.3-0.1-0.7-0.2-1,0.1	c-0.4,0.4-0.1,0.8,0.1,1.1c0.6,1.1,0.9,2.2,1.2,3.4c0.8,3.3,0.6,6.8,0.8,10.2c0.5,8.5,7.9,15.5,16.4,15.1c3.5-0.2,7.1-0.3,10.5-1.8	c1.2-0.5,2.1-0.2,3.1,0.6c1.1,1.1,2.3,2,3.6,2.8c0.4,0.2,0.8,0.8,1.4,0.3c-0.2-0.6-0.7-0.9-1.2-1.3c-1.3-1.1-2.6-2.3-3.9-3.4	c-1-0.8-1.3-1.8-1.3-3.1C236.8,61.3,237.1,58.1,236.5,54.9z M233.5,50.4c2.6,5.1,2,10.2,2.1,15.4c-2-1.4-3.5-3-5.1-4.6	c-0.3-0.2-0.3-0.6-0.1-0.8C231.9,57.3,232.6,53.9,233.5,50.4z M230.7,47.3c1.8,1.1,2.4,1.1,1.8,3.6c-0.7,2.9-1.3,5.8-2.8,8.7	c-1.6-5.5-3.8-10.4-7.7-14.7C225.2,45.6,228.2,45.7,230.7,47.3z M219.6,44.4c0.8,0.1,1.4,0.8,1.9,1.4c3.5,3.9,5.6,8.5,7.1,13.5	c-5.1-6.1-10.6-11.7-17.5-16C214,43.9,216.8,44.1,219.6,44.4z M207.9,42.5c5.6,3.5,10.8,6.9,14.8,11.9c-0.8,0.1-1.2-0.3-1.6-0.6	c-3.3-1.9-6.9-3.1-10.6-4c-0.8-0.2-1.3-0.5-1.3-1.5C209,46.6,208.6,44.7,207.9,42.5z M210.5,58.8c-1-2.6-1.1-5.4-1.2-8.3	c9,1.6,16.3,5.8,21.8,13c-2.5-0.7-5.1-1.5-7.8-1.8c-3-0.3-6.1-0.6-9.1-0.6C211.6,61.2,211.4,61,210.5,58.8z M228.5,68.5	c-3.3,0.2-6.7,0.6-9.9-0.8c-2.6-1.2-4.6-2.9-6.3-5.6c8,1.1,16.2-0.2,23.4,4.9C233.1,67.8,230.8,68.3,228.5,68.5z"/><path class="st0" d="M235.9,36.7c0.6,3.5,2.8,6.5,2.6,10.4c1.1-0.5,1.2-1.2,1.2-1.9c-0.1-1.3,0.6-1.8,1.7-2.1	c1.8-0.4,3.5-0.3,5.3-0.1c2.5,0.4,5,0.7,7.5,0.4c4.2-0.6,6.6-3.6,8.3-7.1c2.6-5.5,3.8-11.4,5.3-17.2c0.3-1.3-0.3-1.9-1.6-1.6	c-4.2,1-8.4,1.2-12.7,1.2c-2,0-4.1,0.2-6.1,0.6C238.8,21.2,234.3,28.1,235.9,36.7z M238.5,40.1c-2.5-3.6-2.1-12.2,1.4-14.9	c0,2.8,0.1,5.6,0.9,8.3c0.1,0.2-0.1,0.5-0.2,0.7C239.6,36,239,38,238.5,40.1z M258.3,39.6c-1.5,1.5-3.2,2.3-5.3,2.3	c-2.2,0-4.4,0-6.5-0.4c-2.4-0.4-4.6-0.2-7,0.9c0.5-3.9,1.6-7.3,4.3-10.2c0.4-0.4,0.7-0.8,1.4-0.8c5.6,0,11,1.3,16.4,2.8	C260.8,36.4,259.7,38.2,258.3,39.6z M261.9,33.4c-5.2-1.5-10.3-2.9-16.2-2.9c3.4-3,7-4.6,10.6-5.8c2.5-0.8,5.2,0.5,7.8,1.6	C263.6,28.7,262.9,31,261.9,33.4z M264.4,25.4c-2-0.7-3.8-1.4-6.2-1.7c2.9-1.2,5.3-2.4,7.9-3.9C265.4,21.8,264.9,23.6,264.4,25.4z M254.5,20.6c0.2-0.3,0.5-0.4,0.8-0.4c3.2,0.1,6.4-0.3,9.6-0.9c-3.7,2.5-8.1,3.6-12.2,5.7C252.9,23.2,253.7,21.9,254.5,20.6z M253.4,20.3c-0.7,1.7-1.7,3.1-1.8,4.8c0,0.4-0.4,0.5-0.8,0.7c-1.7,0.8-3.4,1.7-4.9,2.8s-2.9,2.4-4.3,4.1c-0.5-2.8-0.7-5.4-0.4-8	c0.1-0.9,0.6-1.6,1.4-2C245.4,21.1,250.1,20,253.4,20.3z"/><path class="st0" d="M306.1,17.1c-4-0.7-7.5,0.4-10.4,3.2c-3.7,3.5-3.7,5.7-1.6,9.3c-1.3,0.3-2.5,0.6-3.4,1.4	c-0.9,0.7-1.6,1.5-1.3,2.7c0.3,1.3,1.3,1.9,2.4,2c1.2,0.2,2.4,0.2,3.7,0.2c2.9-0.1,5.8-0.6,8.7-0.9c1.6-0.1,3.2-0.2,4.9-0.3v-1.6	c-4.9,0.2-9.7,0.6-14.6,1c-0.9,0.1-1.7,0.2-2.6-0.2c-0.9-0.4-1-0.9-0.4-1.6c0.8-0.9,2-1.3,3.1-1.5c1.1-0.2,1.3-0.7,0.9-1.6	c-0.8-1.7-1.8-3.4-0.6-5.3c1.6-2.7,3.8-4.5,6.8-5.3c1.3-0.4,2.7-0.6,3.9-0.2c1.4,0.4,2.5,0.2,3.4-0.5v-2.2c-0.1,0.1-0.1,0.2-0.2,0.2	C308,17,307.4,17.4,306.1,17.1z"/><path class="st0" d="M259,90.6c-2,0.1-4.1-0.2-6.1,0.3c-1.4,0.4-1.7,1-0.7,2.1c1.2,1.4,2.6,2.4,4,3.5c0.6,0.4,0.8,0.8,0.7,1.6	c-0.3,2-0.8,4-0.7,6c0,1-0.4,2.4,0.9,2.8c1.2,0.4,1.9-0.8,2.5-1.6c1.5-1.7,2.8-3.5,4.2-5.2c2.4,1.3,4.4,2.9,6.8,4	c0.5,0.2,1,0.5,1.4,0.1c0.5-0.4,0.3-1,0.1-1.6c-0.7-1.9-1.3-3.8-2.1-5.7c-0.3-0.8-0.2-1.3,0.3-1.9c1.2-1.3,2.5-2.6,3.7-3.9	c0.4-0.4,0.9-1,0.6-1.6c-0.4-0.7-1.1-0.5-1.7-0.4c-2,0.3-4,0.7-6,1.1c-1.2-2.4-2.5-4.8-4.7-6.8c-1.3,1.9-1.7,3.9-1.9,5.8	C260.4,90.3,260,90.6,259,90.6z M262.3,86.9c0-0.2,0.1-0.4,0.3-0.8c1,1.4,1.9,2.6,2.6,3.9c0.7,1.3,1.5,1.7,2.9,1.3	c1.5-0.5,3-0.7,5-1.2c-1.4,1.4-2.4,2.6-3.6,3.7c-1.2,1.1-1.5,2.3-0.7,3.8c0.9,1.6,1.5,3.4,2,5.2c-1.8-1.1-3.7-2.2-5.5-3.5	c-1.1-0.8-1.9-0.7-2.8,0.3c-1.2,1.4-2.5,2.8-3.7,4.3c-0.4,0.4-0.6,0.9-1.3,1.2c-0.2-2.4,0.4-4.7,0.7-7c0.2-1.2-0.2-1.9-1.1-2.5	c-1.5-1-3-2.1-4.3-3.5c0.5-0.6,1.2-0.3,1.7-0.4c0.5-0.1,1,0,1.5,0C262.2,91.4,261.2,91.8,262.3,86.9z"/><path class="st0" d="M252,80.8c0.1-1.3-0.7-1.9-1.8-1.2c-0.7,0.4-1.4,1-2,1.6c-0.5-0.7-0.9-1.5-1.4-2.2c-0.4-0.6-1-1.1-1.8-0.9	c-0.8,0.2-1.2,0.9-1.3,1.7c-0.3,2.6,0.1,5.1,1.2,7.5c0.6,1.3,1.5,1.5,2.5,0.5c1.5-1.5,2.9-3,3.9-4.9C251.6,82.3,252,81.6,252,80.8z"/><path class="st0" d="M269.2,44.4c2.3,1.6,4.9,2.5,7.6,3c1.4,0.3,2.1-0.5,1.8-2c-0.4-1.7-1.3-3.2-2.4-4.5c-0.4-0.5-1-0.7-1.7-0.5	c-0.7,0.2-0.9,0.7-1,1.4c0,0.4,0,0.8,0,1.4c-1.2-0.6-2-1.2-3.1-1.4c-0.8-0.1-1.6-0.3-2,0.6C268.1,43.3,268.6,43.9,269.2,44.4z"/><path class="st0" d="M300.8,11.3c1.4,0.9,2.6,0.2,3.6-0.7c2.1-1.9,2.5-4.7,3.1-7.3c0.1-0.2,0-0.5-0.5-0.8c-2.7,0.8-5.4,1.9-6.8,4.8	C299.4,8.8,299.7,10.6,300.8,11.3z M301.9,7.1c1.1-1.4,2.5-2.4,4.3-3.1c-0.5,1.9-0.8,3.5-1.7,5c-0.8,1.3-2.3,2-3,1.5	C300.7,9.9,300.9,8.3,301.9,7.1z"/><path class="st0" d="M291.4,46.6c1.4,0.9,2.6,0.2,3.6-0.7c2.1-1.9,2.5-4.7,3.1-7.3c0.1-0.2,0-0.5-0.5-0.8c-2.7,0.8-5.4,1.9-6.8,4.8	C290,44.1,290.3,45.9,291.4,46.6z M292.5,42.4c1.1-1.4,2.5-2.4,4.3-3.1c-0.5,1.9-0.8,3.5-1.7,5c-0.8,1.3-2.3,2-3,1.5	C291.4,45.2,291.5,43.6,292.5,42.4z"/><path class="st0" d="M254.4,66.2c0,1,0.6,1.5,1.6,1.7c1-0.1,1.7-0.6,1.7-1.6s-0.7-1.6-1.7-1.6S254.4,65.2,254.4,66.2z"/><path class="st0" d="M272.5,38.2c0.9,0,1.6-0.5,1.6-1.5c0-0.8-0.6-1.2-1.5-1.2c-0.8,0.1-1.3,0.5-1.4,1.4	C271.2,37.7,271.8,38.1,272.5,38.2z"/><path class="st0" d="M254.7,58.2c-0.8,0.1-1.1,0.6-1.1,1.4c0,0.7,0.5,1.1,1.2,1.1s1.1-0.5,1.1-1.2C255.9,58.7,255.5,58.3,254.7,58.2	z"/><path class="st0" d="M294.3,64c2.4,0.1,4.5-1.7,4.5-3.8c0-2.5-1.8-4.1-4.6-4.2c-2.5,0-4.5,1.8-4.5,4C289.6,62.1,291.7,63.9,294.3,64	z M294.6,56.6c1.2,0,2.9,2.1,2.9,3.5c0,1.4-1.2,2.6-2.8,2.6c-1.7,0-3.6-1.4-3.6-2.9C291.1,58.4,293,56.6,294.6,56.6z"/><path class="st0" d="M303.6,57.6c0,2.2,1.7,3.8,4,3.9c0.5,0,0.9-0.1,1.4-0.2v-1.2c-0.3,0.1-0.6,0.1-1,0.1c-1.6,0-2.9-1.3-2.9-2.8	c0.1-1.5,1.7-2.8,3.3-2.7c0.2,0,0.4,0.1,0.5,0.1v-1c-0.3-0.1-0.7-0.1-1.1-0.1C305.4,53.9,303.6,55.4,303.6,57.6z"/><path class="st0" d="M247.9,39.4c0.6-0.2,1.3-0.4,1.5-1.2c-0.1-0.5-0.4-0.8-0.9-0.9c-0.9-0.2-1.6,0.2-2.1,1c-0.2,0.4-0.4,0.9,0,1.2	C247,40,247.5,39.6,247.9,39.4z"/><path class="st0" d="M305.7,24.1c-0.6,0-1.1,0.2-1.2,0.9c-0.1,0.5,0.2,0.9,0.8,1c0.6-0.1,1-0.4,1.1-1	C306.5,24.5,306.2,24.2,305.7,24.1z"/><path class="st0" d="M119.1,63.5c-0.2,0.7,0.3,1,0.7,1.4c1.1,0.8,2.1,1.5,3.2,2.2c-0.5,1.4-1,2.7-1.4,4c-0.2,0.6-0.6,1.3,0.2,1.8	c0.7,0.5,1.5,0.2,2-0.3c2.3-2.4,4.8-2.9,7.8-1.4c1.4,0.7,1.9-0.1,1.5-1.7c-0.3-1.3-1.1-2.5-1.8-3.8c1-0.5,1.9-0.9,2.8-1.4	c0.6-0.3,1.3-0.6,1-1.5c-0.2-0.7-0.9-0.7-1.5-0.8c-1.4-0.1-2.9-0.2-4.4-0.3c-0.3-1.5-0.4-3-1.2-4.3c-0.3-0.1-0.6-0.1-0.9-0.2	c-1.3,1.4-1.7,3.2-2.2,5c-1.6,0.2-3.2,0.3-4.7,0.5C119.8,62.9,119.3,62.9,119.1,63.5z M127,59.4c0.8,1,0.9,1.8,1,2.5	c0.2,1.3,0.9,1.7,2.1,1.6c0.8-0.1,1.7,0,2.9-0.1c-1,0.4-1.6,0.7-2.2,1c-1.7,0.8-1.9,1.3-0.7,2.9c0.6,0.8,1.3,1.6,1.7,2.6	c-1.6,0.2-2.9-1-4.4-0.9c-1.6,0.1-2.5,1.7-4.4,2.1c2.3-3.1,1.6-5.4-1.8-7C124.5,64,126.7,63.1,127,59.4z"/><path class="st0" d="M207.8,145.2c1.5,0.2,1.8-0.7,0.9-2.1c-0.7-1.2-1.9-2-2.9-3c0.8-0.8,1.5-1.5,2.2-2.2c0.4-0.5,1-1,0.5-1.7	c-0.4-0.6-1.1-0.4-1.7-0.2c-1.4,0.4-2.8,0.7-4.2,1.1c-0.7-1.3-1.4-2.7-2.5-3.7c-0.3,0-0.6,0.1-0.9,0.1c-0.8,1.7-0.6,3.6-0.5,5.4	c-1.5,0.7-2.9,1.3-4.3,2c-0.5,0.2-0.9,0.5-0.9,1.1c0,0.7,0.6,0.9,1.1,1.1c1.2,0.4,2.5,0.7,3.7,1.1c0,1.5-0.1,2.9,0,4.3	c0,0.6-0.1,1.4,0.7,1.7c0.8,0.2,1.4-0.3,1.7-1C202.2,146,204.4,144.8,207.8,145.2z M203.2,144.4c-1.5,0.6-1.8,2.4-3.5,3.4	c1.1-3.7-0.2-5.6-3.9-6c3-1.1,4.8-2.8,3.9-6.3c1.1,0.7,1.4,1.4,1.7,2c0.6,1.1,1.4,1.3,2.5,0.8c0.8-0.4,1.6-0.6,2.8-1	c-0.8,0.7-1.3,1.1-1.7,1.6c-1.4,1.3-1.3,1.8,0.2,2.9c0.8,0.6,1.7,1.1,2.5,2C206.1,144.5,204.6,143.8,203.2,144.4z"/><path class="st0" d="M124.9,85.1c0.3,0.4,0.8,0.4,1.2,0.1c1.8-1,3.3-0.9,4.9,0.5c0.7,0.6,1.1,0.3,1.2-0.7c0-0.9-0.2-1.7-0.4-2.5	c0.7-0.1,1.3-0.2,1.9-0.4c0.4-0.1,0.9-0.2,0.9-0.7s-0.4-0.6-0.8-0.7c-0.8-0.3-1.7-0.6-2.5-0.9c0.1-0.9,0.3-1.8,0-2.7	c-0.2-0.1-0.3-0.2-0.5-0.3c-1,0.6-1.6,1.6-2.1,2.6c-1-0.2-1.9-0.3-2.9-0.5c-0.3,0-0.6-0.1-0.8,0.2c-0.2,0.4,0,0.7,0.2,0.9	c0.5,0.6,1,1.3,1.5,1.9c-0.5,0.8-1,1.4-1.5,2.2C124.9,84.3,124.5,84.6,124.9,85.1z M126.1,79.7c1.9,0.5,3.4,0.3,4.2-1.8	c0.3,0.7,0.2,1.2,0.2,1.6c-0.1,0.8,0.2,1.2,1,1.3c0.5,0.1,1,0.3,1.8,0.5c-0.6,0.1-1,0.1-1.4,0.2c-1.1,0.2-1.3,0.5-0.9,1.6	c0.2,0.6,0.5,1.2,0.6,1.9c-1-0.1-1.5-1.1-2.4-1.3c-1-0.2-1.8,0.6-3,0.5C127.8,82.7,127.8,81.3,126.1,79.7z"/><path class="st0" d="M168.1,142.1c0.9-1.7,1.9-2.5,4.1-2.8c5.1-0.6,10.2-1.8,15.2-3.2c5.2-1.5,10.1-3.5,13.8-7.7	c2.5-2.8,3.6-6.1,3.3-9.7c-0.4-5.3-3.2-9.5-7.3-12.8c-6.2-5.1-13.5-6.9-21.3-7.1c-6.8-0.1-13.6,0.7-20.2,2	c-10.7,2.2-21.3,5-32.1,6.8c-4.5,0.7-8.3,0.1-11.4-3.3c-0.6-0.6-1.2-1.3-1.9-1.8c-0.8-0.6-1.3-2-2.4-1.4s-0.4,1.9-0.3,2.8	c1.1,6,2.6,12,5.1,17.6c-2,1.2-3.8,2.5-5.1,4.3c-1,1.3-1.8,2.8-1,4.5c0.7,1.6,2.4,1.7,3.9,2c0.4,0.1,0.8,0,1.2-0.1	c2.5-0.4,4.9-1.2,7.2-2.3c0.4-0.2,0.8-0.6,1.4-0.2c2.9,1.8,6.3,2.3,9.4,3.4c3.2,1,6.4,2.1,9.7,3.2c-0.5,0.8-0.9,1.5-1.3,2.2	c-2.3,4.1-4.5,8.3-5.4,13.1c-1.1,6.1,3.7,11.7,9.5,11.2c2.5-0.2,4.7-1.2,6.8-2.5C156.9,155.8,163.7,150.2,168.1,142.1z M197.5,109.2	c1.6,0.1,1.9,2,3.1,3.2c-4.1,0.4-7.8,0.7-11.4,1.1c-3.1,0.3-6.2,0.5-9.3,0.3c-0.4,0-0.8-0.1-1.2-0.2c-0.8-0.3-1-0.8-0.2-1.5	c0.7-0.6,1.5-0.9,2.3-1.2C186.2,109.2,191.8,109,197.5,109.2z M111,130.9c-1.3,0.1-2.8,0.2-3.4-1.2c-0.6-1.3,0.4-2.5,1.2-3.4	c3.6-3.8,8.1-6,13-6.6c1.8,0.2,3.5-0.1,4.2,1.7c0.7,1.8-0.6,2.9-1.8,3.9C120.3,128.3,115.9,130.4,111,130.9z M121.4,128.6	c1.6-1,3.1-2,4.3-3.4c1.1-1.3,2.1-2.6,1.2-4.4c-0.8-1.7-2.4-2-3.9-2.2c-2.9-0.4-5.5,0.6-8.1,1.7c-0.4,0.2-0.8,0.4-1.4,0.6	c-0.5-3-2-5.6-2.6-8.4s-1.2-5.6-1.8-8.8c1.5,1.3,2.8,2.3,4,3.4c2.4,2.2,5.2,2.5,8.3,2.1c11.3-1.5,22.3-4.1,33.4-6.4	c7.1-1.5,14.4-2.4,21.7-2.3c6.8,0.1,13.1,1.8,18.6,6c0.4,0.3,1,0.5,1.2,1.4c-2.5-0.4-4.9-0.2-7.4-0.1c-3,0.2-6,0.7-8.8,1.7	c-0.9,0.3-1.7,0.7-2.5,1.2c-0.8,0.6-1.5,1.2-1.3,2.3s1,1.7,2.1,2c1.7,0.5,3.4,0.3,5,0.2c5.8-0.5,11.5-1.1,17.3-1.7	c2.9,4.5,2.1,11-1.6,14.7c-3.5,3.4-7.9,5.1-12.5,6.4c-5.1,1.5-10.4,2.3-15.6,3.6c-0.2,0.1-0.5,0-0.8,0c0.8-2.3,1.6-4.4,2.3-6.7	c0.9-2.9-0.3-4.6-2.3-6.4c-5.6-4.8-14.9-5.8-21.1-0.5c-3.6,3-6.7,6.4-9,10.4C137.5,134.6,122.5,129.4,121.4,128.6z M148.5,159.2	c-1.6,1-3.3,1.6-5,2.1c-5.7,1.8-9.9-4.5-9.2-8.6c0.5-2.9,1.6-5.6,2.9-8.2c3.5-6.7,7-13.4,13-18.3c3.1-2.6,5.7-3.6,9.8-3.6	c4.3,0.2,8.2,2.2,11.4,5.5c0.3,0.3,0.4,0.6,0.4,1.1c-0.6,4.2-2.2,8.1-4.4,11.8C162.7,148.8,156.1,154.5,148.5,159.2z"/><path class="st0" d="M88.7,127.3c-0.2-0.6-0.7-0.9-1.2-1.3c-1.3-1.1-2.6-2.3-3.9-3.4c-1-0.8-1.3-1.8-1.3-3.1c0-3.2,0.3-6.4-0.3-9.6	c-1-5-3.3-9-8.8-10.1c-0.6-0.1-1.3-0.2-1.9-0.4c-6.1-1.6-12.6-1.4-18.6-3.9c-0.3-0.1-0.7-0.2-1,0.1c-0.4,0.4-0.1,0.8,0.1,1.1	c0.6,1.1,0.9,2.2,1.2,3.4c0.8,3.3,0.6,6.8,0.8,10.2c0.5,8.5,7.9,15.5,16.4,15.1c3.5-0.2,7.1-0.3,10.5-1.8c1.2-0.5,2.1-0.2,3.1,0.6	c1.1,1.1,2.3,2,3.6,2.8C87.7,127.2,88,127.7,88.7,127.3z M79,105.4c2.6,5.1,2,10.2,2.1,15.4c-2-1.4-3.5-3-5.1-4.6	c-0.3-0.2-0.3-0.6-0.1-0.8C77.4,112.3,78.1,108.9,79,105.4z M76.2,102.3c1.8,1.1,2.4,1.1,1.8,3.6c-0.7,2.9-1.3,5.8-2.8,8.7	c-1.6-5.5-3.8-10.4-7.7-14.7C70.7,100.6,73.7,100.7,76.2,102.3z M65.1,99.4c0.8,0.1,1.4,0.8,1.9,1.4c3.5,3.9,5.6,8.5,7.1,13.5	c-5.1-6.1-10.6-11.7-17.5-16C59.5,98.9,62.3,99.1,65.1,99.4z M53.4,97.5c5.6,3.5,10.8,6.9,14.8,11.9c-0.8,0.1-1.2-0.3-1.6-0.6	c-3.3-1.9-6.9-3.1-10.6-4c-0.8-0.2-1.3-0.5-1.3-1.5C54.5,101.6,54.1,99.7,53.4,97.5z M56,113.8c-1-2.6-1.1-5.4-1.2-8.3	c9,1.6,16.3,5.8,21.8,13c-2.5-0.7-5.1-1.5-7.8-1.8c-3-0.3-6.1-0.6-9.1-0.6C57.1,116.2,56.9,116,56,113.8z M74,123.5	c-3.3,0.2-6.7,0.6-9.9-0.8c-2.6-1.2-4.6-2.9-6.3-5.6c8,1.1,16.2-0.2,23.4,4.9C78.6,122.8,76.3,123.3,74,123.5z"/><path class="st0" d="M81.4,91.7c0.6,3.5,2.8,6.5,2.6,10.4c1.1-0.5,1.2-1.2,1.2-1.9c-0.1-1.3,0.6-1.8,1.7-2.1	c1.8-0.4,3.5-0.3,5.3-0.1c2.5,0.4,5,0.7,7.5,0.4c4.2-0.6,6.6-3.6,8.3-7.1c2.6-5.5,3.8-11.4,5.3-17.2c0.3-1.3-0.3-1.9-1.6-1.6	c-4.2,1-8.4,1.2-12.7,1.2c-2,0-4.1,0.2-6.1,0.6C84.3,76.2,79.8,83.1,81.4,91.7z M103.8,94.6c-1.5,1.5-3.2,2.3-5.3,2.3	c-2.2,0-4.4,0-6.5-0.4c-2.4-0.4-4.6-0.2-7,0.9c0.5-3.9,1.6-7.3,4.3-10.2c0.4-0.4,0.7-0.8,1.4-0.8c5.6,0,11,1.3,16.4,2.8	C106.3,91.4,105.2,93.2,103.8,94.6z M107.4,88.4c-5.2-1.5-10.3-2.9-16.2-2.9c3.4-3,7-4.6,10.6-5.8c2.5-0.8,5.2,0.5,7.8,1.6	C109.1,83.7,108.4,86,107.4,88.4z M109.9,80.4c-2-0.7-3.8-1.4-6.2-1.7c2.9-1.2,5.3-2.4,7.9-3.9C110.9,76.8,110.4,78.6,109.9,80.4z M100,75.6c0.2-0.3,0.5-0.4,0.8-0.4c3.2,0.1,6.4-0.3,9.6-0.9c-3.7,2.5-8.1,3.6-12.2,5.7C98.4,78.2,99.2,76.9,100,75.6z M86.8,79.7	c0.1-0.9,0.6-1.6,1.4-2c2.7-1.5,7.5-2.6,10.7-2.3c-0.7,1.7-1.7,3.1-1.8,4.8c0,0.4-0.4,0.5-0.8,0.7c-1.7,0.8-3.4,1.7-4.9,2.8	c-1.5,1.1-2.9,2.4-4.3,4.1C86.7,84.9,86.5,82.3,86.8,79.7z M86.3,88.5c0.1,0.2-0.1,0.5-0.2,0.7c-1,1.8-1.6,3.8-2.1,5.9	c-2.5-3.6-2.1-12.2,1.4-14.9C85.5,83.1,85.5,85.8,86.3,88.5z"/><path class="st0" d="M134.8,88.7c0.3,1.3,1.3,1.9,2.4,2c1.2,0.2,2.4,0.2,3.7,0.2c2.9-0.1,5.8-0.6,8.7-0.9c5.8-0.5,11.7-0.5,17.6-0.4	c5.1,0.2,10.3,0.2,15.4,0.2c2.5,0,4.1-1.3,4.8-3.6c1.4-5.2-2.2-9.7-7.8-9.8c-0.8-3.8-2.2-6.1-5.2-8.5c-6.5-4.9-15.3-3.7-20.1,3	c-0.8,1-1.4,1.4-2.7,1.2c-4-0.7-7.5,0.4-10.4,3.2c-3.7,3.5-3.7,5.7-1.6,9.3c-1.3,0.3-2.5,0.6-3.4,1.4	C135.3,86.7,134.6,87.5,134.8,88.7z M137,87.4c0.8-0.9,2-1.3,3.1-1.5c1.1-0.2,1.3-0.7,0.9-1.6c-0.8-1.7-1.8-3.4-0.6-5.3	c1.6-2.7,3.8-4.5,6.8-5.3c1.3-0.4,2.7-0.6,3.9-0.2c2.1,0.6,3.3-0.1,4.6-1.8c5.5-7,15.1-6.8,20.5,0.3c1.1,1.5,1.7,3.1,1.9,4.9	c0.1,0.9,0.4,1.3,1.5,1.2c3.8-0.4,6.7,2.2,6.6,6.1c0,3.5-1.9,5-5.6,4.7c-7-0.4-13.9-0.9-20.9-0.9c-6.6,0-13.2,0.6-19.8,1.1	c-0.9,0.1-1.7,0.2-2.6-0.2C136.4,88.6,136.3,88.2,137,87.4z"/><path class="st0" d="M223.9,98.6c3.6,0.1,7.3,0.4,10.9,0c2-0.3,4-0.5,4.9-2.7c0.9-2.3-0.5-5-3-6c-0.5-0.2-1.1-0.1-1.5-0.5	c-0.5-4.5-4.1-7.1-8.3-6c-2.2-3.5-5.4-4.8-9.3-4c-4.8,1-7.3,4.5-8.6,9c-4.9-1.9-8.6,0.1-9.1,5c-1.4,0.2-2.8,0.3-3.9,1.4	c-1,1-0.8,2.1,0.3,2.8c0.5,0.3,1.1,0.5,1.6,0.6c1.7,0.4,3.5,0.4,5.2,0.4C210.2,98.8,217.1,98.3,223.9,98.6z M203.7,97.4	c-1.8,0-3.6-0.1-5.4-0.5c-0.6-0.1-1.2-0.2-1.6-0.9c0.9-1.2,2.1-1.6,3.5-1.4c0.9,0.1,1.3-0.2,1.1-1.1c-0.4-1.7,0.2-2.9,1.5-3.8	c1.6-1,3.2-1.6,5.1-0.7c0.2,0.1,0.5,0.3,0.7,0.4c0.9,0.6,1.4,0.4,1.6-0.7c0.5-2.8,2.3-4.8,4.4-6.6c3.9-3.3,10.2-1.4,11.7,2.5	c0,0.1,0.2,0.2,0.3,0.4c3.3-2.1,7.3,0.1,7.5,4c0.1,1,0.4,1.6,1.5,1.6c1.4,0.1,2.5,0.8,3.1,2.1c0.8,1.7,0.3,3.2-1.5,3.9	c-1.3,0.5-2.6,0.7-4,0.7c-4.4,0-8.7-0.1-13.1-0.2C214.7,97,209.2,97.6,203.7,97.4z"/><path class="st0" d="M101.7,159.2c0,1-0.4,2.4,0.9,2.8c1.2,0.4,1.9-0.8,2.5-1.6c1.5-1.7,2.8-3.5,4.2-5.2c2.4,1.3,4.4,2.9,6.8,4	c0.5,0.2,1,0.5,1.4,0.1c0.5-0.4,0.3-1,0.1-1.6c-0.7-1.9-1.3-3.8-2.1-5.7c-0.3-0.8-0.2-1.3,0.3-1.9c1.2-1.3,2.5-2.6,3.7-3.9	c0.4-0.4,0.9-1,0.6-1.6c-0.4-0.7-1.1-0.5-1.7-0.4c-2,0.3-4,0.7-6,1.1c-1.2-2.4-2.5-4.8-4.7-6.8c-1.3,1.9-1.7,3.9-1.9,5.8	c-0.1,1.1-0.5,1.3-1.5,1.4c-2,0.1-4.1-0.2-6.1,0.3c-1.4,0.4-1.7,1-0.7,2.1c1.2,1.4,2.6,2.4,4,3.5c0.6,0.4,0.8,0.8,0.7,1.6	C102.1,155.1,101.6,157.1,101.7,159.2z M98.6,147.2c0.5-0.6,1.2-0.3,1.7-0.4c0.5-0.1,1,0,1.5,0c5.9-0.4,4.8,0,6-4.9	c0-0.2,0.1-0.4,0.3-0.8c1,1.4,1.9,2.6,2.6,3.9c0.7,1.3,1.5,1.7,2.9,1.3c1.5-0.5,3-0.7,5-1.2c-1.4,1.4-2.4,2.6-3.6,3.7	c-1.2,1.1-1.5,2.3-0.7,3.8c0.9,1.6,1.5,3.4,2,5.2c-1.8-1.1-3.7-2.2-5.5-3.5c-1.1-0.8-1.9-0.7-2.8,0.3c-1.2,1.4-2.5,2.8-3.7,4.3	c-0.4,0.4-0.6,0.9-1.3,1.2c-0.2-2.4,0.4-4.7,0.7-7c0.2-1.2-0.2-1.9-1.1-2.5C101.3,149.7,99.9,148.6,98.6,147.2z"/><path class="st0" d="M214.6,141.7c2-0.7,4-1.4,6-2.2c1.3,2.2,2.2,4.5,3.6,6.5c0.3,0.4,0.6,0.9,1.1,0.8c0.6-0.1,0.8-0.7,0.9-1.2	c0.4-1.9,0.8-3.8,1.1-5.7c0.1-0.8,0.5-1.2,1.2-1.4c1.6-0.4,3.3-0.9,4.9-1.4c0.5-0.2,1.2-0.3,1.2-1c0.1-0.8-0.7-0.9-1.2-1.1	c-1.8-0.7-3.6-1.3-5.5-2c0.1-2.6,0.3-5.1-0.5-7.9c-2,0.9-3.3,2.4-4.4,3.8c-0.6,0.8-1,0.9-1.9,0.4c-1.7-0.9-3.2-2.2-5.1-2.8	c-1.4-0.4-1.8,0-1.6,1.4c0.3,1.7,0.9,3.3,1.6,4.8c0.3,0.6,0.3,1-0.2,1.6c-1.2,1.5-2.6,2.9-3.6,4.6c-0.5,0.8-1.5,1.7-0.7,2.7	C212.5,142.6,213.7,142,214.6,141.7z M217.1,135.3c0.8-0.9,0.8-1.6,0.3-2.6c-0.7-1.6-1.4-3.2-1.8-4.9c0.7-0.2,1.1,0.3,1.6,0.6	c0.4,0.2,0.8,0.5,1.3,0.7c5,2.5,3.9,2.3,7.3-1.1c0.1-0.1,0.3-0.2,0.6-0.5c0.1,1.6,0.3,3.1,0.2,4.5c-0.1,1.4,0.4,2.1,1.8,2.5	c1.4,0.3,2.8,0.9,4.6,1.5c-1.8,0.5-3.2,0.9-4.7,1.3c-1.5,0.4-2.3,1.1-2.4,2.8c-0.1,1.8-0.4,3.5-0.9,5.3c-0.9-1.8-1.9-3.6-2.8-5.5	c-0.5-1.2-1.3-1.5-2.4-1.1c-1.7,0.6-3.4,1.1-5.1,1.7c-0.5,0.2-0.9,0.5-1.6,0.4C214.1,138.6,215.7,137,217.1,135.3z"/><path class="st0" d="M232.8,105.2c-0.7,0.4-1.4,1-2,1.6c-0.5-0.7-0.9-1.5-1.4-2.2c-0.4-0.6-1-1.1-1.8-0.9c-0.8,0.2-1.2,0.9-1.3,1.7	c-0.3,2.6,0.1,5.1,1.2,7.5c0.6,1.3,1.5,1.5,2.5,0.5c1.5-1.5,2.9-3,3.9-4.9c0.4-0.7,0.7-1.4,0.8-2.1	C234.7,105.2,233.9,104.6,232.8,105.2z"/><path class="st0" d="M97.5,135.8c0.1-1.3-0.7-1.9-1.8-1.2c-0.7,0.4-1.4,1-2,1.6c-0.5-0.7-0.9-1.5-1.4-2.2c-0.4-0.6-1-1.1-1.8-0.9	c-0.8,0.2-1.2,0.9-1.3,1.7c-0.3,2.6,0.1,5.1,1.2,7.5c0.6,1.3,1.5,1.5,2.5,0.5c1.5-1.5,2.9-3,3.9-4.9	C97.1,137.3,97.5,136.6,97.5,135.8z"/><path class="st0" d="M205,72.4c-2.6,0.3-7.4,4.7-8,7.2c-0.6,2.3,0.8,4.1,2.7,4.1c2.2,0,3.3-1,4.1-2.4c1.5-2.3,1.8-4.9,2.5-7.5	C206.6,73.1,206.2,72.3,205,72.4z M202.1,81.3c-0.8,1.2-2,1.6-2.9,0.9c-1.1-0.9-0.6-1.9,0-2.9c1.4-2.1,3.4-3.5,5.7-5	C204.1,76.9,203.5,79.3,202.1,81.3z"/><path class="st0" d="M195,170.6c2.2,0,3.3-1,4.1-2.4c1.5-2.3,1.8-4.9,2.5-7.5c0.2-0.9-0.2-1.7-1.3-1.5c-2.6,0.3-7.4,4.7-8,7.2	C191.7,168.8,193.1,170.6,195,170.6z M194.5,166.1c1.4-2.1,3.4-3.5,5.7-5c-0.9,2.6-1.5,4.9-2.9,7c-0.8,1.2-2,1.6-2.9,0.9	C193.4,168.1,193.9,167,194.5,166.1z"/><path class="st0" d="M114,97.4c-0.4,0.8,0.1,1.5,0.8,2c2.3,1.6,4.9,2.5,7.6,3c1.4,0.3,2.1-0.5,1.8-2c-0.4-1.7-1.3-3.2-2.4-4.5	c-0.4-0.5-1-0.7-1.7-0.5c-0.7,0.2-0.9,0.7-1,1.4c0,0.4,0,0.8,0,1.4c-1.2-0.6-2-1.2-3.1-1.4C115.2,96.7,114.4,96.5,114,97.4z"/><path class="st0" d="M242,119.2c-0.4-1.7-1.3-3.2-2.4-4.5c-0.4-0.5-1-0.7-1.7-0.5c-0.7,0.2-0.9,0.7-1,1.4c0,0.4,0,0.8,0,1.4	c-1.2-0.6-2-1.2-3.1-1.4c-0.8-0.1-1.6-0.3-2,0.6c-0.4,0.8,0.1,1.5,0.8,2c2.3,1.6,4.9,2.5,7.6,3C241.7,121.5,242.3,120.7,242,119.2z"/><path class="st0" d="M219.3,109.7c-2,0.8-3.5,2.3-4.9,3.8c-0.8,0.9-1.3,2-1.4,3.2c-0.2,1.8,1.2,3.6,2.7,3.5c0.6-0.1,1.2-0.3,1.7-0.8	c2.4-2.4,3-5.6,3.4-8.7C220.9,109.8,220.3,109.3,219.3,109.7z M217.4,117.3c-0.5,0.8-1.1,1.8-2.1,1.3c-1.1-0.6-0.6-1.8-0.1-2.7	c1-1.7,2.5-3,4.2-4.8C218.9,113.5,218.5,115.5,217.4,117.3z"/><path class="st0" d="M199.8,63.5c-2.7,0.8-5.4,1.9-6.8,4.8c-0.7,1.5-0.4,3.2,0.6,3.9c1.4,0.9,2.6,0.2,3.6-0.7	c2.1-1.9,2.5-4.7,3.1-7.3C200.3,64.1,200.2,63.8,199.8,63.5z M197.3,69.9c-0.8,1.3-2.3,2-3,1.5c-0.8-0.5-0.6-2.1,0.4-3.3	c1.1-1.4,2.5-2.4,4.3-3.1C198.5,66.8,198.2,68.5,197.3,69.9z"/><path class="st0" d="M146.3,66.3c1.4,0.9,2.6,0.2,3.6-0.7c2.1-1.9,2.5-4.7,3.1-7.3c0.1-0.2,0-0.5-0.5-0.8c-2.7,0.8-5.4,1.9-6.8,4.8	C144.9,63.8,145.2,65.6,146.3,66.3z M147.4,62.1c1.1-1.4,2.5-2.4,4.3-3.1c-0.5,1.9-0.8,3.5-1.7,5c-0.8,1.3-2.3,2-3,1.5	C146.2,64.9,146.4,63.3,147.4,62.1z"/><path class="st0" d="M140.5,100.9c2.1-1.9,2.5-4.7,3.1-7.3c0.1-0.2,0-0.5-0.5-0.8c-2.7,0.8-5.4,1.9-6.8,4.8	c-0.7,1.5-0.4,3.2,0.6,3.9C138.3,102.5,139.5,101.7,140.5,100.9z M138,97.4c1.1-1.4,2.5-2.4,4.3-3.1c-0.5,1.9-0.8,3.5-1.7,5	c-0.8,1.3-2.3,2-3,1.5C136.9,100.2,137,98.6,138,97.4z"/><path class="st0" d="M99.9,121.2c0,1,0.6,1.5,1.6,1.7c1-0.1,1.7-0.6,1.7-1.6s-0.7-1.6-1.7-1.6S99.9,120.2,99.9,121.2z"/><path class="st0" d="M119.6,91.7c0-0.8-0.6-1.2-1.5-1.2c-0.8,0.1-1.3,0.5-1.4,1.4c0,0.9,0.6,1.3,1.3,1.3	C118.9,93.2,119.6,92.7,119.6,91.7z"/><path class="st0" d="M244.9,106.7c0.9,0,1.6-0.5,1.6-1.5c0-0.8-0.6-1.2-1.5-1.2c-0.8,0.1-1.3,0.5-1.4,1.4	C243.6,106.3,244.2,106.7,244.9,106.7z"/><path class="st0" d="M100.2,113.2c-0.8,0.1-1.1,0.6-1.1,1.4c0,0.7,0.5,1.1,1.2,1.1c0.7,0,1.1-0.5,1.1-1.2	C101.4,113.7,101,113.3,100.2,113.2z"/><path class="st0" d="M189.3,93.4c-0.2-0.6-0.5-1.1-1.3-1.1c-0.6,0-1.1,0.3-1.1,0.9c0,0.8,0.4,1.2,1.2,1.2	C188.7,94.5,189.1,94.1,189.3,93.4z"/><path class="st0" d="M246.5,115.1c0,0.8,0.4,1.2,1.2,1.2c0.6,0,1-0.3,1.2-1.1c-0.2-0.6-0.5-1.1-1.3-1.1	C247,114.1,246.5,114.4,246.5,115.1z"/><path class="st0" d="M207.4,111.4c0.6-0.1,1-0.4,0.9-1c-0.1-0.6-0.4-1.1-1.1-1c-0.6,0.1-0.9,0.5-0.8,1.1	C206.6,111.1,206.8,111.5,207.4,111.4z"/><path class="st0" d="M215,72.2c0,0.5,0.3,0.8,0.9,0.8c0.5-0.1,0.9-0.5,0.9-1s-0.3-0.8-0.9-0.8C215.3,71.2,215,71.6,215,72.2z"/><path class="st0" d="M166.5,116.9c2.3,0.2,5-1.4,4.8-4.4c0.1-2.4-1.5-4.3-3.9-4.5c-2.4-0.2-5.2,2.1-5.3,4.3	C161.9,114.3,164.3,116.6,166.5,116.9z M167.6,109.2c1.9,0.1,2.6,0.9,2.5,2.8c-0.2,2.5-1.2,3.8-3.1,3.6c-1.8-0.1-3.5-1.9-3.4-3.5	C163.6,110.5,165.6,109.1,167.6,109.2z"/><path class="st0" d="M144.3,115.1c0-2.5-1.8-4.1-4.6-4.2c-2.5,0-4.5,1.8-4.5,4c0,2.1,2.1,3.9,4.6,4	C142.2,119,144.2,117.3,144.3,115.1z M140.2,117.7c-1.7,0-3.6-1.4-3.6-2.9c-0.1-1.5,1.9-3.2,3.5-3.2c1.2,0,2.9,2.1,2.9,3.5	S141.8,117.7,140.2,117.7z"/><path class="st0" d="M153.1,116.5c2.5,0,4.3-1.5,4.3-3.8c0-2.5-1.4-3.9-4-3.9c-2.5,0-4.2,1.5-4.3,3.8	C149.1,114.8,150.8,116.5,153.1,116.5z M154,109.8c1.2,0.1,2.2,1.4,2.2,3c0,1.5-1.1,2.5-2.7,2.5s-2.9-1.3-2.9-2.8	C150.7,111,152.3,109.7,154,109.8z"/><path class="st0" d="M183.9,128.5c0.7,0,1.1-0.4,1.2-1.1c-0.1-0.5-0.3-1-0.9-1c-0.7,0-1.2,0.5-1.4,1.2	C182.8,128.2,183.3,128.5,183.9,128.5z"/><path class="st0" d="M93.4,94.4c0.6-0.2,1.3-0.4,1.5-1.2c-0.1-0.5-0.4-0.8-0.9-0.9c-0.9-0.2-1.6,0.2-2.1,1c-0.2,0.4-0.4,0.9,0,1.2	C92.5,95,93,94.6,93.4,94.4z"/><path class="st0" d="M185.4,143.8c-0.8,0.6-0.8,1.2-0.7,1.7c0.3,1-0.2,1.6-1.1,2c-1.4,0.6-2.8,0.8-4.3,0.8c-2.1,0-4.1,0.2-6.1,0.8	c-3.3,1.1-4.8,3.9-5.7,7c-1.3,4.8-1.4,9.8-1.7,14.7c-0.1,1.1,0.5,1.5,1.5,1.1c3.2-1.4,6.6-2.3,10.1-2.9c1.7-0.3,3.3-0.8,4.8-1.4	c6.7-2.8,9.3-9,6.7-15.8C188,149.1,185.8,147,185.4,143.8z M170.4,152.8c1-1.4,2.2-2.3,3.9-2.7c1.8-0.4,3.6-0.6,5.4-0.6	c2,0,3.8-0.6,5.5-1.7c0.2,3.2-0.2,6.2-1.9,8.9c-0.3,0.4-0.5,0.8-1,0.9c-4.5,0.9-9.1,0.6-13.7,0.2	C168.9,155.8,169.5,154.2,170.4,152.8z M168.4,158.4c4.4,0.5,8.8,0.8,13.5-0.1c-2.3,2.9-5,4.8-7.7,6.3c-1.9,1.1-4.3,0.3-6.5-0.1	C167.8,162.4,168,160.5,168.4,158.4z M167.1,170c0.2-1.7,0.3-3.2,0.5-4.8c1.7,0.3,3.3,0.6,5.3,0.4C170.8,167,169,168.4,167.1,170z M176.4,167.6c-0.1,0.3-0.3,0.4-0.6,0.4c-2.6,0.4-5.1,1.2-7.6,2.2c2.6-2.6,6-4.1,9-6.4C177.2,165.3,176.8,166.5,176.4,167.6z M185.6,164.2c-1.9,1.6-5.7,3.2-8.3,3.5c0.3-1.5,0.9-2.7,0.8-4.2c0-0.3,0.3-0.5,0.5-0.6c1.3-0.9,2.5-1.9,3.5-3	c1.1-1.1,2-2.4,2.8-3.9c0.8,2.2,1.4,4.2,1.5,6.4C186.5,163.1,186.2,163.7,185.6,164.2z M187.4,161.7c-0.5-2.3-0.9-4.5-1.9-6.6	c-0.1-0.2,0-0.4,0-0.6c0.6-1.6,0.7-3.3,0.8-5.1C188.9,152,189.9,159,187.4,161.7z"/><path class="st0" d="M182.8,162.8c-0.5-0.3-0.8,0.1-1.1,0.3c-0.4,0.3-1,0.5-1.1,1.2c0.1,0.4,0.4,0.6,0.8,0.6c0.8,0,1.3-0.4,1.5-1.1	C183.1,163.4,183.2,163,182.8,162.8z"/><path class="st0" d="M150.8,81c0.6-0.1,1-0.4,1.1-1c0-0.5-0.2-0.8-0.7-0.8c-0.6,0-1.1,0.2-1.2,0.9C150,80.6,150.2,80.9,150.8,81z"/><path class="st0" d="M40.1,88c1.2,0.4,2.5,0.7,3.7,1.1c0,1.5-0.1,2.9,0,4.3c0,0.6-0.1,1.4,0.7,1.7c0.8,0.2,1.4-0.3,1.7-1	c1.4-3,3.6-4.3,7-3.9c1.5,0.2,1.8-0.7,0.9-2.1c-0.7-1.2-1.9-2-2.9-3c0.8-0.8,1.5-1.5,2.2-2.2c0.4-0.5,1-1,0.5-1.7	c-0.4-0.6-1.1-0.4-1.7-0.2c-1.4,0.4-2.8,0.7-4.2,1.1c-0.7-1.3-1.4-2.7-2.5-3.7c-0.3,0-0.6,0.1-0.9,0.1c-0.8,1.7-0.6,3.6-0.5,5.4	c-1.5,0.7-2.9,1.3-4.3,2c-0.5,0.2-0.9,0.5-0.9,1.1C39,87.6,39.6,87.8,40.1,88z M45.1,80.5c1.1,0.7,1.4,1.4,1.7,2	c0.6,1.1,1.4,1.3,2.5,0.8c0.8-0.4,1.6-0.6,2.8-1c-0.8,0.7-1.3,1.1-1.7,1.6c-1.4,1.3-1.3,1.8,0.2,2.9c0.8,0.6,1.7,1.1,2.5,2	c-1.5,0.7-3,0-4.4,0.5c-1.5,0.6-1.8,2.4-3.5,3.4c1.1-3.7-0.2-5.6-3.9-6C44.2,85.7,46,84,45.1,80.5z"/><path class="st0" d="M13.6,87.1c0.9-1.7,1.9-2.5,4.1-2.8c5.1-0.6,10.2-1.8,15.2-3.2c5.2-1.5,10.1-3.5,13.8-7.7	c2.5-2.8,3.6-6.1,3.3-9.7c-0.4-5.3-3.2-9.5-7.3-12.8c-6.2-5.1-13.5-6.9-21.3-7.1c-6.8-0.1-13.6,0.7-20.2,2C0.8,45.9,0.4,46,0.1,46v2	c0.2,0,0.3-0.1,0.5-0.1c7.1-1.5,14.4-2.4,21.7-2.3c6.8,0.1,13.1,1.8,18.6,6c0.4,0.3,1,0.5,1.2,1.4c-2.5-0.4-4.9-0.2-7.4-0.1	c-3,0.2-6,0.7-8.8,1.7c-0.9,0.3-1.7,0.7-2.5,1.2c-0.8,0.6-1.5,1.2-1.3,2.3c0.2,1.1,1,1.7,2.1,2c1.7,0.5,3.4,0.3,5,0.2	c5.8-0.5,11.5-1.1,17.3-1.7c2.9,4.5,2.1,11-1.6,14.7c-3.5,3.4-7.9,5.1-12.5,6.4C27.3,81.2,22,82,16.8,83.3c-0.2,0.1-0.5,0-0.8,0	c0.8-2.3,1.6-4.4,2.3-6.7c0.9-2.9-0.3-4.6-2.3-6.4c-4.2-3.6-10.4-5-15.8-3.4v1.8c1.6-0.7,3.4-1,5.5-1c4.3,0.2,8.2,2.2,11.4,5.5	c0.3,0.3,0.4,0.6,0.4,1.1c-0.6,4.2-2.2,8.1-4.4,11.8c-3.6,5.7-8,10.2-13.1,14.1v1.8C5.5,97.9,10.2,93.3,13.6,87.1z M34.6,58.5	c-3.1,0.3-6.2,0.5-9.3,0.3c-0.4,0-0.8-0.1-1.2-0.2c-0.8-0.3-1-0.8-0.2-1.5c0.7-0.6,1.5-0.9,2.3-1.2c5.5-1.8,11.1-2,16.8-1.8	c1.6,0.1,1.9,2,3.1,3.2C42,57.8,38.3,58.1,34.6,58.5z"/><path class="st0" d="M12.7,34.7c5.1,0.2,10.3,0.2,15.4,0.2c2.5,0,4.1-1.3,4.8-3.6c1.4-5.2-2.2-9.7-7.8-9.8c-0.8-3.8-2.2-6.1-5.2-8.5	C13.5,8.1,4.9,9.3,0,15.7v2.2c0.4-0.3,0.8-0.7,1.2-1.3c5.5-7,15.1-6.8,20.5,0.3c1.1,1.5,1.7,3.1,1.9,4.9c0.1,0.9,0.4,1.3,1.5,1.2	c3.8-0.4,6.7,2.2,6.6,6.1c0,3.5-1.9,5-5.6,4.7c-7-0.4-13.9-0.9-20.9-0.9c-1.7,0-3.5,0-5.2,0.1v1.6C4.2,34.5,8.5,34.5,12.7,34.7z"/><path class="st0" d="M69.4,43.6c3.6,0.1,7.3,0.4,10.9,0c2-0.3,4-0.5,4.9-2.7c0.9-2.3-0.5-5-3-6c-0.5-0.2-1.1-0.1-1.5-0.5	c-0.5-4.5-4.1-7.1-8.3-6c-2.2-3.5-5.4-4.8-9.3-4c-4.8,1-7.3,4.5-8.6,9c-4.9-1.9-8.6,0.1-9.1,5c-1.4,0.2-2.8,0.3-3.9,1.4	c-1,1-0.8,2.1,0.3,2.8c0.5,0.3,1.1,0.5,1.6,0.6c1.7,0.4,3.5,0.4,5.2,0.4C55.7,43.8,62.6,43.3,69.4,43.6z M49.2,42.4	c-1.8,0-3.6-0.1-5.4-0.5c-0.6-0.1-1.2-0.2-1.6-0.9c0.9-1.2,2.1-1.6,3.5-1.4c0.9,0.1,1.3-0.2,1.1-1.1c-0.4-1.7,0.2-2.9,1.5-3.8	c1.6-1,3.2-1.6,5.1-0.7c0.2,0.1,0.5,0.3,0.7,0.4c0.9,0.6,1.4,0.4,1.6-0.7c0.5-2.8,2.3-4.8,4.4-6.6c3.9-3.3,10.2-1.4,11.7,2.5	c0,0.1,0.2,0.2,0.3,0.4c3.3-2.1,7.3,0.1,7.5,4c0.1,1,0.4,1.6,1.5,1.6c1.4,0.1,2.5,0.8,3.1,2.1c0.8,1.7,0.3,3.2-1.5,3.9	c-1.3,0.5-2.6,0.7-4,0.7c-4.4,0-8.7-0.1-13.1-0.2C60.2,42,54.7,42.6,49.2,42.4z"/><path class="st0" d="M57.2,86.7c0.8,0.9,1.9,0.2,2.8-0.1c2-0.7,4-1.4,6-2.2c1.3,2.2,2.2,4.5,3.6,6.5c0.3,0.4,0.6,0.9,1.1,0.8	c0.6-0.1,0.8-0.7,0.9-1.2c0.4-1.9,0.8-3.8,1.1-5.7c0.1-0.8,0.5-1.2,1.2-1.4c1.6-0.4,3.3-0.9,4.9-1.4c0.5-0.2,1.2-0.3,1.2-1	c0.1-0.8-0.7-0.9-1.2-1.1c-1.8-0.7-3.6-1.3-5.5-2c0.1-2.6,0.3-5.1-0.5-7.9c-2,0.9-3.3,2.4-4.4,3.8c-0.6,0.8-1,0.9-1.9,0.4	c-1.7-0.9-3.2-2.2-5.1-2.8c-1.4-0.4-1.8,0-1.6,1.4c0.3,1.7,0.9,3.3,1.6,4.8c0.3,0.6,0.3,1-0.2,1.6c-1.2,1.5-2.6,2.9-3.6,4.6	C57.4,84.8,56.4,85.7,57.2,86.7z M62.6,80.3c0.8-0.9,0.8-1.6,0.3-2.6c-0.7-1.6-1.4-3.2-1.8-4.9c0.7-0.2,1.1,0.3,1.6,0.6	c0.4,0.2,0.8,0.5,1.3,0.7c5,2.5,3.9,2.3,7.3-1.1c0.1-0.1,0.3-0.2,0.6-0.5c0.1,1.6,0.3,3.1,0.2,4.5s0.4,2.1,1.8,2.5	c1.4,0.3,2.8,0.9,4.6,1.5c-1.8,0.5-3.2,0.9-4.7,1.3c-1.5,0.4-2.3,1.1-2.4,2.8c-0.1,1.8-0.4,3.5-0.9,5.3c-0.9-1.8-1.9-3.6-2.8-5.5	c-0.5-1.2-1.3-1.5-2.4-1.1c-1.7,0.6-3.4,1.1-5.1,1.7c-0.5,0.2-0.9,0.5-1.6,0.4C59.6,83.6,61.2,82,62.6,80.3z"/><path class="st0" d="M75.4,58.5c1.5-1.5,2.9-3,3.9-4.9c0.4-0.7,0.7-1.4,0.8-2.1c0.1-1.3-0.7-1.9-1.8-1.2c-0.7,0.4-1.4,1-2,1.6	c-0.5-0.7-0.9-1.5-1.4-2.2c-0.4-0.6-1-1.1-1.8-0.9c-0.8,0.2-1.2,0.9-1.3,1.7c-0.3,2.6,0.1,5.1,1.2,7.5	C73.5,59.3,74.4,59.5,75.4,58.5z"/><path class="st0" d="M42.5,24.7c-0.6,2.3,0.8,4.1,2.7,4.1c2.2,0,3.3-1,4.1-2.4c1.5-2.3,1.8-4.9,2.5-7.5c0.2-0.9-0.2-1.7-1.3-1.5	C47.9,17.8,43.1,22.1,42.5,24.7z M50.5,19.3c-0.9,2.6-1.5,4.9-2.9,7c-0.8,1.2-2,1.6-2.9,0.9c-1.1-0.9-0.6-1.9,0-2.9	C46.1,22.3,48.1,20.8,50.5,19.3z"/><path class="st0" d="M40.5,115.6c2.2,0,3.3-1,4.1-2.4c1.5-2.3,1.8-4.9,2.5-7.5c0.2-0.9-0.2-1.7-1.3-1.5c-2.6,0.3-7.4,4.7-8,7.2	C37.2,113.8,38.6,115.6,40.5,115.6z M40,111.1c1.4-2.1,3.4-3.5,5.7-5c-0.9,2.6-1.5,4.9-2.9,7c-0.8,1.2-2,1.6-2.9,0.9	C38.9,113.1,39.4,112,40,111.1z"/><path class="st0" d="M83.5,59.2c-0.7,0.2-0.9,0.7-1,1.4c0,0.4,0,0.8,0,1.4c-1.2-0.6-2-1.2-3.1-1.4c-0.8-0.1-1.6-0.3-2,0.6	c-0.4,0.8,0.1,1.5,0.8,2c2.3,1.6,4.9,2.5,7.6,3c1.4,0.3,2.1-0.5,1.8-2c-0.4-1.7-1.3-3.2-2.4-4.5C84.7,59.2,84.1,59,83.5,59.2z"/><path class="st0" d="M62.8,64.4c2.4-2.4,3-5.6,3.4-8.7c0.1-0.9-0.5-1.4-1.5-0.9c-2,0.8-3.5,2.3-4.9,3.8c-0.8,0.9-1.3,2-1.4,3.2	c-0.2,1.8,1.2,3.6,2.7,3.5C61.7,65.1,62.4,64.8,62.8,64.4z M60.7,60.8c1-1.7,2.5-3,4.2-4.8c-0.5,2.4-0.9,4.4-2,6.2	c-0.5,0.8-1.1,1.8-2.1,1.3C59.7,62.9,60.2,61.7,60.7,60.8z"/><path class="st0" d="M45.8,9.3c0.1-0.2,0-0.5-0.5-0.8c-2.7,0.8-5.4,1.9-6.8,4.8c-0.7,1.5-0.4,3.2,0.6,3.9c1.4,0.9,2.6,0.2,3.6-0.7	C44.8,14.6,45.2,11.9,45.8,9.3z M39.8,16.4c-0.8-0.5-0.6-2.1,0.4-3.3c1.1-1.4,2.5-2.4,4.3-3.1c-0.5,1.9-0.8,3.5-1.7,5	C42,16.2,40.6,16.9,39.8,16.4z"/><path class="st0" d="M90.4,51.7c0.9,0,1.6-0.5,1.6-1.5c0-0.8-0.6-1.2-1.5-1.2c-0.8,0.1-1.3,0.5-1.4,1.4	C89.1,51.3,89.7,51.7,90.4,51.7z"/><path class="st0" d="M33.5,37.3c-0.6,0-1.1,0.3-1.1,0.9c0,0.8,0.4,1.2,1.2,1.2c0.6,0,1-0.3,1.2-1.1C34.6,37.8,34.2,37.3,33.5,37.3z"/><path class="st0" d="M92,60.1c0,0.8,0.4,1.2,1.2,1.2c0.6,0,1-0.3,1.2-1.1c-0.2-0.6-0.5-1.1-1.3-1.1C92.5,59.1,92,59.4,92,60.1z"/><path class="st0" d="M52,55.5c0.1,0.5,0.3,0.9,0.9,0.9c0.6-0.1,1-0.4,0.9-1c-0.1-0.6-0.4-1.1-1.1-1C52.2,54.5,51.9,55,52,55.5z"/><path class="st0" d="M61.3,18c0.5-0.1,0.9-0.5,0.9-1s-0.3-0.8-0.9-0.8c-0.6,0-0.9,0.4-0.9,1C60.5,17.7,60.8,18,61.3,18z"/><path class="st0" d="M12,61.9c2.3,0.2,5-1.4,4.8-4.4c0.1-2.4-1.5-4.3-3.9-4.5s-5.2,2.1-5.3,4.3C7.4,59.3,9.8,61.6,12,61.9z M13.1,54.2c1.9,0.1,2.6,0.9,2.5,2.8c-0.2,2.5-1.2,3.8-3.1,3.6c-1.8-0.1-3.6-1.9-3.5-3.5C9.1,55.5,11.1,54.1,13.1,54.2z"/><path class="st0" d="M2.9,57.7c0-2.1-1-3.4-2.9-3.8v1c1,0.4,1.7,1.5,1.7,2.9c0,1.2-0.7,2-1.7,2.3v1.2C1.7,60.9,2.9,59.5,2.9,57.7z"/><path class="st0" d="M29.4,73.5c0.7,0,1.1-0.4,1.2-1.1c-0.1-0.5-0.3-1-0.9-1c-0.7,0-1.2,0.5-1.4,1.2C28.3,73.2,28.8,73.5,29.4,73.5z"/><path class="st0" d="M30.9,88.8c-0.8,0.6-0.8,1.2-0.7,1.7c0.3,1-0.2,1.6-1.1,2c-1.4,0.6-2.8,0.8-4.3,0.8c-2.1,0-4.1,0.2-6.1,0.8	c-3.3,1.1-4.8,3.9-5.7,7c-1.3,4.8-1.4,9.8-1.7,14.7c-0.1,1.1,0.5,1.5,1.5,1.1c3.2-1.4,6.6-2.3,10.1-2.9c1.7-0.3,3.3-0.8,4.8-1.4	c6.7-2.8,9.3-9,6.7-15.8C33.5,94.1,31.3,92,30.9,88.8z M15.9,97.8c1-1.4,2.2-2.3,3.9-2.7c1.8-0.4,3.6-0.6,5.4-0.6	c2,0,3.8-0.6,5.5-1.7c0.2,3.2-0.2,6.2-1.9,8.9c-0.3,0.4-0.5,0.8-1,0.9c-4.5,0.9-9.1,0.6-13.7,0.2C14.4,100.8,15,99.2,15.9,97.8z M13.9,103.4c4.4,0.5,8.8,0.8,13.5-0.1c-2.3,2.9-5,4.8-7.7,6.3c-1.9,1.1-4.3,0.3-6.5-0.1C13.3,107.4,13.5,105.5,13.9,103.4z M12.6,115c0.2-1.7,0.3-3.2,0.5-4.8c1.7,0.3,3.3,0.6,5.3,0.4C16.3,112,14.5,113.4,12.6,115z M21.9,112.6c-0.1,0.3-0.3,0.4-0.6,0.4	c-2.6,0.4-5.1,1.2-7.6,2.2c2.6-2.6,6-4.1,9-6.4C22.7,110.3,22.3,111.5,21.9,112.6z M31.1,109.2c-1.9,1.6-5.7,3.2-8.3,3.5	c0.3-1.5,0.9-2.7,0.8-4.2c0-0.3,0.3-0.5,0.5-0.6c1.3-0.9,2.5-1.9,3.5-3c1.1-1.1,2-2.4,2.8-3.9c0.8,2.2,1.4,4.2,1.5,6.4	C32,108.1,31.7,108.7,31.1,109.2z M32.9,106.7c-0.5-2.3-0.9-4.5-1.9-6.6c-0.1-0.2,0-0.4,0-0.6c0.6-1.6,0.7-3.3,0.8-5.1	C34.4,97,35.4,104,32.9,106.7z"/><path class="st0" d="M28.3,107.8c-0.5-0.3-0.8,0.1-1.1,0.3c-0.4,0.3-1,0.5-1.1,1.2c0.1,0.4,0.4,0.6,0.8,0.6c0.8,0,1.3-0.4,1.5-1.1	C28.6,108.4,28.7,108,28.3,107.8z"/><path class="st0" d="M194.6,33c1.2,0.4,2.5,0.7,3.7,1.1c0,1.5-0.1,2.9,0,4.3c0,0.6-0.1,1.4,0.7,1.7c0.8,0.2,1.4-0.3,1.7-1	c1.4-3,3.6-4.3,7-3.9c1.5,0.2,1.8-0.7,0.9-2.1c-0.7-1.2-1.9-2-2.9-3c0.8-0.8,1.5-1.5,2.2-2.2c0.4-0.5,1-1,0.5-1.7	c-0.4-0.6-1.1-0.4-1.7-0.2c-1.4,0.4-2.8,0.7-4.2,1.1c-0.7-1.3-1.4-2.7-2.5-3.7c-0.3,0-0.6,0.1-0.9,0.1c-0.8,1.7-0.6,3.6-0.5,5.4	c-1.5,0.7-2.9,1.3-4.3,2c-0.5,0.2-0.9,0.5-0.9,1.1C193.5,32.6,194.1,32.8,194.6,33z M199.6,25.5c1.1,0.7,1.4,1.4,1.7,2	c0.6,1.1,1.4,1.3,2.5,0.8c0.8-0.4,1.6-0.6,2.8-1c-0.8,0.7-1.3,1.1-1.7,1.6c-1.4,1.3-1.3,1.8,0.2,2.9c0.8,0.6,1.7,1.1,2.5,2	c-1.5,0.7-3,0-4.4,0.5c-1.5,0.6-1.8,2.4-3.5,3.4c1.1-3.7-0.2-5.6-3.9-6C198.7,30.7,200.5,29,199.6,25.5z"/><path class="st0" d="M107.5,15.9c-1,1.3-1.8,2.8-1,4.5c0.7,1.6,2.4,1.7,3.9,2c0.4,0.1,0.8,0,1.2-0.1c2.5-0.4,4.9-1.2,7.2-2.3	c0.4-0.2,0.8-0.6,1.4-0.2c2.9,1.8,6.3,2.3,9.4,3.4c3.2,1,6.4,2.1,9.7,3.2c-0.5,0.8-0.9,1.5-1.3,2.2c-2.3,4.1-4.5,8.3-5.4,13.1	c-1.1,6.1,3.7,11.7,9.5,11.2c2.5-0.2,4.7-1.2,6.8-2.5c7.8-4.5,14.6-10.1,19-18.2c0.9-1.7,1.9-2.5,4.1-2.8c5.1-0.6,10.2-1.8,15.2-3.2	c5.2-1.5,10.1-3.5,13.8-7.7c2.5-2.8,3.6-6.1,3.3-9.7c-0.3-3.3-1.4-6.1-3.2-8.6h-2.3c0.5,0.7,0.9,1.6,1.6,2.3	c-4.1,0.4-7.8,0.7-11.4,1.1c-3.1,0.3-6.2,0.5-9.3,0.3c-0.4,0-0.8-0.1-1.2-0.2c-0.8-0.3-1-0.8-0.2-1.5c0.7-0.6,1.5-0.9,2.3-1.2	c1.1-0.4,2.3-0.6,3.4-0.9h-5.1c-0.4,0.2-0.8,0.4-1.2,0.7c-0.8,0.6-1.5,1.2-1.3,2.3c0.2,1.1,1,1.7,2.1,2c1.7,0.5,3.4,0.3,5,0.2	c5.8-0.5,11.5-1.1,17.3-1.7c2.9,4.5,2.1,11-1.6,14.7c-3.5,3.4-7.9,5.1-12.5,6.4c-5.1,1.5-10.4,2.3-15.6,3.6c-0.2,0.1-0.5,0-0.8,0	c0.8-2.3,1.6-4.4,2.3-6.7c0.9-2.9-0.3-4.6-2.3-6.4c-5.6-4.8-14.9-5.8-21.1-0.5c-3.6,3-6.7,6.4-9,10.4c-2.7-0.6-17.7-5.7-18.8-6.5	c1.6-1,3.1-2,4.3-3.4c1.1-1.3,2.1-2.6,1.2-4.4c-0.8-1.7-2.4-2-3.9-2.2c-2.9-0.4-5.5,0.6-8.1,1.7c-0.4,0.2-0.8,0.4-1.4,0.6	c-0.5-3-2-5.6-2.6-8.4c-0.2-0.8-0.4-1.7-0.5-2.5h-1.6c0.9,3.9,2.1,7.8,3.8,11.5C110.7,12.9,108.9,14.1,107.5,15.9z M150.2,16.3	c3.1-2.6,5.7-3.6,9.8-3.6c4.3,0.2,8.2,2.2,11.4,5.5c0.3,0.3,0.4,0.6,0.4,1.1c-0.6,4.2-2.2,8.1-4.4,11.8	c-4.7,7.7-11.3,13.5-18.9,18.1c-1.6,1-3.3,1.6-5,2.1c-5.7,1.8-9.9-4.5-9.2-8.6c0.5-2.9,1.6-5.6,2.9-8.2	C140.6,27.8,144.2,21.2,150.2,16.3z M121.8,9.7c1.8,0.2,3.5-0.1,4.2,1.7s-0.6,2.9-1.8,3.9c-3.9,3-8.3,5.1-13.3,5.7	c-1.3,0.1-2.8,0.2-3.4-1.2c-0.6-1.3,0.4-2.5,1.2-3.4C112.5,12.5,116.9,10.3,121.8,9.7z"/><path class="st0" d="M70.1,15.4c3.5-0.2,7.1-0.3,10.5-1.8c1.2-0.5,2.1-0.2,3.1,0.6c1.1,1.1,2.3,2,3.6,2.8c0.4,0.2,0.8,0.8,1.4,0.3	c-0.2-0.6-0.7-0.9-1.2-1.3c-1.3-1.1-2.6-2.3-3.9-3.4c-1-0.8-1.3-1.8-1.3-3.1c0-3.1,0.3-6.3-0.3-9.4h-1.4C81.3,3.6,81,7.2,81,10.8	c-2-1.4-3.5-3-5.1-4.6c-0.3-0.2-0.3-0.6-0.1-0.8c0.8-1.7,1.4-3.5,1.9-5.3H77c-0.4,1.5-1,3-1.8,4.5c-0.5-1.5-1-3-1.5-4.5h-1	c0.6,1.4,1.1,2.8,1.5,4.2c-1.2-1.4-2.5-2.8-3.7-4.2h-3.3c3.5,2.1,6.7,4.9,9.3,8.5c-2.5-0.7-5.1-1.5-7.8-1.8c-3-0.3-6.1-0.6-9.1-0.6	c-2.5,0-2.7-0.2-3.6-2.4c-0.5-1.2-0.7-2.4-0.9-3.7h-1.3c0,0.1,0,0.2,0,0.2C54.3,8.8,61.7,15.8,70.1,15.4z M81.2,11.9	c-2.6,0.9-4.8,1.4-7.2,1.5c-3.3,0.2-6.7,0.6-9.9-0.8c-2.6-1.2-4.6-2.9-6.3-5.6C65.7,8.1,73.9,6.9,81.2,11.9z"/><path class="st0" d="M97.7,38c1.2,1.4,2.6,2.4,4,3.5c0.6,0.4,0.8,0.8,0.7,1.6c-0.3,2-0.8,4-0.7,6c0,1-0.4,2.4,0.9,2.8	c1.2,0.4,1.9-0.8,2.5-1.6c1.5-1.7,2.8-3.5,4.2-5.2c2.4,1.3,4.4,2.9,6.8,4c0.5,0.2,1,0.5,1.4,0.1c0.5-0.4,0.3-1,0.1-1.6	c-0.7-1.9-1.3-3.8-2.1-5.7c-0.3-0.8-0.2-1.3,0.3-1.9c1.2-1.3,2.5-2.6,3.7-3.9c0.4-0.4,0.9-1,0.6-1.6c-0.4-0.7-1.1-0.5-1.7-0.4	c-2,0.3-4,0.7-6,1.1c-1.2-2.4-2.5-4.8-4.7-6.8c-1.3,1.9-1.7,3.9-1.9,5.8c-0.1,1.1-0.5,1.3-1.5,1.4c-2,0.1-4.1-0.2-6.1,0.3	C96.9,36.3,96.7,36.9,97.7,38z M100.3,36.9c0.5-0.1,1,0,1.5,0c5.9-0.4,4.8,0,6-4.9c0-0.2,0.1-0.4,0.3-0.8c1,1.4,1.9,2.6,2.6,3.9	c0.7,1.3,1.5,1.7,2.9,1.3c1.5-0.5,3-0.7,5-1.2c-1.4,1.4-2.4,2.6-3.6,3.7c-1.2,1.1-1.5,2.3-0.7,3.8c0.9,1.6,1.5,3.4,2,5.2	c-1.8-1.1-3.7-2.2-5.5-3.5c-1.1-0.8-1.9-0.7-2.8,0.3c-1.2,1.4-2.5,2.8-3.7,4.3c-0.4,0.4-0.6,0.9-1.3,1.2c-0.2-2.4,0.4-4.7,0.7-7	c0.2-1.2-0.2-1.9-1.1-2.5c-1.5-1-3-2.1-4.3-3.5C99.1,36.6,99.8,36.9,100.3,36.9z"/><path class="st0" d="M214.6,31.7c2-0.7,4-1.4,6-2.2c1.3,2.2,2.2,4.5,3.6,6.5c0.3,0.4,0.6,0.9,1.1,0.8c0.6-0.1,0.8-0.7,0.9-1.2	c0.4-1.9,0.8-3.8,1.1-5.7c0.1-0.8,0.5-1.2,1.2-1.4c1.6-0.4,3.3-0.9,4.9-1.4c0.5-0.2,1.2-0.3,1.2-1c0.1-0.8-0.7-0.9-1.2-1.1	c-1.8-0.7-3.6-1.3-5.5-2c0.1-2.6,0.3-5.1-0.5-7.9c-2,0.9-3.3,2.4-4.4,3.8c-0.6,0.8-1,0.9-1.9,0.4c-1.7-0.9-3.2-2.2-5.1-2.8	c-1.4-0.4-1.8,0-1.6,1.4c0.3,1.7,0.9,3.3,1.6,4.8c0.3,0.6,0.3,1-0.2,1.6c-1.2,1.5-2.6,2.9-3.6,4.6c-0.5,0.8-1.5,1.7-0.7,2.7	C212.5,32.6,213.7,32,214.6,31.7z M217.1,25.3c0.8-0.9,0.8-1.6,0.3-2.6c-0.7-1.6-1.4-3.2-1.8-4.9c0.7-0.2,1.1,0.3,1.6,0.6	c0.4,0.2,0.8,0.5,1.3,0.7c5,2.5,3.9,2.3,7.3-1.1c0.1-0.1,0.3-0.2,0.6-0.5c0.1,1.6,0.3,3.1,0.2,4.5c-0.1,1.4,0.4,2.1,1.8,2.5	c1.4,0.3,2.8,0.9,4.6,1.5c-1.8,0.5-3.2,0.9-4.7,1.3c-1.5,0.4-2.3,1.1-2.4,2.8c-0.1,1.8-0.4,3.5-0.9,5.3c-0.9-1.8-1.9-3.6-2.8-5.5	c-0.5-1.2-1.3-1.5-2.4-1.1c-1.7,0.6-3.4,1.1-5.1,1.7c-0.5,0.2-0.9,0.5-1.6,0.4C214.1,28.6,215.7,27,217.1,25.3z"/><path class="st0" d="M229.9,3.5c1.1-1.1,2.1-2.2,2.9-3.4h-6.4c0.2,1,0.5,1.9,0.9,2.9C228,4.3,228.9,4.5,229.9,3.5z"/><path class="st0" d="M92.9,32.8c1.5-1.5,2.9-3,3.9-4.9c0.4-0.7,0.7-1.4,0.8-2.1c0.1-1.3-0.7-1.9-1.8-1.2c-0.7,0.4-1.4,1-2,1.6	c-0.5-0.7-0.9-1.5-1.4-2.2c-0.4-0.6-1-1.1-1.8-0.9c-0.8,0.2-1.2,0.9-1.3,1.7c-0.3,2.6,0.1,5.1,1.2,7.5	C90.9,33.7,91.9,33.9,92.9,32.8z"/><path class="st0" d="M195,60.6c2.2,0,3.3-1,4.1-2.4c1.5-2.3,1.8-4.9,2.5-7.5c0.2-0.9-0.2-1.7-1.3-1.5c-2.6,0.3-7.4,4.7-8,7.2	C191.7,58.8,193.1,60.6,195,60.6z M194.5,56.1c1.4-2.1,3.4-3.5,5.7-5c-0.9,2.6-1.5,4.9-2.9,7c-0.8,1.2-2,1.6-2.9,0.9	C193.4,58.1,193.9,57,194.5,56.1z"/><path class="st0" d="M232.6,8.2c2.3,1.6,4.9,2.5,7.6,3c1.4,0.3,2.1-0.5,1.8-2c-0.4-1.7-1.3-3.2-2.4-4.5c-0.4-0.5-1-0.7-1.7-0.5	c-0.7,0.2-0.9,0.7-1,1.4c0,0.4,0,0.8,0,1.4c-1.2-0.6-2-1.2-3.1-1.4c-0.8-0.1-1.6-0.3-2,0.6C231.5,7.1,232,7.7,232.6,8.2z"/><path class="st0" d="M213,6.6c-0.2,1.8,1.2,3.6,2.7,3.5c0.6-0.1,1.2-0.3,1.7-0.8c2.4-2.4,3-5.6,3.4-8.7c0-0.2,0-0.4,0-0.5h-2.2	c-1.6,0.9-2.9,2.1-4.2,3.4C213.5,4.3,213.1,5.4,213,6.6z M215.2,5.8c1-1.7,2.5-3,4.2-4.8c-0.5,2.4-0.9,4.4-2,6.2	c-0.5,0.8-1.1,1.8-2.1,1.3C214.2,7.9,214.7,6.7,215.2,5.8z"/><path class="st0" d="M99.9,11.2c0,1,0.6,1.5,1.6,1.7c1-0.1,1.7-0.6,1.7-1.6s-0.7-1.6-1.7-1.6S99.9,10.2,99.9,11.2z"/><path class="st0" d="M100.3,5.7c0.7,0,1.1-0.5,1.1-1.2c0-0.8-0.4-1.2-1.2-1.3c-0.8,0.1-1.1,0.6-1.1,1.4C99.2,5.3,99.6,5.7,100.3,5.7	z"/><path class="st0" d="M247.7,6.4c0.6,0,1-0.3,1.2-1.1c-0.2-0.6-0.5-1.1-1.3-1.1c-0.6,0-1.1,0.3-1.1,0.9	C246.5,5.9,246.9,6.3,247.7,6.4z"/><path class="st0" d="M206.5,0.5c0.1,0.5,0.3,0.9,0.9,0.9c0.6-0.1,1-0.4,0.9-1c0-0.1,0-0.2-0.1-0.3h-1.7	C206.5,0.2,206.5,0.4,206.5,0.5z"/><path class="st0" d="M166.5,6.9c2.3,0.2,5-1.4,4.8-4.4c0.1-0.9-0.1-1.7-0.5-2.4h-1.1c0.3,0.4,0.4,1,0.3,1.9	c-0.2,2.5-1.2,3.8-3.1,3.6c-1.8-0.1-3.5-1.9-3.4-3.5c0.1-0.8,0.5-1.5,1.2-2H163c-0.5,0.7-0.9,1.4-0.9,2.1	C161.9,4.3,164.3,6.6,166.5,6.9z"/><path class="st0" d="M139.8,9c2.4,0.1,4.5-1.7,4.5-3.8c0-2.5-1.8-4.1-4.6-4.2c-2.5,0-4.5,1.8-4.5,4C135.1,7.1,137.2,8.9,139.8,9z M140.1,1.6c1.2,0,2.9,2.1,2.9,3.5s-1.2,2.6-2.8,2.6c-1.7,0-3.6-1.4-3.6-2.9C136.6,3.4,138.5,1.6,140.1,1.6z"/><path class="st0" d="M153.1,6.5c2.5,0,4.3-1.5,4.3-3.8c0-1.1-0.3-2-0.8-2.6h-1.7c0.8,0.5,1.3,1.5,1.3,2.7c0,1.5-1.1,2.5-2.7,2.5	s-2.9-1.3-2.9-2.8c0-1,0.8-2,1.9-2.4h-2.4c-0.6,0.6-1,1.5-1,2.5C149.1,4.8,150.8,6.5,153.1,6.5z"/><path class="st0" d="M183.9,18.5c0.7,0,1.1-0.4,1.2-1.1c-0.1-0.5-0.3-1-0.9-1c-0.7,0-1.2,0.5-1.4,1.2	C182.8,18.2,183.3,18.5,183.9,18.5z"/><path class="st0" d="M167.4,61.9c3.2-1.4,6.6-2.3,10.1-2.9c1.7-0.3,3.3-0.8,4.8-1.4c6.7-2.8,9.3-9,6.7-15.8c-1-2.7-3.2-4.9-3.6-8	c-0.8,0.6-0.8,1.2-0.7,1.7c0.3,1-0.2,1.6-1.1,2c-1.4,0.6-2.8,0.8-4.3,0.8c-2.1,0-4.1,0.2-6.1,0.8c-3.3,1.1-4.8,3.9-5.7,7	c-1.3,4.8-1.4,9.8-1.7,14.7C165.8,62,166.4,62.3,167.4,61.9z M176.4,57.6c-0.1,0.3-0.3,0.4-0.6,0.4c-2.6,0.4-5.1,1.2-7.6,2.2	c2.6-2.6,6-4.1,9-6.4C177.2,55.3,176.8,56.5,176.4,57.6z M185.5,44.6c0.6-1.6,0.7-3.3,0.8-5.1c2.5,2.5,3.5,9.5,1.1,12.2	c-0.5-2.3-0.9-4.5-1.9-6.6C185.4,45,185.5,44.7,185.5,44.6z M186.5,52.4c0.1,0.7-0.2,1.3-0.8,1.9c-1.9,1.6-5.7,3.2-8.3,3.5	c0.3-1.5,0.9-2.7,0.8-4.2c0-0.3,0.3-0.5,0.5-0.6c1.3-0.9,2.5-1.9,3.5-3c1.1-1.1,2-2.4,2.8-3.9C185.7,48.2,186.3,50.2,186.5,52.4z M170.4,42.8c1-1.4,2.2-2.3,3.9-2.7c1.8-0.4,3.6-0.6,5.4-0.6c2,0,3.8-0.6,5.5-1.7c0.2,3.2-0.2,6.2-1.9,8.9c-0.3,0.4-0.5,0.8-1,0.9	c-4.5,0.9-9.1,0.6-13.7,0.2C168.9,45.8,169.5,44.2,170.4,42.8z M168.4,48.4c4.4,0.5,8.8,0.8,13.5-0.1c-2.3,2.9-5,4.8-7.7,6.3	c-1.9,1.1-4.3,0.3-6.5-0.1C167.8,52.4,168,50.5,168.4,48.4z M167.6,55.2c1.7,0.3,3.3,0.6,5.3,0.4c-2.2,1.4-3.9,2.7-5.8,4.4	C167.3,58.3,167.5,56.8,167.6,55.2z"/><path class="st0" d="M182.8,52.8c-0.5-0.3-0.8,0.1-1.1,0.3c-0.4,0.3-1,0.5-1.1,1.2c0.1,0.4,0.4,0.6,0.8,0.6c0.8,0,1.3-0.4,1.5-1.1	C183.1,53.4,183.2,53,182.8,52.8z"/><path class="st0" d="M40.5,5.6c2.2,0,3.3-1,4.1-2.4c0.6-1,1-2,1.4-3.1h-1.6c-0.4,1.1-0.9,2.1-1.5,3c-0.8,1.2-2,1.6-2.9,0.9	c-1.1-0.9-0.6-2,0-2.9c0.2-0.4,0.5-0.7,0.8-1h-2.4c-0.3,0.5-0.5,1-0.6,1.4C37.2,3.8,38.6,5.6,40.5,5.6z"/><path class="st0" d="M12.9,6.9c3.2-1.4,6.6-2.3,10.1-2.8c1.7-0.3,3.3-0.8,4.8-1.4c1.6-0.7,2.9-1.5,4-2.5h-1.9	c-2,1.3-4.9,2.4-7.1,2.6c0.2-1,0.5-1.9,0.6-2.7h-0.8c-0.2,0.9-0.5,1.7-0.7,2.5C21.8,2.9,21.6,3,21.3,3c-2.6,0.4-5.1,1.2-7.6,2.2	c2.1-2.1,4.7-3.5,7.2-5.1h-2.4c-0.7,0.1-1.5,0.1-2.3,0h-4.3c-0.2,1.9-0.3,3.8-0.4,5.8C11.3,7,11.9,7.3,12.9,6.9z M13.1,0.2	c1.7,0.3,3.3,0.6,5.3,0.4C16.2,2,14.5,3.3,12.6,5C12.8,3.3,13,1.8,13.1,0.2z"/></svg>